<svg width="90" height="90" viewBox="0 0 90 90" fill="none" xmlns="http://www.w3.org/2000/svg">
<path d="M29.184 58.592L28.0922 60.2677L28.1012 60.2736L28.1102 60.2793L29.184 58.592ZM24.608 53.136L22.7934 53.9769L22.7974 53.9854L24.608 53.136ZM24.608 36.108L26.4187 36.9574L26.4226 36.9489L24.608 36.108ZM29.184 30.652L30.2578 32.3393L30.2668 32.3336L30.2758 32.3277L29.184 30.652ZM42.384 30.652L41.2922 32.3277L41.3069 32.3373L41.3217 32.3466L42.384 30.652ZM47.004 36.108L45.1894 36.9489L45.1934 36.9574L47.004 36.108ZM47.004 53.136L48.8147 53.9855L48.8186 53.9769L47.004 53.136ZM42.384 58.592L43.4578 60.2793L43.4642 60.2752L42.384 58.592ZM40.976 52.74L39.345 51.5825L39.3387 51.5913L39.3326 51.6002L40.976 52.74ZM40.976 36.46L39.3326 37.5998L39.3387 37.6087L39.345 37.6175L40.976 36.46ZM30.592 36.46L28.961 35.3025L28.9547 35.3113L28.9486 35.3202L30.592 36.46ZM30.592 52.74L28.9486 53.8798L28.9547 53.8887L28.961 53.8975L30.592 52.74ZM35.784 58.44C33.6711 58.44 31.849 57.9173 30.2578 56.9047L28.1102 60.2793C30.391 61.7307 32.9689 62.44 35.784 62.44V58.44ZM30.2758 56.9163C28.6923 55.8846 27.3972 54.3725 26.4186 52.2866L22.7974 53.9854C24.0481 56.6515 25.8037 58.7767 28.0922 60.2677L30.2758 56.9163ZM26.4226 52.2951C25.4557 50.2085 24.936 47.6626 24.936 44.6H20.936C20.936 48.108 21.531 51.2528 22.7934 53.9769L26.4226 52.2951ZM24.936 44.6C24.936 41.5364 25.456 39.0094 26.4186 36.9574L22.7974 35.2586C21.5307 37.9586 20.936 41.0929 20.936 44.6H24.936ZM26.4226 36.9489C27.4019 34.8357 28.6923 33.3355 30.2578 32.3393L28.1102 28.9647C25.8037 30.4325 24.0434 32.5697 22.7934 35.2671L26.4226 36.9489ZM30.2758 32.3277C31.8651 31.2923 33.6807 30.76 35.784 30.76V26.76C32.9593 26.76 30.3749 27.4891 28.0922 28.9763L30.2758 32.3277ZM35.784 30.76C37.8873 30.76 39.7029 31.2923 41.2922 32.3277L43.4758 28.9763C41.1931 27.4891 38.6087 26.76 35.784 26.76V30.76ZM41.3217 32.3466C42.9138 33.3446 44.2136 34.8434 45.1894 36.9489L48.8186 35.2671C47.565 32.5619 45.7848 30.4234 43.4463 28.9574L41.3217 32.3466ZM45.1934 36.9574C46.156 39.0094 46.676 41.5364 46.676 44.6H50.676C50.676 41.0929 50.0813 37.9586 48.8146 35.2586L45.1934 36.9574ZM46.676 44.6C46.676 47.6626 46.1563 50.2085 45.1894 52.2951L48.8186 53.9769C50.081 51.2528 50.676 48.108 50.676 44.6H46.676ZM45.1934 52.2866C44.2183 54.3649 42.9138 55.8755 41.3038 56.9088L43.4642 60.2752C45.7849 58.7858 47.5603 56.6591 48.8146 53.9854L45.1934 52.2866ZM41.3103 56.9047C39.719 57.9173 37.8969 58.44 35.784 58.44V62.44C38.5991 62.44 41.177 61.7307 43.4578 60.2793L41.3103 56.9047ZM35.784 57.468C38.6444 57.468 40.9871 56.2334 42.6194 53.8798L39.3326 51.6002C38.4422 52.884 37.3236 53.468 35.784 53.468V57.468ZM42.607 53.8975C44.2449 51.5895 44.912 48.388 44.912 44.6H40.912C40.912 48.028 40.2884 50.2531 39.345 51.5825L42.607 53.8975ZM44.912 44.6C44.912 40.812 44.2449 37.6105 42.607 35.3025L39.345 37.6175C40.2884 38.9469 40.912 41.172 40.912 44.6H44.912ZM42.6194 35.3202C40.9871 32.9666 38.6444 31.732 35.784 31.732V35.732C37.3236 35.732 38.4422 36.316 39.3326 37.5998L42.6194 35.3202ZM35.784 31.732C32.9445 31.732 30.6145 32.9725 28.961 35.3025L32.223 37.6175C33.1508 36.3101 34.2822 35.732 35.784 35.732V31.732ZM28.9486 35.3202C27.3503 37.6247 26.7 40.8184 26.7 44.6H30.7C30.7 41.1656 31.311 38.9326 32.2354 37.5998L28.9486 35.3202ZM26.7 44.6C26.7 48.3816 27.3503 51.5753 28.9486 53.8798L32.2354 51.6002C31.311 50.2674 30.7 48.0344 30.7 44.6H26.7ZM28.961 53.8975C30.6145 56.2275 32.9445 57.468 35.784 57.468V53.468C34.2822 53.468 33.1508 52.8899 32.223 51.5825L28.961 53.8975ZM62.9746 29.2H64.9746V27.2H62.9746V29.2ZM62.9746 60V62H64.9746V60H62.9746ZM57.2546 60H55.2546V62H57.2546V60ZM57.2546 33.996H59.2546V31.996H57.2546V33.996ZM50.7426 33.996H48.7426V35.996H50.7426V33.996ZM50.7426 29.2V27.2H48.7426V29.2H50.7426ZM60.9746 29.2V60H64.9746V29.2H60.9746ZM62.9746 58H57.2546V62H62.9746V58ZM59.2546 60V33.996H55.2546V60H59.2546ZM57.2546 31.996H50.7426V35.996H57.2546V31.996ZM52.7426 33.996V29.2H48.7426V33.996H52.7426ZM50.7426 31.2H62.9746V27.2H50.7426V31.2Z" fill="#EFD101"/>
<circle cx="45" cy="45" r="44" stroke="#EFD101" stroke-width="2" stroke-linecap="round" stroke-linejoin="round" stroke-dasharray="5 5"/>
</svg>
