<svg width="90" height="90" viewBox="0 0 90 90" fill="none" xmlns="http://www.w3.org/2000/svg">
<path d="M25.184 59.592L24.0922 61.2677L24.1012 61.2736L24.1102 61.2793L25.184 59.592ZM20.608 54.136L18.7934 54.9769L18.7974 54.9854L20.608 54.136ZM20.608 37.108L22.4187 37.9574L22.4226 37.9489L20.608 37.108ZM25.184 31.652L26.2578 33.3393L26.2668 33.3336L26.2758 33.3277L25.184 31.652ZM38.384 31.652L37.2922 33.3277L37.3069 33.3373L37.3217 33.3466L38.384 31.652ZM43.004 37.108L41.1894 37.9489L41.1934 37.9574L43.004 37.108ZM43.004 54.136L44.8147 54.9855L44.8186 54.9769L43.004 54.136ZM38.384 59.592L39.4578 61.2793L39.4642 61.2752L38.384 59.592ZM36.976 53.74L35.345 52.5825L35.3387 52.5913L35.3326 52.6002L36.976 53.74ZM36.976 37.46L35.3326 38.5998L35.3387 38.6087L35.345 38.6175L36.976 37.46ZM26.592 37.46L24.961 36.3025L24.9547 36.3113L24.9486 36.3202L26.592 37.46ZM26.592 53.74L24.9486 54.8798L24.9547 54.8887L24.961 54.8975L26.592 53.74ZM31.784 59.44C29.6711 59.44 27.849 58.9173 26.2578 57.9047L24.1102 61.2793C26.391 62.7307 28.9689 63.44 31.784 63.44V59.44ZM26.2758 57.9163C24.6923 56.8846 23.3972 55.3725 22.4186 53.2866L18.7974 54.9854C20.0481 57.6515 21.8037 59.7767 24.0922 61.2677L26.2758 57.9163ZM22.4226 53.2951C21.4557 51.2085 20.936 48.6626 20.936 45.6H16.936C16.936 49.108 17.531 52.2528 18.7934 54.9769L22.4226 53.2951ZM20.936 45.6C20.936 42.5364 21.456 40.0094 22.4186 37.9574L18.7974 36.2586C17.5307 38.9586 16.936 42.0929 16.936 45.6H20.936ZM22.4226 37.9489C23.4019 35.8357 24.6923 34.3355 26.2578 33.3393L24.1102 29.9647C21.8037 31.4325 20.0434 33.5697 18.7934 36.2671L22.4226 37.9489ZM26.2758 33.3277C27.8651 32.2923 29.6807 31.76 31.784 31.76V27.76C28.9593 27.76 26.3749 28.4891 24.0922 29.9763L26.2758 33.3277ZM31.784 31.76C33.8873 31.76 35.7029 32.2923 37.2922 33.3277L39.4758 29.9763C37.1931 28.4891 34.6087 27.76 31.784 27.76V31.76ZM37.3217 33.3466C38.9138 34.3446 40.2136 35.8434 41.1894 37.9489L44.8186 36.2671C43.565 33.5619 41.7848 31.4234 39.4463 29.9574L37.3217 33.3466ZM41.1934 37.9574C42.156 40.0094 42.676 42.5364 42.676 45.6H46.676C46.676 42.0929 46.0813 38.9586 44.8146 36.2586L41.1934 37.9574ZM42.676 45.6C42.676 48.6626 42.1563 51.2085 41.1894 53.2951L44.8186 54.9769C46.081 52.2528 46.676 49.108 46.676 45.6H42.676ZM41.1934 53.2866C40.2183 55.3649 38.9138 56.8755 37.3038 57.9088L39.4642 61.2752C41.7849 59.7858 43.5603 57.6591 44.8146 54.9854L41.1934 53.2866ZM37.3103 57.9047C35.719 58.9173 33.8969 59.44 31.784 59.44V63.44C34.5991 63.44 37.177 62.7307 39.4578 61.2793L37.3103 57.9047ZM31.784 58.468C34.6444 58.468 36.9871 57.2334 38.6194 54.8798L35.3326 52.6002C34.4422 53.884 33.3236 54.468 31.784 54.468V58.468ZM38.607 54.8975C40.2449 52.5895 40.912 49.388 40.912 45.6H36.912C36.912 49.028 36.2884 51.2531 35.345 52.5825L38.607 54.8975ZM40.912 45.6C40.912 41.812 40.2449 38.6105 38.607 36.3025L35.345 38.6175C36.2884 39.9469 36.912 42.172 36.912 45.6H40.912ZM38.6194 36.3202C36.9871 33.9666 34.6444 32.732 31.784 32.732V36.732C33.3236 36.732 34.4422 37.316 35.3326 38.5998L38.6194 36.3202ZM31.784 32.732C28.9445 32.732 26.6145 33.9725 24.961 36.3025L28.223 38.6175C29.1508 37.3101 30.2822 36.732 31.784 36.732V32.732ZM24.9486 36.3202C23.3503 38.6247 22.7 41.8184 22.7 45.6H26.7C26.7 42.1656 27.311 39.9326 28.2354 38.5998L24.9486 36.3202ZM22.7 45.6C22.7 49.3816 23.3503 52.5753 24.9486 54.8798L28.2354 52.6002C27.311 51.2674 26.7 49.0344 26.7 45.6H22.7ZM24.961 54.8975C26.6145 57.2275 28.9445 58.468 31.784 58.468V54.468C30.2822 54.468 29.1508 53.8899 28.223 52.5825L24.961 54.8975ZM70.6346 56.16H72.6346V54.16H70.6346V56.16ZM70.6346 61V63H72.6346V61H70.6346ZM47.9306 61H45.9306V63H47.9306V61ZM47.9306 57.172L46.5534 55.7217L45.9306 56.3132V57.172H47.9306ZM60.1626 45.556L61.5399 47.0063L61.5458 47.0006L60.1626 45.556ZM62.9346 42.124L61.1458 41.2296L61.1403 41.2405L61.135 41.2515L62.9346 42.124ZM62.2306 35.876L63.4684 34.305L63.4684 34.305L62.2306 35.876ZM50.7466 37.944L49.5272 39.5292L51.101 40.7399L52.323 39.1749L50.7466 37.944ZM46.7426 34.864L45.1391 33.6687L43.9617 35.2481L45.5232 36.4492L46.7426 34.864ZM51.5826 31.124L52.3801 32.9582L52.3925 32.9527L51.5826 31.124ZM66.4546 32.136L65.2109 33.7022L66.4546 32.136ZM68.3906 43.312L66.5876 42.4465L68.3906 43.312ZM64.3426 48.328L62.9719 46.8716L62.9637 46.8794L64.3426 48.328ZM56.1146 56.16L54.7357 54.7114L51.1127 58.16H56.1146V56.16ZM68.6346 56.16V61H72.6346V56.16H68.6346ZM70.6346 59H47.9306V63H70.6346V59ZM49.9306 61V57.172H45.9306V61H49.9306ZM49.3078 58.6223L61.5399 47.0063L58.7854 44.1057L46.5534 55.7217L49.3078 58.6223ZM61.5458 47.0006C62.9844 45.6232 64.1102 44.2836 64.7343 42.9965L61.135 41.2515C60.8203 41.9004 60.0981 42.8488 58.7795 44.1114L61.5458 47.0006ZM64.7235 43.0184C65.3399 41.7857 65.6826 40.4985 65.6826 39.176H61.6826C61.6826 39.7895 61.5267 40.4677 61.1458 41.2296L64.7235 43.0184ZM65.6826 39.176C65.6826 37.2405 65.0011 35.5126 63.4684 34.305L60.9929 37.447C61.3962 37.7647 61.6826 38.2369 61.6826 39.176H65.6826ZM63.4684 34.305C62.0051 33.1522 60.0657 32.732 57.9626 32.732V36.732C59.6143 36.732 60.5201 37.0745 60.9929 37.447L63.4684 34.305ZM57.9626 32.732C54.3161 32.732 51.2831 34.0072 49.1702 36.7131L52.323 39.1749C53.5541 37.5981 55.3318 36.732 57.9626 36.732V32.732ZM51.966 36.3587L47.962 33.2787L45.5232 36.4492L49.5272 39.5292L51.966 36.3587ZM48.3461 36.0593C49.3206 34.7521 50.6441 33.7129 52.3801 32.9581L50.7852 29.2899C48.4732 30.2951 46.57 31.7492 45.1391 33.6687L48.3461 36.0593ZM52.3925 32.9527C54.161 32.1695 56.1684 31.76 58.4466 31.76V27.76C55.6795 27.76 53.1109 28.2598 50.7728 29.2953L52.3925 32.9527ZM58.4466 31.76C61.481 31.76 63.6671 32.4763 65.2109 33.7022L67.6984 30.5698C65.2528 28.6277 62.1002 27.76 58.4466 27.76V31.76ZM65.2109 33.7022C66.69 34.8769 67.4466 36.4362 67.4466 38.604H71.4466C71.4466 35.3158 70.2086 32.5631 67.6984 30.5698L65.2109 33.7022ZM67.4466 38.604C67.4466 39.985 67.1583 41.2576 66.5876 42.4465L70.1937 44.1775C71.031 42.4331 71.4466 40.567 71.4466 38.604H67.4466ZM66.5876 42.4465C66.0386 43.5902 64.8928 45.0637 62.9719 46.8716L65.7134 49.7844C67.7818 47.8377 69.3346 45.9671 70.1937 44.1775L66.5876 42.4465ZM62.9637 46.8794L54.7357 54.7114L57.4935 57.6086L65.7215 49.7766L62.9637 46.8794ZM56.1146 58.16H70.6346V54.16H56.1146V58.16Z" fill="#3D94F2"/>
<circle cx="45" cy="45" r="44" stroke="#3D94F2" stroke-width="2" stroke-linecap="round" stroke-linejoin="round" stroke-dasharray="5 5"/>
</svg>
