<svg width="90" height="91" viewBox="0 0 90 91" fill="none" xmlns="http://www.w3.org/2000/svg">
<path d="M25.184 60.092L24.0922 61.7677L24.1012 61.7736L24.1102 61.7793L25.184 60.092ZM20.608 54.636L18.7934 55.4769L18.7974 55.4854L20.608 54.636ZM20.608 37.608L22.4187 38.4574L22.4226 38.4489L20.608 37.608ZM25.184 32.152L26.2578 33.8393L26.2668 33.8336L26.2758 33.8277L25.184 32.152ZM38.384 32.152L37.2922 33.8277L37.3069 33.8373L37.3217 33.8466L38.384 32.152ZM43.004 37.608L41.1894 38.4489L41.1934 38.4574L43.004 37.608ZM43.004 54.636L44.8147 55.4855L44.8186 55.4769L43.004 54.636ZM38.384 60.092L39.4578 61.7793L39.4642 61.7752L38.384 60.092ZM36.976 54.24L35.345 53.0825L35.3387 53.0913L35.3326 53.1002L36.976 54.24ZM36.976 37.96L35.3326 39.0998L35.3387 39.1087L35.345 39.1175L36.976 37.96ZM26.592 37.96L24.961 36.8025L24.9547 36.8113L24.9486 36.8202L26.592 37.96ZM26.592 54.24L24.9486 55.3798L24.9547 55.3887L24.961 55.3975L26.592 54.24ZM31.784 59.94C29.6711 59.94 27.849 59.4173 26.2578 58.4047L24.1102 61.7793C26.391 63.2307 28.9689 63.94 31.784 63.94V59.94ZM26.2758 58.4163C24.6923 57.3846 23.3972 55.8725 22.4186 53.7866L18.7974 55.4854C20.0481 58.1515 21.8037 60.2767 24.0922 61.7677L26.2758 58.4163ZM22.4226 53.7951C21.4557 51.7085 20.936 49.1626 20.936 46.1H16.936C16.936 49.608 17.531 52.7528 18.7934 55.4769L22.4226 53.7951ZM20.936 46.1C20.936 43.0364 21.456 40.5094 22.4186 38.4574L18.7974 36.7586C17.5307 39.4586 16.936 42.5929 16.936 46.1H20.936ZM22.4226 38.4489C23.4019 36.3357 24.6923 34.8355 26.2578 33.8393L24.1102 30.4647C21.8037 31.9325 20.0434 34.0697 18.7934 36.7671L22.4226 38.4489ZM26.2758 33.8277C27.8651 32.7923 29.6807 32.26 31.784 32.26V28.26C28.9593 28.26 26.3749 28.9891 24.0922 30.4763L26.2758 33.8277ZM31.784 32.26C33.8873 32.26 35.7029 32.7923 37.2922 33.8277L39.4758 30.4763C37.1931 28.9891 34.6087 28.26 31.784 28.26V32.26ZM37.3217 33.8466C38.9138 34.8446 40.2136 36.3434 41.1894 38.4489L44.8186 36.7671C43.565 34.0619 41.7848 31.9234 39.4463 30.4574L37.3217 33.8466ZM41.1934 38.4574C42.156 40.5094 42.676 43.0364 42.676 46.1H46.676C46.676 42.5929 46.0813 39.4586 44.8146 36.7586L41.1934 38.4574ZM42.676 46.1C42.676 49.1626 42.1563 51.7085 41.1894 53.7951L44.8186 55.4769C46.081 52.7528 46.676 49.608 46.676 46.1H42.676ZM41.1934 53.7866C40.2183 55.8649 38.9138 57.3755 37.3038 58.4088L39.4642 61.7752C41.7849 60.2858 43.5603 58.1591 44.8146 55.4854L41.1934 53.7866ZM37.3103 58.4047C35.719 59.4173 33.8969 59.94 31.784 59.94V63.94C34.5991 63.94 37.177 63.2307 39.4578 61.7793L37.3103 58.4047ZM31.784 58.968C34.6444 58.968 36.9871 57.7334 38.6194 55.3798L35.3326 53.1002C34.4422 54.384 33.3236 54.968 31.784 54.968V58.968ZM38.607 55.3975C40.2449 53.0895 40.912 49.888 40.912 46.1H36.912C36.912 49.528 36.2884 51.7531 35.345 53.0825L38.607 55.3975ZM40.912 46.1C40.912 42.312 40.2449 39.1105 38.607 36.8025L35.345 39.1175C36.2884 40.4469 36.912 42.672 36.912 46.1H40.912ZM38.6194 36.8202C36.9871 34.4666 34.6444 33.232 31.784 33.232V37.232C33.3236 37.232 34.4422 37.816 35.3326 39.0998L38.6194 36.8202ZM31.784 33.232C28.9445 33.232 26.6145 34.4725 24.961 36.8025L28.223 39.1175C29.1508 37.8101 30.2822 37.232 31.784 37.232V33.232ZM24.9486 36.8202C23.3503 39.1247 22.7 42.3184 22.7 46.1H26.7C26.7 42.6656 27.311 40.4326 28.2354 39.0998L24.9486 36.8202ZM22.7 46.1C22.7 49.8816 23.3503 53.0753 24.9486 55.3798L28.2354 53.1002C27.311 51.7674 26.7 49.5344 26.7 46.1H22.7ZM24.961 55.3975C26.6145 57.7275 28.9445 58.968 31.784 58.968V54.968C30.2822 54.968 29.1508 54.3899 28.223 53.0825L24.961 55.3975ZM61.2238 43.416L59.6936 42.1282L57.3202 44.9483L60.9782 45.4009L61.2238 43.416ZM67.7358 46.32L69.1898 44.9468V44.9468L67.7358 46.32ZM68.6158 57.144L70.3156 58.1979L68.6158 57.144ZM64.4798 60.664L65.3272 62.4757L65.3396 62.4697L64.4798 60.664ZM51.4118 61.016L50.8042 62.9215L50.8206 62.9267L50.8371 62.9317L51.4118 61.016ZM46.2198 58.376L44.4706 57.4062L43.6392 58.9057L44.9941 59.9564L46.2198 58.376ZM48.6838 53.932L49.9721 52.4022L48.1131 50.8368L46.9347 52.9622L48.6838 53.932ZM52.7318 56.176L52.068 58.0626L52.0888 58.0699L52.1097 58.0768L52.7318 56.176ZM62.4558 55.736L63.6222 57.3607L63.6297 57.3552L62.4558 55.736ZM62.5438 48.96L61.3369 50.5548L61.3609 50.5729L61.3854 50.5904L62.5438 48.96ZM54.7118 47.728H52.7118V49.728H54.7118V47.728ZM54.7118 43.812L53.1813 42.5245L52.7118 43.0826V43.812H54.7118ZM61.7078 35.496L63.2382 36.7835L66.0039 33.496H61.7078V35.496ZM47.7158 35.496H45.7158V37.496H47.7158V35.496ZM47.7158 30.7V28.7H45.7158V30.7H47.7158ZM68.7038 30.7H70.7038V28.7H68.7038V30.7ZM68.7038 34.528L70.234 35.8158L70.7038 35.2576V34.528H68.7038ZM60.9782 45.4009C63.5092 45.714 65.1941 46.5416 66.2818 47.6932L69.1898 44.9468C67.2855 42.9304 64.6291 41.822 61.4693 41.4311L60.9782 45.4009ZM66.2818 47.6932C67.3939 48.8709 67.9798 50.3442 67.9798 52.26H71.9798C71.9798 49.4238 71.0696 46.9371 69.1898 44.9468L66.2818 47.6932ZM67.9798 52.26C67.9798 53.6914 67.6216 54.952 66.916 56.0901L70.3156 58.1979C71.4286 56.4027 71.9798 54.4073 71.9798 52.26H67.9798ZM66.916 56.0901C66.2438 57.1743 65.187 58.112 63.6199 58.8583L65.3396 62.4697C67.4685 61.456 69.1691 60.047 70.3156 58.1979L66.916 56.0901ZM63.6324 58.8524C62.1487 59.5464 60.2271 59.94 57.7918 59.94V63.94C60.6364 63.94 63.1735 63.483 65.3272 62.4756L63.6324 58.8524ZM57.7918 59.94C55.7813 59.94 53.8485 59.659 51.9865 59.1003L50.8371 62.9317C53.0817 63.605 55.4023 63.94 57.7918 63.94V59.94ZM52.0193 59.1105C50.182 58.5247 48.6691 57.7446 47.4454 56.7956L44.9941 59.9564C46.6451 61.2368 48.5935 62.2166 50.8042 62.9215L52.0193 59.1105ZM47.9689 59.3458L50.4329 54.9018L46.9347 52.9622L44.4706 57.4062L47.9689 59.3458ZM47.3955 55.4618C48.7209 56.578 50.2902 57.4371 52.068 58.0626L53.3956 54.2894C52.0054 53.8002 50.876 53.1634 49.9721 52.4022L47.3955 55.4618ZM52.1097 58.0768C53.9243 58.6707 55.7916 58.968 57.7038 58.968V54.968C56.2133 54.968 54.7659 54.7373 53.3539 54.2752L52.1097 58.0768ZM57.7038 58.968C59.9704 58.968 62.0188 58.5118 63.6222 57.3606L61.2894 54.1114C60.6047 54.6029 59.4852 54.968 57.7038 54.968V58.968ZM63.6297 57.3552C65.3168 56.1321 66.2158 54.3885 66.2158 52.304H62.2158C62.2158 53.0941 61.9414 53.6386 61.2818 54.1168L63.6297 57.3552ZM66.2158 52.304C66.2158 50.2581 65.3759 48.5189 63.7022 47.3296L61.3854 50.5904C61.941 50.9851 62.2158 51.4752 62.2158 52.304H66.2158ZM63.7507 47.3652C62.1549 46.1575 59.9599 45.728 57.5278 45.728V49.728C59.613 49.728 60.762 50.1198 61.3369 50.5548L63.7507 47.3652ZM57.5278 45.728H54.7118V49.728H57.5278V45.728ZM56.7118 47.728V43.812H52.7118V47.728H56.7118ZM56.2422 45.0995L63.2382 36.7835L60.1773 34.2085L53.1813 42.5245L56.2422 45.0995ZM61.7078 33.496H47.7158V37.496H61.7078V33.496ZM49.7158 35.496V30.7H45.7158V35.496H49.7158ZM47.7158 32.7H68.7038V28.7H47.7158V32.7ZM66.7038 30.7V34.528H70.7038V30.7H66.7038ZM67.1736 33.2402L59.6936 42.1282L62.754 44.7038L70.234 35.8158L67.1736 33.2402Z" fill="#01091F"/>
<circle cx="45" cy="45.5" r="44" stroke="#01091F" stroke-width="2" stroke-linecap="round" stroke-linejoin="round" stroke-dasharray="5 5"/>
</svg>
