<svg width="90" height="90" viewBox="0 0 90 90" fill="none" xmlns="http://www.w3.org/2000/svg">
<path d="M25.184 59.592L24.0922 61.2677L24.1012 61.2736L24.1102 61.2793L25.184 59.592ZM20.608 54.136L18.7934 54.9769L18.7974 54.9854L20.608 54.136ZM20.608 37.108L22.4187 37.9574L22.4226 37.9489L20.608 37.108ZM25.184 31.652L26.2578 33.3393L26.2668 33.3336L26.2758 33.3277L25.184 31.652ZM38.384 31.652L37.2922 33.3277L37.3069 33.3373L37.3217 33.3466L38.384 31.652ZM43.004 37.108L41.1894 37.9489L41.1934 37.9574L43.004 37.108ZM43.004 54.136L44.8147 54.9855L44.8186 54.9769L43.004 54.136ZM38.384 59.592L39.4578 61.2793L39.4642 61.2752L38.384 59.592ZM36.976 53.74L35.345 52.5825L35.3387 52.5913L35.3326 52.6002L36.976 53.74ZM36.976 37.46L35.3326 38.5998L35.3387 38.6087L35.345 38.6175L36.976 37.46ZM26.592 37.46L24.961 36.3025L24.9547 36.3113L24.9486 36.3202L26.592 37.46ZM26.592 53.74L24.9486 54.8798L24.9547 54.8887L24.961 54.8975L26.592 53.74ZM31.784 59.44C29.6711 59.44 27.849 58.9173 26.2578 57.9047L24.1102 61.2793C26.391 62.7307 28.9689 63.44 31.784 63.44V59.44ZM26.2758 57.9163C24.6923 56.8846 23.3972 55.3725 22.4186 53.2866L18.7974 54.9854C20.0481 57.6515 21.8037 59.7767 24.0922 61.2677L26.2758 57.9163ZM22.4226 53.2951C21.4557 51.2085 20.936 48.6626 20.936 45.6H16.936C16.936 49.108 17.531 52.2528 18.7934 54.9769L22.4226 53.2951ZM20.936 45.6C20.936 42.5364 21.456 40.0094 22.4186 37.9574L18.7974 36.2586C17.5307 38.9586 16.936 42.0929 16.936 45.6H20.936ZM22.4226 37.9489C23.4019 35.8357 24.6923 34.3355 26.2578 33.3393L24.1102 29.9647C21.8037 31.4325 20.0434 33.5697 18.7934 36.2671L22.4226 37.9489ZM26.2758 33.3277C27.8651 32.2923 29.6807 31.76 31.784 31.76V27.76C28.9593 27.76 26.3749 28.4891 24.0922 29.9763L26.2758 33.3277ZM31.784 31.76C33.8873 31.76 35.7029 32.2923 37.2922 33.3277L39.4758 29.9763C37.1931 28.4891 34.6087 27.76 31.784 27.76V31.76ZM37.3217 33.3466C38.9138 34.3446 40.2136 35.8434 41.1894 37.9489L44.8186 36.2671C43.565 33.5619 41.7848 31.4234 39.4463 29.9574L37.3217 33.3466ZM41.1934 37.9574C42.156 40.0094 42.676 42.5364 42.676 45.6H46.676C46.676 42.0929 46.0813 38.9586 44.8146 36.2586L41.1934 37.9574ZM42.676 45.6C42.676 48.6626 42.1563 51.2085 41.1894 53.2951L44.8186 54.9769C46.081 52.2528 46.676 49.108 46.676 45.6H42.676ZM41.1934 53.2866C40.2183 55.3649 38.9138 56.8755 37.3038 57.9088L39.4642 61.2752C41.7849 59.7858 43.5603 57.6591 44.8146 54.9854L41.1934 53.2866ZM37.3103 57.9047C35.719 58.9173 33.8969 59.44 31.784 59.44V63.44C34.5991 63.44 37.177 62.7307 39.4578 61.2793L37.3103 57.9047ZM31.784 58.468C34.6444 58.468 36.9871 57.2334 38.6194 54.8798L35.3326 52.6002C34.4422 53.884 33.3236 54.468 31.784 54.468V58.468ZM38.607 54.8975C40.2449 52.5895 40.912 49.388 40.912 45.6H36.912C36.912 49.028 36.2884 51.2531 35.345 52.5825L38.607 54.8975ZM40.912 45.6C40.912 41.812 40.2449 38.6105 38.607 36.3025L35.345 38.6175C36.2884 39.9469 36.912 42.172 36.912 45.6H40.912ZM38.6194 36.3202C36.9871 33.9666 34.6444 32.732 31.784 32.732V36.732C33.3236 36.732 34.4422 37.316 35.3326 38.5998L38.6194 36.3202ZM31.784 32.732C28.9445 32.732 26.6145 33.9725 24.961 36.3025L28.223 38.6175C29.1508 37.3101 30.2822 36.732 31.784 36.732V32.732ZM24.9486 36.3202C23.3503 38.6247 22.7 41.8184 22.7 45.6H26.7C26.7 42.1656 27.311 39.9326 28.2354 38.5998L24.9486 36.3202ZM22.7 45.6C22.7 49.3816 23.3503 52.5753 24.9486 54.8798L28.2354 52.6002C27.311 51.2674 26.7 49.0344 26.7 45.6H22.7ZM24.961 54.8975C26.6145 57.2275 28.9445 58.468 31.784 58.468V54.468C30.2822 54.468 29.1508 53.8899 28.223 52.5825L24.961 54.8975ZM67.8135 44.676L66.5482 46.2249L66.5548 46.2303L66.5614 46.2356L67.8135 44.676ZM69.5735 56.556L67.8644 55.5172L69.5735 56.556ZM65.4815 60.12L64.6103 58.3197L65.4815 60.12ZM52.3695 60.516L51.7698 62.424L51.7823 62.4279L51.7948 62.4317L52.3695 60.516ZM47.1775 57.876L45.421 56.9195L44.6155 58.3987L45.9361 59.4441L47.1775 57.876ZM49.5975 53.432L50.8661 51.8859L48.9972 50.3524L47.841 52.4755L49.5975 53.432ZM53.6895 55.676L53.0257 57.5626L53.0464 57.5699L53.0674 57.5768L53.6895 55.676ZM63.4135 55.236L64.5799 56.8607L64.5874 56.8552L63.4135 55.236ZM63.2815 48.196L62.1721 49.8601L62.1948 49.8753L62.2179 49.8898L63.2815 48.196ZM49.4655 46.964L47.4743 46.7759L47.2676 48.964H49.4655V46.964ZM51.0495 30.2V28.2H49.2295L49.0583 30.0119L51.0495 30.2ZM69.1335 30.2H71.1335V28.2H69.1335V30.2ZM69.1335 34.996V36.996H71.1335V34.996H69.1335ZM55.8895 34.996V32.996H54.0661L53.898 34.8116L55.8895 34.996ZM55.2295 42.124L53.238 41.9396L53.0357 44.124H55.2295V42.124ZM58.1775 44.124C62.3217 44.124 64.9842 44.9473 66.5482 46.2249L69.0788 43.1271C66.4774 41.002 62.7159 40.124 58.1775 40.124V44.124ZM66.5614 46.2356C68.1259 47.4916 68.9375 49.1818 68.9375 51.54H72.9375C72.9375 48.0902 71.6663 45.2044 69.0655 43.1164L66.5614 46.2356ZM68.9375 51.54C68.9375 53.0429 68.5727 54.3519 67.8644 55.5172L71.2825 57.5948C72.3929 55.7681 72.9375 53.7331 72.9375 51.54H68.9375ZM67.8644 55.5172C67.1846 56.6356 66.1369 57.581 64.6103 58.3197L66.3526 61.9203C68.4634 60.899 70.1437 59.4684 71.2825 57.5948L67.8644 55.5172ZM64.6103 58.3197C63.136 59.0331 61.2098 59.44 58.7495 59.44V63.44C61.6278 63.44 64.1897 62.9669 66.3526 61.9203L64.6103 58.3197ZM58.7495 59.44C56.739 59.44 54.8062 59.159 52.9442 58.6003L51.7948 62.4317C54.0394 63.105 56.36 63.44 58.7495 63.44V59.44ZM52.9691 58.608C51.1036 58.0217 49.6017 57.2443 48.4189 56.3079L45.9361 59.4441C47.5693 60.7371 49.5287 61.7196 51.7698 62.424L52.9691 58.608ZM48.9339 58.8325L51.3539 54.3885L47.841 52.4755L45.421 56.9195L48.9339 58.8325ZM48.3288 54.9781C49.6756 56.0832 51.251 56.9382 53.0257 57.5626L54.3533 53.7894C52.9599 53.2991 51.8073 52.6581 50.8661 51.8859L48.3288 54.9781ZM53.0674 57.5768C54.882 58.1707 56.7493 58.468 58.6615 58.468V54.468C57.171 54.468 55.7236 54.2373 54.3115 53.7752L53.0674 57.5768ZM58.6615 58.468C60.9281 58.468 62.9765 58.0118 64.5799 56.8606L62.2471 53.6114C61.5624 54.1029 60.4429 54.468 58.6615 54.468V58.468ZM64.5874 56.8552C66.287 55.623 67.1735 53.8584 67.1735 51.76H63.1735C63.1735 52.5949 62.8866 53.1476 62.2395 53.6168L64.5874 56.8552ZM67.1735 51.76C67.1735 49.5406 66.2323 47.6873 64.345 46.5022L62.2179 49.8898C62.8533 50.2887 63.1735 50.8114 63.1735 51.76H67.1735ZM64.3909 46.5319C62.6322 45.3594 59.9815 44.964 56.9015 44.964V48.964C59.8641 48.964 61.4668 49.3899 62.1721 49.8601L64.3909 46.5319ZM56.9015 44.964H49.4655V48.964H56.9015V44.964ZM51.4566 47.1521L53.0406 30.3881L49.0583 30.0119L47.4743 46.7759L51.4566 47.1521ZM51.0495 32.2H69.1335V28.2H51.0495V32.2ZM67.1335 30.2V34.996H71.1335V30.2H67.1335ZM69.1335 32.996H55.8895V36.996H69.1335V32.996ZM53.898 34.8116L53.238 41.9396L57.221 42.3084L57.881 35.1804L53.898 34.8116ZM55.2295 44.124H58.1775V40.124H55.2295V44.124Z" fill="#3D94F2"/>
<circle cx="45" cy="45" r="44" stroke="#3D94F2" stroke-width="2" stroke-linecap="round" stroke-linejoin="round" stroke-dasharray="5 5"/>
</svg>
