<svg width="90" height="90" viewBox="0 0 90 90" fill="none" xmlns="http://www.w3.org/2000/svg">
<path d="M25.184 59.592L24.0922 61.2677L24.1012 61.2736L24.1102 61.2793L25.184 59.592ZM20.608 54.136L18.7934 54.9769L18.7974 54.9854L20.608 54.136ZM20.608 37.108L22.4187 37.9574L22.4226 37.9489L20.608 37.108ZM25.184 31.652L26.2578 33.3393L26.2668 33.3336L26.2758 33.3277L25.184 31.652ZM38.384 31.652L37.2922 33.3277L37.3069 33.3373L37.3217 33.3466L38.384 31.652ZM43.004 37.108L41.1894 37.9489L41.1934 37.9574L43.004 37.108ZM43.004 54.136L44.8147 54.9855L44.8186 54.9769L43.004 54.136ZM38.384 59.592L39.4578 61.2793L39.4642 61.2752L38.384 59.592ZM36.976 53.74L35.345 52.5825L35.3387 52.5913L35.3326 52.6002L36.976 53.74ZM36.976 37.46L35.3326 38.5998L35.3387 38.6087L35.345 38.6175L36.976 37.46ZM26.592 37.46L24.961 36.3025L24.9547 36.3113L24.9486 36.3202L26.592 37.46ZM26.592 53.74L24.9486 54.8798L24.9547 54.8887L24.961 54.8975L26.592 53.74ZM31.784 59.44C29.6711 59.44 27.849 58.9173 26.2578 57.9047L24.1102 61.2793C26.391 62.7307 28.9689 63.44 31.784 63.44V59.44ZM26.2758 57.9163C24.6923 56.8846 23.3972 55.3725 22.4186 53.2866L18.7974 54.9854C20.0481 57.6515 21.8037 59.7767 24.0922 61.2677L26.2758 57.9163ZM22.4226 53.2951C21.4557 51.2085 20.936 48.6626 20.936 45.6H16.936C16.936 49.108 17.531 52.2528 18.7934 54.9769L22.4226 53.2951ZM20.936 45.6C20.936 42.5364 21.456 40.0094 22.4186 37.9574L18.7974 36.2586C17.5307 38.9586 16.936 42.0929 16.936 45.6H20.936ZM22.4226 37.9489C23.4019 35.8357 24.6923 34.3355 26.2578 33.3393L24.1102 29.9647C21.8037 31.4325 20.0434 33.5697 18.7934 36.2671L22.4226 37.9489ZM26.2758 33.3277C27.8651 32.2923 29.6807 31.76 31.784 31.76V27.76C28.9593 27.76 26.3749 28.4891 24.0922 29.9763L26.2758 33.3277ZM31.784 31.76C33.8873 31.76 35.7029 32.2923 37.2922 33.3277L39.4758 29.9763C37.1931 28.4891 34.6087 27.76 31.784 27.76V31.76ZM37.3217 33.3466C38.9138 34.3446 40.2136 35.8434 41.1894 37.9489L44.8186 36.2671C43.565 33.5619 41.7848 31.4234 39.4463 29.9574L37.3217 33.3466ZM41.1934 37.9574C42.156 40.0094 42.676 42.5364 42.676 45.6H46.676C46.676 42.0929 46.0813 38.9586 44.8146 36.2586L41.1934 37.9574ZM42.676 45.6C42.676 48.6626 42.1563 51.2085 41.1894 53.2951L44.8186 54.9769C46.081 52.2528 46.676 49.108 46.676 45.6H42.676ZM41.1934 53.2866C40.2183 55.3649 38.9138 56.8755 37.3038 57.9088L39.4642 61.2752C41.7849 59.7858 43.5603 57.6591 44.8146 54.9854L41.1934 53.2866ZM37.3103 57.9047C35.719 58.9173 33.8969 59.44 31.784 59.44V63.44C34.5991 63.44 37.177 62.7307 39.4578 61.2793L37.3103 57.9047ZM31.784 58.468C34.6444 58.468 36.9871 57.2334 38.6194 54.8798L35.3326 52.6002C34.4422 53.884 33.3236 54.468 31.784 54.468V58.468ZM38.607 54.8975C40.2449 52.5895 40.912 49.388 40.912 45.6H36.912C36.912 49.028 36.2884 51.2531 35.345 52.5825L38.607 54.8975ZM40.912 45.6C40.912 41.812 40.2449 38.6105 38.607 36.3025L35.345 38.6175C36.2884 39.9469 36.912 42.172 36.912 45.6H40.912ZM38.6194 36.3202C36.9871 33.9666 34.6444 32.732 31.784 32.732V36.732C33.3236 36.732 34.4422 37.316 35.3326 38.5998L38.6194 36.3202ZM31.784 32.732C28.9445 32.732 26.6145 33.9725 24.961 36.3025L28.223 38.6175C29.1508 37.3101 30.2822 36.732 31.784 36.732V32.732ZM24.9486 36.3202C23.3503 38.6247 22.7 41.8184 22.7 45.6H26.7C26.7 42.1656 27.311 39.9326 28.2354 38.5998L24.9486 36.3202ZM22.7 45.6C22.7 49.3816 23.3503 52.5753 24.9486 54.8798L28.2354 52.6002C27.311 51.2674 26.7 49.0344 26.7 45.6H22.7ZM24.961 54.8975C26.6145 57.2275 28.9445 58.468 31.784 58.468V54.468C30.2822 54.468 29.1508 53.8899 28.223 52.5825L24.961 54.8975ZM67.9895 43.18L67.1081 44.9753L67.1214 44.9818L67.1347 44.9881L67.9895 43.18ZM71.6415 56.732L73.3056 57.8414L73.3105 57.834L73.3154 57.8265L71.6415 56.732ZM67.5935 60.208L68.463 62.0091L67.5935 60.208ZM52.0175 57.48L50.5144 58.7994L50.5227 58.8087L52.0175 57.48ZM50.4335 37.284L52.2093 38.204L52.2138 38.1953L50.4335 37.284ZM55.7135 31.696L56.6886 33.4422L56.6961 33.438L55.7135 31.696ZM68.0775 30.288L67.5827 32.2258L67.6066 32.2319L67.6307 32.2375L68.0775 30.288ZM71.7295 31.74L73.5256 32.6197L74.3169 31.0041L72.7938 30.0467L71.7295 31.74ZM69.6175 36.052L68.523 37.7259L70.4178 38.9649L71.4136 36.9317L69.6175 36.052ZM56.8135 37.284L55.3411 35.9304V35.9304L56.8135 37.284ZM54.3055 45.204H52.3055V50.5916L55.821 46.509L54.3055 45.204ZM57.7815 42.828L58.4837 44.7007L58.5007 44.6943L58.5176 44.6876L57.7815 42.828ZM65.9215 55.544L67.2097 57.0738L67.2214 57.064L67.2328 57.0541L65.9215 55.544ZM65.9215 47.888L64.6332 49.4178V49.4178L65.9215 47.888ZM56.9015 47.976L55.6062 46.4521L55.5966 46.4602L55.5872 46.4685L56.9015 47.976ZM56.8575 55.5L55.5239 56.9905L55.5445 57.0089L55.5656 57.0268L56.8575 55.5ZM62.5335 43.992C64.2907 43.992 65.8019 44.3341 67.1081 44.9753L68.8708 41.3847C66.9503 40.4419 64.8242 39.992 62.5335 39.992V43.992ZM67.1347 44.9881C68.4229 45.5971 69.387 46.4486 70.0833 47.5493L73.4636 45.4107C72.3413 43.6367 70.7827 42.2882 68.8442 41.3719L67.1347 44.9881ZM70.0833 47.5493C70.7696 48.634 71.1375 49.9126 71.1375 51.452H75.1375C75.1375 49.2368 74.5961 47.2007 73.4636 45.4107L70.0833 47.5493ZM71.1375 51.452C71.1375 53.0961 70.7321 54.4681 69.9675 55.6375L73.3154 57.8265C74.5455 55.9452 75.1375 53.7972 75.1375 51.452H71.1375ZM69.9774 55.6226C69.1886 56.8058 68.1204 57.7328 66.724 58.4069L68.463 62.0091C70.4692 61.0406 72.0997 59.6502 73.3056 57.8414L69.9774 55.6226ZM66.724 58.4069C65.3243 59.0826 63.7202 59.44 61.8735 59.44V63.44C64.2508 63.44 66.46 62.9761 68.463 62.0091L66.724 58.4069ZM61.8735 59.44C58.0985 59.44 55.4052 58.2808 53.5123 56.1513L50.5227 58.8087C53.3231 61.9592 57.2004 63.44 61.8735 63.44V59.44ZM53.5205 56.1606C51.6321 54.0092 50.5415 50.7651 50.5415 46.128H46.5415C46.5415 51.3469 47.7682 55.6708 50.5144 58.7994L53.5205 56.1606ZM50.5415 46.128C50.5415 42.9048 51.1288 40.2895 52.2093 38.204L48.6576 36.364C47.2154 39.1478 46.5415 42.4285 46.5415 46.128H50.5415ZM52.2138 38.1953C53.3083 36.0572 54.7994 34.4972 56.6886 33.4422L54.7383 29.9498C52.1102 31.4175 50.0813 33.5828 48.6532 36.3727L52.2138 38.1953ZM56.6961 33.438C58.6446 32.3388 60.9372 31.76 63.6335 31.76V27.76C60.3457 27.76 57.3583 28.4719 54.7308 29.954L56.6961 33.438ZM63.6335 31.76C65.0692 31.76 66.3828 31.9195 67.5827 32.2258L68.5722 28.3502C67.0148 27.9525 65.3658 27.76 63.6335 27.76V31.76ZM67.6307 32.2375C68.8606 32.5193 69.8609 32.9277 70.6651 33.4333L72.7938 30.0467C71.5447 29.2616 70.1103 28.702 68.5242 28.3385L67.6307 32.2375ZM69.9333 30.8603L67.8213 35.1723L71.4136 36.9317L73.5256 32.6197L69.9333 30.8603ZM70.712 34.3781C68.7759 33.1121 66.4138 32.556 63.7655 32.556V36.556C65.8691 36.556 67.4084 36.9972 68.523 37.7259L70.712 34.3781ZM63.7655 32.556C60.3642 32.556 57.4667 33.6184 55.3411 35.9304L58.2858 38.6376C59.5043 37.3122 61.2414 36.556 63.7655 36.556V32.556ZM55.3411 35.9304C53.217 38.2408 52.3055 41.4228 52.3055 45.16H56.3055C56.3055 42.0332 57.0659 39.9645 58.2858 38.6376L55.3411 35.9304ZM52.3055 45.16V45.204H56.3055V45.16H52.3055ZM55.821 46.509C56.494 45.7274 57.3646 45.1203 58.4837 44.7007L57.0792 40.9553C55.3823 41.5917 53.9356 42.5686 52.7899 43.899L55.821 46.509ZM58.5176 44.6876C59.6565 44.2368 60.9852 43.992 62.5335 43.992V39.992C60.5618 39.992 58.7225 40.3045 57.0454 40.9684L58.5176 44.6876ZM61.5655 58.952C63.7149 58.952 65.6576 58.3809 67.2097 57.0738L64.6332 54.0142C63.956 54.5845 62.9947 54.952 61.5655 54.952V58.952ZM67.2328 57.0541C68.8198 55.6759 69.5935 53.8315 69.5935 51.716H65.5935C65.5935 52.7685 65.2525 53.4761 64.6101 54.0339L67.2328 57.0541ZM69.5935 51.716C69.5935 49.584 68.8275 47.7205 67.2097 46.3582L64.6332 49.4178C65.2448 49.9328 65.5935 50.6213 65.5935 51.716H69.5935ZM67.2097 46.3582C65.641 45.0372 63.6436 44.48 61.4335 44.48V48.48C62.978 48.48 63.9726 48.8615 64.6332 49.4178L67.2097 46.3582ZM61.4335 44.48C59.2101 44.48 57.2101 45.0888 55.6062 46.4521L58.1968 49.4999C58.9395 48.8686 59.9608 48.48 61.4335 48.48V44.48ZM55.5872 46.4685C54.005 47.8478 53.1855 49.66 53.1855 51.76H57.1855C57.1855 50.8093 57.5099 50.0989 58.2157 49.4835L55.5872 46.4685ZM53.1855 51.76C53.1855 53.8249 53.9851 55.6137 55.5239 56.9905L58.1911 54.0095C57.5005 53.3917 57.1855 52.6871 57.1855 51.76H53.1855ZM55.5656 57.0268C57.1753 58.3889 59.2558 58.952 61.5655 58.952V54.952C59.8858 54.952 58.8276 54.5471 58.1494 53.9732L55.5656 57.0268Z" fill="#EFD101"/>
<circle cx="45" cy="45" r="44" stroke="#EFD101" stroke-width="2" stroke-linecap="round" stroke-linejoin="round" stroke-dasharray="5 5"/>
</svg>
