<svg width="90" height="90" viewBox="0 0 90 90" fill="none" xmlns="http://www.w3.org/2000/svg">
<path d="M25.184 59.592L24.0922 61.2677L24.1012 61.2736L24.1102 61.2793L25.184 59.592ZM20.608 54.136L18.7934 54.9769L18.7974 54.9854L20.608 54.136ZM20.608 37.108L22.4187 37.9574L22.4226 37.9489L20.608 37.108ZM25.184 31.652L26.2578 33.3393L26.2668 33.3336L26.2758 33.3277L25.184 31.652ZM38.384 31.652L37.2922 33.3277L37.3069 33.3373L37.3217 33.3466L38.384 31.652ZM43.004 37.108L41.1894 37.9489L41.1934 37.9574L43.004 37.108ZM43.004 54.136L44.8147 54.9855L44.8186 54.9769L43.004 54.136ZM38.384 59.592L39.4578 61.2793L39.4642 61.2752L38.384 59.592ZM36.976 53.74L35.345 52.5825L35.3387 52.5913L35.3326 52.6002L36.976 53.74ZM36.976 37.46L35.3326 38.5998L35.3387 38.6087L35.345 38.6175L36.976 37.46ZM26.592 37.46L24.961 36.3025L24.9547 36.3113L24.9486 36.3202L26.592 37.46ZM26.592 53.74L24.9486 54.8798L24.9547 54.8887L24.961 54.8975L26.592 53.74ZM31.784 59.44C29.6711 59.44 27.849 58.9173 26.2578 57.9047L24.1102 61.2793C26.391 62.7307 28.9689 63.44 31.784 63.44V59.44ZM26.2758 57.9163C24.6923 56.8846 23.3972 55.3725 22.4186 53.2866L18.7974 54.9854C20.0481 57.6515 21.8037 59.7767 24.0922 61.2677L26.2758 57.9163ZM22.4226 53.2951C21.4557 51.2085 20.936 48.6626 20.936 45.6H16.936C16.936 49.108 17.531 52.2528 18.7934 54.9769L22.4226 53.2951ZM20.936 45.6C20.936 42.5364 21.456 40.0094 22.4186 37.9574L18.7974 36.2586C17.5307 38.9586 16.936 42.0929 16.936 45.6H20.936ZM22.4226 37.9489C23.4019 35.8357 24.6923 34.3355 26.2578 33.3393L24.1102 29.9647C21.8037 31.4325 20.0434 33.5697 18.7934 36.2671L22.4226 37.9489ZM26.2758 33.3277C27.8651 32.2923 29.6807 31.76 31.784 31.76V27.76C28.9593 27.76 26.3749 28.4891 24.0922 29.9763L26.2758 33.3277ZM31.784 31.76C33.8873 31.76 35.7029 32.2923 37.2922 33.3277L39.4758 29.9763C37.1931 28.4891 34.6087 27.76 31.784 27.76V31.76ZM37.3217 33.3466C38.9138 34.3446 40.2136 35.8434 41.1894 37.9489L44.8186 36.2671C43.565 33.5619 41.7848 31.4234 39.4463 29.9574L37.3217 33.3466ZM41.1934 37.9574C42.156 40.0094 42.676 42.5364 42.676 45.6H46.676C46.676 42.0929 46.0813 38.9586 44.8146 36.2586L41.1934 37.9574ZM42.676 45.6C42.676 48.6626 42.1563 51.2085 41.1894 53.2951L44.8186 54.9769C46.081 52.2528 46.676 49.108 46.676 45.6H42.676ZM41.1934 53.2866C40.2183 55.3649 38.9138 56.8755 37.3038 57.9088L39.4642 61.2752C41.7849 59.7858 43.5603 57.6591 44.8146 54.9854L41.1934 53.2866ZM37.3103 57.9047C35.719 58.9173 33.8969 59.44 31.784 59.44V63.44C34.5991 63.44 37.177 62.7307 39.4578 61.2793L37.3103 57.9047ZM31.784 58.468C34.6444 58.468 36.9871 57.2334 38.6194 54.8798L35.3326 52.6002C34.4422 53.884 33.3236 54.468 31.784 54.468V58.468ZM38.607 54.8975C40.2449 52.5895 40.912 49.388 40.912 45.6H36.912C36.912 49.028 36.2884 51.2531 35.345 52.5825L38.607 54.8975ZM40.912 45.6C40.912 41.812 40.2449 38.6105 38.607 36.3025L35.345 38.6175C36.2884 39.9469 36.912 42.172 36.912 45.6H40.912ZM38.6194 36.3202C36.9871 33.9666 34.6444 32.732 31.784 32.732V36.732C33.3236 36.732 34.4422 37.316 35.3326 38.5998L38.6194 36.3202ZM31.784 32.732C28.9445 32.732 26.6145 33.9725 24.961 36.3025L28.223 38.6175C29.1508 37.3101 30.2822 36.732 31.784 36.732V32.732ZM24.9486 36.3202C23.3503 38.6247 22.7 41.8184 22.7 45.6H26.7C26.7 42.1656 27.311 39.9326 28.2354 38.5998L24.9486 36.3202ZM22.7 45.6C22.7 49.3816 23.3503 52.5753 24.9486 54.8798L28.2354 52.6002C27.311 51.2674 26.7 49.0344 26.7 45.6H22.7ZM24.961 54.8975C26.6145 57.2275 28.9445 58.468 31.784 58.468V54.468C30.2822 54.468 29.1508 53.8899 28.223 52.5825L24.961 54.8975ZM71.5586 30.2H73.5586V28.2H71.5586V30.2ZM71.5586 34.028L73.3867 34.8392L73.5586 34.4518V34.028H71.5586ZM59.5906 61V63H60.8912L61.4187 61.8112L59.5906 61ZM53.4746 61L51.6479 60.1857L50.3934 63H53.4746V61ZM65.0466 35.04L66.8734 35.8543L68.1279 33.04H65.0466V35.04ZM52.9466 35.04V33.04H50.9466V35.04H52.9466ZM52.9466 40.276V42.276H54.9466V40.276H52.9466ZM47.6226 40.276H45.6226V42.276H47.6226V40.276ZM47.6226 30.2V28.2H45.6226V30.2H47.6226ZM69.5586 30.2V34.028H73.5586V30.2H69.5586ZM69.7305 33.2168L57.7625 60.1888L61.4187 61.8112L73.3867 34.8392L69.7305 33.2168ZM59.5906 59H53.4746V63H59.5906V59ZM55.3014 61.8143L66.8734 35.8543L63.2199 34.2257L51.6479 60.1857L55.3014 61.8143ZM65.0466 33.04H52.9466V37.04H65.0466V33.04ZM50.9466 35.04V40.276H54.9466V35.04H50.9466ZM52.9466 38.276H47.6226V42.276H52.9466V38.276ZM49.6226 40.276V30.2H45.6226V40.276H49.6226ZM47.6226 32.2H71.5586V28.2H47.6226V32.2Z" fill="#67BB25"/>
<circle cx="45" cy="45" r="44" stroke="#67BB25" stroke-width="2" stroke-linecap="round" stroke-linejoin="round" stroke-dasharray="5 5"/>
</svg>
