<svg width="100" height="103" viewBox="0 0 100 103" fill="none" xmlns="http://www.w3.org/2000/svg">
<path d="M53.2382 71.4702C55.3475 70.1413 64.3968 64.2561 64.9241 63.4545C65.4514 62.653 62.5616 57.9913 61.8444 57.1264C61.1272 56.2616 64.671 49.1319 64.671 48.6045C64.671 48.0772 68.6366 48.8788 69.6913 48.9631C70.746 49.0475 70.9147 48.9631 71.2733 47.5498C72.2286 42.5539 72.9326 37.5132 73.3827 32.4467C73.1085 30.5694 65.0929 30.5694 65.0929 30.5694C65.0929 30.5694 64.671 28.9873 64.3124 27.7639C63.9538 26.5405 62.0343 21.8577 62.0343 21.4358C62.0343 21.0139 65.2827 18.3561 66.0632 17.217C66.8436 16.078 64.228 14.2217 62.0343 11.7538C59.8405 9.28578 52.9639 3.61157 52.0147 3.69594C51.0655 3.78032 44.9061 9.32797 44.9061 9.32797C44.9061 9.32797 42.2694 9.05375 38.8311 8.885C36.6602 8.87138 34.4905 8.99114 32.3343 9.2436C31.7225 9.13813 30.7522 4.58188 29.9718 3.1686C29.1913 1.75532 23.8124 4.30766 18.3702 6.94438C14.6577 8.58368 11.3305 10.9838 8.6038 13.9897C8.16083 14.8545 11.7679 20.0436 11.7679 20.0436C11.7679 20.0436 10.7975 20.4866 8.96239 24.4311C7.8372 27.0032 7.12531 29.7369 6.85302 32.5311C6.85302 32.5311 2.00146 32.5311 0.693644 34.0288C-0.614169 35.5264 2.63427 49.6592 3.33036 51.2413C4.02646 52.8233 11.3249 50.4608 11.3249 50.4608C12.1151 51.8525 13.0256 53.1724 14.046 54.4053C15.6506 55.8798 17.1784 57.4357 18.6233 59.067C17.7594 61.3538 16.7592 63.5867 15.628 65.7538C15.4593 66.2811 16.1554 66.9772 18.8975 68.4749C23.2255 70.3704 27.8105 71.6144 32.503 72.1663C34.7179 72.1663 35.8569 66.3655 36.4686 65.5639C37.0804 64.7624 43.8514 65.8381 44.6319 66.4498C45.4124 67.0616 47.1843 72.2506 48.0702 72.9467C48.9561 73.6428 51.2132 72.7569 53.2382 71.4702ZM43.3874 55.017C43.1343 55.017 41.8054 55.5444 41.8897 56.0717C41.9741 56.5991 44.3577 61.7038 44.1046 61.7038C43.3687 61.7885 42.6256 61.7885 41.8897 61.7038C41.4679 61.535 39.3585 56.3459 38.9999 56.3459C38.6413 56.3459 37.1436 56.3459 37.2491 57.1264C37.3546 57.9069 39.7804 61.535 38.9999 61.535C37.6251 61.1536 36.2076 60.948 34.7811 60.9233C33.3679 61.1764 32.8405 63.0327 32.2288 63.8131C31.6171 64.5936 31.1741 67.2514 30.2882 67.2514C29.4022 67.2514 21.0702 64.1717 21.0702 63.6444C21.0702 63.117 23.96 58.3709 23.1796 57.485C20.6826 55.4728 18.4626 53.1393 16.5772 50.5452C13.7718 46.3264 13.603 45.2717 12.7171 45.3561C11.8311 45.4405 7.19052 47.4655 6.9163 47.0225C6.64208 46.5795 4.63817 37.003 5.50302 36.7498C6.36786 36.4967 9.82724 36.8975 9.82724 36.3913C10.3239 32.7318 11.3916 29.1729 12.9913 25.8444C14.1317 24.1975 15.1878 22.4937 16.1554 20.7397C16.2819 20.3178 13.5186 15.8248 13.8561 15.0444C15.5178 13.2833 17.447 11.7954 19.5725 10.6358C22.0405 9.13813 26.871 7.38735 27.0397 7.83032C27.2085 8.27328 28.9804 13.5467 29.7819 13.4623C32.8618 13.0217 35.9765 12.8734 39.0843 13.0194C43.303 13.2725 45.771 13.8842 46.214 13.5467C47.8812 11.8668 49.6418 10.2823 51.4874 8.80063C54.6716 11.2679 57.6681 13.9683 60.4522 16.8795C60.2624 17.1538 55.3475 20.8452 56.2335 22.4272C57.9426 24.4335 59.2271 26.7657 60.0093 29.2827C60.9796 33.1428 61.9499 34.1131 62.1186 34.1131C62.2874 34.1131 68.8897 34.7881 68.8897 35.3366C68.6313 38.3532 68.1662 41.3485 67.4975 44.3014C65.6462 43.8933 63.7605 43.6602 61.8655 43.6053C61.5069 43.9428 60.2835 45.7147 60.2835 45.7147C59.0422 43.7615 57.69 41.8811 56.2335 40.0827C55.9593 40.0827 54.3772 41.1373 54.9046 41.7491C56.6175 43.5717 58.2033 45.5099 59.6507 47.5498C59.4527 49.2152 59.0121 50.8426 58.3429 52.3803C58.0686 52.3803 53.8499 44.3858 53.5968 44.3858C53.3436 44.3858 52.0991 45.5248 52.2679 45.7991C52.4366 46.0733 57.6257 55.3756 57.6257 55.3756C57.6257 55.3756 56.571 57.8436 57.0139 58.6241C57.8465 59.8729 58.553 61.2013 59.1233 62.5897C58.8907 62.8509 58.6289 63.0845 58.3429 63.2858C58.3429 63.2858 51.2132 48.9631 50.5171 48.8788C49.821 48.7944 48.7452 49.7436 49.0194 50.1022C49.2936 50.4608 56.8452 63.9819 56.571 64.3405C55.9153 64.8546 55.2084 65.2999 54.4616 65.6694C54.4616 65.6694 48.1335 52.8233 47.8804 53.0131C47.6272 53.203 46.2983 53.9834 46.4671 54.5108C46.6358 55.0381 52.7952 66.7241 52.6264 66.9983C52.4577 67.2725 50.7702 68.4959 50.7702 68.2217C50.1085 66.295 49.1934 64.4649 48.0491 62.7795C47.6026 62.5006 47.1291 62.2673 46.6358 62.0834C46.6358 62.0834 43.5772 55.017 43.3874 55.017ZM23.4327 29.7045C22.6522 30.6538 21.5975 32.2358 21.1546 36.8131C20.7116 41.3905 22.6522 44.0272 23.264 44.0272C23.7312 43.9008 24.1454 43.6275 24.4454 43.2477C24.7455 42.8678 24.9155 42.4016 24.9304 41.9178C24.9304 40.6733 24.0655 41.0319 23.7069 38.2264C23.6125 35.9856 24.225 33.7719 25.4577 31.8983C26.0694 30.5694 23.728 29.4514 23.4327 29.81V29.7045ZM51.2132 34.978C50.8546 30.7592 44.885 25.8233 38.1139 26.878C24.846 28.9873 26.9554 39.0913 29.4233 42.0866C31.1137 44.1511 33.3658 45.682 35.9074 46.4942C38.4491 47.3065 41.1716 47.3654 43.746 46.6639C46.1724 45.9498 48.2614 44.3874 49.6321 42.2617C51.0028 40.1359 51.5639 37.5884 51.2132 35.0834V34.978ZM44.1046 41.4748C42.7229 42.5875 40.9656 43.1251 39.1979 42.9758C37.4302 42.8265 35.7879 42.0019 34.6124 40.6733C31.6171 37.9522 31.4483 32.6788 38.5569 30.8436C39.8428 30.757 41.1319 30.956 42.3318 31.4265C43.5316 31.8969 44.6125 32.6271 45.4968 33.5647C46.2698 34.8442 46.5546 36.3599 46.2987 37.8327C46.0429 39.3055 45.2637 40.6364 44.1046 41.5803V41.4748ZM99.56 26.3506C99.1171 25.4647 94.371 23.967 94.371 23.967C94.5456 22.9547 94.6653 21.9337 94.7296 20.9084C94.8419 19.5156 94.6623 18.1146 94.2022 16.7952C94.2022 16.7952 97.2608 15.3819 97.8936 15.0444C98.5264 14.7069 98.0624 12.935 96.4804 9.85532C94.8983 6.77563 92.2616 2.28266 91.3757 2.38813C90.4897 2.4936 87.8741 5.63657 87.8741 5.63657C86.5908 4.66339 85.1687 3.88835 83.6553 3.33735C81.5809 2.71503 79.3606 2.78164 77.3272 3.52719C77.3272 3.52719 75.2179 1.1436 74.7749 0.616252C74.3319 0.0889085 73.1085 0.363127 71.2522 1.67094C68.7332 4.15182 66.5234 6.92822 64.671 9.93969C64.2491 10.91 68.8897 17.4069 68.8897 17.6811C68.8897 17.9553 65.1983 19.2631 64.671 19.685C64.1436 20.1069 64.5022 21.3725 65.3882 24.9584C65.5361 26.0026 65.9017 27.0041 66.4613 27.898C67.0209 28.7919 67.762 29.5583 68.6366 30.1475C69.86 30.3373 70.3874 28.4811 70.1343 28.0381C69.0718 25.898 68.1282 23.7009 67.3077 21.4569C67.3077 20.8452 70.9991 19.6006 72.0538 18.6514C73.1085 17.7022 69.6069 12.935 68.721 11.9647C67.835 10.9944 67.3077 10.6358 69.1639 8.35766C70.5091 6.80479 72.0073 5.3914 73.6358 4.13891C74.5328 5.05383 75.6103 5.77216 76.7999 6.24828C78.5718 6.86 78.9093 5.36235 82.4319 5.63657C85.9546 5.91078 86.1233 8.80063 87.7897 8.71625C89.4561 8.63188 90.5108 6.24828 90.6163 5.97407C90.7218 5.69985 95.1725 13.5467 95.1725 13.5467C93.4325 14.1411 91.7517 14.8968 90.1522 15.8038C89.9835 16.2467 91.1225 17.3014 92.2616 19.4108C93.4007 21.5202 91.8186 25.992 91.8186 25.992L96.2061 27.4897C96.2061 27.4897 92.5991 32.953 91.9874 33.4803C91.3757 34.0077 89.4561 31.5397 88.6546 30.6538C87.853 29.7678 81.2718 30.6538 79.8585 30.6538C78.4452 30.6538 79.521 32.1514 79.6897 34.092C79.8585 36.0327 75.471 34.535 74.5007 34.6194C73.5303 34.7038 73.8046 36.7288 74.2475 37.6991C74.6905 38.6694 80.5757 37.5936 82.1577 36.9819C83.7397 36.3702 82.685 33.9022 82.4952 33.5647C84.0647 33.3191 85.6572 33.2554 87.2413 33.3749C88.9505 34.6119 90.781 35.6721 92.7046 36.5389C94.0968 36.8975 96.6491 31.2655 97.3663 30.3163C98.0835 29.367 100.003 27.1733 99.56 26.3506ZM78.9936 12.7241C78.1334 12.8567 77.3131 13.1777 76.5915 13.6643C75.8698 14.1509 75.2646 14.791 74.8192 15.5387C74.3737 16.2865 74.0991 17.1235 74.0148 17.9898C73.9306 18.8561 74.0389 19.7303 74.3319 20.5498C74.4488 21.2531 74.7087 21.9249 75.0957 22.5237C75.4826 23.1225 75.9883 23.6355 76.5815 24.0309C77.1747 24.4264 77.8427 24.6959 78.5443 24.8228C79.2458 24.9497 79.9659 24.9312 80.66 24.7686C84.2671 23.967 84.71 21.2459 85.4061 18.4405C86.1022 15.635 83.6554 11.8592 78.9936 12.6608V12.7241ZM82.685 19.9381C81.7991 21.6045 80.7444 22.7436 78.8038 22.0475C76.8632 21.3514 75.8296 17.1327 80.2171 16.4155C81.546 16.2256 83.6554 18.2084 82.685 19.8748V19.9381ZM82.685 25.7389C80.8288 26.5194 81.8835 27.4053 82.8538 27.6584C83.8241 27.9116 84.9632 27.8483 87.0725 26.3506C89.1819 24.853 87.9585 23.3553 87.6843 23.3553C87.41 23.3553 86.9038 24.853 85.5749 25.4647C84.246 26.0764 83.339 25.4225 82.7694 25.6756L82.685 25.7389ZM83.0436 63.3491C82.4262 62.6518 81.6318 62.1343 80.7444 61.8514C78.4744 61.2936 76.1418 61.0312 73.8046 61.0709C72.9186 61.0709 73.8046 55.3545 72.8343 54.2155C71.8639 53.0764 63.2577 55.5233 62.8147 55.7975C62.3718 56.0717 62.8147 57.4639 62.8147 58.2444C62.8147 59.0248 65.7257 61.5983 65.7257 61.5983C65.7257 61.5983 65.8944 58.603 65.7257 57.717C65.5569 56.8311 69.4171 56.4092 69.9444 56.4092C70.4718 56.4092 70.2186 61.6827 70.303 62.7374C70.3545 63.2794 70.5933 63.7865 70.9783 64.1714C71.3633 64.5564 71.8704 64.7952 72.4124 64.8467C73.4671 65.0999 74.5218 63.8764 77.5804 64.0452C78.5216 64.0305 79.4498 64.2672 80.2692 64.7306C81.0886 65.1941 81.7696 65.8676 82.2421 66.6819C82.685 67.3991 89.5405 63.7077 89.9835 63.7077C91.4889 65.8639 92.7284 68.194 93.6749 70.6475C91.9878 72.0415 90.1562 73.2507 88.2116 74.2545C87.621 74.6342 88.5702 76.5116 88.8444 77.0178L85.4061 70.6897C84.841 70.8559 84.3263 71.1604 83.9085 71.5756C83.3811 72.1873 88.296 78.7897 88.296 78.7897C88.3241 79.7875 88.2392 80.7852 88.0429 81.7639C87.7686 82.1225 83.8241 74.7397 83.6553 74.3811C83.4866 74.0225 82.2421 74.9928 82.0733 75.267C81.9046 75.5413 87.3468 83.8733 87.3468 83.8733C87.2041 85.1629 86.9067 86.4306 86.4608 87.6491C84.8364 85.0758 83.4255 82.3738 82.2421 79.5702C81.8835 78.6842 80.7444 80.0131 80.4913 80.8991C80.2382 81.785 87.1569 94.167 87.5155 94.8631C87.8741 95.5592 86.5452 96.3608 86.2077 96.3608C85.8702 96.3608 80.0483 85.5397 79.8796 85.1178C79.7108 84.6959 77.7702 86.5944 77.7702 86.5944C77.7702 86.5944 84.2671 97.1413 84.7944 97.6686C85.3218 98.196 83.7397 98.4702 82.685 98.9131C81.6304 99.3561 75.2179 87.628 74.8593 87.5225C74.5007 87.417 73.3616 88.4928 73.003 89.0202C72.6444 89.5475 76.6944 93.6819 76.9686 94.2092C77.2429 94.7366 75.028 94.9897 74.5007 95.1584C73.9733 95.3272 71.421 90.7709 71.1679 89.9905C70.9147 89.21 69.6702 89.9905 69.0585 90.6022C68.4468 91.2139 71.6952 94.5467 71.8639 95.2639C72.0327 95.9811 67.6452 93.8506 66.5061 93.935C65.3671 94.0194 62.8147 98.6811 62.2874 99.2085C61.76 99.7358 55.9593 95.7913 55.3475 95.4327C54.7358 95.0741 57.8155 91.7413 58.4272 91.2139C59.039 90.6866 58.4272 90.6022 55.7905 87.5225C54.9978 86.7275 54.3771 85.778 53.967 84.7329C53.557 83.6878 53.3663 82.5695 53.4069 81.4475C51.9451 81.0581 50.4461 80.8248 48.935 80.7514C48.4921 80.7514 48.6608 78.8952 48.935 78.2834C49.2093 77.6717 51.4874 79.1694 52.1835 79.1694C52.8796 79.1694 52.7952 78.8952 53.1538 78.0303C54.0956 76.4207 55.3171 74.992 56.7608 73.8116C60.3864 71.0696 64.1686 68.5411 68.0882 66.2389C68.8054 65.9858 68.3624 65.0155 67.6452 64.9311C63.6593 66.4492 59.8361 68.3643 56.2335 70.6475C54.4546 72.2146 52.804 73.9216 51.2975 75.7522C50.0099 75.3468 48.6904 75.0504 47.353 74.8663C46.6358 74.8663 46.214 81.3631 46.214 82.7764C46.214 84.1897 50.8546 83.135 50.8546 83.135C51.4772 84.2559 51.8715 85.489 52.0147 86.7631C52.5145 88.4404 53.6499 89.8559 55.1788 90.7077C55.1788 90.7077 51.1288 94.3147 51.2132 95.4538C51.2975 96.5928 61.76 102.394 62.7304 102.921C63.7007 103.448 67.835 97.0358 67.835 97.0358C67.835 97.0358 70.3874 97.5631 72.0538 97.7319C74.3437 97.7573 76.633 97.6446 78.9093 97.3944C80.0573 99.2497 81.3479 101.013 82.7694 102.668C83.5499 103.195 91.6499 95.8124 92.2616 94.6733C92.8733 93.5342 90.1522 90.4545 89.2663 89.653C88.3803 88.8514 89.0975 88.4295 90.5952 84.7381C91.5348 81.6384 91.8924 78.3915 91.6499 75.1616C91.6499 75.1616 95.8686 72.5249 96.9233 71.6389C97.978 70.753 92.0929 60.8178 91.2069 60.2061C90.321 59.5944 83.128 63.2858 83.128 63.2858L83.0436 63.3491ZM60.4522 76.6381C59.6507 76.385 58.6804 77.4397 58.6804 77.8827C58.6804 78.3256 59.5663 83.5991 60.7897 84.4639C62.0132 85.3288 63.321 84.1264 63.7639 83.4936C64.2069 82.8608 63.321 82.2702 62.4561 80.7725C61.5913 79.2748 61.1061 76.8491 60.4522 76.6381ZM66.3374 81.7428C67.7104 82.6143 69.2968 83.091 70.9227 83.1207C72.5486 83.1505 74.1514 82.7322 75.5554 81.9116C78.1077 80.1608 79.078 77.3553 76.4413 73.0522C76.0637 72.3222 75.542 71.6764 74.9077 71.1539C74.2733 70.6314 73.5395 70.243 72.7508 70.0123C71.962 69.7816 71.1346 69.7133 70.3186 69.8116C69.5027 69.9099 68.7152 70.1728 68.0038 70.5842C60.4522 73.917 64.228 80.0764 66.4218 81.7428H66.3374ZM69.7546 72.6092C70.6826 72.3548 71.6696 72.4253 72.5521 72.809C73.4345 73.1926 74.1593 73.8664 74.6061 74.7186C76.0827 77.3553 75.6608 79.6334 72.9186 80.3295C71.7198 80.5542 70.484 80.4792 69.3212 80.1112C68.1583 79.7432 67.1044 79.0936 66.253 78.2202C65.9664 77.6188 65.8377 76.9543 65.879 76.2893C65.9203 75.6244 66.1302 74.9809 66.4889 74.4196C66.8477 73.8582 67.3435 73.3975 67.9296 73.0807C68.5157 72.764 69.1728 72.6017 69.839 72.6092H69.7546Z" fill="#EFD101"/>
</svg>
