<svg width="98" height="101" viewBox="0 0 98 101" fill="none" xmlns="http://www.w3.org/2000/svg">
<path fill-rule="evenodd" clip-rule="evenodd" d="M44.712 36.1638C46.9905 36.8195 49.3521 36.9761 51.7058 37.0926C53.17 37.1631 54.0831 36.3488 54.6077 35.0266C55.0775 33.8414 54.5372 32.9263 53.8208 32.0748C53.3589 31.5257 52.7227 31.2948 52.0024 31.2155C50.4404 31.0442 48.8823 30.8416 47.3271 30.6204C45.1896 30.3161 43.0512 29.9931 40.9753 29.3873C36.8061 28.1717 32.4332 28.1101 28.2268 27.1147C27.3489 26.9053 26.7058 27.3369 26.241 28.0592C25.1233 29.7944 24.0222 31.5434 22.8791 33.262C22.699 33.5311 22.3369 33.6808 22.059 33.8854C21.9063 33.6368 21.7242 33.4009 21.6048 33.1377C21.2672 32.3997 21.1263 31.6667 21.5187 30.8729C21.7282 30.4472 21.8329 29.9461 21.8789 29.4695C21.9542 28.6679 21.3934 27.8771 20.5948 27.7274C20.0311 27.6217 19.4047 27.5835 18.8586 27.7205C17.6313 28.0279 16.9188 29.5135 17.6568 30.4746C18.4789 31.5434 18.4769 32.6317 18.333 33.8091C18.3047 34.042 18.1079 34.2544 17.9876 34.4775C17.7771 34.2818 17.4855 34.1232 17.37 33.8825C16.1398 31.3212 14.5464 28.9429 13.5051 26.2877C13.3162 25.8062 12.7564 25.4235 12.3561 25.5654C11.1591 25.9882 9.9798 26.461 8.79459 26.9151C6.45843 29.1671 3.97546 31.2879 2.58962 34.3376C1.31241 37.1455 0.527487 40.0522 0.531402 43.1645C0.542168 48.5777 0.490296 53.9909 0.482467 59.4051C0.480509 60.7831 0.543146 62.1611 0.587188 63.5382C0.620464 64.5893 1.11177 65.4133 1.9055 66.073C3.21305 67.1603 5.25071 66.7052 5.84478 65.1227C6.18831 64.2115 6.36252 63.2514 6.26954 62.2326C6.10512 60.4738 6.02486 58.7053 5.97691 56.9388C5.92895 55.1683 5.97789 53.3958 5.96321 51.6234C5.93776 48.3614 6.47507 45.164 7.16603 41.9969C7.41462 40.8577 7.92844 39.7723 8.3718 38.682C8.46673 38.4462 8.74468 38.1848 8.98348 38.13C9.38965 38.0322 9.3505 38.4471 9.38769 38.6938C9.75862 41.121 10.2206 43.5403 10.4545 45.9812C10.7745 49.3058 11.4058 52.6041 11.3206 55.9659C11.2834 57.4418 11.3568 58.9197 11.3373 60.3946C11.2472 67.0889 11.5722 73.7695 11.8785 80.4521C11.8971 80.8455 11.8902 81.2439 11.948 81.6314C12.6996 86.5974 12.9923 91.5986 13.0275 96.6164C13.0304 97.0098 12.9903 97.416 13.0735 97.7938C13.1782 98.2635 13.3368 98.7421 13.5687 99.162C14.1657 100.245 15.1983 100.657 16.6056 100.446C17.8094 100.263 18.7832 99.3215 18.8997 98.0942C18.9839 97.2163 18.9496 96.3237 18.9457 95.44C18.9212 89.0412 18.887 82.6444 18.8635 76.2476C18.8596 75.4607 18.8635 74.6709 18.9418 73.8909C18.9663 73.6501 19.207 73.3183 19.4282 73.2332C20.0604 72.9885 20.725 72.8016 21.3934 72.6832C22.0609 72.5647 22.5101 72.9768 22.515 73.6863C22.5327 76.4424 22.517 79.1994 22.5287 81.9544C22.5346 83.0369 22.3859 84.1663 22.6374 85.192C23.1874 87.4283 23.0122 89.6862 23.1453 91.9362C23.2432 93.5971 23.4967 95.257 23.7962 96.8963C23.9156 97.5481 24.2689 98.1921 24.6476 98.7519C25.2975 99.7101 26.6814 100.069 27.8323 99.6885C28.8218 99.3597 29.5999 98.333 29.6263 97.2183C29.641 96.632 29.6517 96.0115 29.4805 95.4644C28.9657 93.83 29.0508 92.1594 29.0038 90.4897C28.9588 88.9198 28.858 87.351 28.7425 85.7841C28.6642 84.7114 28.4235 83.6446 28.4186 82.5749C28.3873 76.1801 28.4019 69.7852 28.4019 63.3884H28.3882C28.3882 56.7959 28.4049 50.2014 28.3765 43.6078C28.3706 42.2083 28.4528 40.8136 29.089 39.5805C29.684 38.4256 30.0706 37.2335 30.3877 35.9945C30.5081 35.5208 30.6784 35.0559 30.8683 34.6047C31.0846 34.0909 31.7491 33.6818 32.3128 33.7885C33.3738 33.9872 34.417 34.272 35.4731 34.4922C36.9108 34.7946 38.3456 35.235 39.797 35.3182C41.4843 35.4132 43.0982 35.7019 44.712 36.1638ZM97.0482 18.234C96.7791 15.6022 96.9631 12.9255 96.8994 10.2693C96.8593 8.59374 96.0568 7.60917 94.4047 7.60917C93.2195 7.60917 92.3827 6.97105 91.3815 6.63438C90.2394 6.24779 89.0825 7.34883 87.9169 6.66863C84.3153 6.15677 80.7185 5.65372 77.0572 5.81031C75.091 5.89448 73.1199 5.82499 71.1497 5.82499C71.1478 5.79563 71.1468 5.76431 71.1449 5.73397C67.8036 5.89448 64.4623 6.05499 61.122 6.21549C60.6952 6.23605 60.3468 5.95124 60.3429 5.53921C60.3351 4.65544 60.3928 3.76678 60.3341 2.88692C60.2499 1.6244 59.1871 0.525312 57.9744 0.805221C56.6287 1.11547 55.4572 0.756286 54.2133 0.539993C53.8335 0.47442 53.4254 0.495951 53.0388 0.545865C52.3009 0.638842 51.6647 1.00096 51.5512 1.76337C51.3369 3.2099 50.5608 4.5468 50.7966 6.0863C50.8828 6.65297 50.4962 6.95539 49.8737 6.97007C48.2011 7.01216 46.5256 7.06109 44.853 7.0425C41.6957 7.00824 38.5628 7.29207 35.4466 7.74423C34.8907 7.82644 34.3084 8.06916 33.8445 8.39017C32.8423 9.08603 32.9373 10.5443 34.0177 11.0669C34.6226 11.3605 35.3057 11.5856 35.9732 11.6434C37.2445 11.754 38.5286 11.7452 39.8097 11.7452C45.126 11.7501 50.4433 11.7824 55.7606 11.7217C59.5962 11.6776 63.4278 11.6111 67.2653 11.3928C72.0766 11.1198 76.9114 11.2764 81.7364 11.2636C82.2248 11.2627 82.7161 11.3527 83.1995 11.433C84.8643 11.7099 86.5007 11.8058 88.1577 11.2744C88.8858 11.0405 89.7099 11.0738 90.4919 11.0434C91.0634 11.0219 91.3844 11.3919 91.3884 11.9683C91.3942 12.5497 91.3022 13.1476 91.406 13.7114C91.7152 15.3801 91.7006 17.0615 91.4618 18.7135C91.0223 21.7505 91.1329 24.802 91.0517 27.8488C91.0037 29.6457 91.2415 31.4005 91.8053 33.0789C92.1273 34.0381 92.3093 34.962 92.2702 35.9563C92.0294 42.3463 91.7926 48.7382 91.5538 55.1291C91.5498 55.227 91.5361 55.3259 91.5156 55.4218C91.4207 55.8504 91.1603 56.1215 90.716 56.1078C88.0568 56.0315 85.4153 56.0511 82.7846 56.6177C81.7452 56.8419 80.6265 56.7274 79.5441 56.7323C77.7707 56.742 75.9982 56.7019 74.2248 56.7185C72.059 56.7391 69.8725 56.6207 67.7321 56.8791C64.0033 57.3302 60.2695 57.3116 56.5328 57.4203C51.6158 57.5632 46.6998 57.7814 41.7847 57.9498C40.8736 57.9821 40.0015 58.168 39.2832 58.7034C38.9299 58.9657 38.6441 59.4579 38.5511 59.8954C38.416 60.5237 38.7958 61.0336 39.3478 61.3429C40.1386 61.7882 41.0008 61.9164 41.9061 61.9341C43.8743 61.9732 45.8415 62.0897 47.8096 62.1298C48.6944 62.1494 49.3296 62.4166 49.586 63.3336C49.9344 64.5814 50.7301 65.3194 52.0288 65.6091C52.756 65.7716 52.9968 66.256 52.9703 66.8931C52.8637 69.4485 52.7071 72.003 52.6748 74.5583C52.6611 75.6555 52.2608 76.3905 51.4161 77.0472C49.0085 78.9194 46.6303 80.8318 44.2687 82.7628C42.8212 83.9461 41.3864 85.1499 40.0133 86.4173C38.6959 87.6329 38.6049 89.1909 39.1706 90.7774C39.7803 92.4843 41.7515 93.1831 43.2958 92.2132C44.2041 91.6455 45.0047 90.8939 45.8072 90.1736C48.5916 87.6769 51.3476 85.1499 54.1301 82.6503C54.9728 81.8928 55.5062 81.9055 56.4849 82.5827C58.9091 84.2651 61.3539 85.9182 63.7566 87.6329C65.5956 88.9463 67.3827 90.3311 69.1904 91.6896C69.7404 92.1046 70.2503 92.5792 70.8258 92.9531C71.9073 93.6587 73.0895 93.645 74.1994 93.0921C75.3817 92.5019 75.7976 91.4243 75.7193 90.1315C75.6772 89.418 75.4913 88.7623 74.9657 88.2612C74.2542 87.5839 73.5622 86.8655 72.7724 86.2901C70.4666 84.6155 68.1109 83.0095 65.7884 81.3554C65.5662 81.1959 65.4419 80.8984 65.2717 80.6645C65.5202 80.5862 65.7757 80.4218 66.0174 80.4413C67.6802 80.5803 69.3401 80.7878 71.0059 80.9101C71.9885 80.9806 72.9652 80.9923 73.8979 81.3907C74.2513 81.5414 74.6594 81.5845 75.0489 81.6265C76.3721 81.7626 77.4976 81.1313 77.9292 80.0391C78.4235 78.7844 78.0594 77.3888 76.9309 76.6401C76.285 76.2114 75.5657 75.816 74.8248 75.6261C73.6895 75.3335 72.5082 75.1123 71.3386 75.0741C67.7987 74.9586 64.2881 74.3479 60.7324 74.5006C59.8428 74.5388 59.4445 74.1816 59.327 73.3409C59.0706 71.4931 58.8259 69.6433 58.6233 67.7877C58.4706 66.3832 59.1352 65.4045 60.6483 65.0777C61.855 64.8173 62.5969 64.2673 62.8445 63.04C62.9756 62.395 63.4268 62.0593 64.107 62.0212C66.8552 61.8685 69.6024 61.6297 72.3536 61.5563C77.5603 61.4153 82.7904 61.7814 87.9551 60.7948C88.8173 60.6294 89.6962 60.5208 90.5398 60.282C92.046 59.8553 93.5376 59.3738 95.0203 58.8707C95.815 58.6006 96.3249 58.0985 96.3279 57.1404C96.3328 55.4678 96.3455 53.7864 96.5099 52.1245C96.9621 47.5236 97.4025 42.9159 97.4318 38.2984C97.4778 31.6128 97.7323 24.9195 97.0482 18.234ZM55.6422 6.23017C55.5717 6.37404 55.0882 6.43864 54.8622 6.35447C54.3562 6.16656 54.1761 5.41002 54.4041 4.58204C54.4452 4.43327 54.6674 4.33736 54.8064 4.21502C54.9806 4.27962 55.2155 4.29332 55.3182 4.41566C55.7675 4.95003 55.9573 5.58325 55.6422 6.23017ZM47.3516 43.0842C46.8446 43.3573 46.3602 43.7223 45.9677 44.1403C45.2728 44.8811 45.6966 46.3032 46.6978 46.5156C47.3516 46.6536 48.0798 46.6761 48.7316 46.5391C49.6858 46.3394 50.6068 45.9646 51.5316 45.6377C54.4237 44.613 57.0711 43.0989 59.6422 41.4586C60.4897 40.9184 61.0965 40.7021 61.9666 41.441C62.9316 42.2611 64.0307 42.9188 65.3079 43.2575C67.3465 43.7987 68.3419 43.3837 69.4233 41.5105C70.357 39.8956 71.3504 38.313 72.3555 36.7413C72.8644 35.9465 73.5603 35.7175 74.3912 36.065C75.1135 36.3674 75.779 36.8 76.4935 37.1239C77.2941 37.4851 78.0976 37.8981 78.9441 38.0948C80.7684 38.5186 82.2678 37.5771 82.7895 35.8046C82.8727 35.5237 82.9284 35.2321 82.9911 34.9444C83.6566 31.8722 84.3985 28.8216 85.5034 25.8708C85.6727 25.4177 85.7168 24.9175 85.7677 24.6778C85.7823 22.9386 84.6979 21.8336 83.1888 21.7759C81.8294 21.726 80.8908 22.3915 80.4474 23.6002C79.7731 25.4402 79.225 27.3291 78.6329 29.1984C78.4264 29.8522 78.2737 30.5235 78.0457 31.1695C77.9557 31.4259 77.7854 31.6921 77.388 31.5463C76.835 31.3417 76.2664 31.1773 75.7056 30.9933C74.1201 30.4756 72.607 30.6645 71.1429 31.4347C69.7208 32.1805 68.5239 33.1455 67.7057 34.5695C67.1684 35.5042 66.5489 36.4007 65.8863 37.2512C65.6935 37.4997 65.1914 37.6867 64.887 37.626C64.4261 37.534 64.0111 37.2052 63.5853 36.9644C63.1567 36.7217 62.7623 36.4065 62.3121 36.2265C61.0065 35.7068 59.8007 36.0219 58.6899 36.7961C56.1844 38.545 53.5223 40.0287 50.7859 41.3803C49.6418 41.947 48.4761 42.4784 47.3516 43.0842ZM11.2071 16.029C12.3698 16.4478 12.7114 17.452 13.051 18.4992C13.6304 20.2961 14.5523 21.8894 15.8599 23.2802C16.9403 24.4311 18.289 24.8803 19.9538 25.1231C21.0754 25.0477 22.3731 24.8402 23.1375 23.6628C23.7697 22.688 24.2591 21.6036 24.6985 20.5222C24.9902 19.8038 25.1712 19.0101 25.2349 18.2379C25.3278 17.0771 25.6655 16.1356 26.7812 15.6042C26.9554 15.522 27.1159 15.3938 27.2588 15.2636C28.3422 14.2732 28.5683 12.8335 27.9224 11.5054C27.5906 10.8232 26.9897 10.5237 26.3809 10.2115C25.7947 9.91108 25.5177 9.44522 25.5255 8.79536C25.5441 7.4056 25.3425 6.05792 24.7935 4.76995C24.2268 3.43793 23.3019 2.26936 21.9621 1.94443C19.1238 1.25445 16.5078 1.3484 14.5592 4.54583C13.7928 5.80542 13.0794 7.10514 12.7838 8.56732C12.5616 9.66934 12.0341 10.4043 11.1014 11.1247C9.01382 12.7376 9.47871 14.2174 10.9761 15.8508C11.0407 15.9223 11.119 15.9976 11.2071 16.029ZM19.8216 8.05741C20.175 7.36743 20.4784 6.64808 20.7935 5.93852C21.0166 5.43645 21.1879 5.80542 21.3377 5.97571C22.1392 6.89765 22.5454 7.96248 22.5131 9.1976C22.4886 10.1734 22.5082 11.1521 22.5082 11.4584C22.6462 14.4885 22.5552 16.8286 21.5628 19.0238C21.3788 19.4329 20.9892 19.7637 20.6467 20.0778C20.5498 20.1669 20.2513 20.1268 20.1025 20.0426C19.9763 19.9721 19.8305 19.7089 19.8735 19.6051C20.2092 18.7948 20.5723 17.9942 20.9579 17.2063C21.2603 16.5878 21.1674 16.0456 20.6428 15.6424C20.0927 15.2176 19.9215 14.7097 20.2063 14.1146C20.6438 13.2015 20.3727 12.4997 19.8716 11.6757C19.1865 10.5423 19.1933 9.28275 19.8216 8.05741Z" fill="#3D94F2"/>
</svg>
