<svg width="138" height="138" viewBox="0 0 138 138" fill="none" xmlns="http://www.w3.org/2000/svg">
<circle cx="69" cy="69" r="69" fill="#3D94F2"/>
<path d="M75.9686 51.0781C76.2342 50.8594 76.328 50.4844 75.8436 48.6875C75.2187 46.4552 74.1682 44.3648 72.7498 42.5312C70.9493 40.3468 68.5314 38.7566 65.8124 37.9687C64.4686 38.3125 65.6092 39.2031 66.6717 39.8906C68.6 41.0324 70.3005 42.521 71.6873 44.2812C73.0868 46.2148 73.9883 48.4634 74.3123 50.8281C74.6248 51.4375 75.703 51.2969 75.9686 51.0781ZM59.1405 54.8594C58.3592 54.7812 56.4373 57.9062 56.1092 57.9844C55.7811 58.0625 55.8905 57.8437 55.328 57.3281C54.7655 56.8125 53.5467 55.0781 52.4373 55.125C51.328 55.1719 49.7967 57.4375 49.6248 57.4375C49.453 57.4375 49.2498 57.3125 48.5155 56.7969C47.7811 56.2812 45.8123 57 45.2811 57.4531C44.7498 57.9062 45.0623 59.0156 45.1717 59.2187C45.2811 59.4219 46.4217 64.2031 47.2498 67.0312C47.7504 69.0426 48.1261 71.0829 48.3748 73.1406C48.4998 73.4531 49.453 73.875 49.7498 73.9219C50.0824 73.929 50.4116 73.8544 50.7086 73.7046C51.0055 73.5547 51.2612 73.3342 51.453 73.0625C51.7498 72.625 51.1873 70.2969 50.4998 66.8125C49.8123 63.3281 48.2967 59.6875 48.4686 59.4375C48.6405 59.1875 48.8123 59.5625 49.0623 59.6562C49.3123 59.75 49.5467 59.7656 50.3123 59.5156C51.078 59.2656 51.3123 58.5625 51.6717 57.9531C52.0311 57.3437 52.203 57.1719 52.703 57.1875C53.203 57.2031 53.328 58.1719 53.9842 58.9687C54.6405 59.7656 54.9373 60.5312 56.3123 60.4375C57.6873 60.3437 59.0623 57.1875 59.4373 56.9531C59.8123 56.7187 60.0155 57.6094 60.0155 58.25C60.0155 58.8906 59.5311 60.6406 59.1405 63.4687C58.7498 66.2969 57.7342 70.9687 57.9686 71.9219C58.203 72.875 59.9999 72.7656 60.6249 72.5312C61.2499 72.2969 61.3905 70.1875 61.8748 65.9531C62.3216 63.0335 62.6085 60.0916 62.7342 57.1406C61.7253 56.1169 60.4962 55.3367 59.1405 54.8594ZM56.3592 96.1875C55.9163 96.3411 55.5334 96.631 55.2655 97.0156C55.1405 97.2969 57.3123 99.3906 57.453 99.4687C57.5936 99.5469 57.9998 98.9687 58.1248 98.75C57.6647 97.8141 57.0698 96.9508 56.3592 96.1875ZM33.3905 58.4219C32.3436 55.5156 33.5623 53.0937 33.7498 51.9219C33.9373 50.75 32.8748 51 32.3436 51.2031C31.8123 51.4062 31.453 52.2187 31.2655 54.0781C31.1047 56.3703 31.4515 58.6697 32.2811 60.8125C32.4649 61.493 32.795 62.1252 33.2484 62.665C33.7018 63.2047 34.2675 63.639 34.9061 63.9375C35.0529 63.9593 35.2026 63.9497 35.3454 63.9093C35.4881 63.8689 35.6207 63.7986 35.7342 63.7031C35.731 63.4955 35.6774 63.2917 35.578 63.1094C34.6953 61.6232 33.9625 60.053 33.3905 58.4219ZM74.7967 69.1562C76.8436 66.7031 77.9217 64.6562 79.2498 59.1562C80.578 53.6562 79.4842 50.5 78.5311 46.6562C77.578 42.8125 76.6873 41.1875 73.0311 37.0469C69.691 33.1491 65.3781 30.2056 60.5311 28.5156C55.7727 26.9025 50.6259 26.8369 45.828 28.3281C41.6328 29.609 37.7887 31.8385 34.5936 34.8437C31.7854 37.2901 29.5593 40.333 28.078 43.75C26.5067 47.4246 25.8268 51.4187 26.0936 55.4062C26.4623 59.3597 27.6149 63.2001 29.4842 66.7031C32.0373 70.3875 35.5197 73.3308 39.578 75.2344C42.1092 76.3125 42.8748 76.25 42.953 76.4687C43.0311 76.6875 42.0467 77.7031 41.7498 78.3281C41.453 78.9531 43.1248 80.7344 44.0623 81.75C44.9998 82.7656 43.6717 83.1719 42.8592 84.3437C42.592 84.7499 42.4231 85.2127 42.3662 85.6956C42.3092 86.1784 42.3657 86.6678 42.5311 87.125C42.7342 87.4375 44.0936 88.3594 44.3592 88.875C44.6248 89.3906 43.7655 90.25 43.1561 91.25C42.8892 91.5648 42.7121 91.9457 42.6434 92.3526C42.5747 92.7596 42.6168 93.1775 42.7655 93.5625C43.0155 94.4375 44.4217 94.4375 44.8123 94.5781C45.203 94.7187 44.9373 95.0312 44.8123 95.4844C44.4695 96.2506 44.4032 97.1122 44.6248 97.9219C44.9217 99.2969 46.9998 100.719 50.6561 102.781C54.3123 104.844 53.2186 105.25 55.1405 105.312C57.0623 105.375 56.703 104.859 57.8123 104.109C58.9217 103.359 60.1873 102.094 62.4061 100.5C64.1173 99.4817 65.6267 98.1577 66.8592 96.5937C67.1444 96.1625 67.2469 95.6359 67.1444 95.1292C67.0419 94.6225 66.7427 94.1771 66.3123 93.8906C65.8905 93.4687 66.1873 93.375 66.3123 93.0469C66.4373 92.7187 66.9686 92.7187 67.3905 91.4844C67.7241 90.5432 67.8207 89.5343 67.6717 88.5469C67.578 87.8594 66.7655 87.4687 66.5311 87.25C66.2967 87.0312 66.703 86.1406 67.2811 85.6875C67.6779 85.3968 67.9958 85.0115 68.2059 84.5667C68.416 84.122 68.5117 83.6318 68.4842 83.1406C68.4842 81.9062 67.7498 81.9687 66.9217 81.4844C66.0936 81 66.203 80.6719 66.2655 79.9219C66.2075 78.7997 66.4675 77.6841 67.0155 76.7031C67.828 75.3906 67.4373 75.1406 67.4373 75.1406C68.2394 74.737 69.0121 74.2775 69.7499 73.7656C71.6617 72.5011 73.3645 70.9459 74.7967 69.1562ZM63.8592 82.9844C63.7186 83.1719 62.9061 83.0781 62.9061 83.7344C62.9061 84.3906 63.2967 85.4531 62.9061 85.6875C62.5155 85.9219 61.3436 86.1094 61.3436 86.5937C61.3436 87.0781 62.6092 89.7187 62.9061 90.7031C63.203 91.6875 63.4061 91.6719 63.1717 91.8125C62.9373 91.9531 62.9373 92.1562 62.8123 91.9375C62.6873 91.7187 61.6717 89.4219 61.4061 89.4219C61.1405 89.4219 59.7498 89.9219 60.2811 90.4062C61.0096 91.6561 61.6366 92.9624 62.1561 94.3125C62.2967 94.5 63.2342 95.875 63.1092 96.1094C62.9842 96.3437 62.328 97.0781 62.2342 96.9844C61.5374 95.5076 60.7548 94.0729 59.8905 92.6875C59.5311 92.5469 58.2498 92.8125 58.5155 93.4062C58.7811 94 60.9842 97.5937 60.8905 97.7344C60.7967 97.875 60.1405 98.2187 60.0467 98.0937C59.4902 96.6294 58.7943 95.2219 57.9686 93.8906C57.6092 93.8906 56.7186 94.6094 56.8592 94.8594C57.7407 96.175 58.4942 97.572 59.1092 99.0312C58.6947 99.4696 58.2086 99.8342 57.6717 100.109C57.4373 100.109 57.3748 99.7187 56.953 99.7187C56.1495 99.6753 55.3531 99.5443 54.578 99.3281C54.0936 99.125 52.8905 98.375 52.4998 98.6406C51.882 98.946 51.2045 99.1114 50.5155 99.125C49.6999 98.7529 48.9668 98.2217 48.3592 97.5625C47.9061 97.1094 47.703 96.3281 47.8436 96.1406C47.9842 95.9531 48.7811 94.7031 48.9842 94.7656C50.4299 95.2222 51.9248 95.5055 53.4373 95.6094C54.9998 95.6094 55.328 95.2187 55.328 94.8594C55.328 94.5 55.328 94.125 54.7342 94.125C52.9056 94.0663 51.0882 93.8149 49.3123 93.375C47.2967 92.7969 46.1873 92.2812 46.3592 91.9844C46.5311 91.6875 47.5623 89.1875 48.078 89.3125C49.8711 89.8619 51.6978 90.2951 53.5467 90.6094C55.0989 90.8389 56.6652 90.959 58.2342 90.9687C58.6248 90.9687 58.8905 90.25 58.6561 90.0937C57.0815 89.6905 55.4851 89.3775 53.8748 89.1562C51.864 88.8549 49.9034 88.2819 48.0467 87.4531C46.6405 86.7031 45.9686 86.25 46.0311 86.0312C46.0936 85.8125 46.9998 83.3281 47.2967 83.3906C49.4674 83.8884 51.6633 84.2692 53.8748 84.5312C57.453 84.9531 58.203 84.9531 58.5623 84.8281C58.9217 84.7031 58.8436 84.0469 58.5623 83.8125C56.644 83.3707 54.6962 83.0678 52.7342 82.9062C51.0489 82.8045 49.3839 82.4841 47.7811 81.9531C47.7811 81.7969 48.4373 81.3437 48.0155 80.9531C47.2544 80.3619 46.5437 79.7086 45.8905 79C45.4998 78.4062 45.4373 78.1406 45.5311 77.8906C45.6248 77.6406 46.1873 76.7187 46.1873 76.7187C47.5415 76.9523 48.9086 77.1036 50.2811 77.1719C51.203 77.1719 51.5623 77.1719 51.6873 77.3281C51.9751 77.6821 52.3611 77.943 52.7967 78.0781C54.5992 78.5557 56.4739 78.6987 58.328 78.5C60.0668 78.3696 61.7721 77.9525 63.3748 77.2656C63.2147 78.4616 63.1624 79.6696 63.2186 80.875C63.3749 81.7656 63.4061 82.2187 63.703 82.4375C63.9998 82.6562 63.953 82.7812 63.828 82.9844H63.8592ZM60.2498 76.1875C57.6655 76.6841 55.0068 76.6469 52.4373 76.0781C47.7981 75.6761 43.2325 74.6621 38.8592 73.0625C36.1248 71.9531 34.3905 69.8281 32.3748 67.125C30.3277 64.1618 28.991 60.7666 28.4686 57.2031C27.9604 54.1242 28.1041 50.973 28.8905 47.9531C29.4457 45.058 30.683 42.337 32.4998 40.0156C34.4473 37.175 36.9841 34.7875 39.9373 33.0156C43.2479 30.9007 46.981 29.5355 50.8748 29.0156C55.265 28.9236 59.6123 29.8938 63.5467 31.8437C67.4899 33.8792 70.8912 36.8252 73.4686 40.4375C76.078 44.375 76.9842 45.6406 77.6092 50.4687C78.3178 54.8368 77.8208 59.3154 76.1717 63.4219C74.7106 67.0627 72.1344 70.1476 68.8123 72.2344C66.199 74.021 63.3047 75.3572 60.2498 76.1875ZM25.4686 71.4062C24.6248 70.9062 24.1405 70.8281 22.3436 71.5312C20.3175 72.3012 18.5773 73.6759 17.3592 75.4687C17.1739 75.6899 17.0535 75.958 17.0113 76.2434C16.969 76.5288 17.0066 76.8203 17.1198 77.0856C17.2331 77.3509 17.4176 77.5797 17.6529 77.7466C17.8882 77.9135 18.1651 78.0121 18.453 78.0312C19.4442 78.1121 20.4272 77.7975 21.1873 77.1562C22.7316 75.9828 24.1742 74.6813 25.4998 73.2656C26.2342 72.4375 26.328 71.9219 25.4686 71.4062ZM19.6248 55.2187C19.2498 54.7187 17.8905 54.6406 16.6717 55.0469C14.8522 55.8213 13.1652 56.8757 11.6717 58.1719C11.3032 58.5256 11.0585 58.9888 10.9741 59.4927C10.8896 59.9965 10.9699 60.5141 11.203 60.9687C11.425 61.3699 11.7841 61.6776 12.2146 61.8354C12.6451 61.9933 13.118 61.9907 13.5467 61.8281C15.2952 61.1165 16.936 60.1647 18.4217 59C18.9431 58.5357 19.3299 57.9396 19.5416 57.2743C19.7533 56.609 19.782 55.899 19.6248 55.2187ZM14.078 37.125C15.7176 37.9089 17.4582 38.461 19.2498 38.7656C20.5623 38.9531 21.7967 38.5937 21.9842 37.7656C22.1717 36.9375 21.7342 36.7187 20.6873 35.9531C19.6405 35.1875 15.5467 32 14.9373 32.3281C11.1248 34.1094 12.9998 36.5 14.078 37.125ZM34.953 23.9219C36.1058 24.1647 37.3064 24.0277 38.3748 23.5312C38.6561 23.2656 38.4842 21.7812 37.6561 20.8281C36.828 19.875 33.828 15.875 32.7811 16.1406C29.9998 16.9687 30.2186 19.0469 30.8436 19.9219C32.0498 21.4135 33.4293 22.7563 34.953 23.9219ZM56.0155 21.875C56.9998 22.2656 57.453 21.5156 58.0623 20.6094C58.7152 19.1244 59.1115 17.5394 59.2342 15.9219C59.2342 15 59.6092 14.3594 58.4373 13.5312C57.2655 12.7031 55.5623 12.125 54.7498 13.6875C53.9373 15.25 54.6092 19.9375 54.7498 20.5625C54.8608 20.8556 55.0303 21.1231 55.2478 21.3487C55.4654 21.5744 55.7266 21.7534 56.0155 21.875ZM78.7967 31.25C80.8854 30.2324 82.6096 28.5956 83.7342 26.5625C85.078 24.0312 83.6092 22.6875 81.4842 23.2656C79.3592 23.8437 76.1873 29.9062 75.8748 30.3281C75.7517 30.5738 75.6955 30.8476 75.712 31.122C75.7284 31.3963 75.8169 31.6614 75.9686 31.8906C76.6717 32.4375 77.1405 32.2031 78.7967 31.2812V31.25ZM95.9842 47.6562C95.3123 47.0937 93.9061 47.375 92.2655 48.1406C90.6249 48.9062 84.0311 52.2187 84.0155 53.0469C84.0155 54.875 85.578 54.3437 87.8905 53.9219C90.203 53.5 95.2967 52.2344 96.5155 51.3437C97.7342 50.4531 96.6717 48.25 96.0155 47.6875L95.9842 47.6562ZM91.2967 70.7656C90.3436 70.1406 84.6405 67.3437 83.9686 67.9375C83.7498 68.1406 81.6717 69.8125 81.6561 70.625C81.6405 71.4375 85.2655 73.2187 87.2498 74.0469C89.2342 74.875 90.9998 75.4062 92.0467 74.2344C92.2344 73.963 92.3643 73.6559 92.4283 73.3322C92.4923 73.0085 92.489 72.675 92.4187 72.3526C92.3483 72.0303 92.2124 71.7258 92.0194 71.4581C91.8264 71.1905 91.5804 70.9654 91.2967 70.7969V70.7656ZM75.1873 76.6562C74.8526 76.5934 74.5086 76.5984 74.1759 76.6709C73.8431 76.7433 73.5282 76.8818 73.2498 77.0781C73.0244 77.4322 72.9221 77.8507 72.9588 78.2689C72.9955 78.687 73.1692 79.0813 73.453 79.3906C74.2342 80.5156 76.4061 84.4531 77.1561 84.8437C77.6085 84.9845 78.0884 85.0125 78.5541 84.9254C79.0198 84.8382 79.4571 84.6386 79.828 84.3437C79.9895 84.2699 80.1337 84.163 80.2511 84.0298C80.3686 83.8966 80.4567 83.7402 80.5098 83.5707C80.5629 83.4012 80.5796 83.2225 80.5591 83.0461C80.5385 82.8697 80.4811 82.6996 80.3905 82.5469C80.1092 81.9844 75.3436 76.7187 75.1873 76.6562Z" fill="white"/>
</svg>
