<svg width="190" height="170" viewBox="0 0 190 170" fill="none" xmlns="http://www.w3.org/2000/svg">
<circle cx="84" cy="85.5" r="69" fill="#3D94F2"/>
<path d="M43.0159 51.0312C43.6566 51.2187 45.1566 49.1405 49.6566 46.8593C52.9671 45.3818 56.5845 44.7226 60.2034 44.9374C61.1097 44.9374 61.7659 43.5155 61.3753 41.8124C60.6102 39.3408 58.9936 37.2204 56.8128 35.828C55.361 35.0098 53.7602 34.4901 52.1046 34.2996C50.4489 34.1091 48.7719 34.2516 47.1722 34.7187C45.1038 35.2542 43.2586 36.4323 41.9025 38.0833C40.5463 39.7343 39.7489 41.7731 39.6253 43.9062C39.4956 45.2892 39.7422 46.6815 40.3391 47.9358C40.936 49.19 41.8609 50.2596 43.0159 51.0312ZM42.2972 41.8124C42.8788 40.2571 43.9163 38.9134 45.274 37.9572C46.6316 37.001 48.2462 36.4768 49.9066 36.453C53.1097 36.3749 55.9691 37.4843 56.9378 38.8593C57.9066 40.2343 59.2191 42.4999 58.3753 42.828C57.7859 43.0387 57.1712 43.17 56.5472 43.2187C56.5472 43.2187 57.2034 42.4999 56.7503 41.9843C56.2972 41.4687 54.5941 37.7499 54.1409 37.9374C53.6878 38.1249 52.9691 38.7187 53.3597 39.1093C54.3006 40.3256 55.0683 41.6665 55.6409 43.0937C55.4534 43.2812 52.5159 43.9999 52.1253 44.1249C51.7412 44.2399 51.3496 44.3286 50.9534 44.3905C50.9534 44.3905 49.7191 41.9218 49.1253 41.9218C48.5316 41.9218 47.8284 42.703 48.0941 42.8905C48.552 43.5437 48.9645 44.2276 49.3284 44.9374C49.3284 44.9374 43.8597 47.1562 43.2034 48.3905C42.9691 48.8905 41.0003 45.2968 42.2972 41.8124ZM53.5003 42.6718C53.8128 42.2812 51.9378 39.3749 51.5472 39.4687C51.1566 39.5624 50.4378 40.1249 50.4378 40.3905C50.9626 41.4314 51.5686 42.4293 52.2503 43.3749C52.4534 43.6718 53.1722 43.0937 53.5003 42.703V42.6718ZM37.2191 46.4999C37.5268 45.7573 37.6809 44.96 37.6722 44.1562C38.0809 42.4515 38.6729 40.796 39.4378 39.2187C39.8284 38.2343 38.0472 38.1093 37.7972 38.3749C36.8455 39.4612 36.1293 40.7329 35.6936 42.1098C35.258 43.4867 35.1123 44.9389 35.2659 46.3749C35.5941 47.1249 36.8909 47.2499 37.2191 46.4999ZM61.3753 34.5624C61.8284 34.5624 63.7191 33.7812 66.0628 33.328C68.4066 32.8749 73.7347 32.9999 81.6878 35.7343C89.6409 38.4687 94.4534 45.8905 94.7659 46.2187C95.0784 46.5468 95.8753 45.6874 96.0784 45.1718C96.2816 44.6562 95.2972 42.4999 92.3597 40.0937C89.4222 37.6874 84.1566 32.1562 74.7816 31.2343C65.4066 30.3124 60.5941 32.4374 60.2034 33.0624C59.8128 33.6874 60.9222 34.4999 61.3753 34.5624ZM110.86 57.3124C108.907 52.0468 102.266 50.4843 97.8753 51.8437C96.3383 52.4014 94.9485 53.302 93.8115 54.4769C92.6744 55.6519 91.8199 57.0704 91.3128 58.6249C91.4066 59.4687 94.0472 64.7812 94.9222 67.9999C95.7972 71.2187 95.9534 72.3905 98.6409 73.5155C101.328 74.6405 103.86 72.7343 106.985 70.2343C108.869 68.7307 110.249 66.688 110.942 64.379C111.634 62.07 111.606 59.6047 110.86 57.3124ZM108.125 65.5155C107.844 65.328 106.235 59.6093 105.844 59.6562C105.453 59.703 104.953 60.3437 105.063 60.6405C105.898 62.6853 106.628 64.7713 107.25 66.8905C107.157 67.328 106.563 68.0155 106.375 67.8593C106.188 67.703 104.125 61.2655 103.641 61.2655C103.157 61.2655 102.657 61.8593 102.657 61.8593C102.657 61.8593 105.391 68.8905 105.11 69.1249C104.828 69.3593 103.735 70.3593 103.547 70.1093C103.36 69.8593 101.828 62.8749 101.344 62.8749C100.86 62.8749 100.125 63.4218 100.125 63.7655C100.125 64.1093 102.563 70.4999 102.219 70.7968C101.875 71.0937 100.75 71.6718 100.657 71.3749C100.563 71.078 99.0941 63.7187 98.4691 63.5624C97.8441 63.4062 97.2972 63.703 97.2972 64.0937C97.2972 64.4843 99.2503 71.4999 98.7034 71.4999C98.1566 71.4999 97.9691 70.578 97.5316 69.7499C97.0941 68.9218 93.3441 58.6874 93.3441 58.6874C94.3664 56.447 96.1724 54.6576 98.4222 53.6562C101.157 52.7187 105.453 52.6718 107.641 55.7499C109.828 58.828 108.907 59.2187 108.907 59.2187C108.907 59.2187 108.235 58.1405 107.797 58.2343C107.36 58.328 107.016 58.7812 107.063 58.9218C107.11 59.0624 109.36 61.9062 109.157 62.6874C108.953 63.4687 108.5 65.7187 108.125 65.5155ZM107.11 77.828C105.566 78.1787 104 78.4189 102.422 78.5468C101.309 78.4087 100.21 78.1681 99.1409 77.828C97.3909 79.1874 99.1409 79.3905 101.141 79.7812C102.865 79.8857 104.589 79.5805 106.172 78.8905C107.297 78.5468 107.407 77.828 107.11 77.828ZM90.5003 91.6405C89.9754 92.9637 89.3377 94.2392 88.5941 95.453C87.0316 98.078 84.6878 98.8124 84.2972 99.5468C83.9066 100.281 84.5941 100.578 85.3753 100.766C86.1566 100.953 86.7503 100.234 88.5003 97.8437C89.9429 96.0916 91.1413 94.1521 92.0628 92.078C92.1097 91.5468 90.8909 91.5937 90.5003 91.6405ZM34.0628 85.0937C34.2503 84.7968 32.9847 81.6249 32.6878 79.2812C32.5535 77.4311 32.701 75.5713 33.1253 73.7655C33.2347 73.328 32.0784 72.7499 31.9534 72.8437C30.8707 74.4877 30.36 76.4427 30.5003 78.4062C30.6894 80.8913 31.264 83.332 32.2034 85.6405C32.6409 86.4687 33.8597 85.3905 34.0628 85.0937ZM84.5003 56.3905C79.1253 51.0624 67.7503 47.9843 59.2034 48.578C55.7665 48.8276 52.417 49.7784 49.3616 51.372C46.3061 52.9656 43.6095 55.168 41.4378 57.8437C37.6722 62.3437 35.4691 67.6093 35.1878 75.4218C34.9066 83.2343 38.9847 89.5937 39.1409 90.1718C39.2972 90.7499 33.5003 97.453 33.1878 98.2812C32.8753 99.1093 33.7191 100.422 34.0628 100.875C34.4066 101.328 34.8909 101.062 37.0941 100.031C39.2972 98.9999 44.5159 96.0312 44.5159 96.0312C44.5159 96.0312 46.0003 97.6874 53.6878 101.187C57.9695 103.301 62.8547 103.854 67.5003 102.75C67.9534 102.75 69.5159 105.875 71.5159 109.203C73.5159 112.531 73.8597 112.328 75.0784 111.453C76.2972 110.578 75.5628 109.891 75.5159 108.516C75.4691 107.141 75.5159 101.141 75.5159 101.141C77.2512 100.743 78.9161 100.085 80.4534 99.1874C84.5003 97.2343 86.2659 94.6562 89.0472 89.9687C91.9529 85.4123 93.1949 79.9919 92.5628 74.6249C92.0576 67.7991 89.2094 61.3575 84.5003 56.3905ZM88.1878 78.7499C87.5003 83.4374 87.1722 86.953 82.4222 90.953C77.7724 95.1596 71.7541 97.5359 65.4847 97.6405C59.8168 97.7635 54.2373 96.2206 49.4378 93.203C45.0941 90.6562 42.1097 84.6562 41.2347 80.2187C40.3597 75.7812 38.3128 61.3124 51.5941 54.6249C55.2503 52.7812 60.8128 51.6562 68.7816 52.9218C71.9808 53.2822 75.0611 54.3443 77.8025 56.0324C80.5439 57.7205 82.879 59.9929 84.6409 62.6874C87.8184 67.3976 89.0863 73.1397 88.1878 78.7499ZM69.7034 56.1874C69.2855 57.351 69.0228 58.5646 68.9222 59.7968C69.0628 60.3437 72.1409 60.4374 72.5316 60.4374C72.9222 60.4374 73.3597 57.453 73.3128 56.7343C73.2659 56.0155 69.9847 55.6093 69.7034 56.1874ZM81.5159 83.1405C81.7191 83.6249 84.5472 84.2187 84.8909 84.1718C85.5253 83.0162 86.0035 81.7814 86.3128 80.4999C86.5003 79.8749 83.3597 78.5468 83.1878 78.703C82.3405 80.0561 81.7721 81.5648 81.5159 83.1405ZM56.0316 89.5468C55.5611 90.8628 55.2975 92.2438 55.2503 93.6405C56.5093 94.484 57.9492 95.0192 59.4534 95.203C60.0316 95.1093 61.4066 91.2968 61.0159 89.828C60.6253 88.3593 56.2816 89.2968 56.0316 89.5468ZM45.0003 65.6093C44.3597 66.203 43.4378 69.8124 44.2191 70.2968C45.5559 70.8483 46.9777 71.1654 48.4222 71.2343C48.9534 71.2343 49.6878 67.1249 49.6409 66.5468C49.5941 65.9687 45.3597 65.2499 45.0003 65.6093ZM60.6253 62.8749C60.6253 62.8749 61.4066 70.7968 61.5003 71.2812C61.5941 71.7655 62.6253 71.7187 63.3597 71.3749C64.0941 71.0312 63.4534 70.6874 63.3597 69.3749C63.2659 68.0624 62.5784 62.7343 62.5784 62.7343C63.1732 62.7215 63.7628 62.6215 64.3284 62.4374C64.8284 62.203 63.3597 59.8593 62.6722 58.7812C61.9847 57.703 61.3597 57.6093 60.6722 57.953C59.9847 58.2968 59.2503 62.3905 59.2503 62.7343C59.2503 63.078 60.6253 62.8749 60.6253 62.8749ZM69.6566 61.7499C68.2957 62.4144 67.059 63.3076 66.0003 64.3905C65.5003 64.9374 66.7191 65.6093 66.8753 65.7187C67.0316 65.828 65.3128 69.6562 65.3128 70.0155C65.3128 70.3749 66.1409 71.078 66.9691 71.0312C67.7972 70.9843 68.5316 66.5468 68.6253 66.3437C68.7191 66.1405 69.6566 66.5468 70.1878 66.5937C70.7191 66.6405 70.5316 64.3437 70.5316 63.4687C70.5316 62.5937 70.4378 61.6562 69.6566 61.7499ZM61.8441 72.203C59.9378 72.4999 57.9847 74.3124 58.1878 75.9218C58.3909 77.5312 58.8128 79.8749 61.7503 80.3593C64.6878 80.8437 65.4066 80.2655 66.6253 78.9999C67.2181 78.2957 67.5432 77.4048 67.5432 76.4843C67.5432 75.5638 67.2181 74.6729 66.6253 73.9687C66.1318 73.1913 65.3967 72.5974 64.5329 72.2784C63.669 71.9595 62.7244 71.933 61.8441 72.203ZM63.2659 78.7499C62.8896 78.819 62.5029 78.8079 62.1312 78.7173C61.7595 78.6267 61.411 78.4587 61.1087 78.2242C60.8064 77.9897 60.5569 77.694 60.3767 77.3565C60.1965 77.019 60.0895 76.6472 60.0628 76.2655C59.8753 75.328 61.0003 73.6718 62.8441 73.4218C64.0159 73.2655 65.7816 74.6405 65.6409 75.9687C65.5003 77.2968 65.7034 78.4062 63.2659 78.7499Z" fill="white"/>
</svg>
