<svg width="190" height="169" viewBox="0 0 190 169" fill="none" xmlns="http://www.w3.org/2000/svg">
<circle cx="84" cy="85" r="69" fill="#3D94F2"/>
<g clip-path="url(#clip0_319_579)">
<path d="M93.416 32.0366C90.7573 32.0366 54.2747 74.1114 53.615 74.1114C52.9554 74.1114 41.221 55.4182 37.9426 52.9939C34.6641 50.5696 13.2344 68.7819 13.2344 68.7819C13.8941 70.7855 26.8878 85.6319 35.7236 96.9921C44.5594 108.352 52.5556 122.037 56.5536 122.037C60.5517 122.037 64.3699 116.347 74.3651 104.165C84.3603 91.9832 112.087 57.001 113.187 54.4164C114.286 51.8318 96.0947 32.0366 93.416 32.0366ZM95.6749 70.8657C95.6749 70.8657 93.356 66.3576 92.7963 66.4177C92.2366 66.4779 91.237 67.099 91.4969 67.4195C92.4743 68.802 93.2862 70.2949 93.9158 71.8674C93.7358 72.168 92.4165 74.4921 92.1166 73.871C91.8168 73.2499 90.1176 69.8639 89.6178 69.8639C89.1181 69.8639 88.2985 70.9859 88.4984 71.4266C88.6983 71.8674 90.4974 75.4338 90.4974 75.4338C90.4974 75.4338 89.5778 77.4373 89.4379 77.237C88.7674 75.6762 87.9788 74.1692 87.079 72.729C86.6992 72.729 85.4998 73.8109 85.6397 74.0513C86.6617 75.628 87.5319 77.2985 88.2385 79.0402C88.0586 79.481 86.2394 81.9854 86.0595 81.6649C85.0758 79.8532 83.9878 78.1005 82.8011 76.4155C82.5012 76.4155 81.1219 77.5976 81.4217 78.0384C81.7216 78.4792 84.8601 83.428 84.5602 83.7886C84.2604 84.1493 83.6207 86.4934 82.921 86.1729C82.2214 85.8523 79.3627 79.7815 78.9229 79.7214C78.4831 79.6613 77.6236 80.7232 77.5636 80.9836C77.5036 81.2441 81.6816 87.6755 81.3018 88.1764C80.6663 89.273 79.9653 90.3301 79.2028 91.3421C78.9429 91.3421 74.8849 84.4498 74.8849 84.4498C74.8849 84.4498 73.4456 85.8323 73.5855 86.1328C73.7254 86.4333 77.5836 93.2054 77.5836 93.2054C77.5836 93.2054 75.9444 95.8501 75.7045 95.7699C75.4646 95.6898 72.1462 88.517 71.5864 88.517C71.0267 88.517 70.327 89.1381 70.447 89.6991C70.5669 90.2601 74.4451 97.0322 74.2652 97.4128C74.0852 97.7935 72.8858 100.358 72.3861 100.098C71.8863 99.8372 68.1481 92.464 67.7683 92.464C67.3885 92.464 66.3889 93.7664 66.6488 94.0869C66.9087 94.4075 71.2066 101.36 70.9468 101.861C70.4175 102.609 69.8363 103.318 69.2076 103.985L64.3899 95.5295C64.3899 95.5295 63.0905 96.2107 63.3304 96.8518C64.8971 99.7486 66.2987 102.732 67.5284 105.788C67.0407 106.599 66.4714 107.357 65.8292 108.052C65.8292 108.052 61.8311 99.6568 61.1514 99.6568C60.8126 99.7142 60.5055 99.8912 60.2855 100.156C60.0655 100.42 59.9472 100.755 59.952 101.099C61.627 103.985 63.1549 106.954 64.5298 109.995C64.2699 110.376 62.7707 112.5 62.5308 112.179C62.2909 111.859 58.7726 102.362 57.833 102.422C57.613 102.458 57.4032 102.54 57.2178 102.664C57.0324 102.788 56.8757 102.951 56.7583 103.141C56.6408 103.331 56.5653 103.544 56.5369 103.765C56.5085 103.987 56.5279 104.212 56.5936 104.425C56.8335 105.227 61.3913 113.501 61.0915 113.802C60.7916 114.103 59.892 115.245 59.892 115.245C59.892 115.245 53.775 105.988 53.3952 105.928C53.0153 105.868 51.3961 107.05 51.8359 107.491C54.0802 110.431 56.1494 113.502 58.0329 116.687C57.833 117.008 57.0934 117.809 56.8335 117.749C56.5736 117.689 47.438 106.369 39.2219 95.3492C31.0059 84.3296 18.5918 68.4814 18.5918 68.4814C18.5918 68.4814 35.5837 56.5803 36.4433 57.3416C37.3029 58.103 50.0767 80.7432 52.4356 80.3826C54.7945 80.0219 77.8035 54.0758 82.6811 48.1853C87.5588 42.2949 92.6764 37.1657 93.416 37.1657C94.1556 37.1657 107.909 53.8354 107.669 54.196L95.6749 70.8657ZM30.0263 65.8567C30.5261 65.4761 29.3267 64.4142 28.7669 64.2138C26.7465 65.0531 24.8761 66.2171 23.2296 67.66C22.7298 68.3011 29.2267 76.4957 29.2267 76.4957C29.8833 76.1931 30.4742 75.7643 30.9659 75.2334C29.7709 72.923 28.4357 70.6882 26.9678 68.5415C26.588 68.1007 29.5266 66.2174 30.0263 65.8567ZM93.1961 43.9378C95.1153 46.8008 97.2898 49.4832 99.693 51.952C99.9941 51.8997 100.282 51.7876 100.539 51.6225C100.797 51.4574 101.019 51.2425 101.192 50.9903C101.312 50.4894 95.475 41.814 94.5754 42.4752C94.1157 42.6755 93.0562 43.1764 93.1961 43.9378Z" fill="#FFFFFD"/>
</g>
<defs>
<clipPath id="clip0_319_579">
<rect width="121" height="121" fill="white"/>
</clipPath>
</defs>
</svg>
