<svg width="191" height="169" viewBox="0 0 191 169" fill="none" xmlns="http://www.w3.org/2000/svg">
<circle cx="84.5" cy="85" r="69" fill="#3D94F2"/>
<g clip-path="url(#clip0_319_608)">
<path d="M91.2658 34.6875C87.8089 31.6026 83.5424 29.5697 78.9689 28.8282C73.3908 27.75 64.7033 28.625 63.922 29.2657C62.242 31.4101 60.6773 33.6424 59.2345 35.9532C59.2345 35.9532 56.1095 37.0782 55.1876 38.6875C54.3747 40.2106 53.7653 41.8339 53.3751 43.5156C52.797 45.6719 54.2501 46.0156 54.2501 46.0156C54.2501 46.0156 52.9845 48.5938 50.3439 53.7188C47.7033 58.8438 36.9689 82.7813 36.5783 84C35.9152 85.4792 35.3921 87.0171 35.0158 88.5938C34.8751 90.0469 35.7033 107.344 36.3908 110.078C36.6398 111.244 37.1523 112.337 37.8889 113.274C38.6256 114.211 39.5669 114.967 40.6408 115.484C42.2033 115.984 43.1251 115.641 47.5626 113.344C52.0001 111.047 65.2345 103.25 66.9064 102.266C68.5783 101.281 68.6564 100.938 70.5158 97.9688C72.3751 95 86.6251 62.0313 86.6251 62.0313C86.8836 62.1705 87.1761 62.234 87.469 62.2147C87.7619 62.1954 88.0435 62.0939 88.2814 61.9219C89.3126 61.3906 90.4376 58.6563 91.1251 56.0156C91.8126 53.375 90.4845 52.4063 90.2345 51.5781C89.9845 50.75 94.6408 42.9844 94.922 41.9063C95.2033 40.8281 93.422 36.9219 91.2658 34.6875ZM51.0783 60.4688C56.3126 49.9688 57.5314 46.6875 58.0626 46.0625C58.5939 45.4375 60.4533 45.4375 63.5783 45.4375C66.7033 45.4375 68.422 46.3594 68.3595 46.5156C68.297 46.6719 52.9845 78.1406 51.0314 82.5781C49.0783 87.0156 47.5626 89.1875 47.3283 89.1875C46.1946 87.7797 44.5702 86.8531 42.7814 86.5938C39.9533 86.4531 39.2658 86.5938 39.2658 86.3594C39.2658 86.125 45.8595 70.9531 51.0783 60.4688ZM70.5626 47.125C72.3166 47.2654 74.0259 47.7485 75.5939 48.5469C77.5939 49.5781 79.2033 51.2813 79.0626 51.5313C78.922 51.7813 66.7501 76.5313 63.047 83.6094C59.3439 90.6875 58.3595 93.1719 58.0626 93.2188C57.7658 93.2656 55.5314 90.25 53.5158 89.9063C51.5001 89.5625 49.7189 89.0781 49.7189 89.0781C49.7189 89.0781 60.7501 66.8594 64.1251 60.3125C67.5001 53.7656 70.2189 47.4688 70.5626 47.125ZM61.672 99.4688C61.1408 100.016 50.5001 106.219 50.4533 105.828C50.4064 105.438 50.1095 104.547 49.3751 104.703C48.6408 104.859 46.2501 106.063 44.2501 104.703C42.2501 103.344 40.9689 101.438 40.4376 101.484C39.9954 101.563 39.5682 101.71 39.172 101.922C39.172 101.672 38.0001 89.7188 38.3439 88.9844C38.6876 88.25 40.922 87.5625 42.922 88.3438C44.922 89.125 45.7658 90.7813 46.5939 90.9844C47.422 91.1875 50.4533 90.2969 52.9845 91.7188C55.5158 93.1406 56.2501 96.6406 56.9376 96.75C57.6251 96.8594 59.9689 96.4063 61.047 97.2344C62.1251 98.0625 62.2189 98.9375 61.672 99.4688ZM82.1876 64.7656C81.5948 62.4408 80.8431 60.1594 79.9376 57.9375C79.5939 57.9375 78.5158 58.2344 78.7658 59.1094C79.0158 59.9844 81.4533 66 81.2501 66.5313C80.9942 67.4562 80.6542 68.3558 80.2345 69.2188C79.6196 66.8285 78.8524 64.4799 77.9376 62.1875C77.6408 62.1875 76.7189 63.0625 77.0158 63.75C77.9774 65.9647 78.8223 68.2282 79.547 70.5313C79.5119 71.1268 79.3634 71.7102 79.1095 72.25C78.9689 72.25 76.5626 65.3594 76.2345 65.4063C75.9064 65.4531 74.9064 65.7031 75.1095 66.3906C75.3126 67.0781 78.2345 73.4219 78.0314 74.0469C77.8283 74.6719 76.8595 77.2813 76.6251 76.8906C76.3908 76.5 74.422 69.7031 73.9845 69.6563C73.547 69.6094 73.047 71.0781 73.047 71.0781C73.047 71.0781 76.0783 78.1094 75.9845 78.5469C75.6258 79.6373 75.149 80.6852 74.5626 81.6719C74.5626 81.4219 72.5626 73.125 72.0783 73.125C71.5939 73.125 70.7658 73.8125 70.9533 74.3438C71.1408 74.875 73.8908 82.5938 73.8908 83.2813C73.8908 83.9688 72.9064 85.7657 72.8126 85.375C72.7189 84.9844 70.5158 77.2656 70.3751 77.2656C70.2345 77.2656 69.1408 78.6875 69.297 79.0313C69.4533 79.375 72.2658 86.5 72.172 86.9375C72.0783 87.375 71.1564 89.4375 71.1564 89.4375C71.1564 89.4375 68.9533 81.7188 68.5158 81.625C68.0783 81.5313 67.5314 82.7344 67.5783 83.0781C67.6251 83.4219 70.422 91.1406 70.2189 91.5313C70.0158 91.9219 69.3908 93.3906 69.0939 93.2344C68.797 93.0781 66.4064 85.75 66.2658 85.75C66.1251 85.75 65.2345 86.9688 65.3439 87.4219C65.4533 87.875 68.6095 94.6406 68.2189 95.5625C67.8283 96.4844 67.4376 97.9063 67.2501 97.4219C67.0626 96.9375 64.7033 91.0313 64.1251 90.9375C63.547 90.8438 62.9533 91.6094 63.1095 92C63.2658 92.3906 66.2345 98.3594 65.9845 98.6406C65.7345 98.9219 65.2033 99.625 64.422 98.9844C63.6408 98.3438 63.547 95.9531 62.2345 95.5156C60.922 95.0781 59.4533 94.9844 59.5001 94.7813C59.547 94.5781 66.3751 80.9219 71.4533 70.2813C76.5314 59.6406 79.2658 54.0625 80.6408 52.7969C80.8126 52.625 81.8126 54.0625 81.7658 54.3594C81.4629 55.3559 81.5125 56.4264 81.9064 57.3906C82.5001 59.625 82.8283 60.6094 83.0314 60.5156C83.2345 60.4219 83.422 60.5156 83.422 60.0781C83.422 59.6406 83.2189 58.125 83.422 58.0781C83.6251 58.0313 84.2501 59.3438 84.2501 59.4844C84.2501 59.625 82.1876 64.7656 82.1876 64.7656ZM89.0158 55.3906C88.672 56.4531 87.4533 59.4375 87.0626 59.2969C86.2725 57.4075 85.3429 55.5795 84.2814 53.8281C82.0875 50.0945 78.6455 47.2557 74.5626 45.8125C69.9412 44.1103 65.031 43.33 60.1095 43.5156C58.6364 43.6842 57.1548 43.7676 55.672 43.7656C55.5741 42.7309 55.7576 41.689 56.2033 40.75C56.8183 39.3767 57.9368 38.2917 59.3283 37.7188C63.4602 36.9653 67.7166 37.2882 71.6876 38.6563C77.039 40.7458 81.7179 44.2576 85.2189 48.8125C88.7814 53.4375 89.3595 54.3125 89.0158 55.3906ZM91.4064 41.6563C91.4064 41.6563 89.2189 38.5313 88.7814 38.6875C88.3439 38.8438 87.5626 39.375 87.8439 39.7656C88.1251 40.1563 90.8751 42.8906 90.5314 43.4219C90.1876 43.9531 89.8439 45.1719 89.6564 44.9844C89.4689 44.7969 86.8751 41.5156 86.3283 41.5156C85.7814 41.5156 84.7658 42.2969 85.2658 42.8281C85.7658 43.3594 88.7814 45.9531 88.7345 46.4063C88.6876 46.8594 88.1876 48.2969 87.8439 48.2031C87.5001 48.1094 82.3751 40.5938 76.3283 38.2031C72.2139 36.6787 67.9066 35.7373 63.5314 35.4063C64.3663 33.8914 65.3844 32.485 66.5626 31.2188C71.7066 30.0697 77.0844 30.6179 81.8908 32.7813C89.0158 36.0938 91.8439 40.9219 91.7033 41.2188L91.4064 41.6563ZM57.7189 53.875C57.922 53.4844 60.4064 48.9844 60.8439 48.25C61.2814 47.5156 59.9689 47.8125 59.5314 47.8594C59.0939 47.9063 57.3751 51.9688 56.9376 53.25C56.5001 54.5313 56.672 55.2188 56.797 55.2969C56.922 55.375 57.5314 54.2656 57.7189 53.875ZM64.6564 39.1875C63.0642 39.0024 61.4536 39.0497 59.8751 39.3281C59.4209 40.2014 59.014 41.0986 58.6564 42.0157C58.3126 42.5625 59.9689 42.4531 60.2189 42.4531C60.4689 42.4531 60.6095 41.0469 61.0001 40.8906C62.2584 40.8602 63.5162 40.9703 64.7501 41.2188C65.3439 41.4219 65.6876 40.5 65.8751 39.9531C66.0626 39.4063 65.922 39.3125 64.6564 39.1875Z" fill="white"/>
</g>
<defs>
<clipPath id="clip0_319_608">
<rect width="121" height="121" fill="white" transform="translate(0.5)"/>
</clipPath>
</defs>
</svg>
