<svg width="190" height="170" viewBox="0 0 190 170" fill="none" xmlns="http://www.w3.org/2000/svg">
<circle cx="84" cy="85.5" r="69" fill="#3D94F2"/>
<path d="M87.8044 55.914C88.9294 52.789 87.2732 49.8984 86.2419 49.9609C83.084 50.5138 80.0009 51.4314 77.0544 52.6952C72.8201 54.3984 58.8044 60.6484 58.5076 60.3515C58.2107 60.0546 59.3357 59.039 61.2419 55.4765C63.1482 51.914 70.8044 39.2577 71.4919 37.6484C72.1794 36.039 68.6169 35.4452 61.9294 34.5234C55.2419 33.6015 49.1794 31.8827 47.9607 32.7265C46.7419 33.5702 42.8826 45.8202 39.7576 54.5077C36.6326 63.1952 30.8669 77.9452 30.2888 80.289C29.7107 82.6327 30.0232 83.414 31.0232 84.6327C32.0232 85.8515 38.0544 83.7577 44.3513 81.3671C50.6482 78.9765 66.8982 71.789 67.1482 71.9296C67.3982 72.0702 59.8201 91.8046 59.8201 91.8046C59.8201 91.8046 54.0701 90.914 53.2888 91.414C52.5076 91.914 53.0857 95.5077 53.9138 100.492C54.7419 105.476 55.2419 112.164 55.7263 113.18C55.8584 113.556 56.1294 113.868 56.4838 114.051C56.8382 114.234 57.2492 114.274 57.6326 114.164C58.4607 114.023 61.6794 110.836 65.6794 107.18C68.6355 104.59 71.7681 102.209 75.0544 100.055C75.0544 100.055 76.1326 98.8827 75.8357 98.0077C75.5388 97.1327 71.0544 94.3827 70.6169 93.9452C70.1794 93.5077 71.7888 90.8202 75.2107 83.3046C78.6326 75.789 86.6794 59.0859 87.8044 55.914ZM71.4451 98.3515C71.3044 98.7421 70.1794 99.7265 69.8826 99.6796C69.5857 99.6327 69.6482 98.6484 69.3044 98.2577C68.9607 97.8671 67.9763 98.164 67.9763 98.164C67.9763 98.164 68.3201 100.992 67.9763 101.039C67.6326 101.086 66.9607 101.976 66.9607 101.773C66.9607 101.57 66.5232 97.8202 65.9294 97.8202C65.3357 97.8202 64.9138 98.2109 64.9138 98.5546C65.2107 100.004 65.4194 101.47 65.5388 102.945C65.3513 103.148 64.5701 104.508 64.5701 104.023C64.5701 103.539 64.1794 99.3359 63.7419 99.0859C63.3044 98.8359 62.3201 99.8671 62.3669 100.07C62.727 101.73 62.9879 103.41 63.1482 105.101C63.0076 105.383 62.0232 107.242 61.8826 106.508C61.7419 105.773 62.0232 101.82 61.4919 101.82C60.9607 101.82 60.2732 102.164 60.2732 102.758C60.2732 103.351 61.0076 107.336 60.4138 107.976C59.8201 108.617 58.5076 110.07 58.4138 109.68C58.3201 109.289 56.1638 94.164 56.4138 94.164C56.6638 94.164 62.3669 95.1327 62.4607 94.789C62.5544 94.4452 69.3982 76.039 70.4763 72.039C71.5544 68.039 71.4919 68.3827 70.9138 67.6952C70.6344 67.3298 70.2476 67.0609 69.8077 66.9264C69.3677 66.7919 68.8967 66.7985 68.4607 66.9452C67.6794 67.4296 51.6169 75.5859 51.6169 75.2421C51.6169 74.8984 53.6794 71.1484 53.4294 70.664C53.1794 70.1796 52.3513 69.6327 51.9607 70.2109C51.5701 70.789 49.7732 75.9296 49.4294 76.0702C49.0857 76.2109 46.7419 77.2421 46.8826 76.8046C47.6806 75.07 48.3491 73.2786 48.8826 71.4452C48.6951 71.1484 47.3201 71.289 47.3201 71.4452C47.3201 71.6015 45.5232 77.4452 45.2732 77.4921C45.0232 77.539 42.7263 78.5702 43.0232 77.9296C43.3201 77.289 45.3201 72.8515 45.3201 72.7109C44.9723 72.5839 44.5957 72.5577 44.2337 72.6351C43.8716 72.7124 43.5387 72.8904 43.2732 73.1484C42.6326 73.8827 41.6169 78.664 41.1169 78.914C40.6169 79.164 37.8982 80.7109 37.9919 80.1327C38.0857 79.5546 41.7576 72.7577 41.7576 72.3202C41.7576 71.8827 41.0701 71.6796 40.4919 71.7265C39.9138 71.7734 37.3669 80.5234 36.6794 80.664C35.9919 80.8046 34.0388 81.6484 33.9451 81.3515C34.0108 79.6752 34.3759 78.0242 35.0232 76.4765C36.1951 73.4609 40.5388 62.414 43.3669 54.3202C46.1951 46.2265 49.7107 35.3984 50.0076 35.3984C50.3044 35.3984 63.8357 37.5546 64.0701 38.039C64.3044 38.5234 64.8513 40.8202 65.2419 40.8202C65.6326 40.8202 65.8826 40.289 65.8826 39.9452C65.8826 39.6015 65.3357 38.1796 65.6326 38.1796C65.9294 38.1796 66.9607 37.9921 67.1951 38.5234C67.4294 39.0546 64.3669 43.9921 64.1638 43.9452C63.9607 43.8984 62.0232 38.9765 61.8201 38.9765C61.6169 38.9765 60.6482 39.4609 60.7576 39.9452C60.8669 40.4296 63.4451 44.9296 63.2888 45.3671C62.9483 46.0171 62.5564 46.6389 62.1169 47.2265C61.3965 45.2 60.535 43.2264 59.5388 41.3202C59.1951 41.3202 58.6951 42.2421 58.6482 42.7265C58.6013 43.2109 61.1013 48.289 61.0388 48.539C60.9763 48.789 60.6482 50.5859 60.3669 50.3515C60.0857 50.1171 58.0701 45.2265 57.6794 45.2265C57.2888 45.2265 56.6482 46.4452 56.6482 46.4452C56.6482 46.4452 59.7732 51.8671 59.4763 52.1952C59.1794 52.5234 58.4607 55.1327 58.0232 54.2109C57.5857 53.289 56.6013 48.8359 56.2107 48.8359C55.8201 48.8359 54.7419 49.914 54.9919 50.3984C55.9476 52.0491 56.7932 53.7612 57.5232 55.5234C57.5232 55.9609 56.3513 58.2109 56.1638 57.9609C55.5712 56.3912 54.8878 54.8574 54.1169 53.3671C53.6638 53.0859 53.0388 53.1327 53.0388 53.664C53.0388 54.1952 55.2888 59.1327 55.2263 59.2734C55.1638 59.414 52.1013 63.9609 52.3513 64.6952C52.6013 65.4296 53.7732 66.1171 54.0076 66.0234C57.4739 64.7132 60.8646 63.2109 64.1638 61.5234C70.0701 58.5546 77.2576 56.0546 79.2576 55.2734C81.2576 54.4921 83.5544 53.7109 84.1951 54.0077C84.8357 54.3046 83.5076 57.914 82.9607 59.3827C82.4138 60.8515 66.2732 94.289 66.7107 94.7265C67.1482 95.164 71.5857 97.8984 71.4451 98.3515ZM54.9451 40.3359C55.4763 40.3359 55.6326 39.6952 55.6326 39.0234C55.6326 38.3515 51.8201 37.789 51.5232 37.8984C51.2263 38.0077 47.1326 49.7109 47.1794 49.914C47.2732 50.3671 48.1482 50.5077 48.6482 50.3671C49.1482 50.2265 52.3513 40.3984 52.6482 40.0546C52.9451 39.7109 54.3982 40.3359 54.9451 40.3359ZM75.4919 58.8827C75.2953 59.0907 75.1782 59.3613 75.1611 59.6469C75.1439 59.9326 75.2279 60.2152 75.3982 60.4452C76.908 60.6328 78.4352 60.6328 79.9451 60.4452C80.4294 60.4452 81.1169 58.3359 80.9607 58.039C79.1092 58.0854 77.2713 58.369 75.4919 58.8827ZM76.7732 64.8984C76.0864 66.4167 75.512 67.9834 75.0544 69.5859C75.0544 70.1171 74.9607 70.4609 75.6482 70.0234C76.8352 68.5179 77.7115 66.7919 78.2263 64.9452C78.1326 64.4609 77.1169 64.3202 76.7732 64.8984Z" fill="white"/>
</svg>
