<svg width="153" height="154" viewBox="0 0 153 154" fill="none" xmlns="http://www.w3.org/2000/svg">
<circle cx="84" cy="85" r="69" fill="#3D94F2"/>
<path d="M91.8435 67.5626C91.8798 66.7309 91.7072 65.9034 91.3414 65.1555C90.9757 64.4077 90.4285 63.7633 89.7497 63.2813C89.6977 62.5744 89.7504 61.8636 89.906 61.172C90.0219 59.3697 89.7721 57.5627 89.1716 55.8595C88.7765 54.5289 88.1197 53.2907 87.2396 52.2174C86.3596 51.1441 85.274 50.2575 84.0466 49.6095C82.4772 48.9954 80.7697 48.8225 79.1091 49.1095C78.7253 49.3237 78.4056 49.6365 78.1831 50.0155C77.9606 50.3946 77.8434 50.8262 77.8435 51.2657C77.8435 51.6095 78.4216 51.7032 80.0935 51.8438C81.7653 51.9845 82.7653 52.5782 84.8747 54.8751C85.6765 55.9262 86.247 57.1351 86.5486 58.4223C86.8502 59.7095 86.8761 61.0459 86.6247 62.3438C86.1066 64.7347 84.9636 66.9453 83.3122 68.7501C81.7497 70.3126 78.4216 70.9845 77.8903 71.4845C77.3591 71.9845 78.1247 73.047 78.906 73.1407C80.7366 73.1151 82.5334 72.6431 84.1403 71.7657C86.5778 70.547 87.8903 67.4688 88.4372 67.5782C88.9841 67.6876 88.8747 73.2813 87.8903 77.922C87.5906 79.5396 86.9474 81.074 86.0039 82.4218C85.0605 83.7695 83.8389 84.8992 82.4216 85.7345C80.4685 87.1095 79.6403 86.2188 78.906 86.3282C78.1716 86.4376 78.031 87.8907 78.2341 88.1251C78.4372 88.3595 79.406 89.1095 82.281 88.7657C83.8769 88.574 85.3843 87.9287 86.6247 86.9063C86.3292 88.3959 85.8019 89.83 85.0622 91.1563C84.1617 92.9052 82.7502 94.3386 81.0153 95.2657C78.6571 96.5816 76.0375 97.3605 73.3435 97.547C70.5622 97.6563 69.3435 96.7188 67.3903 94.422C67.0361 94.0352 66.7633 93.5812 66.5883 93.0868C66.4133 92.5924 66.3396 92.0678 66.3717 91.5443C66.4037 91.0208 66.5409 90.5092 66.775 90.0399C67.0091 89.5705 67.3352 89.1531 67.7341 88.8126C68.7028 88.3751 69.9685 89.1095 70.8591 88.8126C71.7497 88.5157 71.781 86.9532 71.4841 86.3282C71.1872 85.7032 70.0778 85.2501 68.3591 84.1251C67.6339 83.6507 67.043 82.9975 66.6435 82.2285C66.2439 81.4595 66.0491 80.6006 66.0778 79.7345C66.0887 78.716 66.3206 77.7121 66.7577 76.7921C67.1947 75.8722 67.8264 75.0581 68.6091 74.4063C69.7341 73.8751 70.656 74.8907 71.2028 74.8907C71.5553 74.8113 71.8694 74.6123 72.0916 74.3274C72.3138 74.0425 72.4304 73.6894 72.4216 73.3282C72.4216 72.3595 71.4372 71.922 70.3747 71.3282C69.3122 70.7345 67.8747 70.0626 67.6716 65.8595C67.4685 61.6563 72.2028 58.3438 72.5935 58.047C72.9841 57.7501 72.7497 57.172 72.7028 56.8282C72.656 56.4845 76.0622 53.2188 77.4841 49.6095C78.906 46.0001 78.2653 43.8438 77.2341 40.2345C76.2028 36.6251 71.1872 32.1251 66.781 31.3907C63.838 30.8713 60.806 31.373 58.1872 32.8126C58.0466 33.1563 57.6091 38.922 57.1247 41.4063C56.2005 44.8827 54.6777 48.1714 52.6247 51.1251C51.0379 52.8608 48.9339 54.0388 46.6247 54.4845C44.7185 55.0782 41.2028 56.5001 41.2028 56.5001C36.9997 50.3438 31.3435 53.6563 28.7966 57.0313C26.2497 60.4063 25.2341 64.8438 24.9841 74.0157C24.7341 83.1876 27.2497 88.4688 29.0935 91.2032C30.9372 93.9376 34.031 96.2813 37.3903 96.047C39.3528 95.9282 41.2086 95.1139 42.6247 93.7501C44.9138 94.4989 47.2961 94.9249 49.7028 95.0157C52.3165 95.0177 54.893 94.3963 57.2185 93.2032C58.0536 93.7434 58.9377 94.2038 59.8591 94.5782C61.1539 95.0072 62.498 95.2698 63.8591 95.3595C64.2895 96.0676 64.781 96.7368 65.3278 97.3595C66.8074 98.8876 68.6858 99.9702 70.7497 100.484C73.6247 101.219 77.2341 100.328 82.5622 97.8438C87.8903 95.3595 88.3747 91.5938 89.6403 88.0313C90.906 84.4688 89.2966 83.8282 89.0466 83.4376C88.7966 83.047 89.3903 81.8751 90.9528 78.2188C92.5153 74.5626 91.9372 70.5938 91.8435 67.5626ZM64.7497 85.047C65.6247 86.0782 65.6716 86.4688 65.6716 86.4688C65.6716 86.4688 63.6247 87.6407 63.1872 89.0626C62.9046 90.1284 62.7576 91.2256 62.7497 92.3282C61.6684 91.9778 60.7056 91.3341 59.9685 90.4688C59.031 89.2032 59.031 88.7188 58.406 88.6251C58.027 88.4608 57.6039 88.4284 57.2044 88.5333C56.805 88.6381 56.4522 88.874 56.2028 89.2032C55.6037 89.8451 54.9616 90.4454 54.281 91.0001C53.6091 91.5313 53.2653 91.4845 53.2653 91.4845C53.2653 91.4845 55.4528 89.2345 55.1247 88.8907C54.7966 88.547 53.9528 88.4532 53.7028 88.7501C53.0604 89.8126 52.3396 90.8259 51.5466 91.7813C50.6534 92.0061 49.7324 92.1008 48.8122 92.0626C48.8122 91.8751 52.4841 87.8126 52.3903 87.4845C52.2966 87.1563 51.6091 86.547 51.0622 86.8438C50.5153 87.1407 47.7966 91.7188 47.406 91.7188C47.0153 91.7188 45.0153 91.5782 45.156 91.1407C45.2966 90.7032 49.3591 86.0626 49.0153 85.5782C48.6716 85.0938 47.4528 85.5782 47.2497 85.5782C47.0466 85.5782 44.1247 90.4063 43.6872 90.4063C43.2497 90.4063 41.4528 89.5782 41.6872 89.0001C41.9216 88.422 45.9997 83.8751 45.9997 83.4376C45.9997 83.0001 44.9685 82.6563 44.8278 82.7032C44.6872 82.7501 41.2185 88.0313 40.6716 87.9845C40.1247 87.9376 38.781 87.0001 39.1091 86.0782C39.4372 85.1563 43.5935 81.5313 43.3435 81.0001C43.0935 80.4688 42.2341 79.922 41.9841 80.1251C41.7341 80.3282 38.4216 85.0001 38.1872 84.7501C36.785 83.0203 36.0086 80.8673 35.9841 78.6407C35.7497 74.8907 36.2341 73.4688 35.9841 72.4845C35.7341 71.5001 35.2653 71.4688 34.281 71.422C33.2966 71.3751 33.0622 72.4845 33.0622 73.7657C33.0622 75.047 32.4216 81.0782 34.4841 85.3751C35.6816 87.97 37.488 90.2374 39.7497 91.9845C39.255 92.4804 38.6298 92.8258 37.9467 92.9807C37.2636 93.1356 36.5505 93.0936 35.8903 92.8595C33.656 92.0313 30.8122 88.6251 29.2028 82.6095C27.9478 77.0933 27.8149 71.3811 28.8122 65.8126C29.4777 62.7694 30.7245 59.8832 32.4841 57.3126C32.8736 56.8319 33.3807 56.4599 33.9562 56.2327C34.5317 56.0055 35.1561 55.9306 35.769 56.0155C36.3818 56.1004 36.9624 56.342 37.4545 56.7171C37.9466 57.0921 38.3335 57.5879 38.5778 58.1563C38.5778 58.1563 35.4528 62.297 35.4528 63.7188C35.4528 65.1407 35.2653 65.7657 36.1403 66.2032C37.0153 66.6407 37.6091 66.6407 38.4841 64.5001C39.2582 62.4726 40.6179 60.7212 42.3903 59.4688C43.8591 58.5938 45.6091 58.2501 49.6091 56.5313C53.6091 54.8126 55.3278 54.0938 57.4216 49.797C59.067 46.8388 60.1927 43.6202 60.7497 40.2813C61.3278 36.8595 61.4372 35.297 61.4372 35.297C62.4142 34.7687 63.4864 34.44 64.5916 34.33C65.6968 34.22 66.8128 34.3309 67.8747 34.6563C71.2497 35.8282 73.781 39.6407 74.5622 42.4688C75.1078 44.6421 75.0429 46.9238 74.3747 49.0626C74.0778 49.7032 73.7341 50.7345 73.7341 50.7345C73.9739 49.3493 73.8937 47.9276 73.4997 46.5782C72.8122 45.0157 72.656 44.7657 72.2653 44.7657C71.8747 44.7657 70.9528 45.0626 71.2497 45.797C71.7236 47.054 72.0335 48.3669 72.1716 49.7032C72.1716 50.672 72.656 51.6563 72.3747 52.2345C72.2928 52.406 72.1773 52.5594 72.035 52.6855C71.8928 52.8117 71.7267 52.908 71.5466 52.9688C71.5466 52.9688 71.3435 48.1407 69.9841 48.1876C68.6247 48.2345 68.6091 49.3126 68.8591 49.7501C69.3685 50.8923 69.6802 52.1128 69.781 53.3595C69.781 54.6876 70.031 55.4063 69.781 55.4688C69.531 55.5313 69.2966 53.3126 68.6091 52.5782C67.9216 51.8438 67.6403 51.797 67.3903 52.1876C67.1403 52.5782 68.4685 54.2345 68.4685 54.7345C68.4685 55.2345 68.5622 55.9063 68.4685 56.047C68.3747 56.1876 67.1872 56.922 67.1872 57.5157C67.1872 58.1095 67.1872 58.8282 67.1872 58.8282C65.7491 60.3806 64.8266 62.34 64.5466 64.4376C64.3392 67.0667 64.9155 69.6983 66.2028 72.0001C66.2028 72.0001 62.9372 75.5626 62.7341 78.6407C62.5918 80.9518 63.3098 83.2337 64.7497 85.047ZM64.0153 42.422C65.0935 42.3282 65.5778 38.6251 65.3903 38.172C65.2028 37.7188 63.8278 38.0001 63.8278 38.172C63.5683 39.4287 63.2397 40.6702 62.8435 41.8907C62.4372 42.672 62.8747 42.5626 63.9528 42.422H64.0153ZM48.9216 59.9063C46.6247 60.5001 45.7966 60.1563 45.156 60.547C43.9171 61.6627 42.9498 63.047 42.3278 64.5938C42.4216 65.1876 43.2185 65.1876 43.4997 65.1251C43.781 65.0626 45.4997 62.7345 45.9372 62.3907C46.3747 62.047 47.1091 62.1095 48.6247 61.9063C50.4795 61.3546 52.1841 60.3874 53.6091 59.0782C54.2341 58.3907 54.3903 57.9063 54.0466 57.9532C52.3781 58.7044 50.6668 59.3565 48.9216 59.9063ZM73.6716 70.0626C74.3953 69.1482 74.7767 68.0096 74.7497 66.8438C74.8268 64.9813 74.4739 63.1261 73.7185 61.422C73.4508 61.3951 73.1813 61.4512 72.9466 61.5825C72.7118 61.7139 72.5231 61.9142 72.406 62.1563C72.406 62.4532 72.406 62.5001 72.9841 64.2032C73.3622 65.8163 73.4311 67.4864 73.1872 69.1251C73.1872 69.8751 73.4216 70.2657 73.6716 70.0626ZM74.4997 77.6876C72.4528 77.5313 73.281 78.6095 73.531 79.2501C73.7863 80.2714 73.902 81.3227 73.8747 82.3751C74.0153 84.5313 73.281 85.6095 73.8747 85.6095C74.4685 85.6095 74.7966 84.7813 75.0935 82.4845C75.3903 80.1876 75.0935 77.7188 74.4997 77.6876ZM74.1247 95.1563C74.4822 94.3791 74.5702 93.5048 74.3747 92.672C74.1716 92.2345 73.4372 91.9845 73.156 92.2345C72.9403 93.4728 72.9035 94.7357 73.0466 95.9845C73.3278 96.4376 73.6716 95.8438 74.1247 95.1563Z" fill="white"/>
</svg>
