<svg width="100" height="91" viewBox="0 0 100 91" fill="none" xmlns="http://www.w3.org/2000/svg">
<path fill-rule="evenodd" clip-rule="evenodd" d="M99.3825 78.4289C98.3417 75.8471 97.387 73.2242 96.219 70.6997C95.0587 68.1887 93.4077 65.9226 92.4539 63.2977C92.3889 63.1198 92.2875 62.9486 92.1737 62.7955C90.9521 61.1253 89.5689 59.7058 87.32 59.5556C86.0774 59.4733 84.8405 59.2696 83.5998 59.2284C81.0027 59.1443 78.4056 59.1777 75.8104 59.0754C74.3736 59.0209 72.9483 58.6832 71.5115 58.6535C65.3607 58.5244 59.2252 57.9562 53.0639 58.0318C50.5863 58.0633 48.0657 58.3398 45.6446 57.4731C45.4705 57.41 45.262 57.4435 45.0688 57.4301C42.8658 57.2847 40.6618 57.056 38.4569 57.0111C34.225 56.9193 29.993 56.925 25.7621 56.9116C25.0934 56.9097 24.4248 57.0178 23.7571 57.0838C22.6121 57.1976 21.4661 57.409 20.3211 57.4128C18.2701 57.4224 16.2929 57.8223 14.4075 58.5435C12.7182 59.1902 11.1302 60.0214 10.1813 61.7548C9.44569 63.0997 8.51494 64.3404 7.63489 65.6002C5.03968 69.3031 2.62049 73.0902 0.93882 77.3298C-0.288473 80.4272 -0.17464 83.5007 0.48827 86.6431C0.547578 86.9234 0.553318 87.2448 0.697761 87.4782C1.26023 88.3917 1.86575 89.2134 3.14565 89.1799C3.99988 89.1579 4.89046 89.2153 5.71503 89.4344C7.9496 90.0284 10.1784 90.5689 12.5192 90.4101C12.8942 90.3843 13.2835 90.4866 13.6623 90.5488C15.7639 90.8855 17.8655 90.8473 19.9738 90.5488C23.7848 90.0093 27.6131 89.5826 31.47 89.8486C33.9619 90.0208 36.4452 90.3135 38.9342 90.5383C39.5952 90.5976 40.2667 90.6464 40.9315 90.6301C45.6418 90.5144 50.3481 90.3537 55.0583 90.2618C57.9415 90.2073 60.8275 90.2523 63.7125 90.2484C66.9783 90.2389 70.2326 90.1719 73.4897 90.7248C75.0662 90.9936 76.7383 90.7248 78.3683 90.6578C79.2254 90.6225 80.0815 90.4359 80.9396 90.4168C82.7667 90.3795 84.5937 90.4053 86.4208 90.4053V90.3584C88.73 90.3584 91.0392 90.3938 93.3484 90.345C94.9066 90.3116 96.3472 89.861 97.6731 88.9647C98.4632 88.4319 98.8726 87.8245 98.9883 86.8755C99.128 85.7382 99.3547 84.597 99.6867 83.4998C100.218 81.7483 100.047 80.0828 99.3825 78.4289ZM94.2609 81.5971C93.532 81.8382 92.7887 82.1146 92.034 82.1758C88.4956 82.4638 84.9811 83.1544 81.4073 82.8636C79.9744 82.7479 78.5414 82.6168 77.1123 82.458C75.0145 82.2246 72.8919 82.0936 70.8276 81.6775C67.4968 81.0126 64.143 81.0442 60.7835 81.0595C54.8221 81.0853 48.8578 81.1552 42.8964 81.2087C42.5118 81.2126 42.1101 81.1619 41.7456 81.2556C39.2834 81.885 36.7762 81.6746 34.2814 81.6794C33.7055 81.6832 33.0857 81.7521 32.5605 81.5713C30.3843 80.8261 28.1947 81.1475 25.9993 81.3675C25.5249 81.4163 25.0485 81.4986 24.5683 81.5043C19.5682 81.5751 14.5672 81.6392 9.56526 81.6928C8.80287 81.7023 8.06726 81.7042 7.32878 81.3187C5.74468 80.497 5.63563 80.1144 5.98191 78.3706C6.61134 75.1928 8.39058 72.5354 9.79676 69.7298C10.7313 67.8711 12.1806 66.2679 13.4193 64.5642C13.9569 63.8248 14.7346 63.4661 15.6367 63.3685C15.827 63.3484 16.0212 63.3503 16.2116 63.3389C18.9914 63.1466 21.7703 62.9036 24.5539 62.7783C27.3414 62.653 30.1327 62.6434 33.7218 62.565C35.0371 62.565 37.1559 62.5392 39.2709 62.5784C40.5193 62.6004 41.7647 62.7295 43.0112 62.8099C44.0634 62.8807 45.1281 63.0882 46.1669 62.9983C52.5119 62.4531 58.8359 63.4938 65.177 63.2174C66.3096 63.1705 67.4528 63.6 68.5978 63.6431C73.1081 63.8133 77.581 64.6666 82.121 64.3605C83.0756 64.2954 84.0571 64.3041 85.0022 64.4389C86.9096 64.7096 88.4889 65.4405 89.06 67.5555C89.2791 68.3733 89.7009 69.173 90.1907 69.8704C92.2665 72.8224 93.1991 76.2747 94.5661 79.5366C94.7096 79.882 94.7249 80.2856 94.7622 80.6673C94.8033 81.0777 94.6608 81.4651 94.2609 81.5971ZM9.80345 35.3168C9.85415 38.8762 9.84841 42.4347 9.93833 45.9922C9.97372 47.3276 10.1143 48.6821 10.3793 49.9907C11.0145 53.0996 13.9464 55.5561 17.0869 55.8144C19.2765 55.9942 21.4814 55.7867 23.6653 56.1884C24.3023 56.3061 24.9997 56.1607 25.6626 56.0861C26.8038 55.9588 27.9364 55.7589 29.0757 55.6508C30.3202 55.5313 31.5733 55.5313 32.814 55.3916C34.8276 55.1658 36.8326 55.1783 38.85 55.3973C41.8059 55.7168 44.7713 56.0229 47.7434 56.1894C53.787 56.5261 59.8298 56.946 65.8907 56.9011C66.2752 56.8953 66.6645 56.8934 67.0414 56.9518C70.8639 57.5458 74.7132 57.4262 78.5558 57.4415C82.1315 57.453 85.3006 56.1482 88.222 54.193C88.685 53.8831 89.149 53.444 89.3881 52.9523C90.537 50.6221 91.5423 48.2144 91.8226 45.6115C92.1144 42.9398 92.3736 40.2642 92.2952 37.5609C92.2033 34.2933 92.2732 31.0198 92.2732 27.7522H92.3707C92.3707 24.6729 92.3095 21.5946 92.3899 18.5192C92.4645 15.7241 92.409 12.9519 91.8465 10.2056C91.3816 7.94519 90.9464 5.68766 89.6349 3.71137C88.8629 2.55103 87.9121 1.71403 86.5748 1.21947C84.8424 0.582392 83.0976 0.150974 81.2447 0.164366C77.781 0.192107 74.3172 0.1548 70.8572 0.223674C69.0378 0.259067 67.2213 0.527866 65.3999 0.578565C63.1041 0.637873 60.7988 0.965024 58.5058 0.429339C57.9529 0.3002 57.3589 0.326028 56.783 0.319332C54.2816 0.283938 51.7811 0.2275 49.2796 0.246632C45.9144 0.272459 42.5463 0.280112 39.1867 0.450384C35.833 0.619698 32.4926 1.04251 29.1388 1.22904C27.4198 1.32278 25.6846 1.05494 23.9599 1.09799C22.2352 1.14486 20.5162 1.3754 18.7963 1.53132C17.9382 1.61167 17.0735 1.66046 16.2269 1.81734C13.1276 2.39129 11.0365 4.43646 10.4616 7.45064C10.0828 9.43076 9.79867 11.4243 9.8245 13.4551C9.8398 14.7991 9.85989 16.1641 9.65423 17.4852C9.11089 21.0331 9.25055 24.6002 9.47439 28.1329C9.62457 30.5272 9.76806 32.9186 9.80345 35.3168ZM14.6744 34.2349C14.5806 33.7719 14.6313 33.2745 14.6543 32.7952C14.7547 30.5865 14.8657 28.3797 14.9795 26.1719C15.1995 21.852 15.3794 17.5311 15.6692 13.2169C15.7658 11.7916 16.1178 10.3787 16.4125 8.97352C16.5827 8.15851 17.1452 7.60752 17.9487 7.40186C19.8035 6.92739 21.6555 6.27118 23.5447 6.09995C27.5519 5.7374 31.5504 5.29068 35.6216 5.77184C38.4636 6.1076 41.3811 5.79193 44.2643 5.73549C45.2247 5.7154 46.1794 5.54322 47.1378 5.5327C53.2963 5.45904 59.4557 5.44278 65.6133 5.34521C68.4926 5.30025 71.3728 5.35286 74.2483 4.99797C75.8611 4.79804 77.516 4.91379 79.1508 4.92527C81.2581 4.94249 83.0747 5.80724 84.7219 7.02879C85.2452 7.41716 85.7158 7.96337 86.0295 8.53253C87.1669 10.5825 87.7619 12.7864 87.6423 15.1482C87.5601 16.7792 87.3812 18.4083 87.3716 20.0392C87.3324 27.1572 87.254 34.2818 87.3716 41.4016C87.4147 43.9394 86.6657 46.1137 85.447 48.2211C84.2771 50.2385 82.473 51.6007 80.292 52.1335C78.5615 52.5572 76.7249 52.7945 74.8796 52.6338C72.4863 52.4281 70.0834 52.3219 67.6852 52.2043C63.7489 52.0139 59.8135 51.8102 55.8753 51.6887C52.8993 51.593 49.9158 51.7767 46.958 51.1903C46.0253 51.0038 45.0391 51.1157 44.0806 51.043C42.4535 50.9234 40.8302 50.7493 39.202 50.6278C36.7044 50.4413 34.2097 50.3533 31.7197 50.7589C28.3736 51.3022 24.9997 51.1023 21.6402 50.9846C20.4186 50.9397 19.2095 50.4614 18.0042 50.1457C16.8028 49.83 16.026 49.038 15.5544 47.891C15.0034 46.5537 14.4859 45.2193 14.5586 43.728C14.5959 42.9599 14.5663 42.1889 14.5663 41.4188H14.4821C14.5366 40.2661 14.5117 39.102 14.6648 37.9627C14.837 36.7086 14.9173 35.4851 14.6744 34.2349ZM56.2273 69.5375C55.5548 69.5337 54.8823 69.5203 54.2098 69.5203C52.2929 69.5184 50.3759 69.6399 48.4818 69.1147C47.8562 68.9406 47.1292 68.9521 46.4788 69.0678C44.5972 69.4007 42.729 69.8092 40.8665 70.2415C40.5269 70.3219 40.1653 70.5926 39.9453 70.8767C38.7199 72.4512 38.1221 74.264 38.2713 76.2479C38.4081 78.0654 39.8946 79.3979 41.6997 79.4152C44.3896 79.4391 47.0804 79.4209 49.7713 79.4209V79.2449C52.4631 79.2449 55.154 79.2544 57.8439 79.2372C58.414 79.2353 59.0023 79.2038 59.5476 79.0593C60.1282 78.9062 60.5415 78.5026 60.5998 77.8378C60.7586 76.0011 60.6295 74.2037 60.0335 72.4369C59.4098 70.585 58.2265 69.5471 56.2273 69.5375ZM55.8953 76.8745C55.1291 76.9022 54.3562 76.9395 53.5919 76.884C51.1029 76.7033 48.6205 76.4622 46.1296 76.2862C45.3749 76.2336 44.6106 76.3139 43.8482 76.3388C43.1212 76.3589 42.817 76.1934 42.7232 75.7094C42.5491 74.8465 42.7778 74.175 43.3756 74.0392C44.2107 73.8469 45.0649 73.6527 45.9163 73.6154C47.4506 73.5465 48.9898 73.5953 50.5251 73.5953V73.4958C52.0623 73.4958 53.6005 73.4777 55.1377 73.5016C56.3095 73.5207 56.5927 73.8192 56.7257 75.0618C56.7553 75.3449 56.763 75.6347 56.7572 75.9227C56.7524 76.4373 56.3899 76.8573 55.8953 76.8745ZM28.9685 42.5141C31.4891 43.2928 33.9571 42.0301 34.6086 39.5076C34.7262 39.0484 34.7358 38.5567 34.7654 38.0765C34.8008 37.4509 35.0572 36.9812 35.6158 36.6732C37.0469 35.8831 38.4894 35.1111 39.8965 34.2799C40.9574 33.6504 41.9666 33.4763 43.1814 33.925C44.0577 34.2483 45.0592 34.2741 46.01 34.3153C46.4568 34.3344 46.9427 34.1306 47.3646 33.9326C48.6579 33.3233 48.6483 33.3051 49.3695 34.2311C50.3768 35.5186 51.3573 36.8282 52.3981 38.0851C53.2667 39.1374 54.0271 40.1514 53.9745 41.6589C53.9487 42.3611 54.3667 43.1426 54.7465 43.7892C56.0914 46.0688 58.6752 46.6905 60.992 45.381C62.1705 44.7162 62.888 43.7184 62.976 42.3898C63.0429 41.3433 62.9626 40.2728 62.8191 39.234C62.7502 38.7098 62.776 38.3032 63.1175 37.9168C64.9073 35.9041 66.675 33.8704 68.4926 31.8817C69.1354 31.1796 69.8997 30.5903 70.6076 29.9485C71.347 30.1053 72.0797 30.2976 72.8249 30.4134C74.6893 30.7032 76.1988 30.1216 77.3878 28.6121C78.4027 27.3188 78.7519 25.882 78.617 24.1918C78.617 23.7116 78.6601 23.1309 78.6113 22.5589C78.419 20.2774 77.1114 18.8464 74.9141 18.37C74.1086 18.194 73.3855 18.4092 72.6537 18.6264C69.5917 19.5342 68.0468 21.6099 68.0535 24.7753C68.0554 25.0651 68.0477 25.3617 68.1023 25.6381C68.3022 26.5985 67.9004 27.2748 67.2299 27.932C64.9561 30.157 62.8411 32.5207 61.1594 35.245C61.0121 35.488 60.8198 35.7099 60.6218 35.9194C60.1473 36.4274 56.7783 36.8875 56.2129 36.4982C55.9011 36.2858 55.6131 36.0141 55.3721 35.7214C54.2118 34.3105 53.0744 32.8833 51.9217 31.4656C50.8322 30.1226 49.7885 28.768 49.8555 26.8941C49.8708 26.5182 49.7732 26.1241 49.6651 25.7596C49.0434 23.6876 46.7016 22.4527 44.6115 23.0601C42.5281 23.6599 41.3869 25.0575 41.097 27.1706C41.0205 27.7388 41.0559 28.3232 41.032 28.8991C41.0119 29.4147 40.7833 29.826 40.3299 30.0776C38.3976 31.1538 36.4586 32.2146 34.5339 33.3022C33.9992 33.6026 33.5324 33.7337 32.9192 33.44C32.417 33.1989 31.8172 33.1339 31.2509 33.0631C29.6477 32.8632 28.4443 33.5672 27.57 34.8548C26.404 36.568 26.316 38.4716 26.8115 40.3924C27.086 41.46 27.8369 42.163 28.9685 42.5141ZM72.3342 23.0611C72.734 22.6832 73.2496 22.3924 73.7576 22.1676C74.2827 21.9361 74.9476 22.3972 75.0337 22.9616C75.0471 23.0573 75.0824 23.15 75.0824 23.2438C75.0882 23.6226 75.0863 24.0043 75.0863 24.9475C75.1035 24.7667 75.1513 25.1828 75.0021 25.5118C74.8672 25.8179 74.5649 26.1748 74.2627 26.2608C73.2802 26.5392 72.5045 26.1901 72.0788 25.4047C71.589 24.4998 71.6263 23.7374 72.3342 23.0611ZM58.2887 40.6851C58.4121 40.4814 58.7393 40.1772 58.8359 40.2202C59.1142 40.3513 59.3218 40.6335 59.5217 40.8219C59.4098 41.239 59.4079 41.5527 59.251 41.745C59.1123 41.9191 58.7746 42.0798 58.5862 42.0272C58.371 41.9669 58.1232 41.6828 58.0763 41.459C58.0266 41.2208 58.15 40.907 58.2887 40.6851ZM44.6402 27.5561C44.6976 27.1112 45.1262 26.7391 45.6456 26.7018C46.1277 26.6683 46.5849 27.0366 46.649 27.5187C46.6844 27.8048 46.7055 28.0908 46.759 28.6561C46.6356 29.0445 46.4692 29.6911 46.2138 30.2947C46.1593 30.4277 45.6437 30.5435 45.5633 30.4593C44.8067 29.6471 44.5005 28.6676 44.6402 27.5561ZM30.5326 36.5929C30.699 36.4599 31.1189 36.3987 31.2318 36.5029C32.0019 37.2395 31.6843 38.904 30.7086 39.3258C30.5986 39.3727 30.3345 39.2589 30.2542 39.1393C30.1069 38.9241 30.0409 38.6495 29.9854 38.5022C29.9969 37.7293 29.9586 37.0472 30.5326 36.5929Z" fill="#7AC340"/>
</svg>
