<svg width="100" height="94" viewBox="0 0 100 94" fill="none" xmlns="http://www.w3.org/2000/svg">
<path fill-rule="evenodd" clip-rule="evenodd" d="M99.7752 47.8962C100.127 42.3657 99.9606 36.7988 99.9606 31.2476C99.9586 27.6632 98.4818 24.5283 96.732 21.5077C96.0961 20.4144 95.1054 19.9225 93.8494 19.6504C90.5331 18.9317 87.1508 19.0333 83.8059 18.7789C79.1764 18.4299 74.5056 18.0898 69.8929 19.1348C69.5252 19.2176 69.1023 18.8479 69.0954 18.4447C69.0589 16.1655 68.9298 13.8804 69.0491 11.609C69.1437 9.79117 68.4871 8.54706 66.9364 7.71503C66.2424 7.34238 65.5523 6.91749 64.808 6.68878C63.3678 6.24713 62.102 5.49002 60.8007 4.7753C59.3288 3.96692 57.8225 3.21573 56.2915 2.52663C55.0326 1.96077 53.7136 1.53194 52.4291 1.02227C50.8793 0.408099 49.3661 0.326276 47.8538 1.16521C47.1638 1.5487 46.4313 1.86219 45.7008 2.16582C42.1292 3.65245 38.666 5.34412 35.3575 7.3552C34.6044 7.81164 33.7753 8.16949 32.9373 8.44749C31.6784 8.86351 31.0663 9.87299 30.5112 10.9219C30.0035 11.8831 29.6141 12.8522 30.0262 14.0351C30.3791 15.0505 30.4787 16.1596 30.6217 17.2361C30.6473 17.4343 30.386 17.8187 30.1908 17.87C29.7216 17.9932 29.2129 17.9873 28.72 18.0051C27.0352 18.0632 25.3465 18.0504 23.6676 18.1707C19.819 18.4457 15.9772 18.9495 12.1246 19.0431C9.47869 19.1052 7.04962 19.7371 4.62843 20.6372C3.0245 21.2336 1.93122 22.253 1.63449 24.0028C1.37029 25.5584 1.07651 27.1101 0.833998 28.6697C0.547123 30.526 0.102516 32.3862 0.0739274 34.2504C-0.0118393 39.6015 -0.0660596 44.9614 0.162652 50.3056C0.276021 52.9732 0.437696 55.6428 0.467271 58.3154C0.497832 61.19 0.474172 64.0647 0.474172 66.9404H0.347986C0.347986 70.6076 0.329256 74.2749 0.357845 77.9431C0.369675 79.5274 0.418966 81.1175 0.554024 82.6948C0.843856 86.0486 2.44976 88.4274 5.72171 89.6015C7.58196 90.2679 9.37715 91.1118 11.2226 91.8206C12.2331 92.211 13.2672 92.6368 14.328 92.7828C16.481 93.0775 18.6557 93.2826 20.8285 93.3644C27.9639 93.6335 35.0884 93.2027 42.21 92.8508C43.4965 92.7877 44.783 92.7315 46.0705 92.698C49.8324 92.6014 53.6032 92.3322 57.3523 92.4988C59.7212 92.6043 62.0941 92.695 64.4669 92.7699C72.2007 93.0144 79.9197 92.836 87.5796 91.6767C90.1122 91.2932 92.5965 90.5873 95.1014 90.0284C97.0534 89.5936 98.1131 88.2825 98.6977 86.4508C99.2163 84.8281 99.4391 83.1789 99.4272 81.4773C99.3986 77.3152 99.3651 73.153 99.4085 68.9909C99.4854 61.961 99.3267 54.9311 99.7752 47.8962ZM36.4518 11.8427C37.0098 11.6485 37.5727 11.4543 38.1455 11.3123C41.6274 10.4507 44.855 8.97787 47.9761 7.24479C48.4936 6.95693 49.025 6.69075 49.5583 6.43247C50.8823 5.7907 52.1984 5.75028 53.5519 6.39796C56.2264 7.67954 58.9276 8.89703 61.8023 9.67681C62.7211 9.92623 63.3234 10.5374 63.6241 11.4621C64.3053 13.5649 64.4906 15.7179 64.3477 17.9104C64.2925 18.7602 63.9011 19.4296 63.2031 19.8909C61.8693 20.7742 60.4734 21.4968 58.7935 21.3904C58.2011 21.3539 57.6056 21.3854 57.0112 21.3854C57.0112 21.3578 57.0121 21.3302 57.0131 21.3036C51.0795 21.1784 45.1478 21.0641 39.2161 20.9132C38.5418 20.8955 37.83 20.7693 37.2178 20.5051C36.8235 20.3355 36.3493 19.8505 36.299 19.4582C36.0299 17.3041 35.8712 15.1373 35.6977 12.9734C35.6543 12.4312 35.9234 12.025 36.4518 11.8427ZM93.88 52.2693C93.2471 55.0839 92.9513 57.9378 92.8784 60.8026C92.7404 66.2542 92.695 71.7098 92.6674 77.1634C92.6586 78.9704 92.3707 80.7084 91.8216 82.4139C91.6717 82.8841 91.4864 83.3484 90.9393 83.5239C89.153 84.0996 87.3775 84.7217 85.5764 85.2471C84.2446 85.6365 82.8683 85.7933 81.4675 85.7824C77.7982 85.7548 74.131 85.7726 70.4627 85.7726C70.4598 85.7164 70.4588 85.6621 70.4558 85.6069C65.7052 85.808 60.9525 86.0239 56.2008 86.2034C54.4175 86.2714 52.6321 86.2605 50.8468 86.2793C44.7002 86.3463 38.5516 86.4321 32.404 86.4646C30.2283 86.4774 28.0644 86.3917 25.8936 86.0101C24.1556 85.7045 22.3368 85.8406 20.5534 85.8248C17.7675 85.7992 15.0446 85.3565 12.3553 84.6605C10.0179 84.0572 8.78368 82.2818 7.83236 80.2697C7.59083 79.761 7.63322 79.1094 7.58985 78.5208C7.14426 72.39 7.02891 66.2493 6.93033 60.1066C6.88794 57.5356 6.55276 54.9675 6.52812 52.3975C6.46502 46.1513 6.56558 39.9032 6.47587 33.658C6.43446 30.805 7.96052 28.8077 9.69754 26.8903C10.1303 26.4131 10.8608 26.1144 11.5095 25.9409C14.3782 25.1779 17.2529 24.4198 20.2666 24.5105C21.4545 24.545 22.6483 24.5598 23.8343 24.4908C24.8142 24.4336 25.7842 24.2236 26.7631 24.1132C27.9412 23.9801 29.1242 23.8806 30.3042 23.7662C30.9746 23.7021 31.4379 23.9397 31.6558 24.6189C31.7751 24.9945 31.9436 25.3613 32.1369 25.7053C32.9265 27.1101 34.1213 27.9303 35.746 27.9333C38.2223 27.9382 40.6987 27.8623 43.1751 27.8199C44.9536 27.7913 46.732 27.7105 48.5104 27.743C53.4642 27.8357 58.4179 28.0368 63.3727 28.0634C65.0515 28.0723 66.7462 27.6582 67.9942 26.3698C68.5325 25.8157 69.0984 25.659 69.8259 25.6107C75.7596 25.2223 81.7041 25.1661 87.6427 24.9334C88.1376 24.9137 88.6344 24.896 89.1293 24.9078C91.5426 24.9679 93.4837 26.5078 94.0062 28.8718C94.2408 29.9296 94.4212 31.0238 94.438 32.1033C94.5099 36.9605 94.4981 41.8186 94.5553 46.6768C94.577 48.5774 94.2911 50.4377 93.88 52.2693ZM35.7361 52.917C35.0036 52.6292 34.2238 52.4635 33.4924 52.1717C33.1444 52.0327 32.82 51.7833 32.963 51.2677C33.2262 50.3144 33.4273 49.3454 33.6885 48.3921C34.0484 47.078 34.1637 44.8717 33.9527 43.461C33.8798 42.974 33.9547 42.4624 33.862 41.9803C33.7142 41.2094 33.5486 40.4286 33.2696 39.6971C32.7776 38.4008 31.8549 37.616 30.4127 37.4425C27.3497 37.0758 24.7442 37.9483 22.6493 40.2216C21.8242 41.1177 21.3441 42.1755 21.3115 43.4373C21.2938 44.1107 21.21 44.8224 20.9616 45.4386C20.5396 46.4865 20.584 47.3678 21.487 48.1023C22.0568 48.5686 22.2974 49.1906 22.4985 49.8679C22.7232 50.624 22.9677 51.3811 23.298 52.0939C23.5789 52.7001 23.3561 52.9791 22.8455 53.2285C21.7788 53.75 20.726 54.2972 19.6622 54.8246C18.5571 55.3747 17.5506 56.1288 17.3308 57.3582C17.0518 58.9276 16.3716 60.4014 16.1774 61.9442C15.8826 64.2707 15.4015 66.5953 15.8511 69.0037C16.1291 70.5031 16.8438 71.3588 18.2131 71.6743C19.3586 71.9385 20.5485 72.0174 21.8133 72.1899C23.2132 72.0075 24.6781 71.6802 26.149 71.6516C29.9168 71.5757 33.6274 71.1528 37.3262 70.4292C38.7064 70.1601 39.6518 69.6336 40.4572 68.4999C41.239 67.3998 41.7062 66.2937 41.6333 64.9411C41.5643 63.6556 41.5702 62.3671 41.5219 61.0806C41.374 57.1018 39.4418 54.3721 35.7361 52.917ZM36.4094 61.1802C36.3651 61.5716 36.4015 61.9718 36.4015 62.3681H36.3168C36.3168 63.0602 36.3404 63.7542 36.3108 64.4452C36.2783 65.2112 36.0949 65.4114 35.2846 65.6371C34.6182 65.8224 33.9518 66.0255 33.2735 66.1438C32.407 66.2946 31.5276 66.3676 30.6542 66.4741C29.8862 65.7554 30.3525 64.7755 30.1169 63.9484C29.6348 62.2587 30.0459 60.3679 28.8896 58.8083C28.6904 58.5402 29.07 57.8905 29.07 57.4173C29.069 56.6996 28.5159 56.1495 27.7766 56.0105C26.6715 55.8015 25.8128 56.6336 25.9952 57.7407C26.0277 57.9349 26.0681 58.132 26.145 58.3105C26.8302 59.9193 26.7957 59.9144 26.6498 61.1861C26.4703 62.7546 26.3589 64.3299 26.2259 65.9033C26.1697 66.5815 25.872 66.966 25.1572 67.1139C24.5795 67.2341 23.989 67.314 23.3995 67.3623C21.4377 67.5259 21.3943 67.4491 21.2839 65.5947C21.207 64.3171 21.0089 63.0464 20.8778 61.7717C20.8383 61.3793 20.8857 60.9732 20.8196 60.5867C20.5406 58.967 21.1449 57.9112 22.737 57.4311C23.016 57.3463 23.2782 57.1906 23.5375 57.0456C25.8276 55.7729 26.7424 53.5499 25.8887 51.0223C25.3159 49.3237 24.8398 47.6419 24.825 45.824C24.8122 44.3896 25.2874 43.3181 26.5325 42.6181C27.0451 42.3303 27.5755 42.0611 28.1236 41.8521C28.7101 41.6283 29.417 42.0434 29.4416 42.6704C29.484 43.7489 29.5402 44.849 29.3746 45.9049C29.1163 47.562 28.6796 49.1896 28.3178 50.8281C28.2123 51.3091 28.0447 51.7843 28.0063 52.2703C27.9353 53.1329 28.2665 53.8033 29.0946 54.1897C29.6201 54.4352 30.2214 54.6304 30.6177 55.0227C31.5572 55.9534 32.6406 56.5912 33.8699 57.0269C35.8327 57.7239 36.6401 59.1297 36.4094 61.1802ZM47.6656 44.9427C48.0934 44.9959 48.6149 44.785 48.9974 44.5405C49.304 44.3443 49.4667 43.9214 49.6875 43.5961C50.0769 43.0233 50.4367 42.4288 50.8547 41.8797C51.5822 40.9215 52.362 40.954 52.9328 41.9409C53.13 42.2829 53.2936 42.6447 53.4711 42.9977C54.8424 45.7254 58.0463 47.1539 61.0511 44.1688C61.612 43.6108 62.1513 43.0302 62.7132 42.4732C63.21 41.9813 63.4427 42.0099 63.8005 42.6625C64.4689 43.879 65.1383 45.0965 66.2257 46.0015C66.6772 46.379 67.1523 46.7674 67.6847 47.0021C68.8785 47.5285 70.3582 47.1066 71.0592 45.9167C71.8202 44.6233 72.7045 43.4541 73.7751 42.416C74.4179 41.792 74.6485 41.792 75.2134 42.3904C75.7566 42.9641 76.2623 43.5803 76.8558 44.0978C77.9313 45.0403 79.1814 45.5884 80.4777 45.5007C82.1418 45.5086 82.9235 45.268 83.4411 44.2132C84.282 42.4949 85.328 40.9836 86.8353 39.7987C86.9082 39.7395 86.9506 39.6409 87.0059 39.5581C87.4209 38.9193 87.4514 38.2598 87.067 37.6003C86.4094 36.4715 85.1209 36.0466 84.0139 36.6835C83.2479 37.1222 82.547 37.686 81.8579 38.245C81.4005 38.6167 81.0209 39.0849 80.598 39.5009C80.2658 39.8272 79.905 39.8529 79.5855 39.5C79.1892 39.0603 78.8501 38.5664 78.44 38.1405C77.0845 36.7377 75.4954 36.1876 73.6144 36.9575C72.9805 37.2178 72.3595 37.5362 71.7946 37.9207C70.9803 38.4747 70.2232 39.1165 69.4375 39.7159C69.0639 39.9998 68.6675 39.9524 68.3886 39.6242C67.8779 39.0238 67.4836 38.316 66.9364 37.755C65.4932 36.2812 63.836 36.023 62.1098 37.1586C60.9673 37.9098 59.8533 38.8069 58.9868 39.8529C57.4331 41.7319 57.2655 41.3139 55.8903 39.7878C55.6261 39.4931 55.3727 39.1865 55.0858 38.9154C53.196 37.135 50.9414 37.1143 48.9787 38.8523C47.7543 39.9347 47.0356 41.3336 46.524 42.8498C46.4352 43.115 46.4431 43.4482 46.5102 43.7252C46.659 44.3364 47.0474 44.8658 47.6656 44.9427ZM56.4808 54.2913V54.1641C58.4593 54.1641 60.4408 54.2232 62.4164 54.1503C65.6746 54.03 68.9288 53.819 72.186 53.6564C76.5295 53.4385 80.873 53.2276 85.2176 53.0235C86.024 52.985 86.785 52.8273 87.4761 52.3935C88.3564 51.8405 88.4284 50.0769 87.5254 49.58C86.9408 49.2576 86.2438 49.021 85.5813 48.9777C84.5009 48.9087 83.4076 49.0112 82.3212 49.0723C79.9552 49.2054 77.5893 49.3858 75.2203 49.4923C73.2447 49.582 71.2465 49.4449 69.2876 49.6687C65.0476 50.1518 60.7918 50.0443 56.5449 50.2346C54.0764 50.344 51.6079 50.4406 49.1394 50.5737C48.5548 50.6053 47.9514 50.6871 47.4014 50.8793C46.8168 51.0834 46.4392 51.5724 46.3722 52.2171C46.3032 52.8589 46.5644 53.3478 47.0938 53.7352C47.7789 54.238 48.5567 54.2893 49.3543 54.2913C51.7311 54.2922 54.1059 54.2913 56.4808 54.2913ZM84.3836 63.8074C83.5081 63.6733 82.612 63.6112 81.7287 63.6241C79.0601 63.6655 76.3925 63.7581 73.6568 63.8321C68.081 63.5284 62.4756 64.2392 56.8554 64.5024C55.1844 64.5803 53.5204 64.8583 51.8612 65.0949C50.9829 65.2181 50.0907 65.364 49.2596 65.6568C48.7381 65.8402 48.261 66.2601 47.8676 66.6732C47.5098 67.0488 47.4575 67.6265 47.7651 68.0465C47.9682 68.3254 48.4049 68.5808 48.7421 68.5877C49.9241 68.6133 51.1357 68.6665 52.2891 68.4585C56.0184 67.7813 59.7744 68.0248 63.5235 67.9913C66.8842 67.9607 70.2449 67.9104 73.6065 67.8592C74.3962 67.8473 75.2065 67.8976 75.9725 67.7448C78.1275 67.313 80.3013 67.4126 82.4711 67.386C83.0645 67.3781 83.659 67.4165 84.2475 67.3702C85.0667 67.3071 85.6641 66.6505 85.745 65.7988C85.8376 64.8169 85.2945 63.9464 84.3836 63.8074ZM86.9516 56.675C86.4607 56.6316 85.9638 56.6306 85.4699 56.6109C80.3111 56.3999 75.1957 57.0851 70.0753 57.4922C65.7397 57.8353 61.405 58.1192 57.0644 58.3381C55.0888 58.4386 53.1063 58.3933 51.1288 58.4652C50.5491 58.4859 49.9655 58.6506 49.4016 58.8093C48.9649 58.9315 48.6701 59.5398 48.7736 60.0179C48.8683 60.4566 49.1739 60.6755 49.6185 60.6764C52.783 60.6794 55.9504 60.6774 59.1149 60.6774C59.1149 60.708 59.1149 60.7385 59.1139 60.7701C59.9065 60.7701 60.6981 60.7957 61.4898 60.7661C67.3199 60.5463 73.156 60.425 78.9763 60.0396C81.5434 59.87 84.1026 59.7231 86.6736 59.6975C87.1646 59.6916 87.6624 59.6532 88.1435 59.5585C88.9716 59.3949 89.2545 58.345 88.6985 57.6825C88.2332 57.1265 87.6831 56.74 86.9516 56.675ZM80.4531 72.8701C79.3864 72.0962 78.1492 71.8172 76.9219 71.6664C75.593 71.8784 74.3548 72.1682 73.2802 72.9214C72.4492 73.503 71.8656 74.2848 71.5462 75.244C70.9862 76.9208 71.833 78.6293 73.4853 79.3312C76.2692 80.5171 78.9418 79.5619 80.8149 77.7834C82.2404 76.4329 82.0245 74.0127 80.4531 72.8701ZM48.7588 17.0606C50.4052 17.6541 52.3344 16.9078 53.3745 15.2743C54.2124 13.9543 53.7106 12.1818 52.2901 11.5203C51.9342 11.3537 51.5428 11.2502 51.1613 11.1486C48.9659 10.567 46.9104 12.1217 46.8848 14.3723C46.87 15.8165 47.3945 16.5687 48.7588 17.0606Z" fill="#3D94F2"/>
</svg>
