<svg width="100" height="91" viewBox="0 0 100 91" fill="none" xmlns="http://www.w3.org/2000/svg">
<path fill-rule="evenodd" clip-rule="evenodd" d="M99.9404 88.4346C99.8954 86.915 99.4448 85.3824 98.4697 84.2374C97.4446 83.0335 96.1148 82.0804 94.876 81.0693C94.4573 80.7286 93.8829 80.7816 93.4832 81.1492C93.0466 81.5519 92.667 82.0304 92.3293 82.522C91.588 83.595 90.9156 84.717 90.1633 85.782C89.7846 86.3165 89.6557 87.1058 88.8305 87.2387C88.5617 86.7042 88.3369 86.1417 88.0162 85.6421C87.2839 84.5082 87.107 83.4291 88.1371 82.3701C88.272 82.2292 88.3549 82.0344 88.4468 81.8586C88.6247 81.5169 88.3699 80.9594 87.9992 80.9294C87.3019 80.8755 86.6005 80.8275 85.9001 80.8325C85.1248 80.8395 84.8111 81.2801 85.0989 81.9885C85.3616 82.6359 85.8182 83.2583 85.5734 83.9806C85.3187 84.73 84.95 85.4433 84.5703 86.1387C84.5294 86.2146 83.9349 86.1597 83.865 86.0258C82.798 83.9886 81.7729 81.9295 80.7438 79.8754C80.538 79.4658 80.1634 79.2499 79.7687 79.3509C78.6048 79.6456 77.4268 79.9363 76.3248 80.3949C75.7124 80.6507 75.1369 81.1642 74.7283 81.7007C74.1918 82.4091 73.8051 83.2423 73.4085 84.0466C72.5023 85.8839 72.4284 87.9021 72.0887 89.8773C71.6721 92.2921 71.8469 94.6819 71.8959 97.0817C71.9199 98.3106 72.5303 98.8281 73.8301 98.9101C75.3328 99.006 76.8394 99.025 78.338 99.1458C79.6328 99.2497 80.9157 99.5165 82.2105 99.5864C84.7162 99.7243 87.2269 99.7723 89.7346 99.8562C89.7346 99.8322 89.7356 99.8052 89.7356 99.7803C92.1455 99.7803 94.5553 99.7843 96.9641 99.7783C97.4656 99.7763 97.9671 99.7213 98.4677 99.7123C99.193 99.6983 99.5347 99.2338 99.7365 98.6353C99.8634 98.2607 99.9863 97.861 99.9873 97.4724C99.9953 94.4581 100.03 91.4439 99.9404 88.4346ZM37.9388 42.2466C40.5404 42.1567 43.138 41.9759 45.7397 41.9229C48.5481 41.864 51.3576 41.9089 54.165 41.9089V41.815C57.1743 41.815 60.1845 41.821 63.1938 41.809C64.033 41.807 64.3807 41.5433 64.3857 40.8179C64.4087 37.8087 64.4527 34.7994 64.3677 31.7931C64.3248 30.2785 63.8802 28.7469 62.91 27.594C61.89 26.3821 60.5782 25.4099 59.3583 24.3739C58.9077 23.9912 58.1254 24.1121 57.7168 24.5747C57.3211 25.0213 56.9575 25.5059 56.6198 26.0004C55.8315 27.1623 55.0702 28.3433 54.2859 29.5062C54.121 29.75 53.9252 29.9898 53.6924 30.1616C53.5965 30.2296 53.2498 30.1586 53.2129 30.0697C52.8322 29.1505 52.3926 28.2354 52.1698 27.2742C51.968 26.401 53.023 25.9874 53.2109 25.2081C53.2319 25.1132 53.3018 25.0313 53.3438 24.9404C53.5016 24.6087 53.2888 23.9782 52.9621 23.9493C51.974 23.8673 50.9789 23.7814 49.9908 23.8124C49.5832 23.8244 49.3154 24.279 49.3644 24.7006C49.4213 25.1831 49.5522 25.6777 49.757 26.1173C50.0298 26.7068 50.0398 27.2842 49.8639 27.8717C49.6371 28.634 49.3704 29.3843 49.1216 30.1376C48.1155 29.789 48.0426 28.7739 47.61 28.0146C47.0125 26.9705 46.472 25.8915 45.8086 24.8944C45.327 24.1721 45.5838 22.8513 44.4988 22.7204C43.6656 22.6185 42.7664 23.0581 41.8972 23.2569C41.7993 23.2779 41.7043 23.3099 41.6064 23.3348C40.2677 23.6825 39.2496 24.4528 38.6341 25.6877C38.1446 26.6708 37.647 27.6649 37.3034 28.7009C36.5091 31.0988 36.3662 33.6145 36.2223 36.1062C36.1324 37.7008 36.2553 39.3143 36.3872 40.9108C36.4821 42.0228 36.8318 42.2856 37.9388 42.2466ZM28.1946 88.7033C28.0188 85.7181 26.5411 83.3952 24.2203 81.5998C22.7206 80.4409 21.8444 80.6097 20.7424 82.2073C19.7204 83.6899 18.7522 85.2125 17.7472 86.7072C17.4734 87.1128 17.0008 87.0858 16.769 86.6892C15.8779 85.1716 15.1565 83.6509 16.5612 82.0244C16.6811 81.8846 16.6971 81.6548 16.7561 81.4649C16.859 81.1392 16.5363 80.5478 16.2066 80.5278C15.5092 80.4848 14.8068 80.4389 14.1095 80.4748C13.0304 80.5318 12.7647 81.0333 13.2123 82.0064C13.4171 82.453 13.7828 82.9436 13.7258 83.3662C13.5799 84.4452 13.2433 85.4993 12.9505 86.5543C12.9335 86.6162 12.5519 86.6822 12.4779 86.6093C12.1323 86.2596 11.7566 85.9029 11.5368 85.4753C10.6156 83.6979 9.75143 81.8925 8.85724 80.1012C8.54852 79.4827 8.06496 79.2859 7.37359 79.4767C6.69921 79.6636 6.02882 79.8674 5.35543 80.0562C4.14353 80.3979 3.23536 81.1023 2.55598 82.1793C1.79567 83.3832 1.23318 84.665 0.930456 86.0348C0.257068 89.071 -0.137572 92.1422 0.044262 95.2644C0.13418 96.814 0.282046 97.0198 1.74571 97.1666C4.731 97.4644 7.70729 97.8161 10.7215 97.863C14.0215 97.913 17.3165 98.2297 20.6125 98.4445C21.0112 98.4695 21.4178 98.5254 21.7935 98.6493C23.6508 99.2557 25.563 99.0629 27.4603 99.0589C27.9009 99.0569 28.2196 98.7922 28.2236 98.3196C28.2386 96.817 28.2296 95.3123 28.2296 93.8097H28.2116C28.2126 92.1092 28.2926 90.3998 28.1946 88.7033ZM69.3902 73.9028C67.8815 72.595 66.4149 71.2632 64.5376 70.414C61.7981 69.1751 59.0656 67.9412 56.1972 67.0211C54.9163 66.6085 54.7725 66.3657 54.7655 65.0908C54.7535 62.9858 54.7615 60.8777 54.7615 58.7726H54.8784C54.8784 56.5656 54.8644 54.3586 54.8854 52.1516C54.8953 51.1176 54.6496 50.1634 54.127 49.2832C53.1689 47.6617 49.9219 47.2281 48.5381 48.5569C48.2664 48.8166 48.1045 49.2223 47.9726 49.5899C47.4811 50.9527 47.539 52.3324 47.8478 53.7342C48.7649 57.8874 48.648 62.0726 48.1075 66.2558C48.0666 66.5675 47.7229 66.9791 47.4221 67.097C43.8864 68.4917 40.3386 69.8585 36.7788 71.1933C35.7408 71.5839 34.7307 71.9506 33.9284 72.7858C33.5288 73.2015 32.9313 73.4283 32.4278 73.748C31.3608 74.4273 30.8452 76.1418 31.5456 77.1668C32.4058 78.4277 33.4259 79.5667 35.2332 79.169C35.8177 79.0401 36.4252 78.9912 36.9896 78.8024C38.3184 78.3598 39.6842 77.9711 40.9271 77.3437C42.4647 76.5684 44.0792 76.0758 45.7137 75.6172C47.2623 75.1816 48.8628 74.792 50.1257 73.7909C51.3296 72.8388 52.5195 72.8558 53.7824 73.3633C55.0762 73.8828 56.4279 74.2925 57.507 75.2716C57.9416 75.6662 58.4961 75.9579 59.0406 76.1947C60.6191 76.8831 62.0049 77.8612 63.3586 78.9013C63.8322 79.2639 64.3368 79.5936 64.8563 79.8904C65.1061 80.0322 65.4378 80.1601 65.7075 80.1212C68.1972 79.7545 70.3163 77.8812 69.9536 74.9219C69.9087 74.5602 69.6679 74.1446 69.3902 73.9028ZM7.39058 70.6268C8.01301 70.9225 8.2408 71.3961 8.42164 71.9965C8.65543 72.7638 8.94416 73.5162 9.26687 74.2525C9.92427 75.7531 10.9024 77.039 12.2362 77.9851C14.5201 79.6086 17.6153 79.177 18.8422 76.4655C19.3857 75.2636 19.7803 74.0457 19.9481 72.7309C20.075 71.7408 20.4087 70.8686 21.2789 70.1432C22.6996 68.9593 22.7966 66.6684 21.4788 65.3676C20.7774 64.6762 20.4017 64.0408 20.3638 63.0557C20.3278 62.1695 20.12 61.2663 19.8422 60.4181C19.051 58.0123 17.4175 56.8853 14.574 56.8673C13.0654 56.6665 11.7506 57.5467 10.6846 58.8325C9.51964 60.2412 8.66342 61.8418 8.3477 63.6601C8.19984 64.5184 7.84316 65.1098 7.11383 65.6054C6.65025 65.9211 6.1597 66.4756 6.06179 66.9951C5.80102 68.4118 5.79703 69.8675 7.39058 70.6268ZM15.4013 63.5942C15.4253 63.5802 15.4542 63.5742 15.4812 63.5672C15.5132 63.5273 15.5452 63.4873 15.5781 63.4473C15.5991 63.4533 15.6231 63.4553 15.6461 63.4593C15.4812 62.731 15.8968 62.1725 16.2285 61.59C16.2755 61.5061 16.3944 61.3732 16.4264 61.3872C16.5742 61.4511 16.782 61.5321 16.826 61.657C17.0588 62.3014 17.4155 62.9568 17.4254 63.6142C17.4644 66.3966 17.4115 69.1811 17.3495 71.9636C17.3375 72.4421 17.1407 72.9277 16.9679 73.3873C16.8689 73.65 16.6472 73.8658 16.4793 74.1026C16.2455 73.7979 15.9388 73.5232 15.7939 73.1805C15.6461 72.8268 15.6281 72.4092 15.5991 72.0165C15.5462 71.3102 16.3794 70.5079 15.3613 69.9094C15.4802 69.4539 15.5312 68.9653 15.734 68.5527C16.1036 67.8064 16.4194 67.125 15.762 66.3567C15.6261 66.1968 15.674 65.7952 15.761 65.5494C15.9248 65.0838 16.2175 64.6642 16.3874 64.1996C16.6831 63.4004 16.0577 63.5353 15.6451 63.4603C15.6501 63.4833 15.6501 63.5053 15.6571 63.5293C15.5981 63.5432 15.5382 63.5522 15.4802 63.5682C15.4253 63.6362 15.3713 63.7031 15.3174 63.771C15.3443 63.7091 15.3553 63.6212 15.4013 63.5942ZM79.1193 70.5958C79.7108 70.8966 80.0305 71.3002 80.1943 71.9326C80.3702 72.61 80.6259 73.2714 80.8937 73.9208C81.5191 75.4334 82.4962 76.6933 83.7161 77.7803C84.5873 78.5546 85.6723 78.9023 86.7574 78.9322C88.0891 78.9682 89.347 78.5236 90.1303 77.2957C90.9495 76.0119 91.504 74.6282 91.6709 73.0926C91.8028 71.8727 92.1874 70.8366 93.2504 69.9954C94.4933 69.0123 94.5333 66.5765 93.3134 65.4155C92.5041 64.6462 92.1764 63.8899 92.1444 62.8199C92.1215 62.0356 91.8987 61.2353 91.6499 60.48C90.8476 58.0393 89.2561 56.9003 86.5036 56.8663C84.8221 56.7045 83.4274 57.5667 82.3224 59.0104C81.3353 60.2992 80.525 61.7139 80.2103 63.2985C79.9995 64.3585 79.6468 65.1558 78.7187 65.7512C78.331 65.999 77.9424 66.4906 77.8644 66.9282C77.6107 68.3479 77.5507 69.7956 79.1193 70.5958ZM87.6126 61.4262C87.8753 61.0905 88.3299 61.1005 88.5627 61.4781C88.9933 62.1735 89.2581 62.9138 89.2561 63.7391V67.0391C89.2351 68.7205 89.5408 70.45 88.7296 72.0365C88.6576 72.1774 88.4168 72.2353 88.244 72.3103C88.229 72.3173 88.0941 72.1554 88.0941 72.0705C88.1021 70.9565 87.3738 69.9804 87.3738 68.9263C87.3738 67.7944 87.0361 66.7833 86.8393 65.7163C86.5655 64.2286 86.6005 62.725 87.6126 61.4262ZM43.5577 13.9034C44.1681 14.2021 44.4289 14.6487 44.6117 15.2582C44.8385 16.0275 45.1292 16.7808 45.4489 17.5161C46.1033 19.0188 47.0785 20.3026 48.4053 21.2607C50.6712 22.8942 53.7933 22.4856 55.0212 19.7851C55.5667 18.5852 55.9754 17.3733 56.1382 16.0565C56.2621 15.0654 56.5788 14.1852 57.449 13.4558C58.8737 12.2629 59.0136 9.94602 57.6928 8.68816C56.8755 7.90787 56.5938 7.13657 56.5508 6.08153C56.5219 5.29525 56.2991 4.49698 56.0493 3.74166C55.243 1.31787 53.6395 0.185899 50.925 0.160922C49.1925 0.00706172 47.7968 0.887261 46.7118 2.33494C45.6817 3.71169 44.8465 5.20533 44.5458 6.92177C44.3979 7.768 44.0852 8.38843 43.3339 8.87999C42.8653 9.18471 42.3697 9.7392 42.2688 10.2577C41.9931 11.6704 41.9701 13.1281 43.5577 13.9034ZM52.0439 4.6908C52.3067 4.3611 52.7443 4.40406 52.9901 4.8027C53.4227 5.50006 53.6655 6.24738 53.6675 7.07063V10.3706C53.7064 10.3706 53.7464 10.3726 53.7864 10.3726C53.7224 11.5705 53.6954 12.7724 53.5775 13.9654C53.5306 14.4439 53.2908 14.9025 53.121 15.3641C53.093 15.438 52.9591 15.5379 52.8952 15.5239C52.7483 15.493 52.5155 15.426 52.4865 15.3271C51.9121 13.241 51.7332 11.077 51.2467 8.96791C50.909 7.50024 51.0179 5.98063 52.0439 4.6908Z" fill="#7AC340"/>
</svg>
