<svg width="92" height="91" viewBox="0 0 92 91" fill="none" xmlns="http://www.w3.org/2000/svg">
<path fill-rule="evenodd" clip-rule="evenodd" d="M90.9865 81.3182C90.9676 80.2638 90.6181 79.9557 89.599 79.7557C88.9517 79.6293 88.3076 79.4639 87.6537 79.3867C87.0941 79.3194 86.3672 79.5912 85.9963 79.2894C85.3957 78.8031 86.0185 77.9668 85.9692 77.2633C85.8667 75.8071 85.8937 74.3428 86.3663 72.9312C86.4755 72.6012 86.4574 72.2094 86.4591 71.8459C86.4689 70.377 85.7239 69.3807 84.4242 69.2462C83.607 69.1626 82.7669 69.1344 81.9562 69.2544C80.9159 69.408 80.1889 68.9799 79.6343 68.0818C78.8958 66.8856 78.1779 65.6731 77.4584 64.4605C77.0547 63.777 76.5419 63.127 76.3113 62.3744C76.1431 61.8254 76.3638 61.1346 76.3917 60.5056C76.4016 60.3274 76.3326 60.1456 76.3228 59.9638C76.244 58.1404 76.1398 56.318 76.1029 54.4946C76.066 52.5758 76.0947 50.656 76.0947 48.7363H76.1636C76.1636 45.8112 76.2342 42.8834 76.1349 39.9648C76.084 38.4522 76.3384 37.0742 76.8766 35.7262C77.2081 34.8918 77.6602 34.1001 77.8875 33.2329C78.1328 32.2967 78.7449 31.7022 79.2224 30.9742C79.5539 30.4642 79.9805 30.3261 80.5015 30.337C81.5739 30.3579 82.6454 30.3552 83.7195 30.3815C84.4119 30.3997 85.0544 30.2706 85.4728 29.6025C85.9085 28.9054 86.5173 28.8163 87.2081 28.8072C87.6758 28.8017 87.931 28.4354 87.9786 27.9246C88.0557 27.0992 88.1337 26.2348 87.6438 25.5458C86.5206 23.9642 85.3506 22.359 83.7096 21.4455C82.0096 20.4965 80.3809 19.4466 78.8154 18.2586C78.4101 17.9523 77.958 17.7078 77.5027 17.4978C72.5609 15.2145 67.7077 12.7048 62.8431 10.2252C58.5528 8.04092 54.4602 5.54308 50.6113 2.52258C49.6751 1.78905 48.6101 1.26185 47.6165 0.61739C46.1938 -0.302485 44.7949 -0.109784 43.3746 0.640114C41.147 1.81723 38.9613 3.08614 36.691 4.1769C34.808 5.0786 33.0226 6.25389 31.2438 7.39919C29.4617 8.54631 27.6977 9.73524 26.0017 11.0314C22.6771 13.5702 18.8709 15.2608 15.7605 18.1777C15.5758 18.3504 15.3404 18.4795 15.1115 18.5704C13.7634 19.0976 12.6935 20.122 11.53 20.981C10.982 21.3836 10.4273 21.7781 9.88415 22.1881C7.50475 23.9833 5.12781 25.7849 2.75005 27.5846C2.68195 27.6355 2.62041 27.6955 2.55887 27.7564C2.1995 28.1191 2.14371 28.8626 2.47354 29.2471C2.93055 29.778 3.42366 30.2024 4.11943 30.3733C6.36756 30.9223 8.59517 31.6559 10.9319 31.4332C11.8755 31.3432 12.2685 31.8922 12.5548 32.7285C12.7599 33.3257 12.9782 33.921 13.2342 34.491C13.9021 35.9789 14.6462 37.3833 16.1584 38.0459C16.3906 38.1477 16.6474 38.5913 16.6441 38.874C16.5973 42.528 16.5752 46.1857 16.4021 49.8343C16.2642 52.7539 16.0427 55.6535 16.4776 58.5695C16.6359 59.6421 16.5736 60.7565 16.5932 61.8527C16.6138 63.0125 16.2568 64.0333 15.4536 64.7723C14.2073 65.9158 13.3269 67.3219 12.8321 69.0081C12.5515 69.9652 11.9592 70.2897 11.1444 70.2533C10.5725 70.2288 10.0031 70.1188 9.43289 70.0452C8.59353 69.9379 7.97981 70.3479 7.60321 71.1359C7.41696 71.5232 7.2906 71.9967 7.29224 72.4312C7.30045 74.6209 7.34311 76.8115 7.41039 79.0022C7.42516 79.4794 7.25778 79.653 6.87954 79.6657C5.48062 79.7139 4.08005 79.7793 2.67949 79.7866C1.80485 79.792 1.31584 80.322 0.991751 81.1273C0.892473 81.3736 0.794835 81.6445 0.78663 81.9081C0.725914 83.9142 0.631559 85.9303 1.30107 87.8573C1.47748 88.3636 1.70147 88.8544 1.94679 89.3244C2.25612 89.9179 2.74841 90.237 3.36623 90.2733C3.77647 90.2979 4.19 90.2879 4.60188 90.2788C6.7458 90.2324 8.89054 90.1815 11.0361 90.1334C13.0135 90.0897 15.004 90.1761 16.9698 89.9752C20.3437 89.6307 23.7085 89.5825 27.093 89.6771C29.4789 89.7443 31.8969 89.7589 34.2574 89.4189C36.3185 89.1217 38.3566 89.0699 40.4176 89.0608C41.65 89.0562 42.9061 89.0699 44.1131 88.8372C46.0076 88.4736 47.9127 88.4945 49.7777 88.7145C51.2636 88.8881 52.7331 88.9808 54.2116 88.9308C56.1873 88.8654 58.1589 88.6854 60.1347 88.6208C62.7709 88.5345 65.3972 88.7145 68.0318 88.8454C72.6421 89.0744 77.2705 88.9399 81.8906 88.9453C82.4674 88.9463 83.0573 88.9653 83.6153 88.8399C85.6665 88.3754 87.6996 88.41 89.7434 88.8744C90.3924 89.0226 90.9643 88.5718 90.9742 87.8919C91.0086 85.7031 91.03 83.5097 90.9865 81.3182ZM11.3184 27.0011C11.2396 26.9938 11.1666 26.9374 11.0911 26.9038C11.1346 26.7847 11.1616 26.6529 11.2273 26.552C11.2708 26.4866 11.3733 26.4702 11.4439 26.4266C11.5899 26.3384 11.7278 26.2357 11.8763 26.1585C14.7275 24.6877 17.3391 22.7716 20.0007 20.9355C22.7296 19.0531 25.5242 17.2833 28.3335 15.5481C29.6217 14.7527 31.0116 14.1565 32.3556 13.4711C36.1134 11.5577 39.6226 9.16804 43.0423 6.60748C43.4542 6.30116 43.8407 5.95212 44.2632 5.67397C46.6558 4.10419 47.0455 4.14327 49.4134 5.74396C51.1011 6.88472 52.8266 7.9573 54.5546 9.02261C56.4277 10.1779 58.3362 11.2632 60.2052 12.4258C64.3798 15.0236 68.7227 17.2478 73.0171 19.5748C73.7571 19.9738 74.5317 20.2974 75.3021 20.6201C78.004 21.7527 80.6 23.1398 83.1558 24.6241C83.5915 24.8777 84.0198 25.165 84.4054 25.5022C84.5703 25.6476 84.6376 25.9567 84.6893 26.2048C84.6991 26.2575 84.4456 26.4057 84.2979 26.4566C84.1461 26.5102 83.973 26.5093 83.8089 26.5166C83.3954 26.5357 82.9835 26.5557 82.5716 26.5629C72.2598 26.7693 61.9471 26.9747 51.6353 27.1747C51.0585 27.1865 50.4784 27.1874 49.909 27.112C49.7071 27.0856 49.4093 26.8456 49.3707 26.6493C49.2649 26.123 49.2345 25.5676 49.2567 25.0277C49.2682 24.7923 49.4331 24.5005 49.6111 24.3578C49.8704 24.1469 50.2167 24.0733 50.5038 23.8933C51.0019 23.5788 51.5278 23.2888 51.9618 22.8844C53.6028 21.3637 53.6094 19.4748 52.0611 17.6623C51.417 16.9097 50.6171 16.4089 49.7186 16.2116C48.853 16.0207 48.7431 15.4008 48.725 14.6182C48.7012 13.6502 48.7267 13.5802 49.5586 13.2748C49.7925 13.1884 50.0887 13.2048 50.261 13.0457C50.5637 12.7676 50.8566 12.4267 51.0347 12.0449C51.1873 11.7131 50.7032 11.1823 50.1215 10.9478C50.0427 10.9169 49.9672 10.8542 49.8893 10.8533C48.4083 10.8305 47.9726 9.80795 47.9152 8.37815C47.9004 8.02456 47.7888 7.66825 47.6748 7.33102C47.5164 6.8629 46.723 6.74201 46.4055 7.12923C46.2406 7.3292 46.0576 7.54372 45.9805 7.78914C45.873 8.12818 45.7992 8.50631 45.8123 8.86172C45.8714 10.3333 45.5801 11.5077 44.2271 12.2313C43.6889 12.5185 43.2639 13.2348 42.9611 13.8583C42.2448 15.3354 42.674 16.7179 44.0351 17.5524C44.4642 17.815 44.9278 18.0641 45.4021 18.1732C46.2693 18.3731 46.3423 19.0503 46.362 19.8157C46.3891 20.7983 46.0207 21.1819 45.16 20.8928C44.3797 20.631 43.6438 20.2147 42.884 19.8775C42.2219 19.5848 41.5204 20.0247 41.3809 20.8065C41.1913 21.8663 41.4752 22.6844 42.285 23.1216C42.7946 23.397 43.3607 23.5661 43.9145 23.7233C44.6324 23.926 45.3651 24.0587 46.0872 24.2414C47.2022 24.5205 47.2539 24.5914 47.3917 25.8358C47.5583 27.3574 47.4385 27.5564 45.946 27.5664C41.8198 27.5955 37.6928 27.5774 33.5666 27.5774C33.5649 27.6092 33.5649 27.6428 33.5649 27.6755C29.6865 27.6064 25.7941 27.7401 21.9362 27.4074C18.395 27.102 14.8505 27.331 11.3184 27.0011ZM64.7121 69.1999C64.2683 69.1935 64.009 68.7136 64.1156 68.2327C64.6785 65.744 64.9862 65.4295 67.231 65.4013C69.3626 65.3767 71.4918 65.4367 73.6234 65.4467C74.1797 65.4495 74.5333 65.7158 74.7614 66.2766C76.1095 69.588 76.7954 69.4335 73.0679 69.4135C72.0021 69.4071 70.938 69.4116 69.8722 69.4116V69.2089C68.1508 69.2089 66.431 69.2235 64.7121 69.1999ZM63.68 60.5047C63.6833 61.4691 63.5643 62.3417 62.9473 63.0261C61.7297 64.376 61.1734 66.0685 60.7697 67.8655C60.5794 68.7099 60.2938 68.8744 59.5423 68.8681C58.36 68.859 57.4591 68.3254 56.9528 67.1338C56.2095 65.3876 55.366 63.727 54.1689 62.299C53.9138 61.9945 53.7472 61.5164 53.6996 61.0964C53.5232 59.5603 53.3394 58.0159 53.2992 56.4716C53.2352 54.0037 53.282 51.5323 53.282 49.0635H53.1827C53.1827 46.1375 53.1925 43.2107 53.1778 40.2847C53.1729 39.5339 53.3665 38.9267 53.7127 38.2504C54.804 36.1125 55.7804 33.8992 56.7321 31.6786C56.9807 31.0978 57.258 30.8033 57.8119 30.8015C58.3074 30.8015 58.8022 30.7851 59.2978 30.8051C59.7499 30.8224 60.0411 31.0769 60.2175 31.5595C60.5523 32.4894 60.9035 33.4156 61.2973 34.3164C61.8675 35.6244 62.368 36.9615 63.3551 38.0196C64.0139 38.7231 64.2461 39.7384 64.2395 40.7928C64.2108 45.0831 64.4463 49.3689 63.8629 53.6565C63.5577 55.8999 63.6718 58.2186 63.68 60.5047ZM43.4354 68.6863C43.0284 68.6845 42.6198 68.6717 42.2145 68.6236C41.7517 68.5681 41.3702 68.0109 41.3735 67.4537C41.3768 65.9821 42.1603 65.0059 43.4296 64.995C46.3768 64.9713 49.3256 64.9913 52.2736 64.9804C52.8504 64.9786 53.1294 65.2804 53.3394 65.8612C53.6438 66.6993 54.0655 67.4837 54.4101 68.3045C54.4438 68.3872 54.3158 68.6581 54.2305 68.679C53.9162 68.7563 53.5864 68.7935 53.2623 68.7963C51.6262 68.8063 49.9869 68.7999 48.3492 68.7999V68.6899C46.7124 68.689 45.073 68.6926 43.4354 68.6863ZM41.0075 60.082C41.1355 61.5773 40.6835 62.7416 39.6964 63.7333C39.1516 64.2832 38.6675 64.9141 38.1728 65.5276C37.7355 66.0712 37.3408 66.6566 36.8969 67.191C36.4547 67.721 36.6024 68.8508 35.873 68.9253C34.9179 69.0226 33.9128 68.8381 32.9676 68.5936C32.5385 68.4836 32.1603 67.9791 31.8313 67.5819C31.2783 66.9147 30.8409 66.1139 30.2461 65.5031C29.1376 64.3651 28.7479 62.9207 28.6232 61.3509C28.5444 60.3501 28.5575 59.3412 28.5477 58.3368C28.5058 54.3155 28.4952 50.2924 28.4197 46.2739C28.3877 44.5432 28.2293 42.8135 28.1251 41.0864C28.0784 40.3374 28.1366 39.6802 28.7118 39.1031C29.186 38.6258 29.5643 37.9896 29.8687 37.3551C30.4487 36.1444 31.0223 34.9627 31.8961 33.9447C32.3802 33.3811 32.6222 32.5367 32.888 31.7822C33.0628 31.2941 33.2983 31.0569 33.7578 30.9878C34.7448 30.8387 35.5784 31.1214 36.1421 32.0495C37.1964 33.7838 38.6593 35.1899 39.4084 37.1788C39.6234 37.7487 40 38.3322 40.4472 38.6877C41.5195 39.5394 41.7484 40.7328 41.7903 42.0399C41.8174 42.9534 41.7952 43.8679 41.7952 44.7823C41.8141 44.7841 41.8354 44.7859 41.8543 44.7877C41.5868 48.9744 41.3128 53.1593 41.056 57.3451C40.9993 58.255 40.9304 59.1785 41.0075 60.082ZM46.1487 58.4195C45.759 58.3232 45.3717 58.2123 44.9869 58.0923C44.936 58.0759 44.8712 57.9414 44.8876 57.8905C44.9344 57.7378 45 57.4933 45.0944 57.4733C45.5686 57.366 46.0576 57.3424 46.5335 57.2397C46.9692 57.146 47.2703 56.8452 47.3302 56.3343C47.3926 55.8035 47.0324 55.2209 46.5368 55.1209C46.138 55.04 45.7179 55.0791 45.3126 55.0209C45.183 55.0018 45.0689 54.8391 44.9475 54.7418C45.0771 54.6428 45.1945 54.5037 45.3405 54.451C45.8788 54.2483 46.4383 54.1037 46.9667 53.8756C47.313 53.7265 47.2555 52.9812 46.9585 52.713C46.385 52.1931 45.6941 52.4167 45.0624 52.2713C44.6825 52.1822 44.5258 51.8949 44.4954 51.5005C44.4585 50.9978 44.7613 50.5788 45.1896 50.5751C45.8484 50.5688 46.5064 50.6115 47.1669 50.5969C47.491 50.5897 47.8274 50.5497 48.1351 50.4406C48.542 50.297 48.8464 50.0007 48.8899 49.4762C48.9318 48.9772 48.4961 48.5018 47.9218 48.489C46.9347 48.4663 45.9477 48.5081 44.9615 48.4618C44.5816 48.4427 44.4298 48.0391 44.4618 47.6655C44.4839 47.4274 44.6218 47.1283 44.7933 46.9992C44.9779 46.862 45.2642 46.9002 45.5046 46.8493C45.8238 46.7811 46.216 46.8038 46.4408 46.6029C46.737 46.3375 47.011 45.9167 47.0816 45.5158C47.1267 45.2622 46.8297 44.8768 46.6106 44.6296C46.1011 44.0524 45.3914 44.1942 44.7514 44.076C44.671 44.0606 44.6087 43.8342 44.575 43.6952C44.5635 43.657 44.6841 43.5324 44.7498 43.527C45.0755 43.4915 45.4053 43.5024 45.7286 43.4615C46.0511 43.4188 46.3858 43.3816 46.6853 43.257C47.0972 43.0852 47.395 42.7035 47.3343 42.2144C47.2957 41.9009 47.089 41.4818 46.8519 41.3582C46.344 41.0919 45.7672 40.9819 45.2174 40.8165C44.9048 40.7219 44.511 40.7465 44.296 40.5374C44.0926 40.3411 44.0064 39.9075 44.0089 39.5803C44.0105 39.3994 44.3034 39.0694 44.4675 39.0685C46.1118 39.0494 47.756 39.0694 49.4019 39.1294C49.5603 39.1349 49.8204 39.4703 49.8442 39.6784C49.9131 40.3083 49.8967 40.9519 49.8983 41.5909C49.9032 44.1469 49.9016 46.7038 49.9016 49.2608H49.8138C49.8138 51.2696 49.8105 53.2793 49.8154 55.2881C49.8236 57.2033 49.8138 59.1176 50.2478 60.9991C50.4045 61.6827 50.0985 62.0863 49.5012 62.0917C48.0186 62.1045 46.5351 62.089 45.0509 62.069C44.6792 62.0645 44.4503 61.8145 44.3904 61.4082C44.2878 60.7392 44.488 60.1002 44.8597 60.0029C45.2568 59.8984 45.6933 59.9366 46.0683 59.783C46.3423 59.6721 46.6837 59.3894 46.746 59.114C46.8297 58.7449 46.499 58.5077 46.1487 58.4195ZM50.1133 35.8662C48.9679 35.8099 47.8135 35.8553 46.6648 35.8553V35.8371C45.5145 35.8371 44.3633 35.8117 43.2114 35.8453C42.3203 35.8708 41.6393 35.6835 41.2644 34.6128C40.9403 33.6883 40.4004 32.8612 39.9852 31.9749C39.7785 31.5368 40.0845 31.0641 40.5481 31.0342C40.6301 31.0287 40.7146 31.0005 40.7934 31.0151C44.0786 31.6159 47.3474 30.7515 50.6244 30.8842C51.1996 30.9069 51.778 30.8751 52.3483 30.9323C52.8865 30.986 53.3197 31.8377 53.113 32.3985C52.8644 33.0711 52.5813 33.7283 52.3163 34.3937C51.6886 35.9726 51.6804 35.9462 50.1133 35.8662ZM71.1702 56.5779C71.0258 56.388 70.7566 56.2816 70.5261 56.2107C70.0264 56.0571 69.5152 55.9498 69.0098 55.8244C69.4939 55.7326 69.9829 55.659 70.4604 55.539C70.6943 55.4799 70.9683 55.3908 71.1209 55.209C71.331 54.9618 71.5697 54.6118 71.5615 54.3101C71.5583 54.021 71.3162 53.6265 71.0774 53.4711C70.1511 52.8684 69.0763 52.7457 68.0597 52.4276C67.9621 52.3976 67.9055 52.1367 67.8644 51.9722C67.8546 51.9322 67.9637 51.8113 68.031 51.7986C68.3452 51.7377 68.6628 51.7004 68.9795 51.6522C69.6268 51.5568 70.284 51.5032 70.9183 51.3468C71.4787 51.2087 71.7773 50.6524 71.6682 50.1379C71.5558 49.6107 71.0766 49.118 70.6171 49.1708C69.9665 49.2453 69.3274 49.4162 68.68 49.5262C68.0482 49.6334 67.7455 49.3589 67.7044 48.6736C67.6511 47.7928 67.8759 47.4737 68.5906 47.3919C69.1575 47.3265 69.7376 47.3101 70.2873 47.1592C70.9429 46.9783 71.1283 45.903 70.6467 45.3713C70.2816 44.9659 69.8484 44.7541 69.3323 44.7105C68.8531 44.6696 68.3707 44.6132 67.8997 44.5096C67.8086 44.4905 67.6995 44.2287 67.7077 44.086C67.7159 43.9433 67.8406 43.7124 67.9481 43.687C68.424 43.5743 68.9163 43.5552 69.3889 43.4325C69.6999 43.3525 70.0445 43.2207 70.2635 42.9871C70.4785 42.758 70.6385 42.3817 70.6688 42.0517C70.7156 41.5727 70.4736 41.0964 70.0666 40.9692C69.3618 40.7483 68.6193 40.6801 67.8956 40.5256C67.4 40.4192 67.1104 39.9075 67.2245 39.2694C67.2663 39.0412 67.478 38.6758 67.6175 38.6713C69.2617 38.6204 70.906 38.6104 72.5519 38.6386C72.7332 38.6422 72.9539 38.9194 73.0835 39.1249C73.5258 39.8293 73.5816 40.6374 73.5775 41.4773C73.5602 44.4878 73.5709 47.4992 73.5709 50.5115H73.5151C73.5676 53.522 73.6226 56.5316 73.6693 59.543C73.6808 60.2465 73.4946 60.5847 72.8858 60.7046C71.354 61.0119 69.8155 61.2728 68.2739 61.5164C67.9038 61.5727 67.6569 61.28 67.6298 60.8683C67.6011 60.4165 67.6125 59.9584 67.6396 59.5048C67.6831 58.7395 67.8849 58.5231 68.5143 58.4749C69.3315 58.4131 70.1569 58.3931 70.9593 58.2386C71.2046 58.1904 71.5262 57.7805 71.5632 57.4969C71.5976 57.2115 71.3671 56.837 71.1702 56.5779ZM72.8431 35.1409C72.1876 35.7553 71.2744 35.189 70.4744 35.2081C69.1649 35.2381 67.853 35.1581 66.5402 35.1799C65.9937 35.1881 65.604 35.0418 65.3447 34.4773C64.9361 33.5893 64.5128 32.7057 64.0549 31.8477C63.6316 31.0514 63.6299 30.4697 64.6752 30.4842C65.4941 30.497 66.3129 30.4379 67.1334 30.427C67.9522 30.4151 68.7727 30.4242 69.5932 30.4242V30.3951C71.1488 30.3951 72.7069 30.3879 74.2626 30.3988C74.9657 30.4042 75.0847 30.6415 74.7942 31.4305C74.6096 31.9331 74.4447 32.4549 74.1977 32.9203C73.79 33.6938 73.4372 34.5846 72.8431 35.1409ZM49.6743 19.044C49.7941 19.1703 50.0304 19.3121 50.1018 19.5212C50.1691 19.7148 50.1018 20.002 50.0156 20.2065C49.9656 20.322 49.7498 20.4211 49.621 20.4038C49.5012 20.3892 49.3502 20.2347 49.2961 20.1011C49.1197 19.6403 49.3084 19.0276 49.6743 19.044ZM45.8148 14.8891C45.7811 15.0927 45.6482 15.2763 45.544 15.4872C45.3487 15.3117 45.2396 15.2136 45.1305 15.1163C45.2749 14.9254 45.4193 14.7346 45.5612 14.5428C45.6515 14.66 45.8312 14.7945 45.8148 14.8891ZM16.1485 32.3549C16.0558 32.0586 16.3053 31.5132 16.5637 31.485C16.8903 31.4495 17.2209 31.4259 17.5491 31.4214C19.4461 31.3914 21.3455 31.3959 23.2424 31.3341C24.8063 31.2841 26.3652 31.1378 27.929 31.0878C28.2211 31.0787 28.5986 31.2359 28.7963 31.4659C29.0974 31.814 29.0876 32.3285 28.8652 32.7439C28.6133 33.2111 28.3409 33.692 27.9824 34.0528C27.7001 34.3364 27.2882 34.5573 26.9116 34.6082C26.261 34.6973 25.5931 34.6328 24.9343 34.6328C24.9277 34.6927 24.9228 34.7536 24.917 34.8145C23.8644 34.6482 22.815 34.4264 21.7557 34.3292C20.6087 34.2237 19.4526 34.2383 18.299 34.1928C17.143 34.1446 16.5555 33.6365 16.1485 32.3549ZM23.3803 57.5033C23.0119 56.7316 22.4417 56.2425 21.6417 56.1371C21.0764 56.0626 20.5053 56.0307 19.9416 55.9326C19.8407 55.9162 19.707 55.6762 19.7029 55.5344C19.6996 55.3999 19.8218 55.2154 19.9351 55.1336C20.0598 55.0409 20.2378 55.01 20.3954 55.0018C20.8072 54.9791 21.2224 55.0127 21.631 54.9718C22.5073 54.8873 23.3204 54.2673 23.3598 53.6902C23.3983 53.1075 22.5811 52.374 21.7492 52.2731C21.4226 52.234 21.0887 52.2622 20.7605 52.2413C20.3724 52.2167 19.9351 52.3358 19.7094 51.8031C19.5765 51.4823 19.8875 51.2705 20.6194 51.2069C21.0296 51.1714 21.4497 51.1978 21.8484 51.1114C22.1627 51.0423 22.4687 50.8714 22.7477 50.6897C23.3073 50.3215 23.4254 49.6834 23.0603 49.0635C22.9274 48.839 22.746 48.6436 22.5696 48.4554C22.3292 48.1982 22.3965 48.0536 22.6853 47.9582C23.2589 47.7719 23.8053 47.5164 23.8537 46.7493C23.889 46.1739 23.2269 45.6767 22.3694 45.624C21.6294 45.5776 20.8836 45.6258 20.1451 45.5758C19.7685 45.5513 19.5954 45.2122 19.6003 44.815C19.6044 44.4169 19.789 44.1342 20.1648 44.0642C20.8105 43.9424 21.471 43.8833 22.102 43.6979C22.8051 43.4925 23.1834 42.8807 23.0521 42.329C22.9093 41.7272 22.5056 41.4164 21.9896 41.3427C21.421 41.2618 20.8392 41.2837 20.2633 41.2446C19.8161 41.2128 19.5388 40.8892 19.5117 40.3638C19.4912 40.0002 19.4978 39.6339 19.5183 39.2703C19.5421 38.8585 19.7685 38.5904 20.1287 38.5622C21.0329 38.4931 21.9412 38.4041 22.8445 38.4322C25.0409 38.504 25.0697 38.235 25.0377 40.7865C25.0007 43.7088 25.0295 46.6338 25.0295 49.5571H25.018C25.018 51.6586 25.0016 53.7601 25.0245 55.8626C25.045 57.9541 24.8933 60.0611 25.5275 62.099C25.6752 62.5744 25.3691 63.0525 24.954 63.1216C24.5454 63.1898 24.1277 63.2798 23.7257 63.2361C23.432 63.2052 22.9947 63.0543 22.8987 62.818C22.4499 61.7191 21.6376 61.4845 20.6793 61.4455C20.4454 61.4355 20.2099 61.3073 19.9868 61.2037C19.7078 61.0755 19.506 60.3911 19.6758 59.9847C19.762 59.7775 19.9917 59.533 20.1788 59.5103C20.8294 59.4248 21.5022 59.4957 22.1463 59.3757C22.5245 59.3057 22.9167 59.0512 23.2088 58.7613C23.5296 58.4431 23.5952 57.9523 23.3803 57.5033ZM16.3036 66.8547C16.4735 66.4857 16.8131 66.1094 17.1561 65.9648C17.6861 65.7412 18.2793 65.6449 18.8512 65.6194C21.156 65.5158 23.4648 65.4685 25.7704 65.3813C26.4834 65.3549 27.0552 65.5931 27.4884 66.2412C27.8281 66.752 28.2687 67.1983 28.5329 67.7501C28.985 68.6872 29.0154 69.2662 27.7543 69.2817C25.9418 69.3035 24.1286 69.288 22.3161 69.288V69.3889C20.5857 69.3889 18.8529 69.4035 17.1208 69.3816C16.393 69.3726 16.1001 69.0126 16.1124 68.1754C16.1198 67.7301 16.1288 67.2347 16.3036 66.8547ZM10.1631 78.0623C10.2288 76.7079 10.2944 75.3536 10.3584 73.9992C11.5235 73.2602 12.7665 73.7974 13.9718 73.7438C15.0425 73.6947 16.1051 73.7438 17.1545 73.3684C17.6861 73.1784 18.2908 73.1948 18.8643 73.182C20.1033 73.1593 21.3414 73.212 22.5787 73.1711C24.8834 73.0948 27.2037 73.2675 29.4773 72.6603C29.7965 72.5748 30.1361 72.573 30.4643 72.5648C34.9163 72.4285 39.3723 71.8968 43.8193 72.2376C49.758 72.693 55.7016 72.3603 61.6394 72.6076C62.7069 72.6539 63.771 72.8112 64.8377 72.9166C65.2463 72.9566 65.6581 73.023 66.0667 73.0302C68.214 73.073 70.3612 73.1357 72.5059 73.1175C73.4068 73.1093 74.3052 72.9203 75.2028 72.8103C75.6935 72.7494 76.1817 72.6321 76.674 72.6185C78.5701 72.5721 80.4654 72.553 82.3616 72.5339C82.693 72.5294 82.9851 72.8966 82.9531 73.2348C82.8087 74.7746 82.6807 76.3171 82.5125 77.8541C82.405 78.8349 81.9341 79.2494 81.0028 79.2603C80.1791 79.2694 79.352 79.2621 78.5283 79.2621C78.5217 79.2921 78.5168 79.3221 78.5118 79.3521C77.0407 79.174 75.5712 78.9822 74.0985 78.8222C73.4413 78.7513 72.7799 78.7104 72.1211 78.7131C67.2491 78.7349 62.3729 78.6304 57.5107 78.8576C54.7096 78.9894 51.9118 79.1903 49.1074 79.1839C44.6489 79.173 40.1912 79.094 35.7327 79.1421C32.0216 79.1821 28.3081 79.1694 24.602 79.5512C22.9635 79.7193 21.3045 79.663 19.652 79.7084C16.7688 79.7884 13.8922 79.4148 11.0066 79.5793C10.3272 79.6184 10.1746 79.3939 10.1557 78.6104C10.1516 78.4277 10.1549 78.245 10.1631 78.0623ZM14.1162 83.6852C13.4541 84.2496 12.8551 84.8977 12.6918 85.8249C12.4949 86.9338 11.7688 86.932 10.9483 86.972C10.4577 86.9838 10.2862 86.7665 10.1836 85.963C10.1401 85.6185 10.0843 85.2686 9.97522 84.9468C9.94322 84.855 9.66754 84.7696 9.56991 84.8241C9.3615 84.9432 9.14818 85.1213 9.01854 85.3358C8.74942 85.7867 8.54266 86.2839 8.28749 86.7475C7.92073 87.4165 7.32588 87.3637 6.76221 87.2292C6.60058 87.191 6.35689 86.8038 6.39546 86.6584C6.6055 85.883 6.90498 85.1377 7.15522 84.3751C7.43747 83.5088 7.94207 83.0671 8.80932 83.077C10.5274 83.0998 12.2439 83.0607 13.9628 83.0625C14.1055 83.0625 14.2508 83.1852 14.3935 83.2498C14.3025 83.397 14.2385 83.5824 14.1162 83.6852ZM88.8524 84.4959C88.7146 85.4295 88.4069 85.7621 87.538 85.7867C86.2211 85.8276 84.9001 85.7976 83.5816 85.7976C81.7675 85.863 79.9698 85.9348 78.1558 86.133C76.1128 86.3566 74.0295 86.2675 71.9701 86.1621C64.8073 85.794 57.642 85.5858 50.471 85.8149C49.9754 85.8312 49.4807 85.8658 48.9851 85.8476C48.748 85.8394 48.4067 85.8221 48.2926 85.6558C47.5583 84.5841 46.8789 84.6341 46.1306 85.6358C46.0027 85.8067 45.6786 85.8521 45.4431 85.8558C44.621 85.8685 43.7923 85.8658 42.9701 85.8067C42.5886 85.7812 42.4385 85.4594 42.5378 85.0359C42.5985 84.7723 42.7125 84.5114 42.7224 84.246C42.7388 83.7533 42.5172 83.3752 42.1152 83.1479C41.7608 82.9471 41.248 83.0643 41.0043 83.4361C40.6679 83.9551 40.3216 84.476 40.0492 85.0359C39.7834 85.5803 39.4191 85.8512 38.8743 85.8449C37.966 85.8339 37.0586 85.843 36.1536 85.7994C35.7532 85.7803 35.6358 85.4995 35.7466 85.0568C35.8344 84.7105 35.9009 84.336 35.8779 83.9824C35.8008 82.7589 34.6283 82.1081 33.6938 82.7507C32.8224 83.3488 32.2292 84.186 31.8378 85.2431C31.6393 85.7803 30.6342 86.2421 30.1435 86.0157C29.7989 85.8558 29.552 85.4376 29.2574 85.1422C28.7832 84.6677 28.4 84.6559 27.9725 85.1349C27.7436 85.3922 27.6008 85.774 27.3399 85.9639C26.7533 86.3902 26.0559 86.3848 25.4569 86.0757C24.931 85.8021 25.4298 85.2768 25.4134 84.865C25.3913 84.2596 25.0483 83.7397 24.5995 83.6379C24.1499 83.5361 23.7749 83.7288 23.5009 84.0924C23.0775 84.6532 22.7108 85.2622 22.2923 85.8267C22.1397 86.0312 21.9288 86.2639 21.7172 86.3057C21.4177 86.3657 21.0649 86.3302 20.7859 86.1993C20.6628 86.1412 20.6029 85.744 20.6259 85.514C20.6628 85.1559 20.8343 84.8159 20.8762 84.4578C20.932 83.9497 20.2526 83.4688 19.8251 83.6506C18.9964 84.0042 18.532 84.7659 18.1005 85.5422C17.7132 86.2366 17.1651 86.5348 16.4661 86.5984C16.0337 86.6393 15.6251 86.2021 15.7211 85.764C15.8187 85.3222 15.9746 84.8941 16.069 84.4523C16.1633 84.0224 16.0837 83.3616 16.3126 83.1916C16.7598 82.8643 17.3686 82.6807 17.9118 82.6735C18.8939 82.6607 19.8793 82.9134 20.8622 82.8971C23.8266 82.8489 26.7738 82.5062 29.7111 82.0445C30.7704 81.879 31.8485 81.8354 32.9209 81.8299C36.7172 81.809 40.5153 81.839 44.3116 81.829C45.8738 81.8245 47.427 81.8318 48.9876 81.5027C50.1879 81.25 51.4556 81.3646 52.6929 81.3655C58.3878 81.3673 64.0836 81.3764 69.7786 81.4136C70.7624 81.4191 71.7461 81.6018 72.7324 81.65C73.8827 81.7054 75.0461 81.8063 76.1891 81.7C78.4921 81.4873 80.7821 81.1918 83.0795 81.7536C83.4733 81.8481 83.9238 81.8654 84.3086 81.7518C85.6418 81.3536 86.9226 81.9581 88.2313 81.9445C88.635 81.9399 89.0149 82.4371 88.9976 82.8634C88.9738 83.4088 88.9336 83.9578 88.8524 84.4959Z" fill="#3D94F2"/>
</svg>
