<svg width="60" height="100" viewBox="0 0 60 100" fill="none" xmlns="http://www.w3.org/2000/svg">
<path fill-rule="evenodd" clip-rule="evenodd" d="M59.3581 24.4634C59.3423 23.5756 59.219 22.6878 59.1578 21.799C58.9862 19.4336 58.8954 17.1057 59.2752 14.7077C60.0071 10.1238 58.8126 6.05879 55.0583 3.00583C54.2011 2.3104 53.2758 1.84974 52.1602 1.60117C50.1952 1.1632 48.2283 1.18095 46.2456 1.21745C45.0698 1.23817 43.9078 1.36936 42.7123 1.24507C39.3634 0.895879 36.0017 0.69465 32.6459 0.421413C32.1546 0.380969 31.6713 0.210319 31.1801 0.192564C29.4982 0.125487 27.7661 -0.163533 26.1424 0.12746C24.36 0.445087 22.6032 0.449032 20.8286 0.475665C17.1621 0.530905 13.536 1.13163 9.87049 1.19279C8.17089 1.2214 6.67647 1.9691 5.25997 3.01865C3.39269 4.39865 2.64202 6.43362 1.59346 8.31374C1.14859 9.11175 1.02134 9.97585 0.988788 10.8873C0.817152 15.8401 0.736266 20.8018 0.368332 25.7398C0.103972 29.3077 -0.0607585 32.8666 0.0211141 36.4325C0.150335 41.9811 0.371291 47.5297 0.581398 53.0764C0.635651 54.5589 0.810247 56.0376 0.895079 57.5192C0.927631 58.1071 0.881269 58.6999 0.840826 59.2898C0.765858 60.3749 0.604086 61.4579 0.594222 62.544C0.553779 66.7096 0.49558 70.8782 0.573507 75.0439C0.650448 79.1996 0.918754 83.3534 1.02825 87.5112C1.09532 90.1222 2.13796 92.246 3.87209 94.131C5.31916 95.7054 7.11247 96.7322 9.02809 97.5648C10.2009 98.0737 11.4152 98.6281 12.6621 98.7998C15.0107 99.1272 17.3978 99.2022 19.7672 99.362C20.9558 99.4409 22.1504 99.4439 23.3331 99.5484C23.6803 99.579 24.0078 99.8434 24.3442 100.001H33.873C34.16 99.4518 34.6956 99.5327 35.1691 99.5258C37.9449 99.4735 40.7236 99.4291 43.4994 99.4103C45.0402 99.3985 46.4587 99.0809 47.599 97.9751C48.1829 97.4109 48.8379 96.9364 49.6409 96.8269C51.5042 96.5685 52.97 95.7823 53.9929 94.132C54.3401 93.5708 55.006 93.1979 55.5495 92.7658C56.7845 91.7834 57.472 90.4882 57.6032 88.9454C57.8291 86.2831 58.2681 83.6454 58.2986 80.9535C58.3657 75.5055 58.2582 70.0565 58.7307 64.6076C59.147 59.7751 59.1913 54.9081 59.3955 50.055C59.7487 41.5234 59.5238 32.9939 59.3581 24.4634ZM3.3917 86.1342C3.37395 86.2831 3.21809 86.4153 3.12438 86.5563C2.90441 86.3857 2.57889 86.2594 2.48518 86.0365C2.13106 85.1763 2.27902 84.3349 2.78012 83.5606C2.88271 83.4047 3.03462 83.2854 3.16384 83.1463C3.25064 83.2775 3.39466 83.3988 3.41439 83.5369C3.46667 83.9167 3.46864 84.3043 3.48541 84.618C3.45582 85.1724 3.4499 85.6557 3.3917 86.1342ZM9.08727 95.587C8.81995 95.7083 8.39579 95.1638 8.49049 94.8265C8.59998 94.4447 8.84856 94.1478 9.28259 94.2583C9.53511 94.3204 9.75113 94.5325 10.1151 94.7614C9.62684 95.1678 9.39109 95.4499 9.08727 95.587ZM16.9224 84.478C16.6176 84.9623 16.2713 85.421 15.934 85.8836C15.8778 85.9586 15.788 86.0099 15.716 86.07C15.6696 85.9852 15.6233 85.9023 15.5059 85.6804C15.8048 85.199 16.1411 84.6476 16.4943 84.108C16.5288 84.0558 16.7251 84.0351 16.7448 84.0656C16.8316 84.1919 16.9687 84.404 16.9224 84.478ZM20.6777 91.8189C20.5406 91.9806 20.2831 92.3851 19.93 92.6761C19.5295 93.0075 18.909 92.9069 18.6101 92.5626C18.2984 92.1986 18.2501 91.592 18.6348 91.2408C18.9722 90.9331 19.421 90.6934 19.8599 90.5671C20.2742 90.4497 20.7852 91.081 20.6777 91.8189ZM21.0071 81.5039C20.8631 81.6312 20.7398 81.8284 20.5741 81.8738C19.5374 82.1609 18.4957 82.4272 17.4452 82.662C17.2972 82.6945 17.0151 82.5614 16.952 82.4292C16.8908 82.3019 16.9727 82.0149 17.093 81.9054C17.4403 81.5818 17.8151 81.1133 18.2235 81.062C19.0866 80.9476 19.9783 81.059 20.8572 81.0896C20.942 81.0926 21.0713 81.1636 21.092 81.2297C21.1147 81.3056 21.0397 81.4112 21.0071 81.5039ZM33.221 91.5072C31.4563 93.4238 28.0847 93.8795 25.8475 92.5143C25.4292 92.2568 25.0248 91.9659 24.6352 91.661C23.3371 90.6411 22.396 89.4347 22.6466 87.6434C22.6604 87.5467 22.6623 87.4431 22.6466 87.3465C22.252 84.9366 23.6251 83.6553 25.6019 82.8109C26.6919 82.3463 27.8075 81.933 28.9429 81.5907C30.6573 81.0699 32.3569 81.8442 33.1006 83.4817C33.796 85.0116 34.4224 86.5721 34.5201 88.7876C34.5723 89.559 34.0515 90.6056 33.221 91.5072ZM44.6634 86.9213C44.477 87.1077 44.1219 87.2833 43.891 87.235C43.454 87.1403 43.4037 86.7092 43.4156 86.3068C43.4422 85.347 43.8358 84.619 44.7117 84.1712C45.0333 84.0065 45.633 84.2471 45.6557 84.5786C45.6735 85.5058 45.3036 86.2831 44.6634 86.9213ZM50.3166 46.8965C50.1952 47.5781 50.0759 48.2666 50.0453 48.9541C49.7503 55.1893 49.2266 61.4175 49.4061 67.6674C49.4258 68.2632 49.3459 68.8669 49.4219 69.4519C49.6182 70.9719 49.0155 72.057 47.9442 73.1263C46.946 74.1245 45.923 74.5694 44.5401 74.4865C43.1571 74.4017 41.7633 74.5063 40.3764 74.4481C35.1188 74.2281 29.8839 74.7124 24.6421 74.9433C22.2747 75.0468 19.8915 74.9166 17.533 75.4019C16.5811 75.5982 15.5444 75.546 14.5678 75.4226C12.5891 75.177 11.0157 74.3632 10.3588 72.2415C9.85767 70.6188 9.48184 69.0109 9.47099 67.2995C9.43844 63.1378 9.34769 58.9761 9.28061 54.8154C9.24411 52.7439 9.20367 50.6734 9.16717 48.602C9.23228 48.601 9.29837 48.6 9.36544 48.598C9.36544 42.5503 9.36742 36.5006 9.36347 30.4529C9.36347 29.066 9.3033 27.6771 9.85273 26.3494C10.0007 25.9933 10.0263 25.575 10.0471 25.1815C10.2088 22.4185 10.342 19.6526 10.5077 16.8896C10.5748 15.8026 10.6557 14.7126 10.8125 13.6374C10.922 12.8789 11.4192 12.4735 12.2478 12.3926C14.4149 12.1805 16.584 12.0089 18.7522 11.8145C20.2298 11.6824 21.7055 11.5235 23.1832 11.4121C24.1696 11.3351 25.1619 11.2967 26.1523 11.2809C30.9108 11.2059 35.6702 11.1171 40.4287 11.0925C42.9046 11.0806 45.3835 11.1694 47.8614 11.2503C48.6594 11.2759 49.1792 11.7455 49.264 12.5119C49.3735 13.4944 49.4337 14.4867 49.4377 15.4771C49.4475 18.9473 49.4574 22.4185 49.4051 25.8887C49.34 30.2605 49.7789 34.584 50.4053 38.9006C50.7861 41.5599 50.794 44.2361 50.3166 46.8965ZM45.8313 51.072C45.8145 45.7256 45.8047 40.3792 45.8471 35.0308C45.8589 33.3549 46.0434 31.68 46.1499 30.0041C46.1805 29.5109 46.2042 29.0157 46.2486 28.1703C46.1775 27.7314 46.0888 26.9452 45.9132 26.1797C45.8284 25.8118 45.6646 25.3857 45.3933 25.145C43.7884 23.7157 42.002 22.743 39.7333 23.1455C38.8721 23.2984 38.3099 23.7522 38.0317 24.5906C37.5928 25.9144 37.3905 27.2628 37.3955 28.6675C37.4241 36.1928 37.4073 43.7182 37.432 51.2426C37.4339 52.3277 37.5711 53.4127 37.6608 54.4958C37.7595 55.6746 37.9784 56.8543 37.9538 58.0272C37.9173 59.8037 37.717 61.5743 37.5878 63.3489C37.4842 64.7822 38.3927 65.8268 39.8359 65.9284C40.0322 65.9422 40.2324 65.9481 40.4277 65.9185C41.499 65.7597 42.5761 65.6256 43.6375 65.4135C45.2888 65.084 46.3364 63.7622 46.3344 62.0301C46.3344 60.942 46.3827 59.8313 46.1953 58.77C45.7485 56.2122 45.8372 53.6416 45.8313 51.072ZM42.6294 30.0682C42.5327 32.1416 42.3502 34.2141 42.3404 36.2895C42.2999 43.9185 42.3177 51.5484 42.3039 59.1773C42.3039 59.7613 42.2477 60.3472 42.1628 60.9243C42.1431 61.0486 41.8916 61.2133 41.7387 61.2212C41.5887 61.2291 41.3125 61.0831 41.2918 60.9687C41.1764 60.2979 41.0679 59.6183 41.0492 58.9376C40.9949 57.0595 41.0028 55.1863 40.6043 53.3259C40.4001 52.3721 40.4731 51.3531 40.4691 50.3627C40.4553 46.7958 40.4652 43.229 40.4652 39.6621H40.3705C40.3705 35.8979 40.3666 32.1308 40.3705 28.3666C40.3705 27.8734 40.3606 27.3723 40.4356 26.888C40.4761 26.6197 40.6536 26.3267 41.0423 26.452C42.2151 26.8298 42.6314 27.2806 42.6659 28.2857C42.6886 28.8795 42.656 29.4744 42.6294 30.0682ZM32.3065 32.8499C31.1297 32.984 29.9618 33.1734 28.791 33.3451C26.612 33.6637 25.9027 34.3956 25.668 36.5894C25.6157 37.0786 25.6394 37.5778 25.6295 38.071C25.5644 42.1261 25.5003 46.1823 25.4174 51.3669C25.4174 52.812 25.4154 55.3836 25.4174 57.9552C25.4174 60.0326 25.444 62.111 25.4115 64.1883C25.3868 65.9244 26.5498 66.8369 27.8529 67.117C29.4055 67.4524 30.9354 67.3557 32.3381 66.2381C33.4242 65.3701 34.0486 64.5306 34.0081 63.0569C33.9095 59.3983 33.9657 55.7357 33.9716 52.0751C33.9736 50.8885 33.9716 49.6998 34.0328 48.5152C34.1482 46.1497 34.3277 43.7853 34.4451 41.4179C34.522 39.8396 34.4392 38.2564 34.9117 36.7117C35.0527 36.251 35.0369 35.7312 35.0271 35.24C34.9995 33.6725 33.8671 32.6703 32.3065 32.8499ZM29.9904 58.6743C29.8188 58.8706 29.5031 58.9455 29.2684 58.6457C28.7189 57.9424 29.2546 57.0526 29.9253 56.8504C30.022 56.8218 30.241 56.9964 30.3091 57.1256C30.3919 57.2824 30.3742 57.4916 30.4264 57.8812C30.3377 58.0518 30.2213 58.4139 29.9904 58.6743ZM23.2266 54.7375C23.1556 52.7587 23.1743 50.776 23.0707 48.7993C23.0244 47.9204 22.7916 47.0503 22.612 46.1813C22.4503 45.403 21.8456 45.039 21.1521 44.8684C20.6836 44.754 20.1736 44.7362 19.6883 44.7727C18.8064 44.8368 17.9315 44.969 17.0526 45.0805C16.1816 45.1919 15.6193 45.7216 15.5187 46.6212C15.4339 47.4074 15.4161 48.2015 15.4092 48.9926C15.3826 51.2702 15.4339 53.5508 15.349 55.8265C15.278 57.6987 15.0561 59.568 14.9121 61.31C14.8775 62.8143 14.8815 62.8123 15.715 64.4892C15.8462 64.7516 15.9675 65.0307 16.0178 65.3158C16.2033 66.3772 17.024 66.7856 17.891 66.9878C18.7463 67.1861 19.6557 67.2137 20.5425 67.2107C22.1169 67.2038 23.1861 66.3486 23.4574 64.8039C23.6093 63.9388 23.5846 63.0313 23.5541 62.1455C23.4653 59.6755 23.3163 57.2075 23.2266 54.7375ZM20.0898 61.5724C20.0799 62.0547 20.001 62.5558 19.8333 63.0027C19.7682 63.1773 19.3726 63.2858 19.1181 63.3094C18.9751 63.3213 18.768 63.124 18.6713 62.9701C18.5727 62.8133 18.5154 62.5834 18.5441 62.4039C19.1911 58.4721 18.8449 54.5067 18.9159 50.557C18.9297 49.7689 18.9761 48.9808 19.0235 48.1936C19.0274 48.1147 19.1833 47.9677 19.199 47.9766C19.3322 48.0545 19.5423 48.1453 19.5571 48.2567C19.8017 50.1161 20.145 51.9637 20.0503 53.8576C19.998 54.9436 20.0424 56.0336 20.0424 57.1226H20.1006C20.1016 58.6052 20.1203 60.0898 20.0898 61.5724Z" fill="#7AC340"/>
</svg>
