<svg width="101" height="65" viewBox="0 0 101 65" fill="none" xmlns="http://www.w3.org/2000/svg">
<path fill-rule="evenodd" clip-rule="evenodd" d="M99.9985 46.2212C100.065 44.8903 98.9949 43.7694 97.6504 43.5694C96.9685 43.4675 96.2658 43.4866 95.5722 43.4994C91.7076 43.5685 87.8458 43.6594 83.9831 43.7221C83.5667 43.7284 83.2331 43.4766 83.1067 43.053C83.0222 42.7703 82.9722 42.4757 82.9313 42.183C82.4867 38.9484 82.0631 35.7121 81.5913 32.4803C81.5085 31.9039 81.3104 31.313 81.0304 30.8048C79.7785 28.533 78.0667 26.8575 75.3149 26.6039C74.2349 26.5057 73.1595 26.2839 72.0795 26.263C69.5004 26.2112 66.9222 26.2457 64.3431 26.2457C64.3431 26.2675 64.3413 26.2912 64.3413 26.313C62.5576 26.2548 60.7704 26.2421 58.9904 26.1257C56.0258 25.9348 53.0667 25.653 50.1022 25.453C47.8758 25.3021 47.8449 25.3312 47.8567 22.9912C47.8622 21.8075 47.9804 20.623 48.0822 19.443C48.1495 18.6648 48.5713 18.1557 49.3904 18.1066C50.9704 18.013 52.5513 17.8994 54.1322 17.8839C56.0158 17.863 57.8922 17.9357 59.7495 17.4584C60.3958 17.2921 61.1222 17.383 61.8058 17.4321C64.1867 17.6003 65.764 16.1494 65.2649 13.9012C64.8695 12.1166 65.0376 10.3548 64.9267 8.58482C64.8267 7.00936 64.7285 5.44572 64.5222 3.86936C64.1176 0.782088 63.9767 1.32391 61.3785 0.308452C60.6704 0.0320886 59.8313 0.0193601 59.0522 0.0139056C55.4813 -0.0115489 51.9104 0.00299798 48.3395 0.0175434C47.6476 0.0202707 46.9504 0.0448157 46.2622 0.125725C42.6149 0.558452 38.9649 0.777543 35.2895 0.507543C34.2085 0.427543 33.1113 0.482996 32.0258 0.553905C31.3713 0.596633 30.9431 1.08482 30.7831 1.683C30.6331 2.24754 30.604 2.85209 30.5776 3.44118C30.3776 7.74027 31.2167 11.9039 32.1185 16.0757C32.3685 17.2312 32.7904 17.8666 33.8922 18.0403C34.964 18.2112 36.0404 18.4166 37.1195 18.4466C39.0013 18.4975 40.8885 18.413 42.7722 18.4066C44.064 18.4012 44.2231 18.5475 44.2058 19.7112C44.1831 21.1985 44.1385 22.6848 44.0831 24.1721C44.0476 25.1575 43.8167 25.4366 42.8522 25.4203C39.2776 25.3594 35.7831 26.3875 32.1985 26.153C31.8085 26.1285 31.4067 26.2039 31.0167 26.2703C27.9004 26.8057 24.7885 27.3675 21.6685 27.8885C19.7813 28.2039 18.0867 28.9894 16.4476 29.9285C15.6331 30.3948 15.1422 31.0939 14.9267 32.0257C14.4731 33.9739 14.1467 35.9639 14.544 37.9203C14.904 39.703 14.8522 41.4648 14.8467 43.243C14.844 44.3984 14.554 44.7066 13.4967 44.713C12.2076 44.7194 10.9194 44.6648 9.62945 44.6357C7.54763 44.5885 5.46581 44.4903 3.3849 44.5094C1.23399 44.5285 1.21036 44.6621 0.585811 46.7412C0.26672 47.8084 0.144902 48.8584 0.13672 49.9548C0.10672 53.6248 0.0539926 57.293 0.00399263 60.9621C-0.0387346 63.9403 0.213993 64.2348 3.12308 64.3048C5.00672 64.3493 6.91945 64.1339 8.77036 64.3839C15.0149 65.2257 21.2249 64.2821 27.4485 64.213C27.5467 64.213 27.6449 64.1984 27.7431 64.1821C29.3667 63.9121 30.4995 62.3484 30.2094 60.723C30.0185 59.6521 29.7513 58.5939 29.5485 57.5239C28.8849 54.0284 28.0058 50.5621 28.1458 46.9575C28.1604 46.5639 28.1176 46.1639 28.0695 45.7712C27.9276 44.5875 27.3613 44.0321 26.1113 43.9757C24.6267 43.9084 23.1376 43.9194 21.6513 43.8912C20.7667 43.8739 19.8849 43.8448 19.0013 43.8194C18.2867 42.9448 18.6795 41.9203 18.6522 40.9684C18.5985 39.1848 18.6567 37.3975 18.6585 35.613C18.6585 34.7657 19.004 34.0894 19.604 33.5094C21.1713 31.9894 22.9813 31.2294 25.2258 31.2903C30.4895 31.433 35.6885 30.7003 40.8767 29.9075C41.5604 29.8039 42.2558 29.7757 42.9449 29.7266C43.1413 29.7121 43.3458 29.723 43.5358 29.7639C43.9631 29.8539 44.2331 30.1203 44.2231 30.5694C44.1713 33.2448 44.154 35.9239 44.0267 38.5975C43.9695 39.7766 43.7049 40.9485 43.474 42.1112C43.4304 42.3348 43.1258 42.6003 42.8904 42.6703C42.5204 42.7794 42.1067 42.7557 41.7122 42.7566C40.0258 42.7594 38.3422 42.7357 36.6558 42.7521C35.154 42.7684 34.4967 43.4166 34.4867 44.9448C34.4831 45.733 34.5022 46.5512 34.6949 47.3084C35.4867 50.4312 35.3785 53.5912 35.2249 56.7594C35.1722 57.8484 35.1113 58.9384 35.0895 60.0284C35.0549 61.933 35.5576 62.4612 37.5622 62.4848C39.3458 62.5057 41.1385 62.5157 42.914 62.3739C48.5531 61.9221 54.1985 61.8148 59.8494 61.7748C60.444 61.7703 61.0394 61.7612 61.6331 61.7366C63.1304 61.6739 64.3549 60.3857 64.3767 58.873C64.4304 54.9084 64.4904 50.9439 64.5422 46.9803C64.5495 46.3866 64.5722 45.7857 64.4985 45.1994C64.3022 43.6612 63.284 42.7066 61.7058 42.6866C59.8222 42.6639 57.9385 42.7603 56.0558 42.7884C53.7758 42.8194 51.4949 42.8448 49.2158 42.8457C48.6249 42.8457 48.3595 42.543 48.2631 41.9384C47.6867 38.3021 47.7585 34.6303 47.6204 30.9684C47.6122 30.773 47.644 30.573 47.6731 30.3785C47.7422 29.9366 48.0104 29.6466 48.4531 29.6403C52.7122 29.5675 56.9749 29.3957 61.2113 30.0575C63.2631 30.3784 65.3222 30.6566 67.3794 30.9484C70.1222 31.3394 72.8658 31.7139 75.604 32.1175C76.4558 32.243 76.8249 32.6494 76.8267 33.5175C76.8322 35.7012 76.9176 37.863 77.4567 40.0057C77.6685 40.8475 77.534 41.7812 77.514 42.673C77.5058 43.1121 77.2367 43.4012 76.7749 43.4184C76.3794 43.4339 75.9831 43.4175 75.5867 43.3966C74.6967 43.3503 73.8085 43.2557 72.9176 43.2494C72.0922 43.2457 71.6258 43.6366 71.454 44.4421C71.3549 44.9121 71.3231 45.4084 71.3458 45.8894C71.3976 46.9712 71.5495 48.0512 71.5785 49.133C71.6804 52.6975 71.6376 56.2675 71.9985 59.823C72.2222 62.043 73.4331 63.4839 75.6076 63.8775C76.2858 64.0003 76.9849 64.0566 77.6749 64.0603C82.3358 64.083 86.9985 64.1303 91.6585 64.0657C93.2331 64.0439 94.8204 63.813 96.3704 63.5112C98.5285 63.093 99.2985 62.0394 99.5967 59.8757C100.225 55.3366 99.774 50.7703 99.9985 46.2212ZM19.6058 50.0221C20.964 49.8003 22.3404 49.6821 23.7131 49.5375C24.1531 49.4912 24.4858 49.713 24.5631 50.1584C24.7622 51.3221 24.9285 52.4921 25.1304 53.8012C24.8195 54.7194 25.8285 55.7157 25.2367 56.7875C24.2713 56.9203 23.2994 57.0166 22.3422 57.1957C20.3122 57.5794 18.274 57.9375 16.2685 58.4275C13.6313 59.073 10.974 58.7812 8.32036 58.7684C7.94854 58.7666 7.55036 58.5912 7.2149 58.4048C6.97854 58.2739 6.68854 58.003 6.66218 57.7675C6.44854 55.9103 6.2849 54.0475 6.1249 52.1839C6.07854 51.6448 6.43854 51.2485 6.97399 51.1884C7.26854 51.1585 7.56399 51.1294 7.85854 51.1321C11.814 51.1748 15.714 50.6539 19.6058 50.0221ZM56.4131 46.6348C57.8958 46.4166 59.3576 46.3521 60.8349 46.4357C61.264 46.4594 61.5104 46.8103 61.4758 47.2548C61.4395 47.7457 61.3967 48.2466 61.2758 48.7212C60.6876 51.0221 60.2922 53.3466 60.2231 55.7303C60.1785 57.213 59.8804 57.4812 58.5004 57.5348C57.8085 57.5603 57.1167 57.5512 56.424 57.5512C54.644 57.553 52.8649 57.5521 51.0858 57.5521V57.6557C48.5158 57.6557 45.9458 57.6657 43.3749 57.6503C42.6413 57.6466 42.3249 57.3112 42.2867 56.5703C42.1676 54.3012 42.0404 52.0339 41.9576 49.7648C41.9367 49.1821 42.0195 48.5857 42.1385 48.0121C42.2449 47.5012 42.5904 47.1148 43.1495 47.0903C43.8385 47.0603 44.5476 47.0084 45.2195 47.1239C48.9913 47.7794 52.7076 47.1812 56.4131 46.6348ZM39.414 12.6784C38.2567 12.7448 37.0722 12.4648 35.9104 12.2766C35.6995 12.243 35.404 11.8939 35.3804 11.6657C35.2831 10.6839 35.2549 9.6939 35.234 8.70572C35.1613 5.42572 35.0149 5.74663 38.3022 5.81118C41.2713 5.86936 44.2395 5.823 47.2095 5.823V5.77845C50.6722 5.77845 54.1349 5.75936 57.5985 5.78754C58.9467 5.79845 58.9485 5.84391 59.2613 7.303C59.3649 7.78572 59.4995 8.26845 59.534 8.75663C59.6176 9.94118 59.6713 11.1175 60.0985 12.2485C60.2285 12.5939 59.8867 12.7839 59.5785 12.7721C52.8595 12.5175 46.1404 12.2984 39.414 12.6784ZM95.8604 49.1884C95.454 51.833 95.3967 54.4957 95.4176 57.1648C95.4249 57.943 95.1131 58.2657 94.3795 58.2739C91.9067 58.2957 89.4349 58.2657 86.9631 58.3066C83.5104 58.3621 80.044 58.0575 76.6104 58.6984C76.2176 58.7721 75.8558 58.4703 75.8131 58.0066C75.7585 57.4175 75.7358 56.8239 75.7104 56.2312C75.6222 54.2621 75.694 52.283 75.254 50.3321C75.1049 49.6703 75.184 48.9539 75.1858 48.2648C75.1895 47.7621 75.6095 47.3821 76.1485 47.3794C76.6422 47.3766 77.1358 47.4212 77.6294 47.423C80.2985 47.4275 82.9676 47.4248 85.6367 47.4248V47.5666C88.7995 47.5666 91.9631 47.5594 95.1267 47.5748C95.554 47.5775 95.8658 47.8212 95.8804 48.3012C95.8895 48.5975 95.9058 48.8975 95.8604 49.1884Z" fill="black"/>
</svg>
