<svg width="89" height="101" viewBox="0 0 89 101" fill="none" xmlns="http://www.w3.org/2000/svg">
<path fill-rule="evenodd" clip-rule="evenodd" d="M88.7916 37.1816C88.3278 35.5477 88.4506 33.8739 88.2304 32.2331C87.9313 30.0078 87.5552 27.7855 87.0427 25.6001C86.616 23.7811 85.6885 22.1404 84.645 20.5893C83.4456 18.8044 82.1069 17.1023 81.0177 15.2521C78.6696 11.2555 75.3677 8.27905 71.4501 5.92125C68.079 3.89374 64.438 2.44691 60.7445 1.14719C58.715 0.433031 56.6066 -0.0161201 54.4223 0.000442932C50.5056 0.0316205 46.5879 0.0209032 42.6712 0.0608494C41.9941 0.0686438 41.3121 0.208943 40.6467 0.349242C35.441 1.43948 30.5422 3.40561 25.7857 5.72055C23.6715 6.7494 21.7482 8.11342 19.9935 9.70835C15.8371 13.4896 12.922 18.0191 11.331 23.4391C10.1531 27.4513 9.68347 31.4937 10.3226 35.6208C10.4541 36.4655 10.3626 37.1816 10.005 37.8724C9.60163 38.6508 9.11058 39.3894 8.60979 40.1103C7.88394 41.1558 7.10061 42.1622 6.36598 43.2008C5.29036 44.7197 4.28586 46.2776 2.9082 47.5686C1.59095 48.805 0.86315 50.4476 0.272725 52.1078C-0.683061 54.7852 0.921607 58.0569 4.3297 58.1368C5.3001 58.1592 6.29389 58.1085 7.2409 57.9176C8.17526 57.7295 8.84265 58.0881 9.22555 58.7867C9.63865 59.5398 9.9894 60.4157 10.042 61.2585C10.1375 62.7491 10.4785 64.1843 10.952 65.5532C12.2127 69.1961 12.6288 72.9773 13.0847 76.7625C13.4374 79.698 14.1233 82.5196 15.5965 85.1375C16.2912 86.369 17.1719 87.1017 18.5895 87.129C21.5163 87.1855 24.4597 87.509 27.3261 86.5434C27.7772 86.3914 28.2935 86.4061 28.7817 86.3924C29.6478 86.3642 30.286 86.7256 30.625 87.5567C30.8462 88.0965 31.0079 88.683 31.3353 89.1497C32.6944 91.0846 33.6609 93.23 34.7824 95.2936C35.5735 96.7512 36.5176 98.1278 37.4588 99.4977C37.6429 99.7637 38.1076 99.8845 38.4672 99.9732C39.0508 100.118 39.4795 99.6896 39.3138 99.1772C37.9118 94.7967 36.4143 90.4513 34.4784 86.2706C34.151 85.5643 33.8675 84.8297 33.6415 84.0863C33.3677 83.1841 33.4992 82.8587 34.3079 82.391C35.328 81.7996 36.3929 81.2666 37.0895 80.2748C37.297 79.9786 37.5474 79.4252 37.4188 79.2411C37.1674 78.8835 36.6667 78.5055 36.2613 78.4928C35.6027 78.4753 34.8554 78.601 34.2903 78.9215C32.1557 80.1365 29.9343 81.138 27.6115 81.9262C26.3917 83.1022 24.6945 82.9609 23.2291 83.4198C22.3649 83.6897 21.2942 83.4481 20.3481 83.2669C18.4677 82.9083 17.4428 81.632 17.3239 79.7818C17.1446 77.0187 16.2892 74.4076 15.7231 71.7312C15.6033 71.1583 15.4698 70.5864 15.3851 70.0076C15.3013 69.4367 15.6218 69.0411 16.1723 69.0129C16.8572 68.9768 17.5422 68.9622 18.229 68.9535C20.2205 68.9311 22.0921 68.3699 23.915 67.6372C24.3476 67.4638 24.7159 67.1101 25.0832 66.8042C25.3804 66.5557 25.2976 65.9653 24.9449 65.8143C24.5035 65.6262 24.0368 65.3641 23.5809 65.3641C22.4117 65.3622 21.2396 65.4655 20.0714 65.5668C13.225 66.166 14.706 66.8392 13.5846 60.7908C13.2825 59.1666 12.8607 57.5629 12.4242 55.969C12.167 55.0298 11.3963 54.5494 10.4931 54.3536C9.92607 54.2299 9.32785 54.2221 8.7423 54.2114C7.66472 54.1909 6.5852 54.2279 5.50763 54.2045C4.20597 54.1792 3.89029 53.7252 4.34724 52.6018C4.71845 51.6879 5.25529 50.8929 5.88078 50.1203C7.11425 48.6004 8.25223 47.0074 9.41846 45.4349C10.2349 44.3339 10.9335 43.1268 11.8571 42.1271C14.1945 39.6008 14.5657 36.3437 15.3763 33.2396C15.3042 30.6684 16.0914 28.2112 16.3866 25.6888C16.4422 25.2065 16.5425 24.7203 16.6984 24.2614C17.9192 20.6858 20.1679 17.7054 22.3201 14.6753C22.5997 14.2817 22.9934 13.9621 23.3646 13.6435C26.6762 10.8083 30.2762 8.51191 34.6372 7.6516C35.8814 7.40608 37.1207 7.12646 38.3746 6.93939C40.1147 6.67731 41.8723 6.52824 43.6114 6.26323C47.721 5.63481 51.8394 5.64942 55.8847 6.52239C59.8832 7.38367 63.9363 8.2089 67.4593 10.5092C67.7029 10.668 67.9825 10.7733 68.2476 10.8999C70.3023 11.8898 72.0668 13.2645 73.6763 14.8702C74.5045 15.6944 75.4418 16.4037 76.2952 17.2036C76.9344 17.8009 77.633 18.3815 78.1045 19.1006C79.7735 21.6435 81.1979 24.317 82.1595 27.2262C84.3137 33.7287 84.3468 40.1016 81.1297 46.3108C80.4087 47.7021 79.7043 49.1021 79.0204 50.5119C77.3982 53.8538 75.7935 57.1966 73.8381 60.3728C72.2353 62.9742 70.5673 65.4742 68.2933 67.5427C67.0355 68.6875 66.2269 70.1411 65.7368 71.7682C65.5604 72.3538 65.9687 72.9676 66.6098 73.0065C67.1407 73.0377 67.6747 73.0085 68.2076 72.9978C68.232 72.9685 68.2563 72.9393 68.2797 72.9111C68.3508 72.8779 68.4239 72.8487 68.4911 72.8097C68.5281 72.7542 68.5652 72.6987 68.6022 72.6441C68.5778 72.6957 68.5661 72.7639 68.5262 72.7932C68.5155 72.8 68.5028 72.8029 68.4911 72.8097C68.4502 72.8711 68.4093 72.9335 68.3684 72.9939C68.3148 72.9939 68.2612 72.9968 68.2076 72.9978C67.737 73.5677 67.2762 74.1484 66.79 74.7057C66.1245 75.4705 65.8069 76.3942 65.5536 77.3431C65.3461 78.1294 66.2142 78.8884 67.0092 78.6107C67.7458 78.3535 68.458 78.0222 69.1955 77.7621C69.3349 77.7124 69.6603 77.8147 69.6905 77.9112C69.7635 78.1479 69.8123 78.487 69.6924 78.6672C69.483 78.9829 69.0932 79.1748 68.8643 79.4817C68.2251 80.3362 67.6084 81.2111 67.0238 82.1036C66.6799 82.6277 66.5971 83.1996 67.0725 83.7189C67.5188 84.208 68.0956 84.2655 68.6879 84.1184C69.064 84.0249 69.4089 83.8154 69.7811 83.6985C70.2225 83.5601 70.5196 83.7375 70.6453 84.1895C70.9093 85.1395 71.2201 86.0826 70.1844 86.8221C69.9604 86.9819 69.8269 87.282 69.6768 87.5323C69.4352 87.9377 69.6106 88.6888 70.0558 88.7678C71.1714 88.9626 71.7472 89.5754 71.9879 90.6559C72.0746 91.0496 72.5101 91.1947 72.9417 91.1411C74.2726 90.9794 74.7237 90.5575 74.7364 89.326C74.7685 86.484 74.7744 83.642 74.7714 80.799C74.7666 77.1726 74.7734 73.5473 74.711 69.9209C74.6867 68.4702 75.1543 67.2747 76.0185 66.1329C78.2127 63.2363 79.8358 59.985 81.5867 56.8205C82.673 54.8573 83.4417 52.7197 84.5135 50.7458C86.4922 47.1 87.8533 43.2466 88.6796 39.1964C88.814 38.5407 88.965 37.7954 88.7916 37.1816ZM57.6121 20.0223C56.2111 19.4971 54.7662 19.3315 53.3398 19.3987C49.2877 19.3315 45.5454 20.3711 41.9444 22.0157C37.7433 23.9331 34.7941 27.0596 32.9643 31.2832C32.1225 33.226 31.7669 35.1862 32.4129 37.2693C32.7695 38.4219 33.3833 39.404 34.1744 40.2886C35.9369 42.2577 37.7014 44.2277 39.4931 46.1724C39.9101 46.6245 40.2141 47.0308 40.1186 47.704C39.8789 49.371 40.1829 50.9699 40.5512 52.6184C40.862 54.0077 41.2478 55.249 42.189 56.2905C42.6722 56.8264 42.8797 57.4421 43.0356 58.1232C43.6806 60.9174 46.1222 61.77 48.4108 61.6365C49.2517 61.5868 50.1042 61.1971 50.8914 60.8317C52.84 59.9276 53.9478 58.1319 55.2095 56.5214C55.4131 56.2623 55.5135 55.6446 55.3508 55.4175C54.5937 54.375 55.3449 52.9701 54.5811 52.0494C53.5454 50.8033 54.9659 49.8455 54.7642 48.7368C54.7116 48.4484 54.6863 48.1561 54.6386 47.8677C54.4047 46.4559 54.7262 45.2585 55.6528 44.0952C57.7368 41.4831 59.398 38.5982 60.762 35.5438C62.0637 32.6307 62.7808 29.6133 62.4651 26.4117C62.1572 23.3027 60.5788 21.1339 57.6121 20.0223ZM51.5656 57.6224C49.9785 59.7522 48.327 59.7649 46.4252 59.3332C45.6984 59.1686 44.9131 58.888 44.4737 58.1612C44.3821 58.0092 44.3636 57.8026 44.3529 57.6185C44.349 57.5522 44.4562 57.4558 44.5351 57.4109C44.6072 57.3691 44.7085 57.371 44.7962 57.3661C46.4389 57.258 48.0825 57.1518 50.0204 57.0251C50.3039 57.0524 50.8778 57.0924 51.4438 57.183C51.5111 57.1947 51.625 57.5434 51.5656 57.6224ZM52.1599 54.5222C50.2717 54.8632 48.3816 55.1827 47.1053 55.4029C45.8816 55.325 45.2843 55.361 44.729 55.2246C44.3977 55.1438 44.0996 54.8261 43.8463 54.5582C43.5832 54.2815 43.6806 53.6687 43.9525 53.5313C44.0382 53.4894 44.122 53.4339 44.2136 53.4134C46.4671 52.8922 48.6866 52.1741 51.0453 52.2413C51.8316 52.2628 52.2837 52.6622 52.5789 53.3472C52.7913 53.847 52.6208 54.4393 52.1599 54.5222ZM52.5409 49.373C50.264 49.9128 47.9802 50.4252 45.6935 50.9182C45.0291 51.0615 44.3461 51.118 44.0041 51.1676C42.8603 51.1335 42.1636 49.9332 42.5602 49.1733C42.6712 48.9589 43.0035 48.7553 43.251 48.7339C45.8777 48.5107 48.5073 48.3149 51.1369 48.1434C51.6104 48.1132 52.0976 48.197 52.5662 48.2925C52.7085 48.3208 52.8449 48.5507 52.9189 48.7173C53.0806 49.0797 52.7728 49.3184 52.5409 49.373ZM46.6873 39.4079C46.7029 39.25 46.8812 38.9665 46.9504 38.9782C47.2008 39.0182 47.4775 39.1107 47.6606 39.2773C47.761 39.3708 47.6947 39.6466 47.7045 39.8405C47.6382 40.0197 47.569 40.199 47.5028 40.3783C47.2816 40.238 47.0283 40.1318 46.8539 39.9476C46.7341 39.8219 46.6707 39.5842 46.6873 39.4079ZM57.3627 33.1529C56.0532 36.5834 54.0286 39.5735 51.9076 42.5178C51.3357 43.3119 50.7725 44.1167 50.148 44.8678C49.657 45.4583 48.9545 45.4758 48.2647 45.2897C48.1536 45.2605 48.0318 44.9964 48.0455 44.8522C48.062 44.6759 48.1731 44.4323 48.3154 44.3563C49.503 43.7269 49.8343 42.5977 50.0028 41.4178C50.1977 40.0616 50.3896 38.7512 50.9693 37.4564C51.325 36.6623 51.135 35.5886 51.2538 34.6445C51.3045 34.2382 50.755 33.6254 50.338 33.6556C49.9824 33.681 49.5995 33.8475 49.3033 34.056C49.0841 34.21 48.9058 34.514 48.8395 34.7829C48.4615 36.334 47.4336 36.7305 45.9819 36.5035C45.4685 36.4236 45.0583 36.2687 44.7903 35.7913C44.6481 35.5389 44.4454 35.3178 44.2447 35.1073C44.0041 34.855 43.3591 35.004 43.2909 35.3431C43.2003 35.8127 43.02 36.3437 43.1487 36.7646C44.0431 39.6485 44.5984 42.6611 46.2274 45.279C46.473 45.6746 46.1417 45.77 45.8933 45.8353C45.1382 46.036 44.3733 46.2007 43.6124 46.3829C43.1009 46.5047 42.5904 46.4618 42.301 45.9961C40.5921 43.2339 38.3288 40.9044 36.349 38.3547C36.1094 38.0458 35.8239 37.7555 35.6563 37.4086C35.0912 36.2482 34.7502 35.1034 35.2003 33.7453C35.7079 32.2127 36.4669 30.8984 37.5893 29.7613C40.3456 26.9661 43.7225 25.2503 47.4346 24.1474C49.126 23.6447 50.8622 23.3222 53.0904 23.4937C53.4324 23.4937 54.2216 23.4304 54.999 23.5064C57.1776 23.7178 58.3506 24.9775 58.4432 27.1327C58.5367 29.2206 58.108 31.1965 57.3627 33.1529ZM29.0009 51.2563C29.3848 51.2709 29.8251 51.2846 30.1505 51.1219C31.8975 50.2528 33.1358 48.9433 33.4924 46.948C33.6083 46.2932 33.014 45.507 32.3827 45.4514C32.2872 45.4407 32.1849 45.4066 32.0933 45.4232C30.1691 45.7467 28.6053 46.7024 27.4868 48.2798C26.5885 49.5464 27.4634 51.1998 29.0009 51.2563ZM68.3995 44.8074C69.0163 44.4742 69.176 43.5292 68.6587 43.0761C68.3742 42.8277 68.041 42.5549 67.6912 42.4798C66.9361 42.3181 66.1548 42.2772 65.045 42.1466C64.6076 42.2324 63.8554 42.3571 63.1169 42.5363C62.8314 42.6045 62.6502 43.3109 62.811 43.536C63.7161 44.8074 67.0102 45.5557 68.3995 44.8074ZM28.3851 34.0395C27.6827 33.7638 26.9461 33.5747 26.6723 33.49C25.3063 33.5212 24.4265 33.488 23.6832 34.0785C23.274 34.4029 23.0421 34.7975 23.122 35.3265C23.197 35.84 23.4737 36.2901 23.9677 36.4051C25.6639 36.7997 27.2267 36.5259 28.5303 35.2749C28.8752 34.9456 28.8226 34.21 28.3851 34.0395ZM32.6662 26.3377C33.1377 26.4858 33.621 26.4078 33.9903 26.0122C34.34 25.6371 34.417 24.8265 34.0341 24.4125C33.3872 23.71 32.6847 23.0543 31.9627 22.4307C31.7698 22.2622 31.421 22.2748 31.3051 22.2456C30.3727 22.1755 29.756 23.0582 30.0453 23.8571C30.4984 25.1149 31.4006 25.9392 32.6662 26.3377ZM45.5756 16.3686C45.7773 15.8328 45.8689 15.257 46.0111 14.6919C45.8767 14.2953 45.8036 13.9046 45.6195 13.5763C45.372 13.1311 44.9462 12.8777 44.4191 12.8982C43.8979 12.9167 43.4624 13.1671 43.2529 13.6406C42.7794 14.7055 42.8895 15.7237 43.6563 16.6307C44.2077 17.2835 45.2794 17.152 45.5756 16.3686ZM62.2186 19.0382C63.0156 18.3436 63.7979 17.6245 64.5101 16.8431C64.7362 16.5966 64.8433 16.1153 64.7878 15.7763C64.7352 15.4626 64.3942 15.1966 64.2383 14.9861C63.9684 15.0066 63.8583 14.9842 63.7872 15.0241C62.4758 15.7685 61.5239 16.81 61.2014 18.3153C61.1508 18.5472 61.295 18.9242 61.4781 19.0684C61.6311 19.1912 62.0627 19.1727 62.2186 19.0382ZM71.6683 31.4712C71.8359 31.4138 71.9645 31.2325 72.1038 31.102C72.3825 30.8409 72.288 30.2037 71.9401 30.1257C71.2854 29.9796 70.6229 29.8753 69.9633 29.7536C69.9555 29.7954 69.9516 29.8383 69.9438 29.8812C69.4586 29.8812 68.9656 29.8315 68.4902 29.9026C68.2466 29.9387 67.8257 30.2212 67.8452 30.3342C67.9007 30.6782 68.0449 31.1332 68.3089 31.2939C69.3738 31.9409 70.5284 31.861 71.6683 31.4712Z" fill="#EFD101"/>
</svg>
