<svg width="300" height="101" viewBox="0 0 300 101" fill="none" xmlns="http://www.w3.org/2000/svg">
<path d="M18.576 83.792C13.248 83.792 9.504 82.28 7.344 79.256C5.232 76.184 4.176 71.912 4.176 66.44V40.952C4.176 35.576 5.256 31.424 7.416 28.496C9.624 25.52 13.344 24.032 18.576 24.032C23.76 24.032 27.456 25.52 29.664 28.496C31.872 31.472 32.976 35.624 32.976 40.952V66.512C32.976 71.984 31.896 76.232 29.736 79.256C27.624 82.28 23.904 83.792 18.576 83.792ZM18.576 80.552C22.512 80.552 25.224 79.424 26.712 77.168C28.248 74.912 29.016 71.624 29.016 67.304V40.376C29.016 36.056 28.248 32.792 26.712 30.584C25.224 28.376 22.512 27.272 18.576 27.272C14.64 27.272 11.904 28.376 10.368 30.584C8.88 32.792 8.136 36.056 8.136 40.376V67.304C8.136 71.672 8.88 74.984 10.368 77.24C11.904 79.448 14.64 80.552 18.576 80.552ZM42.525 24.68H46.413V79.904H64.053V83H42.525V24.68ZM69.3844 24.68H82.1284C87.5524 24.68 91.3924 26.192 93.6484 29.216C95.9044 32.192 97.0324 36.272 97.0324 41.456V65.648C97.0324 71.12 95.9284 75.392 93.7204 78.464C91.5604 81.488 87.8164 83 82.4884 83H69.3844V24.68ZM82.2724 79.904C85.2484 79.904 87.5284 79.28 89.1124 78.032C90.6964 76.736 91.7524 75.032 92.2804 72.92C92.8084 70.808 93.0724 68.24 93.0724 65.216V41.744C93.0724 37.088 92.2804 33.608 90.6964 31.304C89.1604 29 86.3044 27.848 82.1284 27.848H73.2724V79.904H82.2724Z" fill="#132456"/>
<path d="M112.512 28.216C111.424 28.216 110.544 27.864 109.872 27.16C109.216 26.456 108.84 25.496 108.744 24.28L110.208 23.824C110.304 24.88 110.552 25.656 110.952 26.152C111.352 26.648 111.912 26.896 112.632 26.896C113.24 26.896 113.704 26.728 114.024 26.392C114.36 26.04 114.528 25.552 114.528 24.928C114.528 24.016 113.968 23.088 112.848 22.144L110.952 20.512C110.296 19.968 109.816 19.432 109.512 18.904C109.208 18.376 109.056 17.752 109.056 17.032C109.056 16.056 109.352 15.296 109.944 14.752C110.552 14.192 111.36 13.912 112.368 13.912C113.392 13.912 114.176 14.24 114.72 14.896C115.28 15.552 115.592 16.44 115.656 17.56L114.408 17.968C114.312 16.144 113.656 15.232 112.44 15.232C111.896 15.232 111.464 15.384 111.144 15.688C110.824 15.976 110.664 16.384 110.664 16.912C110.664 17.344 110.744 17.72 110.904 18.04C111.064 18.36 111.36 18.712 111.792 19.096L113.76 20.848C114.512 21.52 115.08 22.152 115.464 22.744C115.864 23.32 116.064 24.032 116.064 24.88C116.064 25.936 115.744 26.76 115.104 27.352C114.464 27.928 113.6 28.216 112.512 28.216ZM121.519 28.216C120.495 28.216 119.711 27.992 119.167 27.544C118.623 27.08 118.255 26.464 118.063 25.696C117.887 24.912 117.799 23.928 117.799 22.744V19.504C117.799 18.16 117.903 17.088 118.111 16.288C118.335 15.488 118.711 14.896 119.239 14.512C119.783 14.112 120.543 13.912 121.519 13.912C122.879 13.912 123.807 14.288 124.303 15.04C124.799 15.776 125.047 16.88 125.047 18.352V19.024H123.415V18.352C123.415 17.536 123.351 16.904 123.223 16.456C123.111 16.008 122.919 15.696 122.647 15.52C122.375 15.328 121.999 15.232 121.519 15.232C120.975 15.232 120.559 15.36 120.271 15.616C119.999 15.872 119.807 16.28 119.695 16.84C119.599 17.384 119.551 18.176 119.551 19.216V23.104C119.551 24.064 119.607 24.816 119.719 25.36C119.831 25.904 120.031 26.296 120.319 26.536C120.607 26.776 121.015 26.896 121.543 26.896C122.087 26.896 122.487 26.784 122.743 26.56C123.015 26.32 123.191 25.968 123.271 25.504C123.367 25.04 123.415 24.392 123.415 23.56V22.792H125.047V23.464C125.047 24.504 124.951 25.368 124.759 26.056C124.583 26.728 124.239 27.256 123.727 27.64C123.215 28.024 122.479 28.216 121.519 28.216ZM127.415 8.56H129.167V15.592C130.207 14.472 131.335 13.912 132.551 13.912C133.239 13.912 133.767 14.168 134.135 14.68C134.503 15.192 134.687 15.92 134.687 16.864V28H132.911V17.248C132.911 16.544 132.799 16.04 132.575 15.736C132.367 15.432 132.039 15.28 131.591 15.28C131.207 15.28 130.799 15.4 130.367 15.64C129.951 15.88 129.551 16.2 129.167 16.6V28H127.415V8.56ZM140.714 28.216C139.338 28.216 138.378 27.792 137.834 26.944C137.29 26.08 137.018 24.76 137.018 22.984V19.144C137.018 17.368 137.29 16.056 137.834 15.208C138.378 14.344 139.338 13.912 140.714 13.912C142.106 13.912 143.074 14.344 143.618 15.208C144.162 16.056 144.434 17.368 144.434 19.144V22.984C144.434 24.76 144.162 26.08 143.618 26.944C143.074 27.792 142.106 28.216 140.714 28.216ZM140.714 26.896C141.29 26.896 141.714 26.744 141.986 26.44C142.274 26.136 142.458 25.728 142.538 25.216C142.618 24.688 142.658 23.976 142.658 23.08V19.048C142.658 18.152 142.618 17.448 142.538 16.936C142.458 16.408 142.274 15.992 141.986 15.688C141.714 15.384 141.29 15.232 140.714 15.232C140.138 15.232 139.714 15.384 139.442 15.688C139.17 15.992 138.994 16.408 138.914 16.936C138.834 17.448 138.794 18.152 138.794 19.048V23.08C138.794 23.976 138.834 24.688 138.914 25.216C138.994 25.728 139.17 26.136 139.442 26.44C139.714 26.744 140.138 26.896 140.714 26.896ZM150.299 28.216C148.923 28.216 147.963 27.792 147.419 26.944C146.875 26.08 146.603 24.76 146.603 22.984V19.144C146.603 17.368 146.875 16.056 147.419 15.208C147.963 14.344 148.923 13.912 150.299 13.912C151.691 13.912 152.659 14.344 153.203 15.208C153.747 16.056 154.019 17.368 154.019 19.144V22.984C154.019 24.76 153.747 26.08 153.203 26.944C152.659 27.792 151.691 28.216 150.299 28.216ZM150.299 26.896C150.875 26.896 151.299 26.744 151.571 26.44C151.859 26.136 152.043 25.728 152.123 25.216C152.203 24.688 152.243 23.976 152.243 23.08V19.048C152.243 18.152 152.203 17.448 152.123 16.936C152.043 16.408 151.859 15.992 151.571 15.688C151.299 15.384 150.875 15.232 150.299 15.232C149.723 15.232 149.299 15.384 149.027 15.688C148.755 15.992 148.579 16.408 148.499 16.936C148.419 17.448 148.379 18.152 148.379 19.048V23.08C148.379 23.976 148.419 24.688 148.499 25.216C148.579 25.728 148.755 26.136 149.027 26.44C149.299 26.744 149.723 26.896 150.299 26.896ZM156.693 8.56H158.445V28H156.693V8.56Z" fill="#132456"/>
<path d="M108 34H229C240.046 34 249 42.9543 249 54C249 65.0457 240.046 74 229 74H148C125.909 74 108 56.0914 108 34Z" fill="#3D94F2"/>
<path d="M131.62 46.66H134.59V48.31C135.17 47.67 135.8 47.19 136.48 46.87C137.18 46.53 137.91 46.36 138.67 46.36C140.15 46.36 141.09 47.09 141.49 48.55C142.69 47.09 144.13 46.36 145.81 46.36C146.71 46.36 147.44 46.69 148 47.35C148.58 48.01 148.87 49.02 148.87 50.38V64H145.93V50.59C145.93 49.79 145.8 49.24 145.54 48.94C145.28 48.62 144.91 48.46 144.43 48.46C143.99 48.46 143.53 48.59 143.05 48.85C142.57 49.09 142.13 49.43 141.73 49.87V50.38V64H138.79V50.59C138.79 49.79 138.66 49.24 138.4 48.94C138.14 48.62 137.77 48.46 137.29 48.46C136.87 48.46 136.42 48.59 135.94 48.85C135.46 49.09 135.01 49.43 134.59 49.87V64H131.62V46.66ZM155.131 64.24C154.471 64.24 153.871 64.05 153.331 63.67C152.811 63.29 152.401 62.79 152.101 62.17C151.801 61.55 151.651 60.9 151.651 60.22C151.651 58.86 151.941 57.76 152.521 56.92C153.101 56.06 153.841 55.38 154.741 54.88C155.641 54.38 156.891 53.81 158.491 53.17V51.94C158.491 50.8 158.371 50 158.131 49.54C157.911 49.06 157.451 48.82 156.751 48.82C155.531 48.82 154.921 49.64 154.921 51.28V52.15L151.741 52.03C151.781 50.11 152.221 48.7 153.061 47.8C153.901 46.88 155.201 46.42 156.961 46.42C158.621 46.42 159.821 46.88 160.561 47.8C161.321 48.7 161.701 50.07 161.701 51.91V59.83C161.701 61.13 161.801 62.52 162.001 64H159.061C158.841 62.86 158.701 62.01 158.641 61.45C158.401 62.23 157.981 62.89 157.381 63.43C156.801 63.97 156.051 64.24 155.131 64.24ZM156.391 61.48C156.811 61.48 157.221 61.32 157.621 61C158.021 60.66 158.311 60.34 158.491 60.04V55.12C157.631 55.6 156.961 56.02 156.481 56.38C156.021 56.72 155.631 57.12 155.311 57.58C155.011 58.04 154.861 58.59 154.861 59.23C154.861 59.95 154.991 60.51 155.251 60.91C155.511 61.29 155.891 61.48 156.391 61.48ZM164.874 46.66H168.084V49.12C168.684 48.14 169.294 47.45 169.914 47.05C170.554 46.65 171.224 46.45 171.924 46.45C172.104 46.45 172.274 46.46 172.434 46.48V50.02C171.794 49.78 171.204 49.66 170.664 49.66C170.144 49.66 169.674 49.79 169.254 50.05C168.854 50.29 168.464 50.72 168.084 51.34V64H164.874V46.66ZM174.483 39.67H177.693V54.16L182.373 46.66H185.733L181.653 53.44L185.613 64H182.403L179.163 55.12L177.693 57.34V63.97H174.483V39.67ZM192.084 64.24C190.744 64.24 189.704 63.99 188.964 63.49C188.224 62.97 187.704 62.21 187.404 61.21C187.104 60.21 186.954 58.91 186.954 57.31V53.35C186.954 50.95 187.324 49.2 188.064 48.1C188.824 46.98 190.164 46.42 192.084 46.42C193.484 46.42 194.534 46.71 195.234 47.29C195.954 47.87 196.424 48.69 196.644 49.75C196.884 50.79 197.004 52.2 197.004 53.98V55.39H190.164V58.87C190.164 59.93 190.314 60.7 190.614 61.18C190.934 61.64 191.434 61.87 192.114 61.87C192.794 61.87 193.254 61.64 193.494 61.18C193.734 60.7 193.854 59.98 193.854 59.02V57.97H196.974V58.63C196.974 60.45 196.584 61.84 195.804 62.8C195.024 63.76 193.784 64.24 192.084 64.24ZM193.854 53.65V52.09C193.854 50.91 193.734 50.07 193.494 49.57C193.274 49.05 192.794 48.79 192.054 48.79C191.534 48.79 191.134 48.91 190.854 49.15C190.594 49.39 190.414 49.79 190.314 50.35C190.214 50.89 190.164 51.68 190.164 52.72V53.65H193.854ZM204.531 64.24C202.031 64.24 200.781 62.86 200.781 60.1V48.79H198.951V46.66H200.781V41.59H203.991V46.66H206.781V48.79H203.991V59.89C203.991 60.59 204.101 61.08 204.321 61.36C204.541 61.64 204.961 61.78 205.581 61.78C205.981 61.78 206.371 61.75 206.751 61.69V64.06C205.951 64.18 205.211 64.24 204.531 64.24ZM213.94 64.24C212.6 64.24 211.56 63.99 210.82 63.49C210.08 62.97 209.56 62.21 209.26 61.21C208.96 60.21 208.81 58.91 208.81 57.31V53.35C208.81 50.95 209.18 49.2 209.92 48.1C210.68 46.98 212.02 46.42 213.94 46.42C215.34 46.42 216.39 46.71 217.09 47.29C217.81 47.87 218.28 48.69 218.5 49.75C218.74 50.79 218.86 52.2 218.86 53.98V55.39H212.02V58.87C212.02 59.93 212.17 60.7 212.47 61.18C212.79 61.64 213.29 61.87 213.97 61.87C214.65 61.87 215.11 61.64 215.35 61.18C215.59 60.7 215.71 59.98 215.71 59.02V57.97H218.83V58.63C218.83 60.45 218.44 61.84 217.66 62.8C216.88 63.76 215.64 64.24 213.94 64.24ZM215.71 53.65V52.09C215.71 50.91 215.59 50.07 215.35 49.57C215.13 49.05 214.65 48.79 213.91 48.79C213.39 48.79 212.99 48.91 212.71 49.15C212.45 49.39 212.27 49.79 212.17 50.35C212.07 50.89 212.02 51.68 212.02 52.72V53.65H215.71ZM221.856 46.66H225.066V49.12C225.666 48.14 226.276 47.45 226.896 47.05C227.536 46.65 228.206 46.45 228.906 46.45C229.086 46.45 229.256 46.46 229.416 46.48V50.02C228.776 49.78 228.186 49.66 227.646 49.66C227.126 49.66 226.656 49.79 226.236 50.05C225.836 50.29 225.446 50.72 225.066 51.34V64H221.856V46.66Z" fill="white"/>
</svg>
