<svg width="100" height="97" viewBox="0 0 100 97" fill="none" xmlns="http://www.w3.org/2000/svg">
<path fill-rule="evenodd" clip-rule="evenodd" d="M72.4352 54.65C71.5912 54.455 70.6953 54.465 69.8733 54.22C67.3503 53.47 64.8092 53.131 62.1893 53.569C61.8722 53.622 61.5343 53.613 61.2103 53.577C60.7812 53.529 60.2863 53.437 60.2333 52.92C60.2033 52.656 60.3873 52.281 60.5973 52.101C61.3393 51.464 62.1723 50.934 62.9013 50.284C63.9503 49.343 65.0472 48.419 65.9183 47.324C66.8063 46.208 67.1273 45.013 66.4413 43.438C65.5953 41.505 64.5423 39.861 63.0353 38.405C61.5513 36.971 60.2493 35.352 58.8413 33.84C58.3253 33.285 57.8053 32.676 57.1623 32.313C55.7373 31.51 55.1503 31.143 53.6363 32.47C52.6643 33.322 51.8022 34.31 50.9663 35.301C50.1973 36.213 49.5463 37.227 48.8033 38.164C48.4383 38.626 47.8923 38.715 47.3223 38.614C46.3623 38.443 45.8143 37.906 45.8103 36.792C45.8063 34.185 45.8373 31.575 45.9793 28.973C46.0873 27.035 44.9923 25.647 43.0333 25.601C41.4013 25.561 39.7663 25.592 38.1353 25.592V25.679C37.1553 25.679 36.1763 25.669 35.1953 25.68C31.2323 25.721 31.2323 25.724 27.9833 27.927C27.6243 28.171 27.2903 28.458 26.9093 28.665C26.1393 29.082 25.8603 29.748 25.9113 30.562C26.0403 32.513 26.1273 34.472 26.3833 36.408C26.4883 37.204 26.4653 37.902 26.1753 38.626C25.8943 39.329 25.1143 39.495 24.6423 38.865C23.2133 36.962 21.5773 35.19 20.7883 32.862C20.5493 32.154 20.1453 31.484 19.7313 30.855C19.2363 30.106 18.2173 29.818 17.4123 30.213C16.7363 30.545 16.0093 30.903 15.5083 31.438C12.7663 34.373 9.63325 36.927 7.14125 40.111C6.36125 41.107 6.28725 42.076 6.77325 43.138C7.04325 43.725 7.40525 44.282 7.79225 44.802C9.08825 46.541 10.3673 48.292 11.7343 49.97C12.9303 51.437 12.3043 52.872 11.7553 54.269C11.3403 55.328 10.2603 54.949 9.44925 54.936C8.03925 54.912 6.61625 54.848 5.22725 54.626C3.99925 54.43 2.84925 54.556 1.69125 54.899C0.913253 55.13 0.570253 55.458 0.577253 56.274C0.604253 59.209 0.547253 62.157 0.780253 65.079C0.926253 66.901 1.47125 68.698 2.36925 70.354C2.72825 71.013 3.20825 71.329 3.92325 71.284C5.22325 71.2 6.52125 71.092 7.81925 70.983C9.43825 70.848 11.0603 70.685 12.6833 70.572C13.1403 70.541 13.5033 70.794 13.6363 71.27C13.7233 71.583 13.7163 71.946 13.8753 72.214C14.4903 73.256 14.0883 74.125 13.4013 74.88C12.1583 76.246 10.8543 77.557 9.56425 78.885C8.96025 79.508 8.25225 80.054 7.74225 80.746C7.10825 81.604 6.63225 82.576 6.08925 83.499C6.39825 84.779 6.84425 85.998 7.68325 87.037C7.95825 87.375 8.24325 87.706 8.55025 88.015C10.4593 89.952 12.3573 91.898 14.2963 93.806C15.5693 95.059 16.5013 95.13 18.0543 94.066C20.2973 92.532 22.4343 90.859 24.4033 88.975C25.0203 88.384 25.7813 87.641 26.6633 88.037C27.6783 88.493 27.2593 89.512 27.0883 90.349C27.0463 90.562 26.9783 90.77 26.9343 90.982C26.7163 91.994 26.7903 93.107 27.4983 93.757C28.7033 94.863 28.8093 96.165 28.7643 97.599C28.7583 97.813 28.8113 98.031 28.8513 98.244C28.9803 98.922 29.4283 99.372 30.1723 99.484C34.7173 100.167 39.2623 100.164 43.8213 99.55C45.0503 99.384 45.5182 98.665 45.6273 97.625C45.7183 96.762 45.7133 95.886 45.7053 95.016C45.6943 93.711 45.6333 92.406 45.6163 91.1C45.5823 88.773 45.9062 88.79 47.7173 88.756C48.2563 88.746 48.7892 88.568 49.3283 88.548C49.6243 88.538 50.0453 88.601 50.2073 88.798C51.4503 90.297 52.7823 91.75 53.8133 93.391C54.7203 94.836 55.8893 95.22 57.3903 94.95C57.8722 94.864 58.4073 94.556 58.7263 94.185C60.7063 91.877 62.6283 89.52 64.5762 87.184C65.3392 86.266 66.1343 85.372 66.8763 84.438C67.3143 83.885 67.3473 83.222 67.0643 82.586C66.8403 82.094 66.5803 81.606 66.2633 81.17C64.4113 78.621 62.5383 76.089 60.6723 73.55C60.4803 73.288 60.2053 73.029 60.1583 72.738C60.1183 72.496 60.3153 72.016 60.4843 71.977C60.9963 71.859 61.5473 71.872 62.0803 71.89C65.2383 72.004 68.3842 71.887 71.5062 71.342C72.6062 71.15 73.0452 70.761 73.1233 69.667C73.1852 68.801 73.1572 67.927 73.1783 67.059C73.2523 63.915 72.8723 60.75 73.6413 57.636C73.7452 57.225 73.6833 56.769 73.6722 56.333C73.6502 55.407 73.2822 54.848 72.4352 54.65ZM68.0103 66.111C67.0703 66.348 66.1103 66.574 65.1463 66.632C63.6283 66.72 62.1003 66.65 60.5763 66.686C58.9193 66.724 57.2893 66.805 56.4773 68.682C56.3353 69.01 55.7583 69.131 55.4153 69.393C54.2503 70.28 54.0683 70.788 54.6823 72.19C55.1113 73.173 55.6733 74.116 56.2863 75.001C58.0213 77.502 59.8162 79.961 61.5773 82.443C61.8353 82.807 62.0273 83.302 61.6133 83.613C59.8603 84.93 58.3893 86.512 57.0743 88.255C56.9493 88.418 56.7293 88.581 56.5393 88.605C56.2563 88.641 55.7973 88.654 55.6933 88.495C54.8713 87.218 54.1543 85.872 53.3283 84.598C52.2833 82.986 50.7323 82.396 48.8613 82.824C46.8173 83.29 44.9673 84.185 43.2763 85.414C42.7143 85.823 42.4223 86.362 42.4183 87.075C42.4033 89.252 42.3803 91.429 42.3383 93.605C42.3203 94.469 42.0103 94.751 41.1373 94.734C40.2663 94.717 39.3953 94.672 38.5273 94.619C38.1533 94.596 37.7562 94.053 37.8503 93.667C38.3952 91.456 38.9753 89.253 39.5033 87.038C39.6512 86.411 39.6993 85.755 39.7373 85.108C39.7463 84.933 39.5262 84.586 39.4333 84.591C39.1453 84.615 38.6912 84.696 38.6133 84.886C38.1162 86.083 37.6433 87.297 37.2773 88.54C36.8803 89.892 36.5653 91.272 36.2963 92.654C36.0783 93.786 35.4993 94.35 34.3303 94.38C33.6913 94.396 33.0553 94.61 32.4173 94.612C32.1503 94.613 31.8133 94.351 31.6353 94.114C31.3203 93.705 31.7513 93.553 32.0183 93.471C32.8263 93.22 33.3223 92.706 33.4853 91.888C33.9973 89.334 34.5043 86.78 34.9863 84.221C35.0203 84.04 34.8663 83.816 34.7703 83.625C34.7283 83.537 34.6243 83.423 34.5443 83.42C34.3543 83.412 34.1023 83.399 33.9833 83.508C33.7493 83.722 33.5163 83.988 33.4103 84.28C32.8633 85.81 32.3553 87.356 31.8293 88.893C31.7953 88.992 31.7003 89.067 31.6353 89.154C31.5173 89.008 31.3163 88.876 31.2933 88.717C31.1703 87.866 30.9593 87 31.0293 86.16C31.1473 84.775 30.4943 83.884 29.4683 83.162C29.1193 82.915 28.6803 82.8 28.2913 82.603C27.3753 82.139 27.2283 81.825 27.4463 80.82C27.6063 80.083 27.8333 79.357 27.9193 78.613C27.9443 78.414 27.6023 78.114 27.3633 77.967C27.2413 77.893 26.9233 77.995 26.7803 78.117C25.9943 78.789 25.6453 79.735 25.5243 80.698C25.3663 81.978 24.8073 82.918 23.8033 83.704C22.8633 84.439 22.0493 85.335 21.1203 86.091C20.7693 86.376 20.3883 87.046 19.8413 86.564C19.6723 86.418 19.9023 85.78 19.9983 85.377C20.3913 83.685 20.8053 81.996 21.1963 80.304C21.2113 80.243 21.0843 80.088 21.0103 80.078C20.8203 80.056 20.5643 80.019 20.4413 80.119C20.1943 80.318 19.9383 80.573 19.8283 80.86C19.3253 82.177 18.7983 83.496 18.4333 84.855C18.2433 85.56 18.3213 86.353 18.3683 87.101C18.3913 87.497 18.8183 87.931 18.3973 88.275C17.9003 88.68 17.3363 89.029 16.7513 89.282C16.5903 89.35 16.0933 89.044 16.0153 88.818C15.8053 88.219 15.5823 87.552 15.6513 86.946C15.8713 85.008 16.2073 83.083 16.5263 81.158C16.6173 80.628 16.8753 80.121 16.9343 79.59C16.9813 79.189 16.9513 78.691 16.7443 78.37C16.4383 77.895 15.9813 78.346 15.5903 78.4C15.4063 78.426 15.2203 78.439 15.0343 78.457C15.0263 78.48 15.0213 78.506 15.0133 78.529C14.9833 78.537 14.9493 78.543 14.9153 78.549C14.2833 80.319 13.6523 82.089 13.0133 83.856C12.9813 83.943 12.8233 84.071 12.7803 84.051C12.6153 83.982 12.4293 83.889 12.3323 83.749C11.8063 83.004 11.5243 82.26 12.2363 81.431C12.9973 80.544 13.6883 79.599 14.4393 78.703C14.5303 78.594 14.7353 78.581 14.9143 78.548C14.9243 78.52 14.9343 78.492 14.9443 78.465C14.9743 78.462 15.0033 78.459 15.0333 78.456C15.1513 78.081 15.1973 77.627 15.4473 77.399C15.8343 77.049 16.3763 76.85 16.8773 76.654C17.5653 76.385 17.8703 75.86 18.0213 75.19C18.5563 72.771 18.1793 70.449 17.3383 68.155C16.9683 67.144 16.3513 66.496 15.2813 66.307C14.9603 66.25 14.6333 66.227 14.3153 66.15C13.8233 66.027 13.5983 65.599 13.8123 65.196C14.1653 64.525 14.6033 63.889 14.8813 63.19C15.0733 62.712 15.2093 62.131 14.7233 61.681C14.3533 61.338 13.5073 61.444 12.9733 62.014C12.2353 62.804 11.5613 63.655 10.9063 64.513C10.5803 64.941 10.3823 65.467 10.0693 65.909C9.88925 66.163 9.61925 66.38 9.34425 66.528C9.19825 66.606 8.90825 66.565 8.76725 66.465C8.62725 66.365 8.48425 66.07 8.53625 65.944C9.25525 64.246 10.0153 62.565 10.7413 60.868C10.8003 60.728 10.7163 60.445 10.5973 60.331C10.4623 60.2 10.2153 60.128 10.0173 60.129C9.81225 60.129 9.58425 60.212 9.40225 60.319C8.77425 60.687 8.25225 60.848 7.83325 60.001C7.62025 59.571 7.13425 59.549 6.69225 59.75C5.91825 60.103 5.79625 59.493 5.61225 59.008C5.40925 58.466 5.60625 58.121 6.12425 58.13C8.62325 58.18 11.1233 58.239 13.6223 58.318C14.0543 58.332 14.4803 58.497 14.9123 58.511C15.8173 58.541 16.5483 58.302 17.1133 57.447C17.8063 56.401 18.3163 55.363 17.9943 54.098C17.5313 52.274 17.3183 50.501 18.2143 48.704C18.4993 48.135 18.2013 47.388 17.6883 46.918C16.8063 46.112 15.8843 45.351 14.9653 44.588C14.2973 44.032 13.5843 43.53 12.9293 42.958C12.5893 42.657 12.4503 42.238 12.8443 41.846C13.7673 40.93 14.7023 40.024 15.6333 39.114C16.2293 38.532 16.8213 38.537 17.2903 39.145C17.5563 39.49 17.7953 39.854 18.0363 40.214C19.1653 41.894 20.4903 43.251 22.7123 43.316C23.1133 43.326 23.4923 43.713 23.9083 43.799C24.6843 43.96 25.5093 43.94 25.8763 43.09C26.4963 41.673 27.5953 41.22 29.0263 41.285C29.1343 41.291 29.2443 41.282 29.3513 41.266C30.8313 41.047 31.5273 40.331 31.4483 38.894C31.3603 37.268 31.1353 35.648 30.9933 34.024C30.9173 33.163 30.8393 32.295 30.8533 31.432C30.8663 30.684 31.3793 30.14 32.0543 30.136C34.8843 30.118 37.7132 30.125 40.5433 30.146C41.0023 30.149 41.5322 30.751 41.5303 31.279C41.5262 32.036 41.4963 32.798 41.3973 33.548C41.1393 35.514 41.2263 37.448 41.7293 39.372C41.9703 40.297 42.3993 40.93 43.4223 41.097C43.8073 41.159 44.3993 41.385 44.4823 41.661C45.0003 43.37 46.3553 43.261 47.6743 43.265C48.4353 43.266 49.1983 43.261 49.9573 43.221C50.5263 43.191 51.1053 42.981 51.3003 42.444C51.7083 41.333 52.5853 40.761 53.4963 40.153C54.0283 39.797 54.4313 39.246 54.9103 38.802C56.0833 37.714 56.3512 37.735 57.5573 38.991C59.1383 40.646 60.6393 42.367 61.7413 44.395C62.0373 44.94 61.9463 45.441 61.4793 45.853C59.9283 47.215 58.3652 48.564 56.8283 49.941C56.4272 50.301 56.0743 50.726 55.7443 51.155C55.3253 51.695 55.2513 52.449 55.7993 52.955C56.6953 53.78 56.9393 54.683 56.8393 55.857C56.7633 56.716 57.4503 57.276 58.2333 57.434C59.1823 57.628 60.1733 57.685 61.1483 57.702C62.6693 57.728 64.1943 57.655 65.7183 57.655C66.2593 57.654 66.8132 57.68 67.3372 57.804C67.8842 57.933 68.3853 58.312 68.4133 58.895C68.5143 61.068 68.5592 63.245 68.5673 65.419C68.5703 65.658 68.2473 66.051 68.0103 66.111ZM98.5543 21.496C97.6073 20.772 96.6123 20.109 95.6223 19.443C94.5043 18.69 94.5223 18.468 95.8273 17.773C96.3053 17.518 96.8043 17.298 97.2753 17.026C98.6553 16.223 98.9092 15.591 98.3343 14.06C97.7992 12.638 97.1403 11.262 96.5902 9.84597C95.4323 6.87397 94.6842 7.19397 92.5403 8.47897C91.8893 8.86997 91.2552 9.37497 90.5443 9.54597C90.1513 9.64297 89.5742 9.21497 89.1722 8.90097C89.0182 8.78097 89.0242 8.28397 89.1312 8.03097C89.6372 6.83097 90.2313 5.66597 90.7443 4.46897C91.0313 3.79697 90.8143 3.06697 90.1633 2.80397C88.4573 2.11297 86.7452 1.39697 84.9753 0.902972C82.4632 0.201972 82.0092 0.512973 81.1423 2.94697C80.9622 3.45797 80.8683 4.01597 80.5973 4.47097C80.3303 4.92197 79.9083 5.28897 79.5213 5.65897C79.2123 5.95397 78.5462 5.81297 78.4283 5.41597C78.1513 4.48397 77.8913 3.54497 77.6943 2.59497C77.5843 2.06897 77.6393 1.50997 77.5803 0.969972C77.5043 0.283973 76.8673 -0.121028 76.1463 0.0319725C75.8273 0.0999725 75.4952 0.143972 75.2012 0.271972C73.9053 0.834973 72.6013 1.38497 71.3433 2.02197C70.6753 2.36097 70.0772 2.84597 69.4792 3.30597C69.0222 3.65797 68.8112 4.12297 68.9782 4.73397C69.2923 5.88497 69.5743 7.04597 69.8703 8.20197C70.0713 8.97497 70.0713 9.74897 69.5322 10.366C69.2803 10.651 68.8373 10.847 68.4523 10.912C68.1713 10.96 67.8432 10.722 67.5342 10.628C66.3002 10.254 65.1352 8.95597 63.9132 9.45097C62.4972 10.025 62.8503 11.922 62.2163 13.154C61.9243 13.719 61.8503 14.402 61.6923 15.034C61.2403 16.823 61.7243 17.751 63.4303 18.264C64.4703 18.577 65.5353 18.803 66.5783 19.105C67.0473 19.239 67.3092 20.075 67.0163 20.481C66.7663 20.83 66.5113 21.237 66.1562 21.432C65.1123 22.004 64.0003 22.456 62.9453 23.012C62.3783 23.31 61.8073 23.661 61.3633 24.111C61.1053 24.375 60.9173 24.926 61.0043 25.27C61.5373 27.386 62.2773 29.43 63.5263 31.248C63.8713 31.751 64.3483 31.858 64.9463 31.676C66.5042 31.202 68.0723 30.763 69.6413 30.325C70.0283 30.217 70.5803 30.731 70.4593 31.099C70.1233 32.122 69.5673 33.105 70.0003 34.161C69.9492 34.563 69.8843 34.885 69.8733 35.208C69.8293 36.595 70.0042 36.828 71.3463 37.33C72.8723 37.899 74.3942 38.481 75.9183 39.053C77.1233 39.505 77.8143 39.232 78.2583 38.099C78.6583 37.091 78.9873 36.053 79.4232 35.061C79.7972 34.211 80.6452 34.042 81.2503 34.693C81.6862 35.159 82.0623 35.702 82.3603 36.266C82.7593 37.032 83.0343 37.863 83.4113 38.643C83.6633 39.169 84.2692 39.414 84.7982 39.162C85.9672 38.596 87.1192 37.99 88.2523 37.356C92.0912 35.21 92.0003 36.212 90.2412 31.817C90.0782 31.413 89.8643 31.029 89.7233 30.621C89.5793 30.213 89.4823 29.79 89.3913 29.366C89.3083 28.972 89.7913 28.443 90.1393 28.552C91.4902 28.972 92.8343 29.403 94.1743 29.847C96.4993 30.618 96.5123 30.059 97.1743 28.579C97.8863 26.993 98.5792 25.396 99.2272 23.782C99.6212 22.79 99.4342 22.171 98.5543 21.496ZM66.2943 12.221L66.1442 12.123L66.3193 12.074L66.2943 12.221ZM64.4293 25.373C64.3893 25.391 64.2753 25.304 64.2313 25.239C64.1803 25.164 64.1232 25.051 64.1442 24.974C64.3032 24.396 64.7183 24.24 65.2473 24.289C65.2463 24.265 65.2562 24.247 65.2542 24.222C65.2842 24.208 65.3253 24.201 65.3693 24.197L65.5423 23.816C65.8633 24.21 65.5763 24.175 65.3693 24.197C65.3543 24.229 65.3412 24.26 65.3262 24.292C65.2982 24.288 65.2753 24.292 65.2473 24.29C65.2593 24.854 64.8913 25.153 64.4293 25.373ZM65.5283 29.099C65.2893 29.058 64.8893 28.674 64.9243 28.532C65.0383 28.045 65.2893 27.581 65.5393 27.137C65.7023 26.85 66.1732 26.929 66.2962 27.251C66.4053 27.539 66.4713 27.843 66.5243 28.025C66.4843 28.715 66.0533 29.19 65.5283 29.099ZM68.7923 16.515C68.9082 16.675 69.0713 16.802 69.0543 16.905C69.0332 17.055 68.8833 17.186 68.7903 17.325C68.7272 17.255 68.6023 17.178 68.6083 17.115C68.6303 16.947 68.7033 16.787 68.7923 16.515ZM68.6973 28.01C68.5303 27.935 68.2172 27.861 68.2152 27.781C68.2093 27.537 68.3213 27.29 68.3932 27.024C68.6533 27.149 68.9643 27.252 68.9553 27.307C68.9213 27.548 68.7923 27.777 68.6973 28.01ZM69.0482 24.497C68.9723 24.817 68.4962 25.042 68.1982 25.31C68.0963 25.017 67.9843 24.727 67.8932 24.43C67.8643 24.332 67.8893 24.218 67.8893 23.806C67.9932 23.487 68.1603 22.88 68.3863 22.298C68.4543 22.133 68.6823 21.97 68.8623 21.936C68.9593 21.917 69.2213 22.168 69.2193 22.294C69.2073 23.033 69.2192 23.788 69.0482 24.497ZM85.7773 3.62697C85.8153 3.66697 85.8242 3.77697 85.7943 3.81797C85.7373 3.89997 85.6553 3.99097 85.5643 4.01297C85.3673 4.06497 85.1623 4.07797 84.8833 4.11797C84.6553 4.08697 84.3423 4.08097 84.0563 3.98697C83.9443 3.95197 83.7893 3.65597 83.8303 3.59097C84.1143 3.15097 85.3802 3.18597 85.7773 3.62697ZM83.4733 6.12097C83.6533 6.15597 83.8203 6.24297 83.9932 6.30997C83.9092 6.35597 83.8223 6.40097 83.7353 6.44797C83.5663 6.38597 83.3952 6.32197 83.2233 6.25997C83.3092 6.20897 83.4023 6.10797 83.4733 6.12097ZM83.3423 8.48597C83.8013 8.51997 84.1563 8.86397 84.1333 9.24797C84.0933 9.95397 83.5143 10.509 82.9603 10.346C82.4993 10.211 82.3662 9.82497 82.3623 9.39397C82.3532 8.82097 82.7743 8.44497 83.3423 8.48597ZM79.3262 7.65197C79.5863 7.55597 79.9372 7.51197 80.1842 7.60897C80.9242 7.89497 80.9643 8.56197 80.9283 9.41897C80.7303 10.175 80.4932 11.106 80.2402 12.031C80.2122 12.118 80.0833 12.175 80.0013 12.247C79.9502 12.155 79.8682 12.069 79.8493 11.971C79.6152 10.71 79.6783 9.39197 79.0993 8.19197C79.0383 8.06697 79.1932 7.69997 79.3262 7.65197ZM75.9652 7.55197C76.0512 7.52897 76.2012 7.74197 76.3223 7.84997C76.1452 8.03297 75.9693 8.21497 75.7513 8.43897C75.6452 8.17997 75.5063 7.99997 75.5503 7.90697C75.6243 7.75197 75.8022 7.59497 75.9652 7.55197ZM74.8613 4.78197C74.9963 4.70897 75.5633 5.04997 75.5503 5.15097C75.5023 5.51897 75.2903 5.86597 75.1213 6.26897C74.8143 6.07497 74.5913 6.01297 74.5363 5.87997C74.3483 5.44497 74.4622 5.00097 74.8613 4.78197ZM74.9652 14.655C74.9762 14.717 74.8293 14.801 74.7583 14.876C74.6933 14.794 74.5612 14.698 74.5762 14.632C74.6162 14.448 74.7133 14.276 74.7873 14.095C74.8533 14.282 74.9382 14.465 74.9652 14.655ZM71.3143 25.116C71.1343 24.067 71.0013 23.012 70.8893 22.202C71.0943 19.806 71.2592 17.672 71.4912 15.546C71.5123 15.354 71.9333 15.145 72.2063 15.065C72.3353 15.027 72.6003 15.234 72.7132 15.393C73.1803 16.048 73.3283 16.865 73.0373 17.541C72.3243 19.21 72.5823 20.912 72.5843 22.621C72.5843 23.461 72.4092 24.304 72.2653 25.138C72.2422 25.265 71.9463 25.425 71.7793 25.423C71.6162 25.42 71.3373 25.248 71.3143 25.116ZM71.9902 27.622C71.9313 27.507 72.1043 27.255 72.2063 27.087C72.2463 27.017 72.4263 26.943 72.4663 26.973C73.2933 27.572 74.1113 28.18 74.9212 28.803C74.9843 28.851 75.0143 29.066 74.9693 29.106C74.8173 29.243 74.6293 29.338 74.3563 29.508C73.2803 29.313 72.5042 28.63 71.9902 27.622ZM73.4512 35.035C73.3223 34.882 73.1613 34.707 73.1363 34.523C72.9863 33.349 73.6963 32.533 74.3792 31.723C74.4772 31.609 74.7983 31.521 74.8723 31.585C75.0983 31.785 75.2563 32.063 75.5353 32.442C74.9393 33.274 74.3463 34.114 73.7363 34.943C73.6862 35.012 73.4792 35.067 73.4512 35.035ZM78.0583 30.318C78.1992 30.742 78.1543 31.121 77.7103 31.337C77.7272 31.378 77.7443 31.419 77.7623 31.46C77.6992 31.491 77.6623 31.534 77.6113 31.571C77.5423 31.987 77.6083 32.469 77.1073 32.679C77.1053 32.718 77.0993 32.757 77.0983 32.797C77.0673 32.806 77.0433 32.82 77.0133 32.831C77.0683 33.891 76.4942 34.749 76.0433 35.638C75.9792 35.761 75.6603 35.853 75.5123 35.803C75.3583 35.751 75.1383 35.478 75.1702 35.359C75.4502 34.276 75.8123 33.232 77.0133 32.831C77.0113 32.794 77.0153 32.759 77.0113 32.722C77.0493 32.711 77.0743 32.693 77.1073 32.68C77.1303 32.239 77.2343 31.838 77.6113 31.572C77.6233 31.502 77.6373 31.434 77.6613 31.37C77.6823 31.361 77.6913 31.348 77.7113 31.338C77.5993 31.084 77.4793 30.832 77.3863 30.572C77.2363 30.147 77.1933 29.745 77.7132 29.549C77.6973 29.516 77.6813 29.483 77.6653 29.45C77.7073 29.444 77.7282 29.426 77.7653 29.417C77.7822 29.151 77.7952 28.884 77.8303 28.621C77.8433 28.528 77.9303 28.444 77.9843 28.357C78.0473 28.429 78.1533 28.495 78.1683 28.577C78.2503 28.974 78.1973 29.308 77.7653 29.417C77.7623 29.455 77.7592 29.493 77.7562 29.53C77.7393 29.535 77.7292 29.543 77.7132 29.549C77.8343 29.802 77.9683 30.052 78.0583 30.318ZM80.1483 30.191C80.1253 30.281 80.0383 30.355 79.9813 30.437C79.9243 30.347 79.8273 30.261 79.8203 30.166C79.7763 29.543 79.7312 28.917 79.7402 28.292C79.7422 28.121 79.9323 27.953 80.0342 27.785C80.1332 27.966 80.2663 28.136 80.3193 28.328C80.3743 28.526 80.3513 28.746 80.3703 29.126C80.3193 29.373 80.2433 29.784 80.1483 30.191ZM83.5853 28.031C83.5143 28.789 83.4482 29.548 83.3542 30.304C83.2972 30.793 82.7272 31.408 82.5983 31.195C82.4413 30.929 82.3593 30.619 82.2643 30.323C82.2323 30.223 82.2643 30.106 82.2643 29.997C82.2663 29.78 82.2643 29.562 82.2643 29.345H82.3122C82.3122 28.911 82.2952 28.474 82.3163 28.039C82.3463 27.424 82.9103 26.72 83.2043 26.907C83.6283 27.172 83.6283 27.601 83.5853 28.031ZM83.5902 23.284C83.3063 23.681 82.7373 24.007 82.2473 24.103C79.8903 24.575 77.7063 24.076 75.8652 22.52C74.2503 21.158 73.9902 17.756 75.1592 15.883C75.6732 15.061 76.8713 14.715 76.9033 13.652C76.9283 12.818 76.5863 11.977 76.4383 11.133C76.4023 10.931 76.4143 10.644 76.5312 10.511C76.7272 10.292 77.0133 10.119 77.2943 10.029C77.3832 10.001 77.6943 10.286 77.7023 10.438C77.7473 11.193 77.7043 11.953 77.7343 12.708C77.7663 13.499 78.1953 13.836 79.0223 13.72C79.9483 13.591 80.8373 13.222 81.7993 13.729C82.1883 13.935 82.5902 13.547 82.7122 13.063C82.7373 12.958 82.7233 12.828 82.7822 12.751C82.9532 12.53 83.1502 12.33 83.3382 12.123C83.4762 12.405 83.6913 12.678 83.7343 12.974C83.8203 13.614 83.7423 14.28 83.8693 14.907C83.9883 15.508 84.2412 16.092 84.8483 16.401C84.8473 16.391 84.8473 16.381 84.8453 16.371C84.9033 16.362 84.9613 16.357 85.0173 16.348C85.0813 16.281 85.1452 16.214 85.2103 16.147C85.1783 16.209 85.1613 16.298 85.1103 16.324C85.0823 16.339 85.0482 16.343 85.0163 16.348C84.9843 16.382 84.9512 16.415 84.9193 16.449C84.8913 16.436 84.8733 16.416 84.8463 16.402C84.8983 16.819 84.8722 17.27 85.0332 17.641C86.0102 19.903 84.7902 21.609 83.5902 23.284ZM86.5113 30.607L86.4502 30.414L86.6172 30.435L86.5113 30.607ZM86.2393 24.855C86.2383 24.882 86.2373 24.91 86.2363 24.938C86.2173 24.938 86.2022 24.941 86.1833 24.942C86.1882 25.454 86.3292 26.024 86.1452 26.455C85.1642 28.741 85.2302 31.049 85.8112 33.393C85.8382 33.496 85.9402 33.619 85.9062 33.691C85.7842 33.973 85.6613 34.274 85.4583 34.495C85.3743 34.586 85.0232 34.566 84.9092 34.465C84.6803 34.263 84.3173 33.893 84.3783 33.728C85.2623 31.326 84.8713 28.847 84.9023 26.392C84.9133 25.598 85.2353 24.951 86.1833 24.943C86.1833 24.926 86.1813 24.909 86.1813 24.893C86.2043 24.881 86.2182 24.866 86.2393 24.855C86.2603 24.26 86.2673 23.664 86.3163 23.071C86.3273 22.941 86.5122 22.827 86.6182 22.706C86.6842 22.892 86.8173 23.086 86.8003 23.266C86.7523 23.842 86.8763 24.499 86.2393 24.855ZM90.6712 21.595C90.0612 22.751 90.4813 24.27 89.4543 25.24C89.0463 25.626 89.1183 26.507 88.2593 26.424C88.2153 25.896 88.1053 25.362 88.1373 24.838C88.1883 23.974 88.3423 23.115 88.4263 22.252C88.4543 21.958 88.5052 21.461 88.3672 21.388C87.0792 20.694 87.5233 19.558 87.5403 18.513C87.5613 16.993 87.5683 15.473 87.5322 13.954C87.5173 13.29 87.2442 13.243 86.4603 13.719C86.3672 13.776 86.3002 13.912 86.2113 13.924C86.0482 13.944 85.7773 13.955 85.7272 13.867C85.6302 13.701 85.5772 13.432 85.6432 13.261C85.9352 12.509 86.9573 12.193 86.9253 11.238C86.8983 11.231 86.8693 11.226 86.8423 11.218C86.8003 11.164 86.7562 11.112 86.7152 11.058C86.4183 10.972 86.1213 10.89 85.8293 10.785C85.7783 10.766 85.7292 10.556 85.7663 10.517C85.8643 10.417 86.1003 10.284 86.1172 10.305C86.3292 10.544 86.5212 10.803 86.7152 11.058C86.7862 11.079 86.8563 11.103 86.9263 11.124C86.9313 11.166 86.9233 11.199 86.9253 11.239C87.3153 11.34 87.7253 11.404 88.0762 11.58C88.4652 11.774 88.8093 12.128 88.5923 12.626C87.9183 14.178 87.9492 15.808 88.0052 17.442C88.0263 18.121 88.1743 18.735 88.9013 19.027C89.7962 19.383 90.0263 20.312 90.5383 20.994C90.6523 21.147 90.7472 21.453 90.6712 21.595ZM91.1572 16.273C91.0752 16.325 90.9333 16.422 90.9033 16.398C90.6773 16.21 90.3873 16.034 90.2863 15.784C90.1683 15.5 90.2253 15.143 90.2083 14.848C90.2253 14.492 90.2333 14.165 90.2633 13.841C90.2733 13.737 90.3372 13.637 90.3753 13.536C90.4963 13.655 90.6712 13.755 90.7262 13.899C90.9183 14.399 91.0772 14.914 91.2373 15.425C91.3293 15.715 91.5482 16.027 91.1572 16.273ZM92.7753 24.992C92.7183 25.149 92.4733 25.238 92.3183 25.358C92.2293 25.168 92.0942 24.985 92.0602 24.785C92.0013 24.47 92.0143 24.144 91.9753 23.464C92.0642 23.077 92.1842 22.341 92.4313 21.649C92.5033 21.451 92.9703 21.237 93.1953 21.291C93.4253 21.346 93.7803 21.768 93.7363 21.942C93.4772 22.974 93.1283 23.986 92.7753 24.992ZM93.1633 14.588C92.9773 14.091 92.8993 13.556 92.8193 13.217C92.8873 12.805 92.9122 12.589 92.9613 12.38C93.0693 11.921 93.9233 11.618 94.2993 11.886C95.0763 12.443 95.3322 13.236 95.3392 14.141C95.3392 14.582 94.7933 15.049 94.2103 15.136C93.7262 15.208 93.3283 15.034 93.1633 14.588ZM95.0643 24.049C94.9903 24.031 94.8932 23.853 94.9153 23.785C95.0503 23.403 95.2043 23.027 95.3753 22.661C95.4072 22.595 95.5533 22.583 95.6483 22.546C95.7113 22.633 95.8263 22.715 95.8303 22.804C95.8593 23.251 95.3183 24.117 95.0643 24.049ZM51.4033 62.091C51.1493 61.406 50.3633 61.157 50.0043 60.418C48.3763 57.07 45.7253 54.68 42.2843 53.345C39.5683 52.29 36.7673 51.333 33.9593 51.663C32.9863 51.663 32.2263 51.641 31.4673 51.672C31.0383 51.689 30.5563 51.688 30.1973 51.88C28.2883 52.907 26.4073 53.966 25.2533 55.938C23.6003 58.758 23.4563 58.734 23.0883 61.953C22.4333 67.677 22.6403 68.199 26.0773 72.764C26.4033 73.195 26.8003 73.577 27.1953 73.947C30.3243 76.852 33.9723 78.127 38.2303 77.39C39.0483 77.248 39.6873 77.344 40.2683 78.002C40.7423 78.542 41.4483 78.563 42.0823 78.319C43.2933 77.855 44.4463 77.199 45.6863 76.841C48.2063 76.112 49.6523 74.246 50.8283 72.144C52.1982 69.702 52.7072 67.081 51.9062 64.301C51.6953 63.576 51.6613 62.794 51.4033 62.091ZM46.5673 68.893C45.6583 69.667 44.8103 70.515 43.8683 71.238C41.9313 72.722 39.6572 72.848 37.4523 72.704C36.9023 72.704 36.4613 72.651 36.0343 72.712C33.4743 73.085 31.6843 71.63 29.9673 70.105C28.8783 69.138 28.2723 67.749 28.1473 66.372C27.9233 63.89 27.8913 61.366 28.7263 58.943C28.8283 58.645 28.9673 58.207 29.1943 58.127C30.6903 57.593 31.8283 56.196 33.5853 56.293C38.0033 56.536 41.7723 58.244 44.9893 61.26C45.6782 61.907 45.8353 62.757 46.0933 63.577C46.3833 64.498 46.1753 65.546 46.8523 66.376C47.5963 67.292 47.4543 68.134 46.5673 68.893Z" fill="#EFD101"/>
</svg>
