<svg width="98" height="101" viewBox="0 0 98 101" fill="none" xmlns="http://www.w3.org/2000/svg">
<path fill-rule="evenodd" clip-rule="evenodd" d="M44.712 36.1639C46.9905 36.8197 49.3521 36.9763 51.7058 37.0927C53.17 37.1632 54.0831 36.3489 54.6077 35.0267C55.0775 33.8415 54.5372 32.9264 53.8208 32.0749C53.3589 31.5259 52.7227 31.2949 52.0024 31.2156C50.4404 31.0443 48.8823 30.8417 47.3271 30.6206C45.1896 30.3162 43.0512 29.9932 40.9753 29.3874C36.8061 28.1718 32.4332 28.1102 28.2268 27.1148C27.3489 26.9054 26.7058 27.337 26.241 28.0593C25.1233 29.7945 24.0222 31.5435 22.8791 33.2621C22.699 33.5312 22.3369 33.681 22.059 33.8855C21.9063 33.6369 21.7242 33.4011 21.6048 33.1378C21.2672 32.3998 21.1263 31.6668 21.5187 30.8731C21.7282 30.4473 21.8329 29.9462 21.8789 29.4696C21.9542 28.668 21.3934 27.8773 20.5948 27.7275C20.0311 27.6218 19.4047 27.5836 18.8586 27.7207C17.6313 28.028 16.9188 29.5136 17.6568 30.4747C18.4789 31.5435 18.4769 32.6318 18.333 33.8092C18.3047 34.0421 18.1079 34.2545 17.9876 34.4776C17.7771 34.2819 17.4855 34.1233 17.37 33.8826C16.1398 31.3213 14.5464 28.9431 13.5051 26.2878C13.3162 25.8063 12.7564 25.4236 12.3561 25.5656C11.1591 25.9884 9.9798 26.4611 8.79459 26.9152C6.45843 29.1672 3.97546 31.288 2.58962 34.3377C1.31241 37.1456 0.527487 40.0523 0.531402 43.1646C0.542168 48.5778 0.490296 53.991 0.482467 59.4052C0.480509 60.7832 0.543146 62.1612 0.587188 63.5383C0.620464 64.5894 1.11177 65.4135 1.9055 66.0731C3.21305 67.1605 5.25071 66.7054 5.84478 65.1228C6.18831 64.2116 6.36252 63.2515 6.26954 62.2327C6.10512 60.474 6.02486 58.7054 5.97691 56.9389C5.92895 55.1684 5.97789 53.396 5.96321 51.6235C5.93776 48.3615 6.47507 45.1641 7.16603 41.997C7.41462 40.8578 7.92844 39.7724 8.3718 38.6821C8.46673 38.4463 8.74468 38.185 8.98348 38.1302C9.38965 38.0323 9.3505 38.4473 9.38769 38.6939C9.75862 41.1211 10.2206 43.5404 10.4545 45.9813C10.7745 49.306 11.4058 52.6042 11.3206 55.966C11.2834 57.4419 11.3568 58.9198 11.3373 60.3947C11.2472 67.089 11.5722 73.7696 11.8785 80.4522C11.8971 80.8457 11.8902 81.244 11.948 81.6316C12.6996 86.5975 12.9923 91.5987 13.0275 96.6165C13.0304 97.0099 12.9903 97.4161 13.0735 97.7939C13.1782 98.2636 13.3368 98.7422 13.5687 99.1621C14.1657 100.246 15.1983 100.658 16.6056 100.446C17.8094 100.263 18.7832 99.3216 18.8997 98.0943C18.9839 97.2164 18.9496 96.3239 18.9457 95.4401C18.9212 89.0413 18.887 82.6445 18.8635 76.2477C18.8596 75.4608 18.8635 74.671 18.9418 73.891C18.9663 73.6502 19.207 73.3185 19.4282 73.2333C20.0604 72.9886 20.725 72.8017 21.3934 72.6833C22.0609 72.5648 22.5101 72.9769 22.515 73.6864C22.5327 76.4425 22.517 79.1995 22.5287 81.9545C22.5346 83.037 22.3859 84.1664 22.6374 85.1921C23.1874 87.4284 23.0122 89.6863 23.1453 91.9363C23.2432 93.5972 23.4967 95.2571 23.7962 96.8964C23.9156 97.5482 24.2689 98.1922 24.6476 98.752C25.2975 99.7102 26.6814 100.069 27.8323 99.6886C28.8218 99.3598 29.5999 98.3331 29.6263 97.2184C29.641 96.6321 29.6517 96.0117 29.4805 95.4646C28.9657 93.8301 29.0508 92.1595 29.0038 90.4898C28.9588 88.92 28.858 87.3511 28.7425 85.7842C28.6642 84.7115 28.4235 83.6448 28.4186 82.575C28.3873 76.1802 28.4019 69.7853 28.4019 63.3885H28.3882C28.3882 56.796 28.4049 50.2015 28.3765 43.608C28.3706 42.2084 28.4528 40.8138 29.089 39.5806C29.684 38.4257 30.0706 37.2337 30.3877 35.9946C30.5081 35.5209 30.6784 35.056 30.8683 34.6049C31.0846 34.091 31.7491 33.6819 32.3128 33.7886C33.3738 33.9873 34.417 34.2721 35.4731 34.4923C36.9108 34.7947 38.3456 35.2351 39.797 35.3183C41.4843 35.4133 43.0982 35.702 44.712 36.1639ZM97.0482 18.2341C96.7791 15.6024 96.9631 12.9256 96.8994 10.2694C96.8593 8.59387 96.0568 7.60929 94.4047 7.60929C93.2195 7.60929 92.3827 6.97117 91.3815 6.6345C90.2394 6.24791 89.0825 7.34895 87.9169 6.66876C84.3153 6.15689 80.7185 5.65384 77.0572 5.81043C75.091 5.8946 73.1199 5.82511 71.1497 5.82511C71.1478 5.79575 71.1468 5.76443 71.1449 5.73409C67.8036 5.8946 64.4623 6.05511 61.122 6.21562C60.6952 6.23617 60.3468 5.95137 60.3429 5.53933C60.3351 4.65556 60.3928 3.7669 60.3341 2.88705C60.2499 1.62452 59.1871 0.525434 57.9744 0.805344C56.6287 1.11559 55.4572 0.756408 54.2133 0.540115C53.8335 0.474542 53.4254 0.496073 53.0388 0.545987C52.3009 0.638964 51.6647 1.00108 51.5512 1.76349C51.3369 3.21002 50.5608 4.54693 50.7966 6.08643C50.8828 6.6531 50.4962 6.95552 49.8737 6.9702C48.2011 7.01228 46.5256 7.06122 44.853 7.04262C41.6957 7.00837 38.5628 7.29219 35.4466 7.74435C34.8907 7.82656 34.3084 8.06928 33.8445 8.3903C32.8423 9.08615 32.9373 10.5444 34.0177 11.067C34.6226 11.3607 35.3057 11.5858 35.9732 11.6435C37.2445 11.7541 38.5286 11.7453 39.8097 11.7453C45.126 11.7502 50.4433 11.7825 55.7606 11.7218C59.5962 11.6778 63.4278 11.6112 67.2653 11.393C72.0766 11.1199 76.9114 11.2765 81.7364 11.2638C82.2248 11.2628 82.7161 11.3528 83.1995 11.4331C84.8643 11.7101 86.5007 11.806 88.1577 11.2745C88.8858 11.0406 89.7099 11.0739 90.4919 11.0436C91.0634 11.022 91.3844 11.392 91.3884 11.9684C91.3942 12.5498 91.3022 13.1478 91.406 13.7115C91.7152 15.3802 91.7006 17.0616 91.4618 18.7137C91.0223 21.7506 91.1329 24.8022 91.0517 27.8489C91.0037 29.6458 91.2415 31.4006 91.8053 33.0791C92.1273 34.0382 92.3093 34.9621 92.2702 35.9565C92.0294 42.3464 91.7926 48.7383 91.5538 55.1293C91.5498 55.2271 91.5361 55.326 91.5156 55.4219C91.4207 55.8506 91.1603 56.1217 90.716 56.108C88.0568 56.0316 85.4153 56.0512 82.7846 56.6179C81.7452 56.842 80.6265 56.7275 79.5441 56.7324C77.7707 56.7422 75.9982 56.702 74.2248 56.7187C72.059 56.7392 69.8725 56.6208 67.7321 56.8792C64.0033 57.3304 60.2695 57.3118 56.5328 57.4204C51.6158 57.5633 46.6998 57.7815 41.7847 57.9499C40.8736 57.9822 40.0015 58.1681 39.2832 58.7035C38.9299 58.9658 38.6441 59.4581 38.5511 59.8955C38.416 60.5239 38.7958 61.0338 39.3478 61.343C40.1386 61.7884 41.0008 61.9166 41.9061 61.9342C43.8743 61.9733 45.8415 62.0898 47.8096 62.1299C48.6944 62.1495 49.3296 62.4167 49.586 63.3337C49.9344 64.5816 50.7301 65.3195 52.0288 65.6092C52.756 65.7717 52.9968 66.2561 52.9703 66.8933C52.8637 69.4487 52.7071 72.0031 52.6748 74.5585C52.6611 75.6556 52.2608 76.3906 51.4161 77.0473C49.0085 78.9196 46.6303 80.832 44.2687 82.7629C42.8212 83.9462 41.3864 85.15 40.0133 86.4174C38.6959 87.633 38.6049 89.1911 39.1706 90.7775C39.7803 92.4844 41.7515 93.1832 43.2958 92.2133C44.2041 91.6457 45.0047 90.894 45.8072 90.1737C48.5916 87.677 51.3476 85.15 54.1301 82.6504C54.9728 81.8929 55.5062 81.9056 56.4849 82.5829C58.9091 84.2653 61.3539 85.9183 63.7566 87.633C65.5956 88.9464 67.3827 90.3313 69.1904 91.6897C69.7404 92.1047 70.2503 92.5793 70.8258 92.9532C71.9073 93.6588 73.0895 93.6451 74.1994 93.0922C75.3817 92.502 75.7976 91.4245 75.7193 90.1316C75.6772 89.4181 75.4913 88.7624 74.9657 88.2613C74.2542 87.584 73.5622 86.8657 72.7724 86.2902C70.4666 84.6156 68.1109 83.0096 65.7884 81.3556C65.5662 81.196 65.4419 80.8985 65.2717 80.6646C65.5202 80.5863 65.7757 80.4219 66.0174 80.4415C67.6802 80.5804 69.3401 80.7879 71.0059 80.9103C71.9885 80.9807 72.9652 80.9925 73.8979 81.3908C74.2513 81.5415 74.6594 81.5846 75.0489 81.6267C76.3721 81.7627 77.4976 81.1314 77.9292 80.0392C78.4235 78.7845 78.0594 77.3889 76.9309 76.6402C76.285 76.2115 75.5657 75.8161 74.8248 75.6262C73.6895 75.3336 72.5082 75.1124 71.3386 75.0742C67.7987 74.9588 64.2881 74.3481 60.7324 74.5007C59.8428 74.5389 59.4445 74.1817 59.327 73.341C59.0706 71.4932 58.8259 69.6434 58.6233 67.7878C58.4706 66.3834 59.1352 65.4047 60.6483 65.0778C61.855 64.8174 62.5969 64.2674 62.8445 63.0401C62.9756 62.3951 63.4268 62.0595 64.107 62.0213C66.8552 61.8686 69.6024 61.6298 72.3536 61.5564C77.5603 61.4155 82.7904 61.7815 87.9551 60.795C88.8173 60.6296 89.6962 60.5209 90.5398 60.2821C92.046 59.8554 93.5376 59.3739 95.0203 58.8708C95.815 58.6007 96.3249 58.0986 96.3279 57.1405C96.3328 55.4679 96.3455 53.7865 96.5099 52.1246C96.9621 47.5238 97.4025 42.916 97.4318 38.2985C97.4778 31.613 97.7323 24.9196 97.0482 18.2341ZM55.6422 6.2303C55.5717 6.37417 55.0882 6.43876 54.8622 6.35459C54.3562 6.16668 54.1761 5.41014 54.4041 4.58216C54.4452 4.4334 54.6674 4.33748 54.8064 4.21515C54.9806 4.27974 55.2155 4.29344 55.3182 4.41578C55.7675 4.95015 55.9573 5.58337 55.6422 6.2303ZM47.3516 43.0844C46.8446 43.3574 46.3602 43.7225 45.9677 44.1404C45.2728 44.8813 45.6966 46.3033 46.6978 46.5157C47.3516 46.6537 48.0798 46.6762 48.7316 46.5392C49.6858 46.3395 50.6068 45.9647 51.5316 45.6378C54.4237 44.6131 57.0711 43.099 59.6422 41.4587C60.4897 40.9185 61.0965 40.7022 61.9666 41.4411C62.9316 42.2613 64.0307 42.9189 65.3079 43.2576C67.3465 43.7988 68.3419 43.3838 69.4233 41.5106C70.357 39.8957 71.3504 38.3132 72.3555 36.7414C72.8644 35.9467 73.5603 35.7177 74.3912 36.0651C75.1135 36.3675 75.779 36.8001 76.4935 37.1241C77.2941 37.4852 78.0976 37.8982 78.9441 38.0949C80.7684 38.5187 82.2678 37.5772 82.7895 35.8048C82.8727 35.5239 82.9284 35.2322 82.9911 34.9445C83.6566 31.8723 84.3985 28.8217 85.5034 25.8709C85.6727 25.4178 85.7168 24.9177 85.7677 24.6779C85.7823 22.9387 84.6979 21.8338 83.1888 21.776C81.8294 21.7261 80.8908 22.3916 80.4474 23.6003C79.7731 25.4403 79.225 27.3292 78.6329 29.1985C78.4264 29.8523 78.2737 30.5237 78.0457 31.1696C77.9557 31.426 77.7854 31.6922 77.388 31.5464C76.835 31.3419 76.2664 31.1774 75.7056 30.9934C74.1201 30.4757 72.607 30.6646 71.1429 31.4348C69.7208 32.1806 68.5239 33.1456 67.7057 34.5696C67.1684 35.5043 66.5489 36.4008 65.8863 37.2513C65.6935 37.4999 65.1914 37.6868 64.887 37.6261C64.4261 37.5341 64.0111 37.2053 63.5853 36.9645C63.1567 36.7218 62.7623 36.4067 62.3121 36.2266C61.0065 35.7069 59.8007 36.022 58.6899 36.7962C56.1844 38.5451 53.5223 40.0288 50.7859 41.3804C49.6418 41.9471 48.4761 42.4785 47.3516 43.0844ZM11.2071 16.0291C12.3698 16.448 12.7114 17.4521 13.051 18.4993C13.6304 20.2962 14.5523 21.8895 15.8599 23.2803C16.9403 24.4312 18.289 24.8805 19.9538 25.1232C21.0754 25.0478 22.3731 24.8403 23.1375 23.663C23.7697 22.6882 24.2591 21.6038 24.6985 20.5223C24.9902 19.8039 25.1712 19.0102 25.2349 18.238C25.3278 17.0773 25.6655 16.1358 26.7812 15.6043C26.9554 15.5221 27.1159 15.3939 27.2588 15.2637C28.3422 14.2733 28.5683 12.8336 27.9224 11.5055C27.5906 10.8234 26.9897 10.5239 26.3809 10.2117C25.7947 9.9112 25.5177 9.44534 25.5255 8.79548C25.5441 7.40572 25.3425 6.05804 24.7935 4.77007C24.2268 3.43806 23.3019 2.26948 21.9621 1.94455C19.1238 1.25457 16.5078 1.34852 14.5592 4.54595C13.7928 5.80554 13.0794 7.10526 12.7838 8.56744C12.5616 9.66946 12.0341 10.4045 11.1014 11.1248C9.01382 12.7377 9.47871 14.2175 10.9761 15.851C11.0407 15.9224 11.119 15.9978 11.2071 16.0291ZM19.8216 8.05754C20.175 7.36755 20.4784 6.6482 20.7935 5.93864C21.0166 5.43657 21.1879 5.80554 21.3377 5.97583C22.1392 6.89777 22.5454 7.9626 22.5131 9.19773C22.4886 10.1735 22.5082 11.1522 22.5082 11.4585C22.6462 14.4886 22.5552 16.8287 21.5628 19.0239C21.3788 19.433 20.9892 19.7638 20.6467 20.078C20.5498 20.167 20.2513 20.1269 20.1025 20.0427C19.9763 19.9723 19.8305 19.709 19.8735 19.6053C20.2092 18.7949 20.5723 17.9943 20.9579 17.2065C21.2603 16.5879 21.1674 16.0457 20.6428 15.6425C20.0927 15.2177 19.9215 14.7098 20.2063 14.1147C20.6438 13.2016 20.3727 12.4999 19.8716 11.6758C19.1865 10.5425 19.1933 9.28287 19.8216 8.05754Z" fill="#67BB25"/>
</svg>
