<svg width="90" height="101" viewBox="0 0 90 101" fill="none" xmlns="http://www.w3.org/2000/svg">
<path fill-rule="evenodd" clip-rule="evenodd" d="M14.895 99.478C15.1034 99.1916 15.3395 98.8534 15.3735 98.5207C15.5506 96.7634 16.4245 95.2589 17.0301 93.6616C17.7725 91.7034 18.2117 89.6806 18.4693 87.6097C18.5015 87.3533 18.4576 87.077 18.4031 86.8197C18.2349 86.0406 17.3378 85.6715 16.7277 86.1361C16.4451 86.3515 16.1446 86.5797 15.9523 86.8715C15.2081 87.9988 14.4415 89.1161 14.0238 90.4288C13.8055 91.117 13.5479 91.7934 13.302 92.4716C13.2733 92.5498 13.1597 92.6743 13.1508 92.6689C13.0014 92.5752 12.7993 92.4961 12.7331 92.3552C12.4612 91.787 12.242 91.1961 11.988 90.6188C11.8145 90.2234 11.9057 89.8997 12.2626 89.6997C13.5864 88.9552 14.0435 87.8388 13.9719 86.3079C13.8851 84.4079 14.0488 82.4988 14.0265 80.5951C13.9907 77.6014 14.0247 74.5987 13.7912 71.6196C13.4066 66.7423 13.0935 61.8631 12.954 56.974C12.8771 54.254 12.8994 51.5321 12.8771 48.8103C12.8717 48.1757 12.8637 47.5403 12.8771 46.9048C12.8959 45.8957 12.9728 45.8384 13.8843 45.9784C15.293 46.1966 16.6982 46.5003 18.1151 46.5948C21.5847 46.8275 25.0579 47.0575 28.5346 47.1157C34.2449 47.2103 39.9578 47.2094 45.6698 47.1548C47.1108 47.1412 48.3004 47.3721 49.1645 48.6257C49.4713 49.0694 49.8416 49.4667 50.1699 49.8948C50.3497 50.1276 50.2244 50.4939 49.9677 50.5112C49.6144 50.5339 49.2584 50.5712 48.9078 50.5503C46.5947 50.4012 44.2861 50.1339 41.9721 50.0985C34.8334 49.9903 27.6938 49.9648 20.5534 49.9185C18.666 49.9057 16.8503 50.4212 15.0149 50.7685C14.7653 50.8148 14.539 50.9994 14.31 51.1349C14.2465 51.173 14.1642 51.2767 14.1776 51.3267C14.1973 51.403 14.2832 51.4821 14.3592 51.5167C14.6857 51.6585 15.0086 51.8376 15.3503 51.9085C18.6696 52.6003 21.9872 53.2794 25.3995 53.2803C27.0937 53.2812 28.8021 53.2412 30.4828 53.4185C33.693 53.7594 36.9148 53.7758 40.1063 53.5512C43.2262 53.3321 46.3461 53.3585 49.4606 53.1949C50.262 53.1521 51.0661 53.1794 51.8676 53.2058C52.0044 53.2103 52.1457 53.3658 52.2602 53.4785C52.2853 53.504 52.2298 53.663 52.1726 53.7221C51.4266 54.5003 50.7003 55.304 49.9132 56.0385C49.1681 56.7331 48.2924 57.114 47.2298 57.0022C45.6341 56.8358 44.0348 56.6304 42.4373 56.6167C35.3862 56.5549 28.3352 56.5176 21.2841 56.5613C19.6938 56.5713 18.1025 56.9285 16.5193 57.1667C16.0846 57.2322 15.6714 57.4422 15.2537 57.6013C14.8252 57.764 14.3771 58.0076 14.4692 58.5258C14.5202 58.8131 14.8458 59.1786 15.1258 59.274C16.2188 59.6431 17.3261 60.0895 18.4567 60.194C21.2081 60.4495 23.9729 60.6286 26.7332 60.6622C33.3307 60.7404 39.9238 60.5349 46.5008 59.9049C46.779 59.8786 47.279 60.1422 47.3532 60.3758C47.6779 61.4131 48.2969 62.0331 49.3031 62.424C50.2665 62.7986 50.7334 63.7313 51.1592 64.6413C51.2683 64.8741 51.2119 65.0022 50.9642 65.0341C50.7012 65.0677 50.4364 65.1222 50.1735 65.1232C42.6761 65.1541 35.1778 65.2486 27.6813 65.1677C24.6616 65.135 21.6419 64.7141 18.6222 64.4659C18.2689 64.4368 17.9165 64.3304 17.5659 64.3441C16.9397 64.3668 16.2304 65.0822 16.1061 65.7504C15.9701 66.4832 16.3557 67.2004 17.1303 67.4323C17.8065 67.6359 18.5167 67.7604 19.2197 67.825C20.463 67.9414 21.7233 67.905 22.9595 68.075C26.7636 68.6014 30.5964 68.7877 34.4193 68.8768C40.3022 69.015 46.1913 69.0514 52.0706 68.5459C54.9382 68.3005 54.9481 68.4286 56.8765 70.5687C56.9356 70.635 57.0089 70.695 57.0545 70.7705C57.2835 71.1441 57.5071 71.5214 57.7317 71.8978C57.2603 72.3623 56.7469 72.0723 56.2397 71.9923C55.8014 71.9232 55.3586 71.8523 54.915 71.8314C50.2817 71.6196 45.6502 71.375 41.0169 71.2232C37.3594 71.1041 33.6975 71.0723 30.0382 71.0568C27.4515 71.045 24.8647 71.1387 22.2743 71.1568C21.0077 71.1668 19.7958 71.4414 18.6052 71.8323C17.7948 72.0978 17.1929 72.6878 17.3288 73.0314C17.5515 73.585 18.0292 73.8269 18.5444 74.0078C20.2448 74.606 22.0247 74.816 23.7976 74.8805C30.0373 75.1069 36.2798 75.3042 42.5231 75.4132C47.9659 75.5069 53.4123 75.4651 58.8578 75.4823C59.4812 75.4842 60.11 75.4478 60.7299 75.5005C61.0689 75.5287 61.4982 75.6051 61.7129 75.8305C62.7621 76.9314 63.7585 78.0869 64.7514 79.2415C64.7916 79.2869 64.6485 79.6178 64.551 79.6406C64.2147 79.7215 63.8569 79.766 63.5117 79.7496C61.7317 79.6642 59.9544 79.4896 58.1753 79.4696C53.8023 79.4178 49.4275 79.4206 45.0553 79.4269C40.592 79.4333 36.1259 79.5842 31.667 79.4651C27.2001 79.3451 22.7663 80.1433 18.302 79.7933C18.2143 79.7869 18.124 79.8005 18.0364 79.8106C17.4263 79.8806 16.9737 80.5306 17.0623 81.2087C17.1589 81.9533 17.6347 82.4515 18.5122 82.5615C20.7215 82.8378 22.9085 83.2497 25.1572 83.2397C37.2959 83.1815 49.4346 83.176 61.5725 83.1433C63.0895 83.1397 64.611 83.136 66.1226 83.0333C67.458 82.9433 68.7639 82.7951 70.0573 83.3506C70.7022 83.6288 71.2988 83.2651 71.7058 82.7524C72.1772 82.1569 72.3847 81.4633 71.925 80.7415C71.3454 79.8296 70.7997 78.8878 70.153 78.0269C67.0457 73.9051 63.3319 70.3559 59.5868 66.8677C57.4794 64.9041 55.5581 62.7586 53.4508 60.804C53.0438 60.4277 53.0912 59.994 53.5009 59.6567C54.7468 58.6285 56.0098 57.6194 57.2379 56.5694C58.1359 55.8003 58.8524 54.8631 59.263 53.7385C59.7317 52.4576 59.6583 51.2785 58.5644 50.2676C56.8479 48.683 55.1869 47.0348 53.4946 45.4221C51.4132 43.4384 49.2861 41.5011 47.2539 39.4657C46.4498 38.6602 45.4623 37.9584 45.1135 36.762C45.7459 36.0111 46.3559 35.2383 47.0151 34.5138C48.0974 33.322 48.728 31.771 50.0107 30.7283C50.3005 30.4919 50.4024 29.9292 50.4552 29.5001C50.55 28.7183 50.1073 28.1528 49.6028 27.5956C48.033 25.8619 46.457 24.1301 44.9641 22.3282C43.2405 20.2491 41.6009 18.1 39.9319 15.9745C39.6439 15.6064 39.7879 15.2118 40.2002 15.1645C40.3773 15.1427 40.5553 15.1254 40.7333 15.1191C45.7253 14.9382 50.7155 14.7591 56.4517 14.5536C60.3399 14.3591 64.9714 14.1309 69.6029 13.89C70.0448 13.8663 70.4822 13.7545 70.9259 13.6991C71.5565 13.6209 71.6522 13.7345 71.5797 14.4409C71.3946 16.2527 72.1477 17.0755 73.7863 16.8382C74.1379 16.7855 74.4894 16.7036 74.8275 16.5964C76.9536 15.9236 79.052 15.1427 81.2041 14.5891C83.3249 14.0454 85.3213 12.8909 87.6693 13.32C88.6917 13.5063 89.706 12.4672 89.9466 11.3936C90.163 10.4345 89.7113 9.36267 88.7784 8.86903C88.1523 8.53902 87.4725 8.23175 86.7838 8.11357C83.5235 7.55447 80.3839 6.54719 77.2264 5.59081C76.5645 5.39172 75.8096 5.30899 75.1307 5.41081C73.2371 5.69082 72.6996 6.68992 73.2255 8.69448C73.2479 8.78175 73.3507 8.88357 73.3266 8.93812C73.2291 9.14903 73.1289 9.48267 72.9733 9.51812C72.5457 9.61721 72.0904 9.60176 71.6468 9.60994C64.7791 9.73722 57.9123 9.72812 51.0456 10.0472C41.2414 10.5027 31.4148 10.0954 21.6088 10.6481C20.7949 10.6945 20.0095 10.6418 19.2761 10.2227C18.4737 9.76539 17.5855 9.67358 16.6857 9.65267C16.1499 9.63903 15.6159 9.63176 15.0793 9.6163C13.1392 9.56448 13.0685 9.50448 13.0318 7.66356C13.0068 6.39446 12.9817 5.12354 13.0041 3.85443C13.0256 2.55624 12.4281 1.6126 11.4844 0.825316C10.9245 0.35713 10.3395 0.400767 9.82072 0.914408C9.26257 1.46623 9.09799 2.13896 9.10336 2.8917C9.1123 4.61444 9.1302 6.33809 9.11498 8.06174C9.10693 8.97448 8.87706 9.21175 8.02643 9.22266C6.50942 9.24084 4.99241 9.2163 3.4754 9.22903C2.9432 9.23357 2.39758 9.22994 1.88148 9.33903C0.642646 9.59903 -0.0192494 10.4354 0.00042676 11.6145C0.0165247 12.6927 0.59703 13.4427 1.71869 13.7463C2.14355 13.8618 2.59705 13.9018 3.03891 13.9127C4.02013 13.9372 5.00136 13.9127 5.98258 13.9227C6.78402 13.93 7.58635 13.9263 8.38063 14.0036C8.56757 14.0227 8.8699 14.3436 8.87438 14.5291C8.8869 15.2491 8.76704 15.9709 8.76078 16.6927C8.71874 20.6837 8.63645 24.6764 8.6767 28.6665C8.8055 41.4502 8.14986 54.2421 9.11946 67.0177C9.40748 70.8114 9.7912 74.5996 9.80462 78.4133C9.81088 80.3133 9.98262 82.2115 10.0604 84.1115C10.09 84.836 10.081 85.5615 10.064 86.287C10.0542 86.7033 9.81446 86.9415 9.39495 86.9279C9.22053 86.9215 9.04879 86.827 8.87438 86.8097C7.21067 86.6415 6.23034 87.5052 6.35199 89.0752C6.39314 89.6097 6.47454 90.1788 6.69725 90.6552C7.96024 93.3507 8.91999 96.2025 10.6418 98.6634C10.8994 99.0316 11.115 99.4416 11.4263 99.758C12.4987 100.847 13.9853 100.723 14.895 99.478ZM16.6392 25.4973C15.8404 25.5001 15.0408 25.611 14.242 25.6664C13.8395 25.6946 13.403 26.2064 13.0533 25.6964C12.8717 25.4301 12.8512 25.0183 12.8458 24.671C12.8243 23.2191 12.8377 21.7673 12.8377 20.3155L12.9111 20.3155C12.9111 18.6827 12.8941 17.0491 12.9182 15.4164C12.9299 14.7263 13.2438 14.4873 13.9469 14.5209C14.1249 14.5282 14.3047 14.5363 14.48 14.5654C19.6187 15.4382 24.8056 15.0773 29.9729 15.2C30.7753 15.2182 31.5794 15.1982 32.3835 15.2045C32.9452 15.2082 33.43 15.3609 33.71 15.9245C34.066 16.6445 34.439 17.3564 34.8075 18.0718C34.0374 18.78 33.1197 18.4009 32.2762 18.3773C28.2636 18.2655 24.2546 18.0955 20.2439 17.9573C19.6204 17.9355 18.9755 17.8809 18.3754 18.0091C17.8825 18.1146 17.3637 18.3818 16.9916 18.7291C16.2465 19.4237 16.5238 20.8528 17.4558 21.2228C17.9397 21.4155 18.4854 21.5482 19.0024 21.54C22.0319 21.5 25.0588 21.5937 28.0928 21.29C30.8388 21.0155 33.6206 21.0909 36.3871 21.0009C37.066 20.9782 37.5768 21.2428 38.0097 21.7682C38.982 22.951 39.9837 24.1092 40.9614 25.2873C41.0687 25.4164 41.0965 25.6137 41.1609 25.7783C40.9238 25.8655 40.6832 26.031 40.448 26.0264C38.7521 25.9946 37.0553 25.9483 35.3612 25.8664C33.2261 25.7646 31.0919 25.5492 28.9559 25.5183C24.853 25.4574 20.7466 25.4837 16.6392 25.4973ZM39.6358 31.5947C36.6098 31.4301 33.5749 31.4492 30.5427 31.3938C28.4917 31.3938 26.4416 31.4047 24.3897 31.391C22.4317 31.3774 20.4809 31.3465 18.5238 31.1083C16.8601 30.9065 15.149 30.7774 13.4674 31.171C13.3369 31.2019 13.0748 31.1483 13.0435 31.0665C12.7215 30.2001 12.7268 29.3165 13.0399 28.4501C13.0792 28.3383 13.3279 28.2074 13.4504 28.2328C16.98 28.9601 20.5552 28.6774 24.1088 28.6492C28.0257 28.6183 31.9407 28.3774 35.8567 28.251C37.371 28.2028 38.888 28.2165 40.4041 28.2056C41.2047 28.1992 41.9963 28.2365 42.7369 27.7883C43.2208 27.4983 43.5553 27.8765 43.8299 28.2456C44.1636 28.6983 43.9802 29.0892 43.6582 29.4456C43.4176 29.7128 43.1376 29.9456 42.9149 30.2256C42.0643 31.2983 41.0204 31.6701 39.6358 31.5947ZM40.8478 43.8184C39.4301 43.6993 38.0159 43.5475 36.6018 43.393C32.2565 42.9184 27.8888 42.9366 23.5283 42.763C22.5525 42.7248 21.5811 42.5748 20.6079 42.482C18.726 42.302 16.8843 42.7739 15.0202 42.8339C14.3485 42.8548 13.5238 43.5566 13.0739 42.9102C12.7241 42.4075 12.8699 41.5275 12.8565 40.8129C12.8288 39.1838 12.8306 37.552 12.8377 35.922C12.8449 34.5211 12.8529 34.5574 14.4496 34.6365C16.0515 34.7165 17.6571 34.742 19.2609 34.7438C24.786 34.7474 30.311 34.7311 35.8352 34.7211C36.5481 34.7211 37.2628 34.6929 37.9721 34.7329C38.1805 34.7456 38.532 34.8338 38.3549 35.2356C38.2843 35.3993 38.193 35.5565 38.1268 35.7238C37.8621 36.3811 37.7735 37.2456 37.3013 37.6538C36.6027 38.2584 35.5732 37.9456 34.7234 37.8202C32.1518 37.4393 29.5651 37.562 26.989 37.4211C25.125 37.3184 23.2627 37.1447 21.3968 37.0711C19.5355 36.9965 17.6562 36.742 15.8369 37.4193C15.2608 37.6347 14.9657 38.0329 14.9451 38.632C14.9236 39.2229 15.1437 39.6966 15.6535 39.9866C15.963 40.1611 16.2957 40.3266 16.6383 40.3984C17.3324 40.5438 18.0399 40.6266 18.7439 40.7293C22.9926 41.3466 27.2699 41.2511 31.5454 41.3166C34.4846 41.2584 37.4256 41.2293 40.3639 41.1257C41.3389 41.0902 42.0902 41.3275 42.6653 42.1575C42.9712 42.5975 43.3916 42.953 43.7289 43.373C43.8049 43.4675 43.7682 43.6766 43.7405 43.8239C43.7289 43.8793 43.5902 43.9457 43.5133 43.9439C42.6224 43.9102 41.7333 43.893 40.8478 43.8184Z" fill="#EFD101"/>
</svg>
