<svg width="100" height="99" viewBox="0 0 100 99" fill="none" xmlns="http://www.w3.org/2000/svg">
<path fill-rule="evenodd" clip-rule="evenodd" d="M71.0182 27.6558C72.5444 27.5552 74.0706 27.4486 75.5987 27.3944C76.387 27.3677 76.7766 27.7919 76.8358 28.6532C76.8822 29.3221 76.8852 29.9929 76.8901 30.6637C76.9513 36.6056 77.0055 42.5495 77.0657 48.4924C77.0736 49.2579 77.0854 50.0274 77.1397 50.789C77.1713 51.2103 77.4751 51.5161 77.8825 51.5141C79.3179 51.5033 80.7563 51.4559 82.1888 51.3632C82.3693 51.3504 82.6465 50.9844 82.6712 50.7604C82.7471 50.0018 82.7402 49.2323 82.7491 48.4657C82.7965 43.4808 82.8142 38.4968 82.8902 33.5138C82.9711 28.152 83.1102 22.7882 83.2138 17.4245C83.2434 15.8904 83.2256 14.3573 83.2592 12.8242C83.2789 11.9285 83.2335 10.9331 82.4818 10.4635C81.1282 9.61801 80.4367 7.82548 78.5771 7.73077C78.0996 7.7071 77.6211 7.67947 77.1426 7.67257C76.4728 7.66172 75.799 7.67947 75.1281 7.66764C73.6868 7.63903 73.5773 7.57194 73.2557 6.07438C73.0554 5.14014 73.0633 4.1536 72.7831 3.24994C72.5977 2.6521 72.1764 1.97928 71.6624 1.66655C70.8614 1.17822 69.8502 1.01642 68.9209 1.26996C68.546 1.37059 68.175 1.88753 68.0221 2.29596C67.8298 2.81685 67.8268 3.41962 67.8051 3.98984C67.7726 4.94776 67.81 5.90569 67.7775 6.86262C67.7647 7.27204 67.5082 7.58871 67.082 7.63409C66.4151 7.70414 65.7452 7.74853 65.0744 7.74853C63.1733 7.74656 62.5212 8.02377 62.4305 5.47654C62.3999 4.63602 62.0743 3.79746 61.8316 2.96976C61.6965 2.51596 61.5199 2.04834 61.2516 1.66359C60.4485 0.507373 59.2203 0.241009 57.9398 0.388002C56.8516 0.514279 56.7835 1.54422 56.5892 2.36304C56.4373 3.01021 56.3741 3.68204 56.3071 4.34598C56.2419 5.01287 56.235 5.6847 56.1768 6.35259C56.1413 6.77285 55.9045 7.06585 55.4724 7.12208C54.7128 7.22271 53.9492 7.28486 53.1906 7.38845C51.7749 7.58181 51.5776 7.47132 51.2057 6.11187C51.0814 5.65116 51.0617 5.15691 50.8989 4.71198C50.3435 3.18976 49.9163 1.54323 47.9649 1.1644C47.8791 1.14961 47.7943 1.06674 47.738 0.992747C47.1461 0.179844 46.3894 -0.068763 45.4927 0.418585C44.6896 0.853646 44.6808 1.66754 44.6936 2.43703C44.7212 4.06481 44.7962 5.69457 44.8337 7.32235C44.8504 8.04942 44.5269 8.44601 43.8797 8.45982C42.6337 8.4904 41.3877 8.49928 40.1407 8.48054C39.3505 8.46969 39.1019 8.27139 38.9381 7.54333C38.7477 6.70478 38.653 5.84057 38.4242 5.01287C38.1726 4.09836 37.8569 3.19568 37.4929 2.32161C37.2137 1.64879 36.6168 1.38144 35.8907 1.28871C34.4553 1.1062 33.3317 1.92108 32.1192 2.42717C31.843 2.54259 31.5973 3.02402 31.5589 3.3624C31.477 4.1171 31.5381 4.8866 31.5362 5.65215C31.5342 6.51142 31.5638 7.37464 31.5016 8.23095C31.4868 8.44108 31.1938 8.75381 30.9827 8.80314C30.521 8.90771 30.0297 8.89488 29.5523 8.89094C28.6042 8.88009 27.6581 8.84358 26.7101 8.81892C25.9721 7.99812 26.4111 6.99087 26.2829 6.07537C26.2562 5.88793 26.2799 5.68964 26.2405 5.50318C25.9494 4.14571 25.3595 2.97765 24.1184 2.23479C23.417 1.81453 22.6396 1.90924 21.9934 2.43506C20.8767 3.34859 20.3676 4.43082 20.5195 5.94416C20.8678 9.42169 20.927 9.2234 17.1851 9.45819C16.2192 9.51739 15.942 9.29048 15.9282 8.37103C15.9085 7.21679 15.8552 6.07636 15.3896 4.99512C14.9229 3.91387 13.672 3.10294 12.6756 3.24106C11.4799 3.4068 10.6108 4.23548 10.3987 5.49134C10.305 6.05367 10.3227 6.63769 10.303 7.20988C10.2783 7.88073 10.2961 8.55058 10.2487 9.21847C10.2182 9.64366 9.92714 9.96231 9.49997 9.91101C7.39964 9.66635 5.32101 10.057 3.23548 10.1399C0.893446 10.2336 -0.286449 11.6917 0.0637709 13.9815C0.733627 18.3765 0.520536 22.7843 0.271929 27.1773C0.126909 29.7601 0.0548921 32.3379 0.0124711 34.9226C-0.0555997 39.14 0.163411 43.3446 0.464304 47.5473C0.689233 50.6983 0.856944 53.8552 1.17066 56.9973C1.66492 61.9507 2.14832 66.9041 2.24204 71.8841C2.27854 73.7348 2.71557 75.4603 3.35485 77.1729C3.92506 78.7079 5.09213 79.7556 6.39534 80.4778C8.76401 81.7918 11.4286 82.4469 14.1219 82.3039C16.238 82.1934 18.3206 82.3512 20.4209 82.3857C23.6784 82.442 26.9389 82.4015 30.1974 82.4015V82.5495C33.3593 82.5495 36.5241 82.5554 39.6869 82.5446C40.4525 82.5396 41.2427 82.584 41.9786 82.4203C43.9616 81.9822 45.9721 81.9892 47.9797 81.8619C49.6983 81.7514 51.4109 81.5669 53.1215 81.3913C53.5349 81.3499 53.8299 81.0875 53.8378 80.6455C53.8526 79.4005 53.8585 78.1565 53.8348 76.9105C53.8249 76.4843 53.525 76.2199 53.1038 76.1873C52.6292 76.1489 52.1478 76.1568 51.6694 76.1686C48.6081 76.2574 45.5568 76.4221 42.4976 76.6757C36.9582 77.1374 31.3813 77.0782 25.834 76.7013C23.634 76.5533 21.4627 76.3038 19.2607 76.6096C18.6037 76.7033 17.9151 76.6816 17.2512 76.6204C14.9338 76.4073 13.5023 74.8733 12.2277 73.1429C12.0689 72.9278 12.0156 72.6082 11.987 72.328C11.6003 68.7153 11.1465 65.1056 10.8732 61.4831C10.5417 57.091 10.4638 52.6792 10.0781 48.2921C9.87584 46.0004 9.6657 43.7176 9.64597 41.4189C9.62328 38.7356 9.61736 36.0512 9.62723 33.3668C9.63709 30.7762 9.31549 30.6598 12.2534 30.6489C12.6332 30.646 13.013 30.572 13.3928 30.5158C18.1361 29.7985 22.902 29.472 27.7025 29.472C32.6786 29.472 37.6497 29.6032 42.6367 29.2264C47.596 28.8505 52.5839 28.8199 57.553 28.449C61.366 28.1639 65.1809 27.7623 69.0185 27.8521C69.6825 27.8679 70.3494 27.7012 71.0182 27.6558ZM58.4488 22.7093C54.6201 22.806 50.8042 23.0664 47.0228 23.7166C46.273 23.8458 45.4927 23.8054 44.7271 23.8132C39.7431 23.8616 34.7602 23.8941 29.7752 23.9415C27.0021 23.9701 24.2358 23.9168 21.4646 24.3213C19.683 24.5818 17.8312 24.3697 16.0111 24.3697V24.4999C14.2856 24.4999 12.5612 24.5147 10.8357 24.4959C10.0564 24.488 9.7318 24.2069 9.72687 23.5104C9.70319 20.6366 9.70221 17.7619 9.69431 14.8871C9.69431 14.7924 9.69135 14.674 9.74463 14.6099C9.85611 14.4727 9.99126 14.2912 10.1402 14.2646C10.2813 14.2409 10.5585 14.3593 10.596 14.4737C10.8032 15.1022 10.961 15.7473 11.1228 16.3886C11.2155 16.7595 11.2629 17.1463 11.3704 17.5123C11.7157 18.6665 12.5957 19.366 13.6444 19.3433C14.6753 19.3206 15.6579 18.6053 15.9854 17.5359C16.2084 16.8079 16.3238 16.0423 16.4777 15.2935C16.5655 14.8654 16.822 14.603 17.2482 14.6049C18.2042 14.6099 19.1631 14.6375 20.117 14.6987C20.853 14.747 21.0878 14.9966 21.2032 15.7513C21.2733 16.2209 21.2506 16.7171 21.3946 17.163C21.7784 18.3548 23.0184 18.8243 24.1668 18.266C25.323 17.7036 26.3598 17.0732 26.3687 15.5471C26.3697 15.0015 26.8304 14.749 27.3572 14.7273C28.3171 14.6878 29.2741 14.6582 30.232 14.6444C31.4336 14.6266 32.0176 14.5872 32.0719 16.1321C32.0926 16.6895 32.2603 17.2666 32.4724 17.7895C33.1837 19.5317 34.9466 20.0901 36.4462 19.0414C37.8194 18.0815 38.8247 16.8848 39.0989 15.1219C39.2962 13.8414 39.5488 13.72 40.7622 13.5523C41.9924 13.3836 43.2227 13.1893 44.4588 13.0531C44.8544 13.0097 45.1987 13.2208 45.3013 13.6579C45.4749 14.4027 45.615 15.1564 45.8153 15.8924C45.9386 16.3501 46.0994 16.8089 46.3233 17.2242C46.8107 18.1328 47.593 18.6537 48.6298 18.703C49.714 18.7533 50.4845 18.1417 50.9166 17.2469C51.2846 16.4882 51.4602 15.625 51.6388 14.7934C51.7572 14.236 51.7197 13.647 51.7789 13.0778C51.8213 12.6496 52.1005 12.3773 52.5079 12.3211C53.0752 12.2471 53.6533 12.253 54.2245 12.1988C56.3278 12.0005 56.3998 12.0409 56.6859 14.1255C56.7766 14.7874 56.75 15.4652 56.8408 16.1291C56.9937 17.2656 57.8677 18.0006 59.0092 18.0144C60.9674 18.0371 62.7728 16.5889 63.123 14.6809C63.2098 14.2123 63.1792 13.724 63.2276 13.2485C63.2897 12.6526 63.6232 12.2767 64.1066 12.3517C65.3309 12.5441 66.5522 12.77 67.7617 13.0462C67.9659 13.0936 68.1918 13.4389 68.2392 13.6825C68.3507 14.2409 68.3201 14.8289 68.4187 15.3922C68.6654 16.7891 69.7476 17.7786 71.1534 17.9444C72.3284 18.0835 73.6917 17.0446 74.1021 15.6674C74.263 15.1229 74.3172 14.5408 74.5244 14.018C74.6013 13.8256 74.9762 13.6529 75.2159 13.65C75.4606 13.646 75.7704 13.8078 75.9351 13.9982C76.1058 14.1965 76.2074 14.5142 76.2183 14.7845C76.2883 16.6994 76.3366 18.6172 76.3741 20.531C76.387 21.2078 76.0367 21.5551 75.3304 21.5975C74.7572 21.632 74.1811 21.6537 73.6069 21.6409C69.4783 21.5482 65.3891 21.923 61.3157 22.5603C60.3765 22.7073 59.4067 22.6847 58.4488 22.7093ZM99.9927 75.6369C99.8625 70.6253 98.366 66.0714 95.4547 61.9773C93.2379 58.8628 90.1826 56.9756 86.5256 56.1597C79.6583 54.6266 73.2449 56.0068 67.2448 59.5504C66.5927 59.9372 65.9997 60.4363 65.4197 60.9336C61.952 63.8961 59.9099 67.7614 58.7033 72.0597C58.0591 74.3544 57.8293 76.7595 58.1647 79.1667C58.2939 80.1118 58.4311 81.0579 58.582 82C59.2144 85.9511 60.7277 89.5273 63.2266 92.6556C65.3131 95.2669 67.9827 97.09 71.1998 98.0105C74.8519 99.0552 78.5761 99.0217 82.2785 98.339C85.4128 97.7599 88.2698 96.4063 91.0054 94.8022C94.9713 92.475 97.6211 89.1119 99.0131 84.712C99.7737 82.3048 100.015 79.8563 99.9937 77.6652C99.9947 76.7852 100.008 76.211 99.9927 75.6369ZM93.6947 76.0788C93.6434 78.6369 93.6079 80.3328 93.2113 82.0405C92.5464 84.9103 90.9817 87.1033 88.621 88.7321C84.369 91.6641 79.6741 92.9545 74.4958 92.3586C71.4592 92.0104 69.13 90.4753 67.2477 88.1658C67.0109 87.8758 66.8205 87.5187 66.712 87.1606C66.1842 85.4272 65.688 83.683 65.1868 81.9418C65.0823 81.5748 64.9639 81.2029 64.9323 80.826C64.6502 77.2893 64.5347 73.7654 65.47 70.2829C65.8291 68.9442 66.4328 67.8166 67.4934 66.906C71.2471 63.683 75.5011 61.7465 80.5196 61.7238C81.3808 61.7198 82.244 61.71 83.1023 61.7563C86.715 61.9536 89.4901 63.5577 91.2886 66.7334C93.0762 69.8923 93.964 73.2692 93.6947 76.0788ZM50.7795 42.295C50.7825 42.2743 50.7874 42.2516 50.7894 42.2308C51.5549 42.2654 52.3175 42.3492 53.0791 42.3295C54.1298 42.2989 54.9259 41.6961 55.0196 40.9513C55.1094 40.244 54.4869 39.3344 53.6474 38.9486C53.5615 38.9082 53.4727 38.8687 53.383 38.8431C50.959 38.0805 48.4858 38.0558 46.0017 38.3922C45.2983 38.4879 44.8268 39.0069 44.6936 39.7458C44.5269 40.6632 45.0349 41.5432 45.9504 41.6912C47.5516 41.9457 49.1715 42.0996 50.7795 42.295ZM21.8326 40.0328C21.4627 39.952 21.0769 39.9342 20.6971 39.9273C19.9345 39.9105 19.171 39.9224 18.4094 39.9224C17.5511 39.9224 16.6918 39.9046 15.8365 39.9332C15.4606 39.946 15.0699 40.0023 14.7187 40.1305C14.1574 40.3377 13.7608 40.7441 13.6424 41.3617C13.5063 42.07 13.6474 42.731 14.2501 43.1454C14.7099 43.464 15.2633 43.8162 15.7911 43.8448C17.7839 43.9474 19.7846 43.9948 21.7774 43.9208C22.7175 43.8853 23.4752 42.7636 23.4111 41.8678C23.3539 41.0776 22.6278 40.2085 21.8326 40.0328ZM46.2681 53.6815C47.1787 53.9519 48.1149 54.1314 48.9524 54.3287C50.3928 54.0554 51.7207 53.867 53.014 53.5355C53.9275 53.3027 54.5333 52.3596 54.4524 51.6108C54.3567 50.7308 53.4392 49.9426 52.4369 49.8775C52.3412 49.8716 52.2435 49.8666 52.1498 49.8765C50.4382 50.0501 48.7255 50.2159 47.0169 50.4112C46.7426 50.4428 46.4762 50.5967 46.2217 50.7229C45.6673 50.9962 45.3368 51.4283 45.3131 52.0715C45.2875 52.8085 45.6328 53.4941 46.2681 53.6815ZM30.9028 43.2943C32.5947 43.1355 34.2886 42.9816 35.9746 42.7665C36.4264 42.7083 36.8753 42.4873 37.2827 42.2624C37.999 41.8688 38.1203 40.5774 37.4682 40.0496C37.115 39.7625 36.6632 39.5139 36.2232 39.439C35.4823 39.3127 34.7148 39.3383 34.2491 39.3147C33.2024 39.3798 32.4389 39.3837 31.6911 39.4893C31.0399 39.581 30.3898 39.7359 29.7673 39.948C28.9426 40.2282 28.5795 40.8487 28.6289 41.6971C28.6733 42.4508 29.2553 43.0862 30.0603 43.2351C30.3365 43.2845 30.6256 43.321 30.9028 43.2943ZM53.6365 61.265C53.5428 61.2532 53.4481 61.2423 53.3544 61.2404C51.4405 61.1841 49.5818 61.5827 47.7163 61.9152C47.6256 61.9319 47.5407 61.9813 47.4529 62.0178C46.7318 62.3108 46.3273 63.0615 46.4555 63.8695C46.5591 64.5236 47.0978 65.078 47.7864 65.1628C48.3487 65.2309 48.9199 65.2309 50.0751 65.295C51.0044 65.1362 52.5069 64.9359 53.9798 64.6114C54.8835 64.415 55.652 63.389 55.5257 62.7932C55.3817 62.1006 54.5007 61.3874 53.6365 61.265ZM13.6483 65.3542C13.7657 65.8919 14.2491 66.394 14.8332 66.4207C15.871 66.469 16.9138 66.4355 17.9546 66.4355C17.9555 66.4611 17.9555 66.4887 17.9575 66.5173C19.2785 66.4394 20.6083 66.4147 21.9214 66.2638C22.6781 66.177 23.3391 65.3384 23.3489 64.6923C23.3608 64.051 22.7097 63.2815 21.9688 63.0684C21.7882 63.0151 21.5988 62.952 21.4153 62.952C19.7116 62.956 18.0009 62.8918 16.308 63.025C15.5987 63.0802 14.8795 63.4936 14.2403 63.8695C13.7332 64.1684 13.5132 64.7288 13.6483 65.3542ZM14.4366 54.7243C16.5428 55.5925 18.6846 55.7404 20.8323 54.8555C21.0917 54.75 21.3403 54.5872 21.5515 54.4007C22.0793 53.9351 22.4107 53.3728 22.2223 52.6319C22.0615 52.0025 21.4607 51.4836 20.7682 51.4411C20.1032 51.3997 19.4344 51.4322 18.2781 51.4322C17.3409 51.5763 15.9282 51.7588 14.5283 52.0252C13.9404 52.1376 13.6306 52.699 13.6276 53.3284C13.6276 53.9528 13.8634 54.4885 14.4366 54.7243ZM63.8669 52.5697C65.1553 52.8874 66.4713 53.0926 67.7765 53.3442C67.7864 53.2692 67.7962 53.1932 67.8081 53.1163C68.5716 53.1163 69.3441 53.1833 70.0978 53.0985C70.9127 53.0038 71.6595 52.0804 71.699 51.2912C71.7355 50.5256 71.034 49.621 70.2152 49.3793C70.1254 49.3536 70.0327 49.3181 69.94 49.3092C68.1139 49.1346 66.3026 49.176 64.5673 49.8439C64.1441 50.0057 63.7544 50.3402 63.4288 50.6736C62.8724 51.2438 63.1161 52.3862 63.8669 52.5697ZM68.0083 41.6804C68.8824 41.634 69.6578 41.2305 70.2922 40.6208C70.7351 40.1956 70.8565 39.6412 70.6818 39.0503C70.5309 38.5481 70.1432 38.2285 69.647 38.2048C68.6052 38.1575 67.5604 38.19 66.5187 38.19C66.5187 38.1732 66.5157 38.1555 66.5137 38.1387C65.3802 38.2226 64.2338 38.2374 63.1151 38.4179C62.5597 38.5077 62.1325 38.9743 62.0092 39.5998C61.876 40.2637 62.1473 41.0381 62.6889 41.3509C63.0125 41.5344 63.3854 41.7336 63.7386 41.7396C65.1632 41.7632 66.5887 41.7573 68.0083 41.6804ZM30.9521 54.2508C32.0571 54.5231 33.1906 54.6789 33.6533 54.7608C35.4951 54.8585 36.6385 54.7174 37.6093 54.0495C37.9516 53.8128 38.2209 53.3017 38.288 52.8795C38.3699 52.3724 37.9279 52.0015 37.4682 51.8387C36.9394 51.6513 36.3722 51.4737 35.8207 51.4658C34.2008 51.4411 32.5789 51.4944 30.96 51.5339C30.6828 51.5418 30.3592 51.5723 30.1412 51.7154C29.8403 51.9127 29.4743 52.1998 29.4102 52.5066C29.3461 52.8124 29.5345 53.2702 29.7683 53.5128C30.083 53.8404 30.5191 54.1452 30.9521 54.2508ZM36.894 65.7774C37.6073 65.589 38.2989 65.2585 38.9441 64.8905C39.4452 64.6074 39.4995 63.8014 39.1147 63.395C38.8563 63.1237 38.5938 62.7616 38.2653 62.6659C36.1305 62.0404 33.9591 62.073 31.8282 62.6442C30.8752 62.8987 30.669 64.3351 31.4434 64.9991C31.8558 65.3513 32.3964 65.6571 32.9193 65.7469C33.6572 65.8721 34.4326 65.7794 35.1913 65.7794V65.806C35.7625 65.8051 36.3603 65.9156 36.894 65.7774ZM87.082 77.2133C86.4595 77.0101 85.7797 76.9322 85.1207 76.8986C83.8826 76.8394 82.6367 76.8661 81.3986 76.8375C79.9118 76.8 79.9089 76.5908 80.1535 75.3823C80.5136 73.6115 80.7297 71.8101 80.9349 70.0136C81.0533 68.9728 81.0552 67.9153 81.0651 66.8676C81.072 66.0616 80.8234 65.2625 80.047 64.9557C79.0131 64.5492 78.0256 63.7896 76.8023 64.1536C76.5438 64.2296 76.239 64.4081 76.1107 64.6281C75.7832 65.1944 75.4063 65.7883 75.3037 66.4138C75.1498 67.348 75.212 68.3168 75.1854 69.2708C75.139 71.085 75.1272 72.8992 75.0364 74.7095C74.9644 76.137 74.7385 77.5567 74.6714 78.9802C74.5747 81.046 75.5287 82.1963 77.5955 82.4795C79.6701 82.7616 81.7596 82.9461 83.8432 83.173C83.8461 83.1256 83.8511 83.0783 83.856 83.0319C84.7153 83.0319 85.5805 83.101 86.4318 83.0171C87.9738 82.8642 88.9949 81.8826 89.1458 80.5301C89.3293 78.8658 88.6555 77.7253 87.082 77.2133Z" fill="#EFD101"/>
</svg>
