<svg width="100" height="93" viewBox="0 0 100 93" fill="none" xmlns="http://www.w3.org/2000/svg">
<path fill-rule="evenodd" clip-rule="evenodd" d="M73.5627 43.3939C75.8618 38.4018 77.1046 33.1213 76.9248 27.582C76.9248 26.243 76.9914 24.8984 76.9019 23.5643C76.8325 22.5213 76.5917 21.4869 76.3852 20.4572C75.5288 16.2016 73.6008 12.5408 70.2987 9.66884C68.2785 7.91121 66.2839 6.11743 64.1799 4.46353C62.2081 2.91431 60.0051 1.77713 57.4291 1.54494C56.7678 1.48308 56.1226 1.2547 55.4631 1.16334C52.3161 0.729408 49.1882 0.597134 46.0935 1.58871C42.9085 2.60979 39.7263 3.62135 36.7782 5.25622C34.5153 6.5133 32.2657 7.76942 30.4976 9.71547C30.2416 9.9981 29.9542 10.256 29.6621 10.5024C26.5817 13.0889 24.3978 16.3063 23.2254 20.1337C22.2709 23.2531 22.0035 26.5085 21.9788 29.763C21.9712 30.8983 22.2747 32.0336 22.3804 33.1727C22.6925 36.5395 23.5899 39.6998 25.1952 42.7116C26.9509 46.0051 29.3481 48.6392 32.3818 50.7508C36.8905 53.8892 41.9588 55.5013 47.3601 56.0227C51.8689 56.4586 56.3433 56.0085 60.6951 54.6981C62.6087 54.1214 64.5044 53.4848 66.222 52.379C69.6516 50.1722 71.9098 46.9805 73.5627 43.3939ZM42.8885 8.45268C43.0208 8.06537 43.4861 7.66379 43.8887 7.5182C45.2247 7.03478 46.5998 6.65794 47.9654 6.26017C48.2946 6.16501 48.7495 6.58943 48.7095 6.93201C48.6239 7.68473 48.5125 8.4346 48.3879 9.36718C48.3879 9.85631 48.4259 10.5243 48.3688 11.1838C48.3479 11.4255 48.1348 11.8157 47.9539 11.8518C46.0022 12.2391 44.0419 12.5751 42.0787 12.8986C41.9845 12.9148 41.7304 12.6493 41.7514 12.5655C42.1015 11.1867 42.4327 9.79731 42.8885 8.45268ZM40.6189 17.4302C40.7474 17.1104 41.0767 16.7012 41.3717 16.6489C43.4319 16.2759 45.475 15.7316 47.6009 15.8562C48.0662 15.8838 48.4269 16.2559 48.4307 16.805C48.444 18.5245 48.4364 20.2431 48.4364 21.9627H48.386C48.386 23.6823 48.3993 25.4009 48.3793 27.1195C48.3736 27.6752 48.0586 27.9674 47.4743 27.9778C45.4702 28.0197 43.4623 27.9969 41.4592 28.0768C39.0336 28.1748 39.0136 28.1824 39.3238 25.8881C39.6312 23.6214 39.9205 21.3527 40.2364 19.0879C40.3144 18.5274 40.4086 17.9507 40.6189 17.4302ZM30.0856 16.2045C30.628 15.428 31.1019 14.5687 31.7842 13.9359C33.873 12.0031 36.115 10.255 38.6405 8.9066C38.8042 8.82 39.0088 8.74007 39.181 8.76386C39.3162 8.78289 39.5503 8.99795 39.5312 9.07123C39.143 10.5272 38.7414 11.9822 38.298 13.4229C38.2237 13.6647 37.983 13.9454 37.7527 14.0329C35.2785 14.9807 32.7919 15.8933 30.2863 16.823C30.2473 16.7993 30.1265 16.765 30.1131 16.7069C30.0779 16.5423 30.0094 16.3149 30.0856 16.2045ZM26.5598 23.6946C26.595 22.8848 26.9652 22.2244 27.6599 21.7971C30.5071 20.0519 33.4904 18.6083 36.7516 17.8013C36.9828 17.7442 37.2683 18.0925 37.2112 18.3666C36.6574 21.0672 36.2272 23.7841 36.1302 26.5466C36.1169 26.9244 36.0588 27.3041 35.9874 27.6762C35.8466 28.4156 35.4127 28.8761 34.6324 28.918C33.4971 28.9799 32.3542 28.9342 31.2123 28.9342C31.2123 28.9827 31.2113 29.0322 31.2104 29.0798C30.0732 29.0094 28.9303 28.9856 27.7988 28.8533C26.7264 28.7277 26.4618 28.4146 26.4618 27.404C26.4637 26.166 26.5046 24.9289 26.5598 23.6946ZM28.5773 37.3845C27.7855 37.0819 27.323 36.4557 27.2174 35.6726C26.5836 30.884 25.2247 31.3323 30.5385 31.416C30.7298 31.4198 30.9211 31.4169 31.3369 31.4169C32.5835 31.7139 34.1404 30.9107 35.5668 31.769C35.6135 33.1908 35.661 34.6106 35.7048 36.0313C35.7086 36.1265 35.7048 36.2216 35.7077 36.3168C35.82 40.2612 35.8818 39.6341 32.3161 38.7862C31.0315 38.4817 29.822 37.8613 28.5773 37.3845ZM39.2096 50.2217C39.124 50.2436 39.0126 50.2493 38.9346 50.2122C37.2131 49.3843 35.5944 48.4565 34.3935 46.8711C33.42 45.5845 32.239 44.4578 31.1742 43.2388C30.8221 42.8353 30.4186 42.4261 30.5119 41.8095C30.4909 41.8095 30.4691 41.8076 30.4472 41.8076C30.4291 41.7514 30.4129 41.6953 30.391 41.643C30.3415 41.6039 30.2921 41.5649 30.2426 41.525C30.2892 41.5487 30.352 41.5621 30.3767 41.6011C30.3844 41.6135 30.3853 41.6296 30.391 41.643C30.4319 41.6753 30.4729 41.7077 30.5128 41.74C30.5081 41.7648 30.5147 41.7847 30.5119 41.8085C32.4246 41.7838 34.1565 42.587 35.9589 43.0504C36.2425 43.1227 36.566 43.569 36.6288 43.8897C37.0628 46.0889 38.0896 48.0016 39.3476 49.8125C39.496 50.0257 39.4808 50.1504 39.2096 50.2217ZM39.3124 39.1012C39.2096 37.5853 39.1221 36.0646 39.1135 34.5449C39.0945 30.8203 38.6786 30.9621 42.6173 30.943C44.236 30.9354 45.8537 30.9545 47.4724 30.9811C47.9968 30.9897 48.3888 31.356 48.3955 31.8575C48.4164 33.1888 48.4031 34.523 48.4031 35.8553H48.4745C48.4745 36.5214 48.4726 37.1885 48.4745 37.8546C48.4907 40.7836 48.5725 40.6095 45.6063 40.5039C43.804 40.4401 42.0054 40.2346 40.2078 40.0633C39.6664 40.0128 39.3466 39.5979 39.3124 39.1012ZM48.3355 51.849C47.1965 52.3381 45.9042 51.8319 44.8146 51.1619C44.5738 51.0154 44.3559 50.8089 44.1789 50.5871C42.6896 48.7229 41.2118 46.8492 40.4248 44.5473C40.184 43.8374 40.4267 43.5034 41.2537 43.5386C42.683 43.5995 44.1104 43.688 45.5369 43.8079C46.4799 43.8869 47.4172 44.0401 48.3574 44.16C49.0236 45.1068 48.602 46.2031 48.7742 47.2184C48.8218 47.4973 48.7818 47.7904 48.7818 48.0758H48.8218C48.8218 48.4584 48.8523 48.8438 48.8152 49.2216C48.7276 50.1332 49.3414 51.4179 48.3355 51.849ZM72.4532 30.8669C72.4608 31.1514 72.4532 31.4369 72.4532 31.7205H72.4275C72.4275 32.006 72.4189 32.2915 72.4294 32.576C72.4703 33.7417 72.0306 34.543 70.8868 35.014C68.9598 35.8077 67.0766 36.705 65.1695 37.552C64.8774 37.6824 64.649 37.4559 64.6928 37.0981C64.9316 35.1206 65.1714 33.1422 65.4093 31.1648C65.4741 30.6214 65.7824 30.3331 66.3143 30.2569C67.9092 30.0304 69.4984 29.7554 71.0981 29.5832C72.1724 29.469 72.4208 29.763 72.4532 30.8669ZM70.7859 20.521C71.0781 20.6704 71.3255 21.0767 71.4178 21.4127C71.6662 22.3253 71.8194 23.2635 72.0116 24.1914C71.9754 24.199 71.9402 24.2056 71.9031 24.2123C71.9621 24.6862 71.9926 25.163 72.0849 25.6293C72.1639 26.0204 71.9098 26.1869 71.6538 26.2354C69.8791 26.5723 68.0976 26.8806 66.3153 27.1842C65.8985 27.2556 65.5578 27.1014 65.4569 26.657C65.3104 26.008 65.1172 25.3542 65.0848 24.6948C64.9773 22.4004 64.5301 20.1642 64.0333 17.9345C63.921 17.434 64.1427 17.2789 64.6747 17.4387C66.89 18.1087 68.7543 19.4847 70.7859 20.521ZM62.0892 8.47837C64.9592 9.74306 67.2783 11.6377 68.8485 14.3898C68.8922 14.4669 68.8865 14.5715 68.9037 14.6629C68.8761 14.7466 68.8665 14.8418 68.8161 14.9094C68.7657 14.9769 68.6581 15.0759 68.6096 15.0588C68.3403 14.9655 68.0796 14.8418 67.8179 14.7286C66.9433 14.3517 66.0983 13.7541 65.1895 13.638C62.3252 13.2707 62.0321 11.0392 61.5153 8.92373C61.4659 8.72484 61.8979 8.39368 62.0892 8.47837ZM61.1652 19.6922C61.5163 21.8514 61.777 24.0277 61.9997 26.204C62.0987 27.1785 61.8608 27.3983 60.9682 27.5724C60.5 27.6638 60.0299 27.7875 59.5569 27.8008C57.2664 27.8693 54.9759 27.916 52.6844 27.9493C52.1201 27.9578 51.7775 27.6362 51.7718 27.09C51.7547 25.2762 51.7661 23.4624 51.7661 21.6477H51.7423C51.7423 19.8358 51.7271 18.0221 51.7537 16.2093C51.7613 15.8039 52.0468 15.4708 52.477 15.4746C53.9044 15.4889 55.3584 15.3928 56.7506 15.6383C57.9335 15.8457 59.3542 15.4318 60.2754 16.4205C61.0852 17.2912 60.9834 18.5778 61.1652 19.6922ZM51.7518 6.86634C51.8203 6.63605 52.0906 6.30014 52.279 6.29443C53.8064 6.25065 55.3375 6.23067 56.8629 6.29918C57.4729 6.32678 57.8735 6.80068 58.003 7.42399C58.062 7.70471 58.0582 7.99876 58.1267 8.27568C58.4017 9.38621 58.7081 10.4901 58.9384 11.6101C58.9489 11.6596 58.3084 11.9356 57.9677 11.9432C57.1084 11.9613 56.2472 11.8851 56.0303 11.8766C50.9639 11.789 51.7423 12.4199 51.6567 8.00257C51.6491 7.62192 51.6443 7.2232 51.7518 6.86634ZM59.1363 44.6634C58.4169 46.4277 57.6366 48.1681 56.8372 49.8972C56.6907 50.216 56.3709 50.5224 56.055 50.6833C54.9359 51.2504 53.7521 51.6035 52.4731 51.5216C51.9897 51.4902 51.631 51.1305 51.6243 50.5871C51.6119 49.6317 51.6215 48.6744 51.6215 47.718H51.7366C51.7366 47.0481 51.7176 46.3791 51.7404 45.7101C51.7927 44.0857 51.8023 44.1133 53.2925 43.963C54.9074 43.8003 56.5213 43.608 58.1267 43.3758C59.5503 43.1684 59.6949 43.2854 59.1363 44.6634ZM60.008 39.3914C57.6137 40.0395 55.2195 40.6932 52.7015 40.5829C52.1363 40.56 51.7813 40.2565 51.7794 39.7217C51.7661 37.0486 51.7661 34.3746 51.7889 31.7015C51.7927 31.2923 52.0735 30.9725 52.5112 30.9668C54.0376 30.9469 55.5659 30.9583 57.0913 30.9583V30.7813C58.1419 30.7813 59.1944 30.8089 60.243 30.7737C61.8579 30.7194 62.23 30.9326 61.9693 32.5037C61.6438 34.4745 61.6533 36.5052 60.9653 38.416C60.795 38.8966 60.5 39.2582 60.008 39.3914ZM63.0237 48.2129C62.4289 48.5174 61.8389 48.8276 61.2394 49.1236C61.1642 49.1607 61.0538 49.1283 60.9653 49.1283C60.8702 48.9951 60.6732 48.819 60.7065 48.7515C61.6971 46.6922 62.7229 44.6529 63.3548 42.4356C63.4623 42.0588 63.9477 41.6839 64.3473 41.5135C66.007 40.8017 67.698 40.1622 69.388 39.5209C69.5127 39.4733 69.7744 39.5713 69.8553 39.6836C69.9323 39.7911 69.8876 40.0195 69.8391 40.1775C68.7248 43.8364 66.4085 46.48 63.0237 48.2129ZM99.988 87.4982C99.9947 86.3525 99.9899 85.2058 99.9899 84.0582C99.9899 83.0076 99.9699 81.956 99.9937 80.9064C100.077 77.0419 98.0115 74.4688 94.9588 72.4866C94.4458 72.1544 93.8378 72.2696 93.4533 72.8177C92.7396 73.8331 92.0801 74.8856 91.375 75.9086C90.8364 76.6927 90.2749 77.4635 89.6954 78.2191C89.6345 78.2999 89.2919 78.3066 89.2519 78.239C88.9541 77.7556 88.7162 77.2313 88.425 76.7431C87.8217 75.7268 87.8607 74.8523 88.6382 73.8683C89.4223 72.8758 89.074 72.2829 87.8635 72.2487C87.2907 72.2325 86.7169 72.2582 86.144 72.2848C85.8233 72.3 85.4988 72.8196 85.6063 73.1375C85.6977 73.4058 85.7976 73.6799 85.9375 73.9254C86.4152 74.7628 86.3315 75.5612 85.8414 76.3606C85.6434 76.6841 85.5226 77.0543 85.3142 77.3702C85.2228 77.5101 84.9982 77.6529 84.8479 77.6395C84.7118 77.6281 84.5557 77.4264 84.4739 77.2732C83.7611 75.9276 83.1045 74.5506 82.3461 73.2307C81.935 72.5151 82.0064 71.456 81.0786 71.1115C80.1993 70.7841 79.4323 71.5178 78.592 71.5692C77.0723 71.6653 76.1464 72.5713 75.4403 73.7589C74.5077 75.3271 73.7987 76.9972 73.5951 78.8338C73.519 79.5152 73.4248 80.1242 72.7548 80.5381C72.3066 80.8131 72.298 81.3575 72.3894 81.8361C72.4789 82.3015 72.652 82.7497 72.7758 83.2074C72.9566 83.8773 72.8766 83.9316 72.0887 83.9126C71.3322 83.8945 70.5642 83.865 69.8248 83.983C69.5336 84.0296 69.1482 84.4378 69.094 84.7328C69.0407 85.0297 69.2567 85.5455 69.5117 85.6949C70.0751 86.0242 70.7384 86.184 71.3626 86.4105C71.885 86.5999 72.5854 85.9937 72.9347 86.5885C73.2049 87.0462 73.1669 87.6885 73.2535 88.25C73.3267 88.7201 73.38 89.194 73.4457 89.665C73.6722 91.2856 74.1794 91.77 75.8733 91.8442C77.0171 91.8937 78.1666 91.8414 79.3124 91.8595C80.5533 91.8794 81.7923 91.9146 83.0322 91.9689C84.1732 92.0203 85.3161 92.1963 86.4542 92.1592C89.7944 92.0498 93.1288 91.8528 96.4661 91.7072C99.7435 91.5664 98.9565 91.5378 99.9252 88.6373C100.042 88.29 99.9861 87.8808 99.988 87.4982ZM28.9779 80.9302C28.798 80.9892 28.6096 81.0396 28.4478 81.1329C28.0424 81.3641 27.5609 81.8961 27.2716 81.8028C26.6807 81.6144 26.7492 80.8598 26.6379 80.3174C26.5227 79.7578 26.5446 79.1707 26.4409 78.6073C26.1916 77.2722 25.7253 76.0009 24.7556 75.0302C23.8801 74.1538 22.8857 73.3953 21.9283 72.6036C21.4192 72.183 20.7978 72.2011 20.3972 72.6778C19.9043 73.2602 19.4418 73.8721 19.0117 74.5021C18.2037 75.6878 17.432 76.8982 16.6364 78.0915C16.4337 78.397 16.1216 78.3523 15.9465 78.1182C15.6677 77.7414 15.4859 77.2912 15.2385 76.8878C14.5695 75.7953 14.4639 74.7542 15.4469 73.7712C15.5783 73.6399 15.6572 73.4544 15.7495 73.2878C15.9056 73.0061 15.6544 72.3847 15.3461 72.3781C14.4059 72.3571 13.4638 72.3657 12.5245 72.4047C12.4208 72.4095 12.22 72.7035 12.2476 72.8215C12.3314 73.1822 12.4522 73.5552 12.6511 73.8635C13.1764 74.6791 13.1821 75.4527 12.6492 76.2645C12.3894 76.6613 12.2105 77.1114 11.9859 77.532C11.8632 77.7651 11.4911 77.6976 11.3369 77.4064C10.4871 75.8086 9.64115 74.2099 8.80183 72.6065C8.71428 72.4399 8.6943 72.241 8.62198 72.065C8.23182 71.1039 7.85022 70.8774 6.92335 71.1086C6.46277 71.2228 6.02218 71.5216 5.5654 71.5359C3.79541 71.593 2.79526 72.6931 2.00923 74.07C1.34596 75.232 0.827334 76.4472 0.538996 77.7813C0.0108521 80.2365 -0.0871638 82.7097 0.0650939 85.201C0.0650939 86.6361 0.018465 88.073 0.0784165 89.5052C0.13932 90.9783 0.926301 91.7405 2.4308 91.83C3.48042 91.8909 4.53576 91.8528 5.58729 91.8633C6.83105 91.8747 8.07575 91.8595 9.31761 91.9108C10.7469 91.9689 12.1762 92.1963 13.5999 92.1554C16.9438 92.0602 20.284 91.8518 23.6251 91.6825C23.9115 91.6672 24.1998 91.6282 24.4768 91.5606C25.4826 91.318 26.222 90.7927 26.38 89.685C26.5418 88.5507 26.7368 87.4192 26.8472 86.2792C26.9167 85.5455 27.1203 85.1335 27.9206 84.8537C29.3338 84.3608 29.8039 83.0751 29.9666 81.6858C30.018 81.2633 29.388 80.797 28.9779 80.9302ZM79.4694 62.1958C80.8321 62.743 81.0424 63.9934 81.5239 65.1116C81.9007 65.9842 82.2928 66.8692 82.8162 67.6562C83.2863 68.3594 83.8649 69.0408 84.5339 69.5499C87.0613 71.4798 90.136 70.6224 91.2751 67.6552C91.6805 66.5999 91.827 65.4446 92.0963 64.3351C92.2733 63.5985 92.3561 62.8001 93.1431 62.4004C94.2698 61.8285 94.4287 60.8427 94.3364 59.7302C94.2736 58.967 94.345 58.0202 93.6446 57.6386C92.5997 57.0676 92.5293 56.2416 92.4703 55.251C92.4256 54.5021 92.2257 53.7465 91.9926 53.0271C91.1951 50.5795 89.9162 49.6717 87.088 49.6412C85.3113 49.4642 83.8392 50.335 82.7762 52.0146C81.9559 53.3126 81.2146 54.6448 80.9996 56.1931C80.9168 56.7926 80.7674 57.3579 80.1926 57.6148C78.6358 58.3142 78.6291 59.6417 78.8175 61.0044C78.8765 61.4365 79.1382 62.0617 79.4694 62.1958ZM88.3108 53.54C88.365 53.4639 88.7029 53.4658 88.7809 53.5495C89.3071 54.1205 89.6516 54.7971 89.6687 55.5821C89.6963 56.7184 89.6764 57.8565 89.6764 58.9927C89.7287 58.9937 89.7801 58.9937 89.8324 58.9956C89.7696 60.226 89.762 61.4622 89.6202 62.6831C89.5593 63.2179 89.2329 63.726 89.0112 64.238C88.9807 64.3065 88.8466 64.375 88.7714 64.3655C88.7086 64.357 88.6087 64.2294 88.6144 64.1609C88.6943 62.9952 87.8712 61.9941 87.9159 60.895C87.9597 59.8044 87.5286 58.8671 87.3716 57.8546C87.1346 56.3092 87.3868 54.8399 88.3108 53.54ZM6.58363 62.5299C7.46291 62.9257 7.78837 63.6889 8.05196 64.5339C8.51064 66.0108 9.22244 67.3583 10.2245 68.544C11.2579 69.7697 12.496 70.5862 14.325 70.5015C15.5754 70.6718 16.6003 70.0238 17.3321 68.9199C17.7508 68.2919 18.0658 67.5782 18.3208 66.8663C18.5768 66.1498 18.8109 65.3942 18.8594 64.6415C18.9336 63.5015 19.3276 62.6488 20.3116 62.0131C20.676 61.7781 21.0367 61.2956 21.1024 60.8798C21.3203 59.5209 21.2099 58.1877 19.9528 57.2884C19.437 56.9201 19.202 56.4538 19.1496 55.8524C19.084 55.0892 19.0726 54.3146 18.9232 53.5695C18.6044 51.9917 17.8126 50.5881 16.311 50.0048C14.109 49.1474 11.6129 49.2949 9.84765 51.5492C9.38041 52.1449 8.98264 52.8187 8.67622 53.5105C8.2499 54.4678 7.90161 55.4651 7.59424 56.4671C7.44959 56.9429 7.31446 57.3969 6.86245 57.6357C5.48737 58.3618 5.55398 59.6198 5.63011 60.8845C5.67294 61.5859 5.89085 62.2168 6.58363 62.5299ZM14.9997 53.6751C15.13 53.4049 15.445 53.4248 15.6296 53.6713C16.3424 54.6286 16.5337 55.7506 16.6107 56.8916C16.6631 57.6481 16.6222 58.4122 16.6222 59.1716C16.684 59.1792 16.7449 59.1878 16.8058 59.1945C16.6146 60.502 16.4471 61.8133 16.2149 63.1132C16.1445 63.511 16.2054 64.2047 15.5031 64.0581C15.0815 63.9706 15.209 63.4796 15.2071 63.0999C15.2052 62.7535 15.0292 62.4004 14.8988 62.0607C14.7989 61.8 14.4972 61.525 14.5438 61.3118C14.8674 59.8425 14.2469 58.5188 13.9691 57.1466C13.695 55.7886 14.4639 54.7742 14.9997 53.6751ZM57.6842 63.5214C56.075 61.9256 54.4278 60.3649 52.7843 58.8043C52.6549 58.6815 52.4503 58.5845 52.2781 58.5769C52.0145 58.5645 51.7071 58.5731 51.4892 58.6977C51.0866 58.9261 51.1818 59.3429 51.2798 59.7083C51.3274 59.8853 51.4368 60.0538 51.5434 60.207C52.8614 62.0864 54.5657 63.5852 56.3243 65.025C56.5299 65.1934 56.8382 65.2429 57.1065 65.3238C57.5319 65.4542 58.1171 64.9774 58.0277 64.2646C57.9925 64.1838 57.9268 63.7631 57.6842 63.5214ZM45.8005 84.5511C43.9439 84.0981 42.2414 84.7376 40.5495 85.3704C40.1631 85.5151 40.185 86.3563 40.5219 86.6028C41.266 87.1528 42.1234 87.1471 43.2635 87.1385C43.4642 87.128 43.9638 87.187 44.4101 87.0548C45.1277 86.8416 45.8242 86.5352 46.5008 86.2088C46.9062 86.0137 46.9005 85.2638 46.5246 84.9907C46.2962 84.8251 46.0621 84.6139 45.8005 84.5511ZM42.3737 66.1365C42.2376 65.9423 42.1187 65.6654 41.9103 65.5017C41.5106 65.1877 40.9996 65.1211 40.5904 65.417C39.2705 66.3782 38.3208 67.6657 37.6575 69.1397C37.5557 69.37 37.8117 69.8458 38.0277 70.1056C38.1647 70.2731 38.5311 70.295 38.7956 70.3007C38.966 70.3045 39.1563 70.1856 39.3067 70.0799C40.5561 69.194 41.4659 67.9997 42.2823 66.7303C42.3718 66.5904 42.3413 66.3715 42.3737 66.1365ZM70.2007 79.3667C70.5871 79.5846 70.9629 79.4923 71.1875 79.164C71.3864 78.8709 71.6281 78.4398 71.5482 78.1544C71.1104 76.5785 70.3206 75.2139 68.8094 74.4164C68.5801 74.2956 68.2832 74.3013 68.1462 74.2737C67.4287 74.3831 67.0071 75.3481 67.3896 75.9114C68.1252 76.9934 68.9379 78.023 69.7335 79.0622C69.8419 79.2011 70.0389 79.2754 70.2007 79.3667ZM34.5876 73.0509C33.086 74.0367 32.2647 75.5317 31.6605 77.1495C31.5634 77.4073 31.8241 77.8746 32.0392 78.1506C32.2866 78.4665 32.7139 78.5302 33.0689 78.2914C34.5724 77.2817 35.1653 75.6402 35.9161 74.1129C35.9494 74.0462 35.8828 73.9302 35.8618 73.8369C35.7848 73.265 35.0073 72.7758 34.5876 73.0509ZM62.2823 84.239C61.3755 84.2704 60.4248 84.2665 59.6435 84.947C59.242 85.2952 59.1392 86.086 59.5398 86.4752C59.7948 86.7255 60.1507 87.0234 60.4676 87.031C61.2089 87.0472 61.9712 86.972 62.6944 86.8007C63.4157 86.6303 64.2208 86.4096 64.2665 85.4408C64.3007 84.7357 63.4719 84.2475 62.2823 84.239ZM34.8246 85.2686C33.1574 84.5549 31.6881 85.2324 30.2407 85.9585C29.8581 86.1507 29.9913 86.9701 30.43 87.1366C31.0419 87.3679 31.6757 87.5468 31.9431 87.6324C33.4076 87.6762 34.4002 87.4316 35.2813 86.7921C35.6639 86.5133 35.6848 85.8034 35.3089 85.5579C35.15 85.4542 34.9959 85.3419 34.8246 85.2686ZM62.1158 67.3717C61.9188 67.1889 61.3907 67.2175 61.0843 67.3336C60.6323 67.5049 60.44 68.1187 60.5875 68.525C61.0586 69.8259 61.9255 70.8079 63.1064 71.4893C63.3986 71.6587 63.8601 71.6843 64.1922 71.5901C64.4929 71.5045 64.7261 71.1676 64.964 70.9611C64.8355 70.5491 64.8251 70.217 64.6566 70.0276C63.8392 69.1131 63.0113 68.2043 62.1158 67.3717ZM55.1767 85.1868C54.4725 84.9374 53.7302 84.7928 53.0194 84.612C52.3104 84.7509 51.6491 84.8308 51.0257 85.0307C50.8288 85.0935 50.6261 85.4713 50.6185 85.7111C50.6089 85.9528 50.7783 86.3382 50.9753 86.4277C52.1182 86.9472 53.3248 87.2042 54.5886 87.01C54.7703 86.9824 54.9968 86.912 55.0996 86.7807C55.3185 86.5019 55.5659 86.1841 55.6182 85.8529C55.6506 85.6502 55.3889 85.2619 55.1767 85.1868ZM43.7317 63.2635C44.1818 62.9752 44.6776 62.8163 44.9126 62.4756C45.4455 61.7058 45.8718 60.8598 46.2829 60.0148C46.38 59.8168 46.3029 59.4828 46.2068 59.2535C46.0859 58.9623 45.4817 58.8823 45.1962 59.0869C44.1894 59.8092 43.3206 60.6695 42.7505 61.7781C42.6421 61.9903 42.6601 62.3928 42.7972 62.5755C42.9999 62.8467 43.3586 63.0019 43.7317 63.2635Z" fill="#67BB25"/>
</svg>
