<svg width="85" height="107" viewBox="0 0 85 107" fill="none" xmlns="http://www.w3.org/2000/svg">
<path fill-rule="evenodd" clip-rule="evenodd" d="M84.9775 45.737C84.9755 44.95 84.9865 44.147 84.8365 43.38C84.2705 40.487 84.2735 37.564 84.2685 34.639C84.2605 30.701 84.3295 26.761 84.2585 22.824C84.2235 20.922 84.0655 19 83.7375 17.129C83.4755 15.626 82.6125 14.458 80.9135 14.179C79.8085 13.995 78.7155 13.73 77.6185 13.492C76.6415 13.283 75.7265 13.094 74.6635 13.364C73.2895 13.714 72.7425 13.243 72.0895 11.83C71.9015 11.424 71.7015 11.014 71.5745 10.586C70.9975 8.653 69.6435 7.941 67.7235 8.059C67.0505 8.1 66.3735 8.115 65.7005 8.115C65.1405 8.113 64.5625 8.15 64.0215 8.036C59.3175 7.045 59.1365 7.021 55.4255 7.308C55.2045 7.325 54.9405 7.364 54.7615 7.269C54.4915 7.128 54.1025 6.903 54.0735 6.673C53.9605 5.785 53.9865 4.88 53.9285 3.984C53.8405 2.558 53.3105 1.379 52.0035 0.638C51.7275 0.482 51.5175 0.214 51.2775 0H50.6015C50.3125 0.629 49.7125 0.627 49.1705 0.635C47.1455 0.663 45.1205 0.637 43.0955 0.661C41.8585 0.677 40.6135 0.661 39.3905 0.813C38.0955 0.971 37.1555 2.05 37.0405 3.31C36.9915 3.87 36.9835 4.437 37.0175 4.997C37.1075 6.436 36.9815 6.911 35.1405 6.963C33.5725 7.005 32.0145 7.273 30.4465 7.362C28.6495 7.464 26.8415 7.404 25.0495 7.552C23.0405 7.716 21.3505 8.483 20.5595 10.549C20.3595 11.071 20.0805 11.566 19.8385 12.074C19.4085 12.987 18.6725 13.355 17.6815 13.404C13.7615 13.588 9.84453 13.81 5.92553 14.019C5.47653 14.044 5.00153 13.997 4.58554 14.13C3.26254 14.553 2.09854 15.174 1.83554 16.746C1.70754 17.52 1.41554 18.276 1.36754 19.052C1.12554 22.864 0.599535 26.654 0.667535 30.493C0.742535 34.768 0.589535 39.046 0.592535 43.321C0.607535 58.289 0.635535 73.257 0.694535 88.224C0.702535 90.245 0.876535 92.264 1.04654 94.279C1.13454 95.307 1.18654 96.304 0.713535 97.248C-0.243465 99.16 0.0185352 101.2 0.0765352 103.212C0.0955352 103.926 0.603535 104.485 1.32353 104.606C4.97653 105.206 8.60353 106.004 12.3335 106.008C25.5015 106.016 38.6695 106.046 51.8365 106.033C56.7875 106.029 61.7505 106.11 66.6845 105.802C69.3065 105.638 71.8555 105.664 74.3515 106.319C76.2005 106.803 77.8745 106.566 79.6265 106.016C82.1735 105.217 83.6525 103.552 83.7675 100.909C83.8415 99.25 84.5945 97.608 83.9485 95.926C84.7415 93.968 84.2505 91.931 84.3085 89.928C84.4005 86.782 84.2575 83.613 84.5495 80.486C84.8845 76.889 84.8705 73.301 84.9015 69.703C84.9185 67.454 84.9945 65.202 84.9965 62.952C85.0055 57.213 84.9945 51.475 84.9775 45.737ZM49.9775 15.541C51.4375 15.519 52.8955 15.535 53.9325 15.535C58.4995 15.757 62.6415 15.957 66.7845 16.162C67.3845 16.192 67.8515 16.449 68.1405 16.995C68.5045 17.69 68.8945 18.373 69.2395 19.075C69.5505 19.71 69.3245 20.161 68.6845 20.347C66.8185 20.887 64.8975 20.941 63.0085 20.715C61.4265 20.525 59.9025 20.636 58.3315 20.739C55.4255 20.927 52.5025 20.876 49.5875 20.899C49.1075 20.901 48.7175 20.625 48.7015 20.1C48.6685 18.981 48.6495 17.86 48.6955 16.742C48.7295 15.903 49.1265 15.553 49.9775 15.541ZM41.4895 5.138C41.5685 4.943 42.0705 4.808 42.3675 4.829C44.3795 4.96 46.3875 5.13 48.3935 5.311C48.9295 5.359 49.2245 5.944 49.1385 6.598C49.0645 7.152 48.6875 7.368 48.2235 7.385C47.2165 7.423 46.2065 7.396 45.1965 7.396V7.47C44.1865 7.47 43.1785 7.492 42.1695 7.461C41.7025 7.445 41.2475 7.21 41.2265 6.708C41.2035 6.184 41.2915 5.62 41.4895 5.138ZM41.3615 19.334C41.4705 19.206 41.7605 19.118 41.9125 19.17C42.0755 19.226 42.2445 19.453 42.2885 19.635C42.4775 20.438 42.0285 20.966 41.1315 20.829C41.0665 20.657 40.8685 20.394 40.9075 20.173C40.9595 19.874 41.1555 19.573 41.3615 19.334ZM32.7135 19.348C32.7685 19.435 32.8425 19.515 32.8775 19.612C32.9125 19.707 32.9125 19.817 32.9255 19.921C32.9115 20.023 32.9115 20.132 32.8775 20.227C32.8425 20.319 32.7685 20.394 32.7135 20.479C32.6045 20.368 32.3885 20.236 32.4065 20.15C32.4625 19.872 32.6045 19.611 32.7135 19.348ZM79.6015 43.281C79.4605 46.305 78.8665 49.304 78.9035 52.352C78.9265 54.378 78.8145 56.406 79.4085 58.385C79.5325 58.808 79.5505 59.275 79.5505 59.72C79.5365 65.122 79.7515 70.538 79.4235 75.923C79.1035 81.213 79.0915 86.493 79.1275 91.78C79.1395 93.685 79.3985 95.59 79.5155 97.494C79.5565 98.144 79.1765 98.546 78.5395 98.625C78.2035 98.668 77.8635 98.722 77.5305 98.71C73.0155 98.532 68.5465 99.183 64.0555 99.451C60.4705 99.665 56.8995 100.122 53.3205 100.444C52.3125 100.535 51.2965 100.554 50.2845 100.568C44.3165 100.647 38.3485 100.668 32.3835 100.805C29.8025 100.865 27.2265 101.167 24.6475 101.329C22.3945 101.472 20.1495 101.485 17.9505 100.829C17.0055 100.55 16.9125 100.526 17.2275 99.458C17.4485 98.713 17.4175 98.124 16.7855 97.675C16.1775 97.245 15.4595 97.256 14.8695 97.633C14.2225 98.047 13.6795 98.628 13.0915 99.136C12.7585 99.425 12.4665 99.858 12.0825 99.963C11.7245 100.066 11.2155 99.907 10.8785 99.697C10.6995 99.585 10.6055 99.047 10.7165 98.819C11.1065 98.014 11.6315 97.275 12.0465 96.482C12.3035 95.99 12.5015 95.456 12.6485 94.92C12.8015 94.357 12.2935 93.52 11.6975 93.285C11.1115 93.054 10.5695 93.225 10.1655 93.66C9.63254 94.236 9.17353 94.885 8.66453 95.485C7.85553 96.43 7.61353 96.549 7.44553 96.12C7.20853 95.514 7.53353 95.058 7.80053 94.564C8.82053 92.687 9.86853 90.824 10.7965 88.902C11.1785 88.117 11.3625 87.21 11.4775 86.338C11.5245 85.978 11.2185 85.505 10.9485 85.191C10.7005 84.905 9.73153 85.13 9.41453 85.519C8.99053 86.038 8.62154 86.605 8.22254 87.145C8.08953 87.327 7.94853 87.501 7.78653 87.655C7.73853 87.697 7.57053 87.683 7.51553 87.632C7.35653 87.487 7.10254 87.308 7.10754 87.15C7.12354 86.719 7.16453 86.251 7.35253 85.877C8.40853 83.763 9.52254 81.679 10.5855 79.57C11.0415 78.667 11.4385 77.735 11.8285 76.801C12.0665 76.224 11.8455 75.701 11.4985 75.228C11.0515 74.619 10.2865 74.429 9.74453 74.881C9.14653 75.375 8.63254 75.971 8.05854 76.497C7.92554 76.621 7.62053 76.746 7.52853 76.681C7.37353 76.575 7.25253 76.315 7.24453 76.114C7.18853 74.338 6.71953 72.556 7.28653 70.785C7.07553 65.954 7.45753 61.112 6.95653 56.282C6.73553 54.16 6.73954 52.011 6.72154 49.873C6.69154 46.499 6.69654 43.127 6.23554 39.769C6.14654 39.119 6.18054 38.403 6.36054 37.774C7.45854 33.91 7.27353 29.997 6.98753 26.057C6.81753 23.705 6.86253 21.334 6.85454 18.972C6.85254 18.179 7.34453 17.695 8.10953 17.688C9.68253 17.674 11.2745 17.584 12.8315 17.767C14.1225 17.921 15.5255 17.695 16.6915 18.535C16.3915 19.718 16.0955 20.9 15.7905 22.083C15.7075 22.407 15.5725 22.722 15.5075 23.05C15.3775 23.706 15.7565 24.427 16.3925 24.711C17.7485 25.315 19.1805 25.52 20.6615 25.504C23.7025 25.469 26.7435 25.463 29.7835 25.473C31.8065 25.479 33.8295 25.532 35.8535 25.564C35.8535 25.623 35.8525 25.684 35.8515 25.744C39.0035 25.744 42.1585 25.694 45.3095 25.76C48.1185 25.818 50.9215 26.022 53.7315 26.128C54.9675 26.176 56.2235 26.274 57.4435 26.116C61.7035 25.56 65.9815 25.688 70.2555 25.684C71.3955 25.682 72.4535 25.412 73.5495 25.123C75.6245 24.581 75.8215 23.176 75.8205 21.227C75.8205 20.897 75.6235 20.563 75.6345 20.235C75.6635 19.388 74.5195 18.694 75.3225 17.76C76.3155 17.744 77.3105 17.687 78.3005 17.744C78.5475 17.758 78.9235 18.106 78.9835 18.363C79.2385 19.451 79.5175 20.558 79.5725 21.67C79.9145 28.87 79.9395 36.08 79.6015 43.281ZM75.2965 54.967C74.5415 54.791 73.7555 54.664 72.9805 54.658C69.1545 54.621 65.3265 54.619 61.4985 54.637C60.6025 54.641 59.6505 54.591 58.8215 54.863C57.0605 55.436 55.2675 55.355 53.4745 55.446C52.5785 55.492 51.6845 55.579 50.7905 55.668C47.3275 56.014 43.8755 56.526 40.4065 56.676C36.2485 56.851 32.0795 56.716 27.9135 56.716V56.743C23.6395 56.743 19.3635 56.739 15.0895 56.747C14.7535 56.747 14.3845 56.733 14.0975 56.868C13.8265 56.996 13.5585 57.273 13.4405 57.55C13.2355 58.027 13.5225 58.444 13.8955 58.692C14.9875 59.414 16.2495 59.337 17.4875 59.394C18.3835 59.437 18.6125 59.697 18.7315 60.623C18.8025 61.179 18.7735 61.759 18.9245 62.29C19.0845 62.85 19.5345 63.241 20.1345 63.326C20.7655 63.414 21.2945 63.061 21.5115 62.552C21.8115 61.848 21.9115 61.059 22.0945 60.307C22.2325 59.73 22.6785 59.445 23.3505 59.514C23.8385 59.564 24.1835 59.77 24.2605 60.309C24.3695 61.079 24.4365 61.864 24.6355 62.611C24.7965 63.211 25.5405 63.554 26.2885 63.521C26.9005 63.494 27.3825 63.228 27.6045 62.649C27.8055 62.127 27.9185 61.571 28.0925 61.037C28.3665 60.186 28.6125 60.012 29.5385 59.979C29.8755 59.967 30.2135 59.969 30.5505 59.973C33.2225 59.996 32.7255 60.096 32.8785 62.14C32.9105 62.581 32.9525 63.05 33.1325 63.44C33.2515 63.699 33.5995 63.93 33.8885 64.009C34.3615 64.138 34.7675 63.899 34.9855 63.457C35.1315 63.16 35.2615 62.828 35.2895 62.502C35.3375 61.95 35.2805 61.391 35.3005 60.835C35.3225 60.226 35.7385 59.747 36.2995 59.676C36.6335 59.633 36.9705 59.623 37.3105 59.623C38.6705 59.623 38.9265 60.156 38.9425 61.215C38.9545 61.996 38.9985 62.793 39.1625 63.554C39.2845 64.127 39.7805 64.509 40.3755 64.573C40.9915 64.638 41.4525 64.261 41.7385 63.757C41.9555 63.371 42.1045 62.928 42.1865 62.491C42.2895 61.943 42.2795 61.374 42.3405 60.814C42.4635 59.705 42.5995 59.574 43.8015 59.412C44.2475 59.353 44.6975 59.327 45.1455 59.281C45.6935 59.226 46.3475 58.953 46.7655 59.159C47.4775 59.507 47.1125 60.359 47.2025 61C47.2345 61.222 47.2665 61.445 47.3225 61.662C47.4915 62.323 48.1355 62.845 48.7895 62.845C49.4255 62.845 49.8685 62.497 50.0625 61.932C50.2785 61.303 50.3965 60.64 50.5445 59.988C50.7485 59.104 50.9925 58.859 51.8735 58.809C52.6585 58.766 53.4465 58.756 54.2335 58.77C54.8445 58.78 55.1595 59.193 54.9895 59.915C54.7495 60.939 54.5975 61.906 55.4015 62.767C55.8095 63.203 56.3385 63.564 56.8775 63.337C57.3435 63.141 57.8785 62.688 58.0165 62.235C58.2375 61.505 58.1535 60.682 58.2055 59.899C58.2775 58.766 58.7035 58.266 59.8295 58.151C60.7215 58.058 61.6245 58.058 62.5225 58.048C63.1665 58.04 63.5375 58.39 63.6965 59.021C63.8075 59.455 63.9705 59.879 64.1575 60.289C64.4035 60.831 65.2375 60.938 65.5385 60.459C65.9525 59.799 66.2445 59.047 66.7345 58.454C66.9595 58.184 67.5345 58.116 67.9485 58.116C68.4355 58.116 68.7135 58.464 68.7985 58.977C68.9245 59.746 69.0225 60.534 69.2805 61.263C69.4725 61.807 70.0125 62.092 70.6225 62.121C71.2635 62.149 72.0445 61.642 72.1565 61.027C72.2775 60.373 72.2915 59.695 72.3185 59.026C72.3395 58.507 72.5555 58.174 73.0855 58.134C73.7565 58.084 74.4355 58.118 75.0985 58.031C75.7185 57.954 76.2425 57.242 76.2855 56.565C76.3315 55.895 75.9095 55.109 75.2965 54.967ZM62.0835 70.919C59.3845 70.931 56.6875 71.02 53.9915 71.147C52.5385 71.216 51.0935 71.535 49.6395 71.564C45.4765 71.647 41.3105 71.671 37.1465 71.643C36.1575 71.635 35.1575 71.367 34.1835 71.135C32.5395 70.742 30.9345 70.443 29.2025 70.751C27.5515 71.046 25.8415 71.014 24.2635 71.117C23.1445 70.998 22.1395 70.816 21.1355 70.808C20.6105 70.804 20.0405 71.024 19.5665 71.281C18.8775 71.655 18.8565 72.93 19.5035 73.296C20.6845 73.961 21.8905 74.558 23.3105 74.486C25.2215 74.389 27.1315 74.277 29.0435 74.249C30.3845 74.228 31.8105 74.067 33.0515 74.449C34.7145 74.963 36.3565 75.064 38.0405 75.053C42.0915 75.02 46.1435 74.972 50.1955 74.915C50.9825 74.903 51.7915 74.936 52.5505 74.769C54.9955 74.233 57.4625 74.225 59.9415 74.287C60.7245 74.307 61.5175 74.277 62.2905 74.162C62.8715 74.075 63.2765 73.642 63.4835 73.081C63.8625 72.04 63.2005 70.913 62.0835 70.919ZM59.9785 80.162C59.6855 80.008 59.3655 79.824 59.0505 79.811C55.7995 79.685 52.5355 79.499 49.3575 80.44C48.1615 80.793 47.0185 81.109 45.7355 80.787C44.8885 80.573 43.9675 80.627 43.0785 80.619C39.7185 80.587 36.3515 80.132 33.0055 80.925C32.1605 81.123 31.1425 81.185 30.3445 80.907C26.9395 79.722 23.6865 81.016 20.3785 81.348C19.9205 81.393 19.5125 81.805 19.5865 82.274C19.6495 82.667 19.9355 83.141 20.2655 83.341C20.7215 83.617 21.3075 83.77 21.8475 83.8C22.9675 83.865 24.0955 83.847 25.2175 83.812C26.6735 83.768 28.0705 83.764 29.5325 84.211C30.7635 84.591 32.2455 84.587 33.5165 84.306C35.3035 83.91 37.0745 83.858 38.8675 83.849C40.2405 83.841 41.5625 83.658 42.7485 82.92C43.5765 82.405 44.3535 82.297 45.2715 82.793C45.8365 83.098 46.5565 83.242 47.2055 83.24C49.3315 83.228 51.4555 83.119 53.5805 83.046C53.5825 83.072 53.5835 83.102 53.5845 83.129C55.1585 83.074 56.7305 83.021 58.3035 82.965C59.1325 82.934 59.8225 82.639 60.3215 81.939C60.6845 81.432 60.5245 80.448 59.9785 80.162ZM58.5715 87.898C58.3555 87.84 58.1295 87.781 57.9105 87.789C56.3395 87.849 54.7195 87.7 53.2135 88.046C50.3205 88.709 47.4035 88.511 44.3695 88.695C43.7095 88.651 42.9265 88.57 42.1425 88.552C40.9065 88.524 39.6685 88.485 38.4395 88.564C37.9155 88.597 37.3685 88.851 36.9085 89.131C36.6795 89.27 36.4955 89.7 36.5145 89.982C36.5355 90.26 36.7835 90.65 37.0295 90.753C37.5295 90.962 38.0925 91.061 38.6385 91.118C40.5335 91.316 42.4295 91.514 44.3285 91.642C45.7835 91.741 47.2595 91.885 48.6985 91.743C50.8135 91.535 52.9085 91.112 55.0045 90.73C55.9935 90.55 56.9645 90.263 57.9395 90.01C58.2625 89.925 58.6315 89.865 58.8775 89.668C59.1145 89.48 59.3495 89.13 59.3575 88.845C59.3715 88.379 59.0505 88.03 58.5715 87.898ZM52.9695 39.358C56.1315 41.124 59.5355 39.146 59.5225 35.094C59.4535 34.81 59.4015 34 59.0675 33.328C58.3115 31.819 56.9125 31.647 55.3715 31.675C52.3605 31.729 50.0695 34.791 51.8385 38.202C52.0775 38.664 52.5145 39.104 52.9695 39.358ZM34.0925 88.754C33.6795 88.618 33.2325 88.528 32.7985 88.521C31.1245 88.496 29.4515 88.511 27.7805 88.511V88.535C26.1075 88.535 24.4345 88.518 22.7615 88.545C22.0955 88.557 21.4245 88.628 20.7715 88.756C19.9705 88.91 19.4635 89.62 19.4555 90.461C19.4465 91.31 19.9705 91.827 20.9345 91.916C21.1565 91.937 21.3805 91.946 21.6025 91.946C24.7265 91.95 27.8495 91.962 30.9735 91.946C31.6395 91.942 32.3435 91.944 32.9595 91.736C33.5595 91.532 34.1265 91.127 34.6025 90.69C35.1545 90.188 34.8175 88.989 34.0925 88.754ZM26.3505 40.161C27.4785 39.441 28.6265 38.731 29.6665 37.894C30.1585 37.498 30.4775 36.848 30.7735 36.261C31.0955 35.622 30.2425 34.556 29.5455 34.654C29.3285 34.697 29.0755 34.683 28.8995 34.794C27.6705 35.558 26.4355 36.314 25.2545 37.149C24.9185 37.386 24.6815 37.847 24.5335 38.253C24.2705 38.969 24.6385 39.552 25.1235 40.049C25.4875 40.422 25.9585 40.41 26.3505 40.161ZM18.4415 48.517C18.8295 48.639 19.3975 48.683 19.7025 48.485C21.2285 47.486 22.3685 46.139 22.9145 44.36C22.9765 44.158 22.9235 43.919 22.9235 43.28C22.9095 42.907 21.9765 42.369 21.1955 42.695C19.4375 43.43 18.3285 44.763 17.6935 46.525C17.6215 46.725 17.6185 46.965 17.6315 47.184C17.6625 47.771 17.8515 48.334 18.4415 48.517ZM36.8305 35.643C38.0375 35.4 39.2285 35.058 40.1145 34.148C40.3945 33.86 40.4675 33.373 40.6245 33.002C40.4385 32.616 40.3655 32.258 40.1465 32.041C38.7345 30.644 35.6765 31.424 35.1935 33.312C35.0915 33.715 35.1495 34.2 35.2635 34.611C35.4245 35.201 36.2885 35.753 36.8305 35.643ZM63.3585 45.22C63.5475 45.311 63.7905 45.299 64.0085 45.326C64.8345 45.423 65.5405 44.805 65.5455 43.983C65.5305 43.762 65.5685 43.524 65.4935 43.327C64.9615 41.892 63.9485 40.921 62.4895 40.483C61.9645 40.325 61.3895 40.41 60.9685 40.879C60.5795 41.311 60.4505 42.214 60.7565 42.744C61.3775 43.821 62.2345 44.67 63.3585 45.22ZM69.5695 77.251C70.0585 77.467 70.6205 77.519 71.2975 77.679C71.7015 77.529 72.3335 77.477 72.6505 77.135C73.2725 76.466 73.1375 74.698 72.5065 74.054C71.9365 73.474 71.2825 73.784 70.6615 74.008C70.2465 74.158 69.8035 74.263 69.4295 74.483C68.9095 74.786 68.7415 75.324 68.7615 75.905C68.7845 76.49 69.0365 77.016 69.5695 77.251ZM46.1415 34.448C46.9845 34.705 47.8485 34.946 48.7215 35.041C49.0815 35.079 49.6035 34.814 49.8385 34.518C50.2065 34.055 50.1005 33.422 49.7495 32.967C49.0255 32.02 48.0115 31.63 46.8245 31.686C46.7145 31.698 46.6045 31.713 46.4925 31.722C45.7575 31.786 45.1975 32.283 45.1265 32.932C45.0515 33.634 45.3945 34.219 46.1415 34.448ZM70.7555 81.916C70.1835 82.213 69.6505 82.682 69.2615 83.195C69.0495 83.478 69.0165 84.101 69.1845 84.424C69.4215 84.872 69.9235 85.181 70.2885 85.528C71.1795 85.295 71.9635 85.185 72.6555 84.871C72.9815 84.723 73.2945 84.195 73.3305 83.815C73.4775 82.199 72.1255 81.202 70.7555 81.916ZM68.9125 48.643C69.2455 48.845 69.8285 49.007 70.1045 48.851C70.5205 48.616 70.7685 48.081 70.9595 47.838C70.9695 46.525 70.5505 45.652 69.8355 44.907C69.4265 44.482 68.4755 44.369 67.9935 44.716C67.4975 45.073 67.3745 45.615 67.4355 46.185C67.5495 47.225 68.0145 48.097 68.9125 48.643ZM55.0635 47.039C56.1795 46.483 56.4515 44.882 55.6215 43.91C55.4875 43.752 55.2475 43.682 55.0575 43.572C54.8455 43.614 54.6135 43.614 54.4285 43.707C53.0795 44.391 52.9275 46.05 54.1565 46.952C54.3725 47.112 54.8255 47.157 55.0635 47.039ZM55.3085 54.067C55.6435 53.809 56.0895 53.622 56.2925 53.286C56.8755 52.321 56.5605 50.996 55.5965 50.335C55.4115 50.207 54.8975 50.292 54.7175 50.468C53.8335 51.326 53.6945 52.571 54.3635 53.478C54.5395 53.717 54.8995 53.821 55.3085 54.067Z" fill="#3D94F2"/>
</svg>
