<svg width="110" height="110" viewBox="0 0 110 110" fill="none" xmlns="http://www.w3.org/2000/svg">
<path fill-rule="evenodd" clip-rule="evenodd" d="M108.487 26.446C107.925 26.035 107.153 25.953 106.643 26.345C106.125 26.742 105.684 27.239 105.181 27.657C105.081 27.74 104.812 27.725 104.695 27.646C104.603 27.585 104.549 27.306 104.61 27.205C105.401 25.931 106.255 24.692 107.006 23.395C107.35 22.8 107.275 22.107 106.828 21.538C106.372 20.955 105.724 20.848 105.045 20.983C104.684 21.056 104.322 21.195 103.997 21.372C103.255 21.773 102.502 22.171 101.811 22.652C100.502 23.565 99.2324 24.535 97.9473 25.481C96.7104 26.391 96.5464 26.425 95.5634 25.448C93.8974 23.791 92.2104 22.146 90.6634 20.383C87.6854 16.994 84.7914 13.533 81.8783 10.089C80.5014 8.46199 80.3834 8.77099 81.6814 6.76199C82.0374 6.20999 82.4274 5.67799 82.8054 5.13999C82.9674 4.91099 83.1553 4.69799 83.3024 4.45799C83.6524 3.88199 83.5363 3.16599 83.0303 2.65899C82.1254 1.75499 81.2273 1.59599 80.2654 2.32099C79.6804 2.76099 79.1524 3.32599 78.7334 3.92799C77.7694 5.31599 76.9063 6.77499 75.9594 8.17499C75.7324 8.50999 75.3694 8.75299 75.0514 9.02899C75.0544 9.07599 75.0484 9.12099 75.0534 9.16799C75.0033 9.18399 74.9504 9.19699 74.9004 9.21299C74.8493 9.29299 74.7974 9.37399 74.7464 9.45399C74.7624 9.38699 74.7553 9.28999 74.7973 9.25799C74.8263 9.23699 74.8633 9.22399 74.9014 9.21299C74.9264 9.17199 74.9523 9.13299 74.9773 9.09299C75.0014 9.06999 75.0274 9.05099 75.0524 9.02999C74.9193 7.24299 75.3493 5.60199 76.3123 4.08299C76.6133 3.60899 76.8904 3.10499 77.0824 2.57999C77.2413 2.15099 77.3094 1.67199 77.3294 1.21099C77.3704 0.299988 76.3034 -0.326012 75.5313 0.174988C75.0694 0.475988 74.6053 0.851988 74.2983 1.29899C73.7683 2.06799 73.3314 2.90699 72.9044 3.74199C72.3923 4.74499 71.9743 5.79799 71.4414 6.78899C70.5474 8.44999 69.8503 10.182 69.2894 11.983C68.3933 14.86 67.8344 17.781 67.4814 20.784C67.0584 24.384 67.2343 27.892 68.0343 31.399C68.0763 31.582 68.1244 31.763 68.1573 31.948C68.2214 32.315 67.8614 32.747 67.5214 32.684C66.5994 32.517 65.6853 32.311 64.7624 32.155C63.7484 31.983 62.7303 31.735 61.7113 31.72C58.6093 31.671 55.5063 31.677 52.4053 31.75C51.3883 31.775 50.3263 31.931 49.3753 32.275C46.9933 33.135 44.6433 34.087 42.3263 35.11C41.3963 35.521 40.5023 36.115 39.7473 36.796C35.9153 40.253 32.9883 44.358 31.3013 49.261C30.8804 50.485 30.6453 51.823 30.6063 53.116C30.4923 56.874 30.4923 60.637 30.5033 64.397C30.5093 66.767 30.8093 66.813 28.0303 66.759C26.9973 66.739 25.9623 66.778 24.9273 66.75C23.6033 66.715 22.3183 66.852 21.0323 67.212C18.8353 67.826 16.6023 67.932 14.3453 67.491C13.8063 67.386 13.2243 67.417 12.6723 67.481C9.27035 67.885 6.12635 69.06 3.12035 70.671C2.33235 71.093 1.64835 71.662 1.40635 72.458C0.860348 74.252 0.458348 76.102 0.682348 78C0.842348 79.357 2.21335 80.211 3.38435 79.529C5.21035 78.466 7.29035 78.288 9.20235 77.558C9.54735 77.428 9.93535 77.406 10.3063 77.355C10.8763 77.277 11.4163 77.625 11.5763 78.209C11.6733 78.563 11.7373 78.938 11.7273 79.303C11.7073 80.123 12.0613 80.747 12.6263 81.29C12.8973 81.551 13.1663 81.814 13.4233 82.089C17.1583 86.057 20.8963 90.027 24.6233 94.003C24.9423 94.343 25.1813 94.757 25.4783 95.117C26.2423 96.04 26.5883 96.156 27.9173 95.622C28.5093 95.384 28.9454 95.363 29.4743 95.717C30.0124 96.076 30.5953 96.383 31.1963 96.619C31.3813 96.693 31.7603 96.531 31.9163 96.356C32.0733 96.181 32.1884 95.8 32.1014 95.61C31.8744 95.11 31.5973 94.595 31.2173 94.21C29.5703 92.534 27.8963 90.884 26.2003 89.258C22.3344 85.55 18.4423 81.867 14.5783 78.157C13.9833 77.587 13.2243 77.15 12.9243 76.312C13.4303 75.3 14.5203 75.531 15.3413 75.2C15.9443 74.956 16.6063 74.854 17.2473 74.709C18.0963 74.516 18.6143 74.836 18.5293 75.648C18.4033 76.844 18.6783 77.875 19.3733 78.831C21.7613 82.113 24.5564 85.031 27.5023 87.805C28.4594 88.705 28.8683 88.761 30.0013 88.019C30.7233 87.545 31.3073 87.378 32.0563 87.826C32.2883 87.966 32.5863 88.012 32.8603 88.059C33.3813 88.148 34.0583 87.727 34.1853 87.229C34.3163 86.711 34.0563 86.325 33.6813 86.011C33.4663 85.83 33.2333 85.667 32.9903 85.527C31.2683 84.526 29.7953 83.216 28.3903 81.824C26.1203 79.574 23.8673 77.306 21.6083 75.045C21.4773 74.912 21.3633 74.761 21.2443 74.617C21.0533 74.387 21.1883 74.106 21.5193 74.042C25.1413 73.331 28.8034 73.31 32.4713 73.446C33.5753 73.487 34.0083 73.869 34.1833 74.94C34.3503 75.959 34.3813 76.998 34.5303 78.02C35.1563 82.301 35.5883 86.606 35.3883 90.929C35.2193 94.584 34.7973 98.226 33.0233 101.552C32.8123 101.947 32.7963 102.445 32.6703 102.89C32.5453 103.332 32.4363 103.786 32.2474 104.2C31.3274 106.211 31.4543 106.614 33.2643 107.882C34.1093 108.476 34.9453 108.641 35.9103 108.262C36.3423 108.093 36.7973 107.947 37.2543 107.896C38.2413 107.787 38.7313 107.203 38.9933 106.31C39.3653 105.05 39.7383 103.789 40.1603 102.545C41.8223 97.635 41.8383 92.558 41.4983 87.492C41.2553 83.849 40.8313 80.204 40.0403 76.621C39.9183 76.072 39.6843 75.45 39.8333 74.964C40.0233 74.342 40.8153 74.65 41.3133 74.455C41.5713 74.353 41.8383 74.225 42.0403 74.042C43.3133 72.881 44.0943 71.412 44.6053 69.79C44.7673 69.276 44.4093 68.596 43.8633 68.432C43.1473 68.217 42.4183 68.019 41.6793 67.91C36.2403 67.104 37.2503 68.025 37.0613 62.817C36.9683 60.224 37.6443 57.799 38.4243 55.382C38.5553 54.981 38.8773 55.145 39.0763 55.306C39.6603 55.778 40.1603 56.372 40.7953 56.747C41.2433 57.012 41.8603 57.097 42.3943 57.08C43.1623 57.054 43.6423 55.915 43.1703 55.352C42.9303 55.067 42.6443 54.818 42.3683 54.566C39.3643 51.817 39.4203 52.507 41.5183 48.862C41.6124 48.699 41.6863 48.518 41.8093 48.381C42.0683 48.089 42.3783 47.864 42.7683 48.157C43.3683 48.608 43.9423 49.097 44.5483 49.538C44.9243 49.811 45.3263 50.059 45.7423 50.263C46.2303 50.5 47.0193 50.273 47.2653 49.874C47.5393 49.432 47.5173 48.635 47.1653 48.283C46.8363 47.957 46.4463 47.693 46.0903 47.394C43.4253 45.162 43.5644 45.438 45.7613 43.231C47.5984 41.388 47.6113 41.252 49.2883 43.483C49.8453 44.222 50.5933 44.827 51.2993 45.438C51.6783 45.768 52.1623 45.779 52.5933 45.453C53.0583 45.103 53.2483 44.394 52.9603 43.946C52.7073 43.554 52.4023 43.195 52.1073 42.832C51.5733 42.178 51.0183 41.541 50.4953 40.879C50.2143 40.523 50.3343 40.176 50.8063 40.047C52.3423 39.626 53.9073 39.299 55.4203 38.812C56.2303 38.549 56.7813 38.612 57.4503 39.186C58.4403 40.034 59.5543 40.744 60.6523 41.456C61.1553 41.782 61.6833 41.563 62.0893 41.001C62.3673 40.618 62.3243 40.151 61.9303 39.736C61.5453 39.333 61.1183 38.968 60.7403 38.559C60.6793 38.493 60.7553 38.269 60.8123 38.138C60.8373 38.084 60.9823 38.066 61.0723 38.064C63.7983 38.008 66.5234 37.954 69.2494 37.903C69.8344 37.893 70.3913 38.002 70.7104 38.557C71.5493 40.021 72.3803 41.491 73.1703 42.982C73.2323 43.099 72.9864 43.538 72.8113 43.591C72.2903 43.747 71.7314 43.869 71.1914 43.854C69.5993 43.81 68.0043 43.574 66.4193 43.629C63.8824 43.719 61.3373 44.037 59.0303 45.168C56.8473 46.238 54.7593 47.503 52.6453 48.713C52.2453 48.942 51.9133 49.299 51.5713 49.621C50.2583 50.862 49.2693 52.331 48.4953 53.963C47.1043 56.901 46.6043 60.048 46.3393 63.233C46.0803 66.334 46.1903 69.453 46.9033 72.484C47.9713 77.02 50.3103 80.808 54.1323 83.569C58.6463 86.829 63.7613 86.903 68.9933 86.278C71.3783 85.439 74.0004 85.439 76.2774 84.202C76.7123 83.966 77.2153 84.051 77.5613 84.45C79.8983 87.149 82.2764 89.814 84.5424 92.571C87.4053 96.054 90.1414 99.64 92.9944 103.131C94.6554 105.163 96.4213 107.11 98.1703 109.068C98.8363 109.812 99.7464 110.089 100.723 109.978C101.464 109.892 102.197 109.697 102.921 109.507C104.757 109.027 106.085 107.899 106.924 106.213C107.471 105.115 107.678 103.92 107.941 102.724C108.171 101.675 107.996 100.846 107.424 100.085C106.013 98.21 104.594 96.333 103.07 94.55C100.323 91.338 97.4804 88.207 94.7084 85.016C93.7864 83.957 92.9763 82.799 92.0763 81.718C90.9363 80.348 89.6784 79.069 88.6133 77.644C86.5244 74.851 86.4584 75.681 88.0404 72.5C88.6814 71.212 89.0954 69.905 89.0854 68.46C89.0743 66.673 89.0753 64.887 89.1124 63.101C89.1624 60.73 88.6584 58.448 88.1784 56.145C87.7673 54.181 86.7054 52.735 85.2044 51.515C84.3314 50.805 83.5083 50.026 82.6023 49.358C81.1684 48.301 80.0074 46.901 78.3734 46.092C77.7204 45.769 77.5593 45.388 77.8933 44.706C78.3194 43.835 78.2014 43.084 77.8014 42.296C77.1634 41.04 76.5224 39.786 75.8884 38.528C75.7704 38.295 76.0014 37.95 76.2574 37.971C76.6294 38 77.0343 37.96 77.3624 38.099C78.9404 38.764 80.6124 39.016 82.2813 39.272C85.5574 39.772 88.8154 39.879 92.0244 38.787C94.5114 37.94 97.0084 37.117 99.5254 36.371C103.191 35.282 105.916 32.905 108.335 30.098C108.754 29.613 109.039 28.99 109.291 28.39C109.562 27.754 109.187 26.961 108.487 26.446ZM90.3233 88.79C90.6544 88.487 91.0354 88.24 91.3314 88.015C91.6514 88.178 91.8523 88.225 91.9714 88.351C92.5554 88.961 93.1423 89.571 93.6824 90.22C96.4444 93.534 99.1944 96.859 101.94 100.188C102.296 100.622 102.617 101.089 102.919 101.564C103.373 102.28 103.131 103.524 102.426 104.088C102.322 104.172 102.044 104.179 101.94 104.099C101.426 103.703 100.874 103.327 100.462 102.835C99.2624 101.394 98.1404 99.888 96.9554 98.433C94.7054 95.67 92.4343 92.924 90.1713 90.172C89.6753 89.57 89.6804 89.376 90.3233 88.79ZM84.5504 78.745C84.7114 78.818 84.9364 78.846 85.0244 78.97C86.3154 80.79 87.5923 82.62 88.8543 84.461C88.9273 84.566 88.8324 84.79 88.8024 84.957C88.8014 84.963 88.6523 84.975 88.6043 84.939C87.6873 84.242 86.3233 84.015 86.1013 82.583C85.4373 81.943 84.7663 81.31 84.1153 80.658C83.8273 80.371 83.0634 80.406 83.3134 79.784C83.4714 79.396 83.9523 79.138 84.2973 78.832C84.3573 78.777 84.4644 78.773 84.5504 78.745ZM76.6764 52.316C79.8974 53.819 81.6863 56.472 82.5583 59.786C83.0083 61.497 83.2614 63.268 83.5144 65.024C83.6754 66.145 83.4753 67.235 83.0593 68.325C81.8064 71.596 80.1583 74.613 77.8373 77.256C76.6804 78.574 75.3103 79.402 73.5623 79.744C71.4553 80.154 69.3894 80.783 67.2874 81.236C65.3384 81.658 63.3883 81.728 61.4873 80.905C60.4593 80.461 59.3483 80.187 58.3623 79.669C55.8343 78.341 54.2863 76.111 53.1733 73.574C52.1453 71.228 51.6293 68.764 51.8123 66.179C51.8593 65.527 51.8193 64.867 51.8193 64.211H51.8783C51.8783 62.991 51.8083 61.768 51.8913 60.554C52.1473 56.805 53.7383 53.73 56.7083 51.404C57.4513 50.82 58.2953 50.463 59.2513 50.292C62.0333 49.799 64.8354 49.69 67.6504 49.625C70.0474 49.571 72.3054 50.059 74.4384 51.139C75.1904 51.519 75.9144 51.96 76.6764 52.316ZM85.4554 32.59C85.4214 32.709 85.1624 32.835 85.0014 32.836C83.2214 32.854 81.4403 32.848 79.6593 32.848V32.902C77.9713 32.902 76.2834 32.909 74.5954 32.897C74.1544 32.893 73.8633 32.552 74.0473 32.195C74.5043 31.313 74.4434 30.38 74.4534 29.446C74.4804 27.101 74.5014 24.756 74.5473 22.412C74.5554 22.049 74.6514 21.678 74.7744 21.334C74.8144 21.219 75.1314 21.073 75.2074 21.12C75.5163 21.321 75.8113 21.562 76.0574 21.836C79.1293 25.251 82.1944 28.67 85.2523 32.097C85.3683 32.227 85.4934 32.452 85.4554 32.59ZM94.7754 28.807C93.0303 29.712 91.2744 30.596 89.5163 31.478C89.1384 31.668 88.7743 31.569 88.4783 31.307C87.9883 30.872 87.5063 30.422 87.0554 29.948C83.4394 26.141 79.8444 22.315 76.2094 18.525C75.5254 17.813 75.4044 17.092 75.7474 16.229C76.6594 13.94 78.0714 11.963 79.6143 10.071C79.6733 9.99899 79.9923 10.017 80.0694 10.103C80.3783 10.448 80.6544 10.828 80.9184 11.211C83.6313 15.15 86.3844 19.061 89.6244 22.595C91.1433 24.253 92.7383 25.84 94.2943 27.465C94.5493 27.73 94.7744 28.024 94.9883 28.275C94.9014 28.508 94.8864 28.749 94.7754 28.807ZM100.238 32.113C100.145 32.118 99.9283 31.84 99.9513 31.734C100.119 30.987 100.637 30.534 101.345 30.317C101.446 30.287 101.622 30.502 101.764 30.605C101.795 30.691 101.878 30.807 101.849 30.853C101.465 31.467 101.051 32.064 100.238 32.113ZM69.7484 55.575C68.3243 53.737 65.3683 53.229 63.1343 54.749C61.1473 56.101 60.9353 59.131 62.6763 60.928C62.9143 61.173 63.2603 61.486 63.6553 61.206C63.8633 61.057 64.0834 60.794 64.1203 60.556C64.2374 59.816 64.2373 59.058 64.3403 58.317C64.4253 57.717 64.7814 57.276 65.3824 57.116C66.0434 56.939 66.7094 56.948 67.2143 57.491C67.7993 58.122 68.1804 58.868 68.2934 59.737C68.4594 61.01 68.1684 62.146 67.3803 63.175C66.7553 63.991 66.1094 64.809 65.6214 65.705C65.1133 66.639 65.9454 67.856 67.0364 67.936C67.8404 67.996 68.5504 67.769 69.0274 67.113C69.6894 66.205 70.3314 65.276 70.9004 64.308C71.4824 63.318 71.7393 62.221 71.6183 61.207C71.6283 59.015 71.0064 57.199 69.7484 55.575ZM66.3154 69.913C64.8204 70.548 64.1874 71.527 64.2024 73.415C64.2383 73.656 64.2593 74.13 64.3813 74.576C64.6853 75.69 66.2514 76.881 67.3663 76.736C68.4953 76.591 69.4934 76.18 70.0384 74.992C70.6894 73.568 70.4994 72.263 69.7413 70.989C69.0383 69.807 67.5924 69.371 66.3154 69.913Z" fill="#3D94F2"/>
</svg>
