<svg width="100" height="92" viewBox="0 0 100 92" fill="none" xmlns="http://www.w3.org/2000/svg">
<path fill-rule="evenodd" clip-rule="evenodd" d="M53.7865 77.6768C56.3418 77.5632 58.9089 77.7313 61.4641 77.6386C64.1084 77.5441 66.7337 78.2958 69.3816 77.7668C69.5525 77.7322 69.7434 77.7977 69.9252 77.8113C71.9287 77.954 73.9304 78.0958 75.8038 78.2295C79.3163 78.0168 82.6851 77.8077 86.0548 77.6095C87.172 77.5441 87.9492 77.0168 88.3646 75.976C89.0755 74.1898 89.7127 72.3927 89.5682 70.4101C89.5145 69.6856 89.4854 68.9175 89.6627 68.2257C90.1899 66.1468 90.0554 64.0461 90.0045 61.9508C89.8954 57.3884 89.4218 52.8406 89.5573 48.2665C89.6091 46.533 89.5054 44.794 89.4373 43.0578C89.34 40.5944 89.1746 38.1327 89.1018 35.6684C89.0273 33.1123 89.1537 30.5652 89.3309 28.009C89.6863 22.9085 89.8391 17.7926 90.0799 12.6839C90.0972 12.3203 90.099 11.9431 90.1954 11.5967C91.4735 7.00984 91.5416 2.20933 92.6625 -2.40847C92.8706 -3.2684 92.7434 -4.22833 92.6516 -5.13007C92.627 -5.38368 92.2161 -5.72638 91.9243 -5.80092C90.9926 -6.03636 90.1217 -5.77002 89.3164 -5.26006C86.7984 -3.66655 83.9813 -2.97206 81.0898 -2.43302C77.7755 -1.81398 74.4939 -1.01313 71.1751 -0.418637C68.4853 0.0640507 65.7719 0.566737 63.0522 0.691272C58.4889 0.898528 53.912 0.819443 49.3415 0.846714C43.8574 0.87853 38.3733 0.909436 32.8883 0.906709C31.3984 0.9058 30.0049 1.22395 28.6131 1.71846C27.8059 2.0048 27.0787 2.33568 26.6551 3.10017C26.3452 3.6583 25.9788 3.85828 25.3298 3.66648C24.5462 3.43468 23.7363 3.26651 22.9263 3.1538C21.8446 3.00199 20.7447 2.79019 19.6666 2.852C17.425 2.98108 16.0333 4.15281 15.9705 6.41717C15.9542 6.96621 15.9542 7.51435 15.9333 8.06249C15.696 14.4783 16.1733 20.8323 17.4477 27.1309C17.8086 28.9162 17.9813 30.7406 18.2076 32.5514C18.2876 33.195 17.8668 33.6095 17.2168 33.5086C14.7488 33.1259 12.299 33.3286 9.84559 33.634C8.35935 33.8186 7.77213 34.4158 7.75758 35.8993C7.75395 36.3493 7.76122 36.8447 7.93575 37.2428C8.22118 37.8919 7.97938 38.5 7.95938 39.1208C7.93666 39.8917 7.78031 40.1171 7.03219 40.1644C4.64875 40.3144 2.68073 41.4298 0.778154 42.7287C-0.243581 43.4278 -0.259943 43.9432 0.72634 44.544C1.27084 44.8749 1.90806 45.1113 2.34621 45.5476C3.96426 47.1593 5.51322 48.841 7.10127 50.4836C7.4667 50.8626 7.49124 51.2426 7.3158 51.7162C6.55768 53.7706 5.80138 55.8258 5.08417 57.8939C3.94244 61.1881 4.06334 64.536 4.73056 67.8985C5.16689 70.0965 6.30043 71.9718 7.47579 73.8307C8.89295 76.0705 10.9619 77.5368 13.269 78.7085C13.7471 78.9521 14.298 79.1203 14.8315 79.1803C16.6441 79.383 18.4676 79.4875 20.2802 79.6903C23.5927 80.0611 26.8351 79.3957 30.103 79.1003C31.8283 78.944 33.6073 78.944 35.2617 78.4994C38.765 77.5559 42.322 77.675 45.8717 77.6386C48.5097 77.6077 51.1431 77.7941 53.7865 77.6768ZM8.4748 48.1501C7.38852 46.9466 6.30316 45.7412 5.22052 44.5331C4.9869 44.2732 5.17052 43.7877 5.54504 43.7105C5.98682 43.6196 6.43678 43.5668 6.88038 43.4823C9.08747 43.0669 9.35109 43.2741 9.44472 45.5167C9.45108 45.6976 9.44563 45.8794 9.44563 46.6039C9.41381 46.7739 9.29746 47.4747 9.13474 48.1647C9.11475 48.2474 8.84386 48.2901 8.68387 48.3092C8.62024 48.3165 8.53479 48.2156 8.4748 48.1501ZM23.5463 72.4799C22.0073 73.8925 20.1566 74.5598 18.1186 74.8297C15.5706 75.1679 13.6444 73.9507 12.1036 72.1963C9.43654 69.1593 8.35117 65.5032 8.91476 61.5163C9.15292 59.8319 9.96377 58.2275 10.5464 56.5985C10.7292 56.0849 11.0437 55.6204 11.2455 55.1123C11.9827 53.2606 12.8944 51.478 12.7935 49.3655C12.7417 48.2928 13.168 47.2056 13.2053 46.1203C13.2871 43.6623 13.4371 41.1916 12.6945 38.7818C12.4908 38.1209 12.8399 37.6464 13.4735 37.6701C15.2015 37.7364 16.9305 37.8528 18.6585 37.9564C19.3039 37.9955 19.583 38.4118 19.743 38.9936C20.0339 40.0462 20.2884 41.1216 20.6965 42.1306C21.9855 45.3067 22.55 48.6019 22.4846 51.5453C22.5218 52.1971 22.5309 52.3798 22.5418 52.5625C22.7345 55.4177 22.6909 55.1377 19.883 55.1041C19.2612 55.0959 18.6458 54.8314 18.0177 54.7587C17.2104 54.6641 16.3832 54.5332 15.586 54.6159C14.4052 54.7396 13.6098 55.7713 13.6571 56.8858C13.6807 57.4566 14.2952 58.0302 14.7625 57.7739C15.8487 57.1776 16.8168 57.5575 17.9049 57.7511C19.3203 58.0011 20.8056 57.8602 22.2619 57.8666C22.66 57.8684 22.9863 57.9575 23.0909 58.3684C23.249 58.9874 23.3872 59.6119 23.489 60.2419C23.5517 60.6282 23.4008 60.9436 22.9854 61.0745C20.7011 61.7944 18.8703 61.8835 16.5587 61.3827C15.6388 61.1845 15.0943 61.4472 14.5452 62.3526C14.3125 62.7371 14.4707 63.4352 14.8715 63.5161C16.0069 63.7461 17.0541 64.4415 18.3067 64.1134C18.724 64.0052 19.223 64.0452 19.6475 64.1597C20.4947 64.387 21.2583 64.1352 22.0646 63.9688C22.5518 63.8679 23.2109 63.2189 23.5127 63.7679C23.8799 64.437 23.8644 65.3233 23.9708 66.1214C23.9835 66.2186 23.7481 66.3959 23.5963 66.4577C23.4354 66.5241 23.2372 66.5113 23.0563 66.5104C22.0591 66.5077 21.0765 66.6604 20.0702 66.3459C19.2212 66.0814 18.3058 66.8031 17.3913 66.3441C16.9368 66.1159 16.5014 66.3532 16.106 66.5904C15.6978 66.8349 15.396 67.1631 15.4179 67.6794C15.4397 68.2212 15.8006 68.4848 16.2642 68.6094C16.7914 68.7512 17.3277 68.9102 17.8686 68.9484C19.5866 69.0711 21.3083 69.1402 23.0291 69.2275C23.7199 69.2611 24.0553 69.5511 24.0926 70.1919C24.1126 70.5565 24.1053 70.9228 24.1035 71.2873C24.1017 71.7682 23.9063 72.15 23.5463 72.4799ZM24.5953 9.52509C23.7426 12.5212 23.4908 15.61 23.2 18.6771C22.8463 22.3868 22.7664 26.1228 22.5636 29.8471C22.5236 30.5743 22.4637 31.2997 22.4028 32.0251C22.3955 32.1114 22.3337 32.1923 22.2982 32.275C22.2482 32.2141 22.1737 32.1587 22.1555 32.0896C21.9273 31.2124 21.6401 30.3434 21.4965 29.4526C20.7338 24.6884 20.0057 19.9197 20.292 15.3773C20.2247 12.883 20.1684 10.6995 20.1057 8.51518C20.0829 7.78796 20.372 7.43254 21.0092 7.49253C21.7319 7.56071 22.4527 7.74251 23.1736 7.74069C25.0016 7.73524 24.9098 8.417 24.5953 9.52509ZM31.5302 74.4543C30.8921 74.467 30.2512 74.4307 29.6167 74.3698C29.4958 74.358 29.2776 74.0871 29.3049 74.0034C30.1994 71.3146 29.6167 68.563 29.6431 65.8414C29.6712 63.0998 29.7103 60.3473 29.4994 57.6184C28.9777 50.8626 29.1186 44.1032 29.2186 37.3455C29.2786 33.2368 29.4304 29.1235 29.7567 25.0293C30.0094 21.8532 30.5394 18.6943 31.0502 15.5446C31.4293 13.2093 31.932 10.8904 32.4628 8.58335C32.7083 7.52253 33.1637 6.51079 33.5046 5.47088C33.7109 4.85002 34.1545 4.64004 34.7599 4.65458C35.4917 4.67367 36.2334 4.61095 36.9506 4.71821C42.2202 5.50451 47.5252 5.23454 52.8175 5.24817C54.451 5.25272 56.1045 5.20454 57.709 4.73276C58.2244 4.58095 58.797 4.58004 59.3434 4.58641C63.9357 4.64004 68.4244 3.90283 72.895 2.93382C75.6548 2.33568 78.4582 1.93753 81.2188 1.34304C83.3541 0.883075 85.4521 0.256762 87.5674 -0.292284C87.9319 -0.387731 88.3364 -0.068666 88.2919 0.286759C87.9101 3.36014 87.702 6.44989 87.1984 9.51055C86.8148 11.8467 86.4439 14.2002 86.2975 16.56C85.9639 21.9395 85.7748 27.3273 85.5176 32.7114C85.4703 33.7131 85.3658 34.713 85.3321 35.7157C85.2967 36.8101 85.2685 37.9091 85.3158 39.0027C85.4558 42.287 85.6339 45.5703 85.8003 48.8537C85.8285 49.4009 85.8694 49.9463 85.9066 50.4926C85.9994 51.858 86.1394 53.2215 86.1739 54.5887C86.2375 57.1448 86.1821 59.7055 86.283 62.2599C86.3875 64.9351 85.9485 67.5422 85.454 70.1401C85.0185 72.419 84.235 73.0408 81.9306 73.1608C80.6534 73.2271 79.3735 73.2353 78.0927 73.2635C75.7211 73.3162 73.3549 73.3235 70.9806 73.5826C68.5362 73.8489 66.0446 73.6635 63.5867 73.848C57.109 74.3352 50.625 74.3125 43.6819 74.208C39.9368 74.2862 35.7326 74.3771 31.5302 74.4543ZM99.4565 80.8193C99.0201 79.3766 98.3329 78.854 96.8912 78.9449C95.7086 79.0194 94.5278 79.113 93.346 79.1685C91.6135 79.2494 89.8754 79.2657 88.1446 79.3803C86.4184 79.493 84.6958 79.6921 82.9723 79.8521C82.3369 79.9111 81.6915 79.913 81.0661 80.0284C76.2111 80.9238 71.3251 81.4656 66.3828 81.3847C63.8366 81.3428 61.3087 81.8837 58.7516 81.5946C58.3235 81.5465 57.8608 81.741 57.4217 81.8592C55.3991 82.4064 53.3884 82.9982 51.3586 83.5127C49.3042 84.0335 47.5116 85.1607 45.5581 85.9134C45.3909 85.9779 45.2436 86.0961 45.0954 86.2015C44.1946 86.8406 44.2673 88.2105 45.2463 88.6804C45.6499 88.8731 46.1026 89.0922 46.5299 89.0849C47.9525 89.0622 49.1833 89.6267 50.4532 90.1458C51.4595 90.5566 52.513 90.9439 53.5802 91.1002C55.7427 91.4175 57.9271 91.5884 60.1069 91.7802C60.9214 91.8511 61.7868 91.9747 62.5604 91.7911C64.8138 91.2557 67.0964 91.4311 69.3671 91.3384C71.0097 91.2711 72.6586 91.3766 74.2994 91.2884C75.9329 91.2002 77.561 90.8321 79.1899 90.8393C80.8525 90.8457 82.4433 90.5366 84.0413 90.2112C86.2912 89.7513 88.5637 89.6685 90.8453 89.5576C91.7553 89.5576 92.6697 89.5013 93.5733 89.5704C95.2422 89.7003 96.8348 89.2295 98.4593 89.0304C99.3828 88.9168 99.9082 88.2668 99.9437 87.3396C100.03 85.1516 100.105 82.9591 99.4565 80.8193ZM56.7054 88.3986C56.1854 88.3095 55.1928 88.1859 54.2283 87.9496C53.9211 87.875 53.6656 87.5242 53.4257 87.2624C53.1966 87.0142 53.2957 86.3943 53.5911 86.3106C54.8019 85.9679 56.0218 85.6561 57.2463 85.368C57.3544 85.3416 57.5935 85.5352 57.649 85.6752C57.8489 86.1806 58.0226 86.6997 58.158 87.226C58.3589 88.0096 57.9789 88.4523 56.7054 88.3986ZM62.5804 86.2843C62.2704 86.726 61.9286 87.1487 61.5759 87.5551C61.3714 87.7896 61.0769 87.6796 61.0041 87.3533C60.9051 86.9088 60.816 86.4597 60.7414 86.0107C60.6696 85.578 60.8778 85.3543 61.4241 85.3498C61.6004 85.3725 61.8759 85.388 62.1386 85.4516C62.5095 85.5443 62.7685 86.0161 62.5804 86.2843ZM66.6146 88.0805C66.2273 88.0605 65.9219 87.7287 65.9719 87.3824C66.1528 86.1188 66.7864 85.6407 68.0408 85.8561C68.1808 85.8788 68.2935 86.0652 68.4181 86.1752C68.4026 87.3814 67.6863 88.1368 66.6146 88.0805ZM76.1574 86.3043C76.1174 86.4724 75.9702 86.6115 75.8984 86.7742C75.4884 87.7087 74.8048 88.1668 74.194 88.0759C73.4967 88.0141 73.1931 88.0605 72.975 87.9441C72.8059 87.8532 72.605 87.4896 72.6632 87.3669C72.9386 86.8051 73.3004 86.287 73.6286 85.7507C73.984 85.1689 74.4912 84.8453 75.1784 84.8462C75.6184 84.8462 76.2238 84.7098 76.4665 84.9389C76.9547 85.3998 76.2683 85.8361 76.1574 86.3043ZM80.7789 85.2471L80.7471 85.3216C80.7234 85.3352 80.7107 85.3562 80.688 85.3707C80.7862 86.0597 80.6162 86.6679 80.088 87.1633C80.0398 87.2087 79.9371 87.256 79.8944 87.2342C79.8235 87.1987 79.7181 87.0869 79.7326 87.0424C79.9408 86.4224 80.0789 85.757 80.6871 85.3707C80.6816 85.3298 80.6843 85.2916 80.6771 85.2498C80.7116 85.2489 80.7452 85.248 80.7789 85.2471C80.8352 85.1144 80.8925 84.9807 80.9498 84.848C81.2234 85.2062 81.0189 85.2389 80.7789 85.2471ZM88.8891 86.3643C88.5337 86.4261 88.1701 86.447 87.8092 86.4679C87.5392 86.4842 87.2656 86.4715 86.9075 86.4715C86.3657 86.5524 85.743 86.6506 85.1176 86.7351C84.8658 86.7697 84.564 86.4224 84.6667 86.2124C84.944 85.6489 85.2267 85.088 85.5367 84.5408C85.6185 84.3971 85.7912 84.2481 85.9485 84.2108C87.0847 83.9363 88.2301 83.5454 89.4 83.9235C89.6572 84.0072 89.9181 84.4371 89.969 84.7417C90.0999 85.5289 89.5845 86.2434 88.8891 86.3643ZM96.5021 86.317C96.1422 86.4888 95.7231 86.387 95.5786 86.0379C95.2359 85.2107 94.9859 84.3444 94.7014 83.4927C94.4814 82.8318 94.7986 82.1891 95.5904 81.7719C95.6977 81.7155 95.9322 81.7828 96.0385 81.8746C96.1631 81.981 96.2513 82.1682 96.2885 82.3355C96.5349 83.4754 96.763 84.6199 97.0166 85.8497C96.8639 85.9934 96.713 86.2161 96.5021 86.317ZM42.3448 49.0219C45.6308 48.9328 48.9206 48.8655 52.2076 48.9191C53.9611 48.9482 55.6728 48.8691 57.3399 48.3301C59.0397 47.7811 60.7878 48.0992 62.5122 48.0047C62.6158 47.9992 62.8494 48.2656 62.8267 48.3555C62.424 49.93 63.0131 51.4126 63.2112 52.9306C65.0102 54.5796 67.1318 55.2641 69.5844 55.1968C72.5959 55.1132 75.612 55.1668 78.6263 55.1477C78.8918 55.1468 79.209 55.1186 79.4108 54.9759C79.6881 54.7805 80.0326 54.4778 80.0608 54.1923C80.0889 53.9115 79.8226 53.5169 79.5708 53.3142C79.3063 53.1033 78.9136 53.0115 78.5636 52.957C78.0227 52.8734 77.4701 52.8806 76.9265 52.8125C76.8192 52.7988 76.711 52.6325 76.6447 52.5125C76.6201 52.4679 76.6965 52.3361 76.7592 52.2807C77.6491 51.5007 78.5854 50.7663 79.4317 49.9418C80.9607 48.4555 82.116 46.7302 82.6733 44.6322C82.9787 43.4805 82.7942 42.4242 82.0524 41.5425C81.6588 41.0734 81.068 40.728 80.5053 40.4535C79.8362 40.1271 79.2699 39.8235 78.9072 39.0772C78.5682 38.3809 77.8273 38.1818 77.0137 38.3336C76.3902 38.4509 75.7484 38.5045 75.113 38.5145C73.195 38.5473 71.2751 38.5327 69.3571 38.5663C68.6299 38.5791 67.899 38.6482 67.1773 38.7427C66.601 38.8181 66.1901 39.4417 66.5046 39.9644C66.9927 40.7725 66.8482 41.2489 66.1283 41.7852C64.9175 42.6833 64.2639 44.0032 63.633 45.3312C63.4676 45.6794 63.1558 45.8785 62.7458 45.6412C61.5386 44.9413 60.2187 45.1722 58.9998 45.4003C57.4481 45.6903 55.9155 45.6676 54.3656 45.6621C53.3639 45.6594 52.3594 45.5967 51.4004 46.0285C51.0804 46.1721 50.6959 46.2085 50.3368 46.223C45.6872 46.4166 41.0376 46.6002 36.3871 46.7757C35.6571 46.802 34.9245 46.7475 34.1954 46.7811C33.8409 46.7984 33.4591 46.872 33.1528 47.0347C32.9428 47.1447 32.7292 47.4538 32.7219 47.6792C32.7146 47.9029 32.9183 48.1937 33.1155 48.3474C33.3146 48.5046 33.6127 48.571 33.8773 48.6101C36.6861 49.0264 39.5077 49.0982 42.3448 49.0219ZM65.3347 48.9546C65.3592 46.7202 65.5501 46.7111 67.4518 46.8575C67.9963 46.9002 68.5444 46.8648 69.0926 46.8648C69.098 46.9266 69.1026 46.9875 69.108 47.0493C70.7343 46.8711 72.3568 46.6602 73.9849 46.5257C75.163 46.4293 76.3502 46.4393 77.531 46.3875C78.0218 46.3657 78.4336 46.0066 78.5027 45.5858C78.59 45.0485 78.2236 44.4177 77.7364 44.2941C77.4746 44.2286 77.2028 44.1523 76.9365 44.1595C75.8429 44.1859 74.7294 44.125 73.6622 44.3141C71.4851 44.6986 69.2953 44.5113 67.1164 44.6322C66.9955 44.6395 66.8664 44.4613 66.7391 44.3677C66.9018 44.1623 67.1736 43.7623 67.2091 43.7823C68.2835 44.3841 68.9044 43.6977 69.478 42.9851C70.1579 42.1397 71.0879 41.7961 72.0896 41.6425C74.5648 41.2589 76.9937 41.5379 79.3526 42.3451C80.5334 42.7487 80.7825 43.2814 80.1762 44.424C79.5853 45.5385 78.869 46.6157 78.0509 47.5738C76.4883 49.4 74.5003 50.6826 72.3396 51.7207C70.7006 52.5079 68.9871 52.5234 67.2545 52.327C66.1555 52.2034 65.4574 51.4126 65.362 50.3227C65.322 49.8691 65.3292 49.41 65.3347 48.9546ZM50.785 69.8583C50.8768 69.7329 50.9104 69.5065 50.8668 69.3557C50.8222 69.2029 50.6577 68.9811 50.5332 68.973C49.626 68.913 48.7151 68.9211 47.8079 68.8648C47.0853 68.8193 46.359 68.7557 45.6527 68.6103C45.4527 68.5684 45.1927 68.2112 45.1927 67.9985C45.1927 67.8085 45.4918 67.484 45.6963 67.4522C46.5944 67.3113 47.508 67.2785 48.4097 67.1595C48.9206 67.0922 49.346 66.5068 49.3615 65.9623C49.376 65.4414 49.0924 65.0815 48.6533 64.8969C48.2415 64.7242 47.7779 64.6769 47.3489 64.5388C47.0371 64.4406 46.7444 64.2852 46.4435 64.1552C46.6862 63.8915 46.8971 63.587 47.1762 63.3725C48.2006 62.5817 49.3751 62.0972 50.5995 61.6926C52.6357 61.0191 54.7401 61.0718 56.8363 61.1054C57.9335 61.1054 59.0361 61.0254 60.1224 61.1281C61.1123 61.2218 62.0904 61.4818 63.0585 61.7272C63.6685 61.8817 63.7239 62.4735 63.2776 63.0125C62.8349 63.5479 62.2977 63.7788 61.6095 63.7888C59.7824 63.8161 57.9553 63.8588 56.13 63.9306C55.5891 63.9515 55.0355 64.0261 54.5219 64.187C53.9893 64.3561 53.5666 64.7306 53.4357 65.3214C53.3384 65.7623 54.0338 66.3541 54.7974 66.4332C55.341 66.4895 55.8927 66.5022 56.4381 66.4677C57.0736 66.4277 57.7026 66.2914 58.3389 66.2486C58.5489 66.235 58.7698 66.385 58.9861 66.4595C58.8107 66.6622 58.6716 66.9477 58.448 67.0504C57.4562 67.5049 56.43 67.8839 55.4373 68.3339C54.7792 68.6312 54.1392 68.9766 53.5229 69.352C53.1666 69.5684 53.232 70.3138 53.6184 70.5219C54.0111 70.7337 54.4301 70.961 54.861 71.0219C56.0618 71.19 57.2126 70.9528 58.328 70.4574C60.2724 69.5911 61.9204 68.3012 63.533 66.9486C63.9439 66.6041 64.3775 66.1495 64.8593 66.0559C66.0919 65.8178 66.5764 65.2478 66.3592 63.9706C66.2564 63.3634 66.531 62.7007 66.4964 62.0699C66.4673 61.5445 66.3746 60.9191 66.0674 60.5309C65.1129 59.3201 64.1502 58.0684 62.2822 58.3002C61.6677 58.3756 61.0196 58.1602 60.386 58.0884C56.9972 57.6966 53.6466 57.8293 50.3686 58.8756C49.8487 59.042 49.3478 59.2965 48.817 59.3937C48.1561 59.5155 48.0161 58.7292 47.5343 58.5247C47.2071 58.3866 46.8426 58.2975 46.488 58.2684C46.0354 58.2311 45.5754 58.2602 45.1191 58.2875C42.1166 58.4656 39.1514 59.1056 36.1189 58.9792C35.6244 58.9583 35.0899 59.2828 34.6145 59.5274C34.1445 59.7692 34.1827 60.6164 34.6308 60.92C35.4171 61.4545 36.2962 61.589 37.2297 61.6299C39.1577 61.7154 41.0503 61.4508 42.952 61.1881C43.9246 61.0545 44.9145 61.0445 45.8972 60.9781C45.8736 62.1381 44.6609 62.4089 44.1946 63.2443C43.9737 63.6407 43.651 63.9797 43.4065 64.3642C43.1301 64.7988 42.7229 64.9415 42.2493 64.9533C41.2439 64.9769 40.2377 64.9906 39.2332 65.0096C38.3196 65.0251 37.4024 64.9942 36.4934 65.0733C35.9625 65.1187 35.4108 65.2687 34.9363 65.5069C34.6554 65.6478 34.34 66.0605 34.35 66.3395C34.3609 66.6095 34.7299 67.0304 35.009 67.0967C35.9798 67.3258 36.9743 67.4922 37.9688 67.5694C39.1514 67.6603 40.3431 67.6403 41.5321 67.654C42.2566 67.6621 42.6865 67.933 42.8802 68.7002C43.1692 69.8411 43.9555 70.7264 45.0936 70.9046C46.8053 71.1728 48.5624 71.1846 50.1977 70.401C50.4286 70.2892 50.6286 70.071 50.785 69.8583ZM57.7708 14.8074C57.9035 17.1663 57.9853 19.5279 58.1062 21.8877C58.1616 22.9831 58.2035 24.0448 57.5771 25.0447C57.059 25.8719 57.8308 26.9155 58.7107 27.1164C58.9743 27.1755 59.2516 27.1946 59.5243 27.1991C60.2515 27.2109 60.9796 27.2036 61.7086 27.2036V27.1237C62.6176 27.1237 63.5267 27.1346 64.4357 27.1209C65.4674 27.1055 66.3746 26.6891 67.2663 26.2192C68.1208 25.7692 68.6499 25.0465 68.9789 24.173C69.6925 22.2695 69.0308 19.7561 67.4445 18.458C66.96 18.0608 66.3492 17.8208 65.8437 17.4444C65.6874 17.3272 65.5919 16.9699 65.6428 16.77C65.7319 16.4263 65.9946 16.1327 66.1219 15.7955C66.9491 13.6029 65.8983 11.7213 63.6112 11.3268C63.0776 11.235 62.5213 11.284 61.9777 11.2513C61.3459 11.2131 60.6451 11.3131 60.0978 11.0731C59.1316 10.6477 58.5607 11.1086 57.9353 11.6786C57.0999 12.4421 57.0826 12.483 57.4244 13.5175C57.5653 13.9402 57.7462 14.372 57.7708 14.8074ZM64.2602 20.2997C64.7593 20.4297 65.3092 20.6796 65.6447 21.0478C66.4928 21.9795 65.891 23.5312 64.6447 23.743C64.1148 23.8339 63.5703 23.8385 63.1231 23.8757C62.7622 23.853 62.4913 23.8466 62.2249 23.8148C61.8304 23.7685 61.5705 23.5585 61.5041 23.1522C61.4759 22.9749 61.4523 22.7958 61.4405 22.6167C61.2841 20.3033 61.9841 19.7088 64.2602 20.2997ZM62.4313 13.9166C62.5631 13.9293 62.8349 13.9293 63.0921 13.9902C63.2558 14.0284 63.513 14.1465 63.5239 14.2493C63.5494 14.4929 63.5394 14.8483 63.3876 14.9801C62.7913 15.4982 62.1413 15.9582 61.4914 16.4109C61.4205 16.4618 61.1378 16.3627 61.0932 16.2682C60.985 16.0346 60.926 15.7664 60.9051 15.5073C60.796 14.1238 60.9914 13.9075 62.4313 13.9166ZM35.449 36.9674C38.1887 36.9656 40.9267 36.9665 43.6656 36.9665V36.8229C44.4873 36.8229 45.31 36.7838 46.1281 36.8301C50.8913 37.0956 55.59 36.3802 60.3051 35.9075C60.6569 35.872 61.016 35.7484 61.335 35.592C61.9668 35.2821 62.2249 34.2776 61.8377 33.6813C61.4759 33.1195 60.9732 32.7105 60.276 32.7223C59.7333 32.7314 59.1961 32.8659 58.6543 32.9195C57.119 33.0704 55.5855 33.2559 54.0474 33.335C52.7766 33.4004 51.4858 33.2141 50.225 33.3486C46.4962 33.7467 42.7556 33.7522 39.0168 33.8076C37.9215 33.824 36.817 33.7431 35.7326 33.8531C35.0326 33.924 34.3309 34.2003 33.6836 34.5012C33.1119 34.7667 33.0619 35.692 33.49 36.1675C34.0173 36.7547 34.6836 36.9683 35.449 36.9674ZM70.4152 18.0989C71.2233 18.5116 72.0796 18.8352 72.9268 19.1698C74.8766 19.9397 75.632 21.4905 75.7566 23.4585C75.7875 23.9439 75.4348 24.3148 74.983 24.4148C73.9049 24.6502 73.0386 24.1748 72.1523 23.6794C71.6669 23.4085 71.0788 23.6512 70.7561 24.1566C70.1825 25.0529 70.4134 26.1301 71.376 26.7791C73.0268 27.8945 74.8121 27.8872 76.6119 27.2418C78.1782 26.681 78.9718 25.4202 78.889 23.8457C78.7463 21.1278 78.0037 18.6207 75.472 17.0527C75.0494 16.7909 74.663 16.4682 74.2658 16.1664C74.2058 16.1691 74.1576 16.1755 74.0949 16.1773C74.0949 16.15 74.0949 16.1227 74.094 16.0964C73.854 16.0955 73.5986 16.13 73.3968 16.04C73.005 15.8655 72.6568 15.5946 72.2905 15.3646C72.585 14.9619 72.8377 14.5165 73.185 14.1684C73.5522 13.8002 74.0158 14.0365 74.0594 14.6001C74.0976 15.0965 74.0867 15.5973 74.0931 16.0964C74.1203 16.0964 74.1485 16.0955 74.1749 16.0964C74.2049 16.1191 74.2349 16.1427 74.2658 16.1664C76.3047 16.0673 76.7838 15.6273 76.8928 13.7511C76.9247 13.2066 76.911 12.6521 76.8374 12.1131C76.7219 11.2522 76.0547 10.6777 75.1666 10.5741C72.6541 10.2823 71.0442 11.6704 69.6962 13.5257C69.1935 14.2202 69.0698 15.0274 69.0798 15.8691C69.0944 16.8763 69.5353 17.649 70.4152 18.0989ZM47.7325 23.5821C47.7452 24.5266 48.1179 25.3538 48.6615 26.1083C50.2105 28.2563 53.4548 28.1699 54.8428 25.7556C55.3082 24.9466 55.48 24.0766 55.5355 23.1458C55.6791 20.7433 55.1564 18.438 54.611 16.1336C54.4238 15.3401 54.2338 14.5356 53.9311 13.7811C53.4511 12.583 52.2994 11.8413 51.1904 11.8976C49.876 11.9631 48.4815 13.0194 48.2634 14.3247C47.9661 16.1164 47.8225 17.9335 47.6125 19.7388C47.6498 19.7433 47.6889 19.7488 47.728 19.7533C47.7289 21.0287 47.7152 22.3059 47.7325 23.5821ZM50.675 16.0927C50.6786 15.9709 50.8795 15.7728 51.0031 15.7609C51.134 15.7473 51.3795 15.8928 51.4076 16.0091C51.9622 18.3089 52.5121 20.616 52.2903 23.0122C52.2576 23.3603 52.1303 23.7103 51.9849 24.0294C51.9312 24.1457 51.6976 24.1948 51.5358 24.2366C51.474 24.253 51.3422 24.183 51.314 24.1194C51.094 23.6348 50.7495 23.1531 50.7113 22.6504C50.6223 21.4714 50.6841 20.2833 50.6841 19.0979C50.675 19.097 50.6677 19.097 50.6613 19.097C50.6604 18.0953 50.6477 17.0945 50.675 16.0927ZM34.8745 25.2829C35.5926 26.4973 36.5825 27.4673 37.8933 27.969C39.3459 28.5244 40.7231 28.4008 41.933 27.2064C43.511 25.6474 44.4046 23.8376 44.3928 21.6023C44.3855 20.2306 44.3909 18.8598 44.3909 17.4872C44.4246 17.4872 44.4582 17.4881 44.4909 17.4881C44.4909 15.9337 44.5182 14.3783 44.4828 12.8248C44.4528 11.5022 43.331 10.6786 42.043 11.0041C40.3631 11.4286 38.6905 11.8813 37.017 12.3285C36.8452 12.3749 36.6798 12.463 36.5161 12.5385C35.9998 12.7766 35.6644 13.3357 35.7226 13.8538C35.7789 14.382 36.2516 14.9165 36.7879 14.9483C37.6079 14.9974 38.4333 15.0101 39.2541 14.9792C39.7977 14.9601 40.484 14.5965 40.8476 14.8156C41.4357 15.1701 41.1412 15.9827 41.1485 16.6027C41.1685 18.3398 41.1503 20.0779 41.1539 21.8159C41.1558 23.0113 40.5794 23.9076 39.6886 24.6284C39.3786 24.8802 38.9887 24.9157 38.6951 24.6193C38.1851 24.1048 37.766 23.4939 37.2234 23.0222C36.6998 22.5668 36.0435 22.5849 35.4199 22.8885C34.8663 23.1576 34.5281 23.8503 34.6427 24.503C34.689 24.7702 34.7399 25.0565 34.8745 25.2829ZM33.6946 41.6979C34.4472 42.256 35.3499 42.426 36.2762 42.4297C38.2805 42.4379 40.2831 42.4324 42.2857 42.4324C42.2857 42.4524 42.2866 42.4724 42.2875 42.4924C46.7408 42.327 51.1949 42.1542 55.65 41.9997C57.2881 41.9415 58.9261 41.9297 60.5651 41.8943C61.1369 41.8815 61.6159 41.6697 62.0131 41.2452C62.4222 40.808 62.3731 39.8817 61.8804 39.5463C61.6604 39.3963 61.4132 39.259 61.1578 39.1908C58.3862 38.4527 55.5346 38.3791 52.7548 38.7963C49.9632 39.2136 47.1607 39.4254 44.3628 39.6344C41.4639 39.8508 38.5396 39.7263 35.6262 39.7535C35.0826 39.759 34.5381 39.7572 33.9973 39.8044C33.6291 39.8362 33.121 40.4317 33.201 40.7907C33.2728 41.1198 33.44 41.5097 33.6946 41.6979ZM36.2762 55.7668C37.3697 55.7822 38.4633 55.7713 39.5568 55.7713V55.6504C41.0158 55.6504 42.4757 55.6868 43.931 55.6331C44.5546 55.6104 45.1882 55.455 45.7827 55.2586C46.4453 55.0405 46.7598 54.3996 46.6489 53.7351C46.5426 53.0861 46.0099 52.5288 45.3863 52.4834C44.9355 52.4507 44.4582 52.4089 44.031 52.5207C42.7729 52.8525 41.5003 52.7779 40.2258 52.8006C38.7678 52.8243 37.3079 52.8397 35.8526 52.9224C35.3226 52.9524 34.7872 53.1206 34.2836 53.3079C33.7009 53.5242 33.4346 54.0633 33.5382 54.6114C33.6427 55.1604 34.0618 55.5968 34.6408 55.6695C35.1826 55.7377 35.7308 55.7604 36.2762 55.7668ZM53.0812 53.0515C52.3685 53.0761 51.6513 53.3379 50.9659 53.5751C50.7759 53.6406 50.595 54.0014 50.5804 54.2378C50.5641 54.4723 50.6959 54.8087 50.8804 54.9468C51.6504 55.5295 52.583 55.5968 53.4975 55.5513C56.2336 55.4177 58.967 55.2359 61.7014 55.0668C61.8786 55.0559 62.0622 55.0023 62.2268 54.9323C62.6658 54.7423 63.004 54.4396 63.0703 53.9424C63.1121 53.6124 63.1067 53.2761 63.1167 52.9415C59.7688 52.6843 56.4254 52.9343 53.0812 53.0515ZM63.1167 52.9425C63.1485 52.9452 63.1803 52.9443 63.213 52.947C63.2121 52.9406 63.2112 52.9352 63.2103 52.9288C63.1803 52.9015 63.1485 52.8788 63.1185 52.8506C63.1176 52.8815 63.1176 52.9125 63.1167 52.9425ZM74.9439 35.2666C75.7666 35.2603 76.591 35.2621 77.411 35.2103C77.9737 35.1739 78.4282 34.6685 78.4763 34.1331C78.5227 33.6095 78.0582 33.1613 77.4273 33.1204C77.3346 33.115 77.2446 33.1013 77.1528 33.1023C74.1367 33.1423 71.1188 33.1777 68.1026 33.2341C67.6518 33.2422 67.1973 33.3204 66.7537 33.4059C66.2873 33.4986 65.8292 34.0685 66.0028 34.3831C66.1628 34.6749 66.441 34.9894 66.74 35.0948C67.1545 35.243 67.6345 35.2339 68.0872 35.2393C69.3662 35.2566 70.647 35.2457 71.9278 35.2457V35.2666C72.9323 35.2684 73.9376 35.2748 74.9439 35.2666ZM72.915 60.4664C72.9186 60.5218 72.9232 60.5764 72.9277 60.6318C74.9094 60.41 76.8919 60.21 78.8663 59.9364C79.1454 59.8982 79.4508 59.5374 79.6044 59.251C79.7835 58.9183 79.399 58.2375 79.0099 58.1757C78.3 58.0657 77.5746 57.9529 76.8601 57.9775C74.8657 58.0484 72.8741 58.1847 70.8815 58.3047C70.5197 58.3275 70.1507 58.3638 69.8061 58.4656C69.5571 58.5384 69.3335 58.7165 69.1135 58.8692C68.7371 59.131 68.7762 59.8146 69.1962 60.0055C69.6034 60.19 70.0298 60.4073 70.4625 60.4436C71.2751 60.5155 72.0969 60.4664 72.915 60.4664ZM79.4244 64.3979C77.74 64.0334 76.0438 63.7843 74.4885 63.9052C73.6786 63.9052 73.045 63.8952 72.4132 63.9088C72.0514 63.9161 71.6814 63.9179 71.3333 63.9997C70.8815 64.1061 70.5006 64.3606 70.3816 64.8524C70.2825 65.2569 70.8233 65.8732 71.3824 65.9632C71.8269 66.0332 72.2805 66.0632 72.7305 66.0723C74.5376 66.1105 76.3465 66.0414 78.1309 66.4704C78.5372 66.5686 79.0254 66.4486 79.4499 66.3304C79.9117 66.2014 80.1971 65.8387 80.238 65.3378C80.2726 64.9387 79.9026 64.5015 79.4244 64.3979Z" fill="#EFD101"/>
</svg>
