<svg width="299" height="337" viewBox="0 0 299 337" fill="none" xmlns="http://www.w3.org/2000/svg">
<g clip-path="url(#clip0_459_712)">
<path d="M123.181 245.783C123.323 245.033 123.199 244.346 122.79 244.085C120.986 243.443 119.125 242.974 117.232 242.684C116.831 242.692 116.439 242.807 116.098 243.017C115.756 243.227 115.477 243.525 115.29 243.88C115.062 244.453 114.264 250.34 114.264 250.34C113.697 249.86 113.197 249.308 112.774 248.698C111.786 247.344 110.73 246.039 109.611 244.79C109.339 244.638 108.532 245.102 107.974 245.576C107.416 246.05 103.749 248.845 100.956 251.152C98.1616 253.458 94.8744 256.252 94.826 256.353C94.7777 256.453 95.7368 259.096 95.777 259.179C95.895 259.425 101.197 265.107 103.943 267.973C106.69 270.839 110.21 274.621 110.931 274.996C111.652 275.371 112.635 274.442 115.557 271.772C118.479 269.102 122.177 265.943 123.626 264.443C125.075 262.943 124.402 262.197 124.013 261.682C123.624 261.167 121.177 258.454 121.177 258.454C121.135 257.777 121.195 257.097 121.355 256.437C121.597 254.931 123.041 246.539 123.181 245.783ZM115.742 248.51C116.486 244.696 116.603 244.016 116.903 243.969C117.698 244.03 118.488 244.14 119.27 244.3C119.865 244.401 120.096 244.547 120.069 244.625C120.042 244.702 117.844 253.977 117.643 255.155C117.442 256.333 117.409 257.095 117.317 257.158C117.225 257.222 116.653 256.995 116.492 256.995C116.331 256.995 115.925 257.022 115.935 256.921C115.944 256.82 117.788 247.663 118.138 246.208C118.489 244.752 118.605 244.632 118.487 244.547C118.369 244.462 117.899 244.288 117.808 244.474C117.717 244.659 115.774 253.863 115.629 254.982C115.571 255.71 115.389 256.423 115.089 257.089C114.994 257.134 113.526 257.723 113.617 257.537C113.617 257.537 115.015 252.322 115.742 248.51ZM119.896 259.635C119.881 259.739 118.566 261.477 118.404 261.394C118.117 261.183 117.773 261.065 117.417 261.056C116.847 261.047 115.634 261.069 115.387 261.104C115.14 261.139 114.864 261.355 114.849 261.323C114.834 261.292 113.577 258.754 113.546 258.608C113.524 258.322 115.264 257.32 117.022 257.886C118.127 258.183 119.125 258.79 119.896 259.635ZM114.411 269.425C113.466 270.259 111.504 272.288 111.228 272.182C110.952 272.076 107.055 268.127 104.266 264.999C101.477 261.87 96.8601 256.567 96.8141 256.364C96.7681 256.161 101.658 252.173 103.475 250.593C105.291 249.013 109.047 246.11 109.125 246.137C109.202 246.164 113.977 251.713 113.965 251.77C113.954 251.827 112.701 257.385 112.545 257.865C112.506 258.001 112.515 258.147 112.57 258.278C112.626 258.408 112.725 258.515 112.85 258.581C112.85 258.581 113.06 258.603 113.389 259.488C113.717 260.373 115.133 264.264 115.599 264.523C116.064 264.782 116.295 264.794 116.816 264.242C117.336 263.689 120.49 259.826 120.598 259.851C121.514 260.765 122.379 261.727 123.192 262.733C123.216 262.824 115.362 268.589 114.411 269.425ZM120.185 256.509C119.924 256.049 119.568 255.65 119.14 255.337C118.964 255.345 118.92 255.765 118.993 255.916C119.066 256.068 119.951 256.905 120.005 257.098C120.038 257.237 120.052 257.379 120.047 257.522C119.664 257.064 119.253 256.629 118.817 256.22C118.754 256.25 118.574 256.639 118.69 256.841C118.806 257.042 119.929 258.081 119.929 258.081C119.929 258.081 119.963 258.528 119.83 258.411C119.284 257.972 118.678 257.613 118.03 257.344C117.862 257.302 119.412 249.8 119.965 247.507C120.519 245.213 120.693 244.866 120.78 244.805C120.867 244.744 121.955 245.026 121.996 245.367C122.037 245.708 120.531 254.721 120.358 255.487C120.184 256.252 120.306 256.76 120.185 256.509ZM108.345 250.534C108.443 250.404 108.262 250.066 108.047 250.034C107.832 250.002 106.741 251.002 103.632 253.536C100.523 256.071 100.032 257.073 100.059 257.157C100.117 257.412 100.41 257.593 100.572 257.515C101.62 256.293 102.732 255.127 103.904 254.024C105.777 252.481 108.237 250.657 108.345 250.534ZM111.372 252.899C111.551 252.736 111.152 252.361 111.007 252.353C109.714 253.298 108.491 254.335 107.346 255.455C105.567 257.113 102.883 259.567 102.924 259.773C102.964 259.978 103.105 260.245 103.353 260.172C103.601 260.098 104.609 258.925 106.794 256.866C108.979 254.807 111.203 253.096 111.372 252.899ZM110.999 259.096C110.321 259.397 109.678 259.772 109.084 260.215C108.155 260.802 105.483 262.625 105.476 262.931C105.468 263.238 105.727 263.455 105.957 263.344C106.187 263.234 106.334 263.124 107.846 261.794C108.887 260.887 109.999 260.065 111.172 259.335C111.399 259.246 111.236 259.079 110.999 259.096ZM112.137 262.554C112.437 262.307 112.258 262.27 112.236 262.184C112.215 262.098 111.756 262.228 110.367 263.32C108.979 264.411 108.181 265.296 108.09 265.642C108.08 265.69 108.081 265.74 108.093 265.787C108.104 265.835 108.126 265.88 108.156 265.918C108.186 265.957 108.224 265.989 108.267 266.011C108.311 266.034 108.359 266.047 108.408 266.05C108.553 266.018 108.547 265.925 109.695 264.627C110.411 263.834 111.229 263.139 112.127 262.559L112.137 262.554ZM111.994 266.279C111.337 266.777 110.752 267.363 110.255 268.021C110.258 268.108 110.288 268.191 110.342 268.259C110.395 268.327 110.469 268.376 110.552 268.4C111.035 268.055 111.48 267.66 111.88 267.222C112.408 266.685 114.193 265.082 114.064 265.067C113.313 265.353 112.615 265.762 111.999 266.276L111.994 266.279Z" fill="#3D94F2"/>
</g>
<g clip-path="url(#clip1_459_712)">
<path d="M252.512 148.044C252.279 148.059 252.247 147.759 252.142 147.394C252.037 147.03 251.432 146.651 250.93 146.337C250.428 146.023 249.511 146.186 248.844 146.271C248.09 146.447 247.382 146.782 246.77 147.256C246.071 147.727 245.916 147.463 244.577 147.86C243.543 148.253 242.63 148.91 241.927 149.764C241.866 149.888 240.773 149.212 239.913 149.346C239.053 149.481 237.541 151.112 237.228 151.415C236.915 151.717 237.228 151.415 236.268 151.845C235.309 152.275 234.758 152.983 234.832 154.466C234.906 155.948 235.767 155.661 235.767 155.661C235.28 155.833 234.845 156.124 234.501 156.509C234.157 156.893 233.915 157.358 233.798 157.861C233.477 158.736 234.239 160.704 234.941 161.786C235.643 162.868 236.398 163.796 237.955 164.118C238.638 164.272 239.345 164.28 240.032 164.141C240.718 164.002 241.367 163.719 241.936 163.312C243.138 162.532 243.011 161.569 242.988 161.451C242.964 161.334 243.178 161.245 243.34 161.311C243.83 161.549 244.364 161.683 244.909 161.704C245.768 161.734 247.108 160.229 247.402 160.042C247.696 159.854 248.626 160.284 249.272 160.133C249.853 159.896 250.364 159.516 250.759 159.029C250.971 158.795 251.287 159.171 251.758 159.706C252.162 160.206 252.524 160.738 252.843 161.296C252.873 161.331 252.911 161.359 252.954 161.377C252.997 161.395 253.043 161.402 253.089 161.399C253.136 161.395 253.18 161.381 253.22 161.356C253.26 161.332 253.293 161.299 253.317 161.259C253.466 161.039 253.311 160.728 252.918 160.009C252.552 159.279 252.032 158.637 251.395 158.126C251.229 158.062 251.049 158.04 250.872 158.065C250.695 158.089 250.528 158.158 250.385 158.265C250.267 158.359 249.021 156.702 249 156.66C248.979 156.618 248.647 156.835 248.661 156.899C248.675 156.962 250.1 158.424 250.157 158.467C250.213 158.509 249.839 158.83 249.768 158.865C249.698 158.9 248.196 157.06 248.163 156.994C248.13 156.928 247.871 157.139 247.862 157.202C247.852 157.266 249.472 159.001 249.53 159.083C249.589 159.165 248.872 159.34 248.689 159.302C248.506 159.264 247.29 157.598 247.142 157.502C246.995 157.405 246.698 157.611 246.686 157.693C246.674 157.775 248.13 159.228 248.135 159.32C248.139 159.411 247.313 159.212 247.228 159.184C247.075 158.982 246.95 158.759 246.858 158.523C246.649 158.342 246.418 158.186 246.171 158.061C246.084 158.028 246.025 158.098 245.98 158.267C245.935 158.436 246.449 158.621 246.513 158.677C246.664 158.899 246.795 159.134 246.903 159.38C246.617 159.585 246.31 159.758 245.986 159.895C245.869 159.954 245.574 159.514 245.449 159.37C245.325 159.227 245.177 159.306 245.104 159.489C245.031 159.672 245.713 160.195 245.713 160.195C245.466 160.411 245.168 160.559 244.848 160.626C244.579 160.664 244.306 160.623 244.061 160.506C243.817 160.39 243.612 160.204 243.472 159.972C242.955 159.297 243.021 157.885 242.996 157.681C242.97 157.476 242.561 157.621 242.458 157.672C242.354 157.724 242.451 158.755 242.183 158.854C241.915 158.952 241.468 158.218 241.336 158.213C241.204 158.208 240.748 158.505 240.811 158.75C240.874 158.994 241.969 160.039 242.088 160.314C242.207 160.59 242.251 160.761 242.19 160.886C242.129 161.01 240.027 159.486 240.027 159.486C239.977 159.495 239.932 159.52 239.898 159.557C239.863 159.594 239.842 159.642 239.836 159.692C239.827 159.861 242.049 161.12 242.1 161.188C242.152 161.257 242.085 161.783 241.967 161.841C241.85 161.9 240.339 160.926 240.226 160.853C240.114 160.78 240.007 161.038 239.986 161.137C240.552 161.534 241.152 161.879 241.779 162.17C241.941 162.236 241.639 162.479 241.508 162.545C240.939 162.372 240.392 162.134 239.876 161.837C239.719 161.745 239.67 161.94 239.643 162.041C240.082 162.373 240.552 162.662 241.046 162.903L240.971 162.941C240.528 163.149 240.046 163.265 239.556 163.281C238.598 163.335 237.555 163.197 237.069 162.81C236.219 162.012 235.525 161.062 235.025 160.008C234.548 158.908 234.453 158.057 234.892 157.381C235.315 156.785 235.847 156.273 236.459 155.874C236.791 155.656 236.82 155.419 236.689 155.226C236.395 154.979 236.132 154.699 235.903 154.391C235.714 154.01 236.163 152.848 236.328 152.696C236.492 152.543 237.362 152.416 238.018 151.966C238.678 151.409 239.308 150.819 239.908 150.199C240.137 150.033 241.55 150.444 241.594 150.534C241.639 150.623 241.521 150.752 241.495 150.841C241.434 151.173 241.481 151.516 241.629 151.819C241.851 152.442 242.217 152.882 242.567 152.89C242.735 152.919 242.909 152.902 243.068 152.839C243.227 152.777 243.366 152.671 243.469 152.535C243.691 152.201 243.339 152.083 243.118 152.123C242.897 152.162 242.796 152.207 242.531 151.898C242.383 151.687 242.298 151.439 242.285 151.182C242.272 150.924 242.333 150.669 242.459 150.444C242.968 149.762 243.616 149.195 244.361 148.783C245.219 148.291 246.772 148.299 247.162 148.105C247.553 147.911 248.383 147.316 248.633 147.192C248.882 147.068 249.1 147.141 249.462 147.126C249.85 147.033 250.259 147.084 250.613 147.269C251.423 147.564 251.712 148.629 251.735 148.747C251.705 148.978 251.61 149.196 251.461 149.376C251.338 149.606 251.3 149.872 251.354 150.127C251.16 150.357 250.949 150.571 250.723 150.769C250.476 150.969 249.665 151.296 249.505 151.375C249.345 151.455 249.473 151.796 249.574 151.927C249.675 152.059 250.133 151.872 250.319 151.798C250.505 151.723 250.535 152.054 250.597 152.357C250.66 152.66 250.86 152.52 251.034 152.433C251.208 152.347 251.449 151.64 252.112 150.39C252.775 149.139 252.756 149.066 252.865 148.918C253.088 148.78 253.348 148.713 253.61 148.726C253.872 148.739 254.124 148.832 254.333 148.992C254.747 149.344 255.017 149.836 255.091 150.375C255.07 150.438 253.769 149.782 253.666 149.763C253.563 149.744 253.506 149.843 253.544 149.989C254.068 150.292 254.611 150.56 255.17 150.793C255.272 151.053 255.329 151.328 255.34 151.606C255.323 151.761 253.88 151.03 253.788 150.964C253.697 150.898 253.687 151.161 253.696 151.25C254.258 151.542 254.838 151.798 255.433 152.018L255.569 152.882C255.593 152.929 253.723 151.894 253.633 151.868C253.544 151.842 253.33 152.107 253.36 152.203C253.391 152.3 255.294 153.037 255.437 153.206C255.58 153.376 255.375 153.789 255.236 153.84C254.707 153.682 254.194 153.476 253.703 153.224C253.563 153.165 253.402 153.503 253.39 153.585C253.378 153.667 255.024 154.18 255.174 154.27C255.324 154.359 255.14 154.709 255.079 154.739C255.018 154.77 253.507 154.114 253.387 154.062C253.267 154.01 253.159 154.228 253.177 154.383C253.196 154.538 254.977 155.125 254.977 155.125C255.072 155.22 255.133 155.344 255.153 155.477C255.143 155.546 255.118 155.613 255.081 155.672C255.044 155.731 254.994 155.781 254.936 155.82C254.837 155.869 253.192 155.038 253.089 155.055C252.985 155.071 252.912 155.289 253.01 155.405C253.574 155.662 254.152 155.883 254.743 156.068C254.659 156.421 254.672 156.789 254.78 157.135C254.961 157.569 255.278 157.932 255.683 158.171C255.833 158.26 256.141 157.984 256.233 157.768C256.325 157.552 255.589 156.815 255.569 156.432C255.549 156.049 255.814 155.946 256.041 155.517C256.267 155.087 255.981 154.96 255.946 154.537C255.912 154.114 255.975 154.253 256.183 153.833C256.39 153.413 256.405 153.206 256.176 151.46C255.947 149.714 255.39 148.7 254.694 148.09C253.998 147.481 252.74 148.03 252.512 148.044ZM236.153 158.667C236.047 158.901 236.23 159.672 236.692 160.341C236.815 160.541 236.984 160.709 237.186 160.829C237.388 160.949 237.616 161.019 237.851 161.031C237.898 161.008 238.013 160.839 237.92 160.721C237.826 160.604 237.774 160.794 237.288 160.372C236.803 159.951 236.538 158.863 236.479 158.745C236.421 158.627 236.191 158.578 236.153 158.667ZM237.325 153.391C237.324 153.715 237.414 154.032 237.586 154.307C237.758 154.582 238.004 154.802 238.296 154.943C238.627 155.075 238.995 155.08 239.33 154.957C239.447 154.863 239.419 154.807 239.292 154.811C239.166 154.816 239.133 154.82 238.548 154.671C237.963 154.522 237.667 153.643 237.653 153.462C237.64 153.281 237.301 153.226 237.318 153.377L237.325 153.391ZM243.354 155.086C243.1 155.207 242.819 155.264 242.538 155.251C242.099 155.252 241.277 155.074 240.981 155.257C240.653 155.572 240.428 155.978 240.334 156.423C240.377 156.508 240.574 156.538 240.677 156.487C240.781 156.436 240.809 156.386 240.84 156.224C240.882 156.075 240.954 155.936 241.051 155.815C241.148 155.694 241.268 155.594 241.405 155.521C241.963 155.44 242.528 155.425 243.09 155.475C243.168 155.471 243.245 155.451 243.315 155.416C243.386 155.381 243.448 155.332 243.499 155.271C243.61 155.152 243.478 155.006 243.347 155.071L243.354 155.086ZM244.82 156.996C244.97 156.672 245.226 156.408 245.545 156.248C245.842 156.101 247.175 156.353 247.389 156.417C247.603 156.481 247.523 156.274 247.563 156.142C247.604 156.011 247.512 156.039 246.861 156.052C246.21 156.064 245.542 155.757 245.203 155.926C244.854 156.228 244.592 156.617 244.444 157.054C244.503 157.172 244.721 157.245 244.813 156.982L244.82 156.996ZM249.695 153.528C249.742 153.375 249.604 153.238 249.052 153.202C248.262 153.169 247.471 153.218 246.691 153.35C246.009 153.489 245.747 153.127 245.676 153.197C245.606 153.267 245.633 153.582 245.633 153.582C245.633 153.582 245.705 153.916 246.293 153.882C247.044 153.811 247.79 153.696 248.527 153.539C249.216 153.379 249.636 153.668 249.688 153.513L249.695 153.528ZM250.905 155.748C250.848 155.811 250.703 155.848 250.761 155.966C250.82 156.084 251.134 156.091 251.587 156.235C252.04 156.38 252.156 157.085 252.173 157.153C252.189 157.221 252.255 157.2 252.352 157.029C252.448 156.858 252.322 156.639 251.977 156.276C251.633 155.914 251.009 155.579 250.898 155.734L250.905 155.748ZM245.03 149.834C245.318 149.339 245.618 149.647 245.731 149.615C245.844 149.582 245.731 149.615 245.691 149.429C245.652 149.243 245.239 149.144 245.062 149.19C244.886 149.237 244.827 149.531 244.664 149.793C244.501 150.056 244.372 150.162 244.259 150.347C244.184 150.447 244.136 150.565 244.118 150.688C244.099 150.812 244.112 150.938 244.154 151.056C244.198 151.148 244.271 151.224 244.361 151.272C244.451 151.32 244.555 151.338 244.656 151.323C244.821 151.182 244.495 150.998 244.476 150.784C244.458 150.57 244.724 150.315 245.009 149.827L245.03 149.834ZM249.705 150.055C249.836 150.025 249.86 149.884 249.889 149.506C249.908 149.396 249.902 149.283 249.871 149.176C249.84 149.069 249.785 148.97 249.71 148.887C249.636 148.804 249.543 148.739 249.44 148.696C249.337 148.654 249.225 148.635 249.114 148.642C248.928 148.645 248.747 148.697 248.589 148.792C248.43 148.888 248.3 149.023 248.21 149.185C248.172 149.333 248.431 149.393 248.527 149.304C248.981 148.896 249.284 149.021 249.436 149.256C249.589 149.491 249.463 149.9 249.444 150.003C249.425 150.107 249.552 150.079 249.684 150.048L249.705 150.055ZM246.161 146.468C246.534 146.335 247.022 144.367 247.053 144.205C247.084 144.043 246.403 144.182 246.257 144.22C246.111 144.257 246.643 140.69 246.425 140.358C246.207 140.026 245.367 140.591 245.144 140.625C244.921 140.66 244.6 137.798 244.524 137.455C244.447 137.112 242.942 137.884 242.782 138.01C242.622 138.137 243.564 142.462 243.714 142.68C243.864 142.899 244.703 142.534 244.856 142.476C245.009 142.418 245.211 144.37 245.211 144.37C245.211 144.37 244.887 144.461 244.607 144.559C244.327 144.657 244.784 145.246 245.258 145.796C245.487 146.097 245.798 146.325 246.154 146.454L246.161 146.468ZM251.268 135.127C251.012 134.905 250.697 134.761 250.361 134.713C250.025 134.665 249.682 134.714 249.373 134.856C249.314 134.896 249.27 134.955 249.247 135.024C249.225 135.092 249.226 135.166 249.25 135.234C249.278 135.29 249.37 135.262 249.528 135.166C249.675 135.094 249.838 135.057 250.002 135.059C250.545 135.16 251.052 135.402 251.471 135.76C251.589 135.917 251.656 136.106 251.662 136.303C251.669 136.499 251.614 136.693 251.507 136.857C251.33 137.021 251.314 136.882 251.171 136.772C250.803 136.508 250.382 136.329 249.936 136.247C249.821 136.224 249.702 136.224 249.586 136.248C249.471 136.271 249.361 136.318 249.264 136.385C249.167 136.452 249.085 136.538 249.021 136.637C248.958 136.737 248.916 136.848 248.897 136.964C248.929 137.241 249.323 137.562 250.081 137.754C250.493 137.864 250.93 137.833 251.322 137.665C251.545 137.94 251.745 138.233 251.921 138.54C251.934 138.571 251.939 138.605 251.934 138.638C251.929 138.672 251.915 138.703 251.893 138.729C251.871 138.755 251.843 138.775 251.811 138.785C251.779 138.796 251.745 138.798 251.712 138.791C251.524 138.779 251.414 138.593 251.163 138.348C250.912 138.103 249.817 138.472 249.562 138.927C249.307 139.382 249.856 139.731 250.451 139.711C250.812 139.701 251.162 139.584 251.457 139.375C251.499 139.354 251.654 139.406 251.771 139.606C251.888 139.806 251.873 140.142 251.756 140.2C251.638 140.259 251.549 140.045 250.884 139.994C250.22 139.943 249.362 140.329 249.297 140.637C249.233 140.944 249.625 141.225 250.278 141.322C250.795 141.364 251.313 141.253 251.768 141.004C251.886 140.945 251.96 141.237 252.011 141.634C252.046 141.785 252.035 141.943 251.979 142.088C251.924 142.232 251.826 142.357 251.699 142.446C251.492 142.549 250.56 142.15 250.339 142.189C250.119 142.229 249.951 142.694 250.22 142.906C250.49 143.118 251.301 143.014 251.425 143.04C251.578 143.11 251.702 143.231 251.777 143.381C251.857 143.541 251.879 143.882 251.517 144.262C251.154 144.641 250.856 144.408 250.662 144.264C250.611 144.239 250.553 144.23 250.498 144.241C250.442 144.251 250.391 144.28 250.353 144.322C250.315 144.364 250.292 144.418 250.288 144.474C250.284 144.531 250.298 144.587 250.33 144.635C250.416 144.792 250.552 144.916 250.717 144.986C250.881 145.056 251.065 145.069 251.238 145.022C251.48 144.965 251.703 144.848 251.888 144.682C252.073 144.517 252.214 144.307 252.297 144.073C252.346 143.865 252.349 143.648 252.305 143.439C252.262 143.229 252.173 143.032 252.046 142.86C252.238 142.618 252.388 142.345 252.489 142.053C252.723 141.462 252.168 140.746 252.168 140.746C252.232 140.506 252.281 140.262 252.315 140.016C252.355 139.871 252.356 139.717 252.32 139.571C252.283 139.425 252.209 139.291 252.105 139.182C252.211 139.095 252.298 138.987 252.361 138.865C252.423 138.743 252.46 138.61 252.469 138.473C252.481 138.027 251.692 137.205 251.692 137.205C251.847 137.081 251.968 136.919 252.045 136.736C252.172 136.438 252.15 135.804 251.268 135.127ZM251.006 137.182C251.028 137.594 249.756 137.253 249.649 136.813C249.585 136.663 251.007 136.76 251.006 137.182ZM251.257 139.163C251.121 139.29 250.282 139.561 250.074 139.036C250.011 138.909 250.723 138.678 250.948 138.73C251.174 138.783 251.396 139.041 251.257 139.163ZM251.357 140.909C251.061 141.021 249.999 141.056 250.155 140.592C250.226 140.369 250.844 140.36 251.161 140.443C251.478 140.526 251.651 140.804 251.357 140.909ZM230.984 150.161C231.149 150.079 231.399 149.333 231.399 149.333C231.399 149.333 232.75 150.421 232.83 150.51C232.909 150.6 232.483 151.217 232.41 151.4C232.336 151.583 234.742 151.666 234.824 151.537C234.656 150.678 234.409 149.836 234.085 149.024C233.845 149.214 233.638 149.442 233.47 149.699C233.409 149.8 231.04 146.983 230.826 147.036C230.612 147.09 230.131 148.186 230.133 148.296C230.135 148.407 227.727 146.301 227.473 146.263C227.22 146.225 226.443 147.861 226.544 147.934C226.713 148.073 230.824 150.241 230.984 150.161ZM232.913 142.349C233.221 142.069 233.504 141.761 233.758 141.43C233.985 141.185 234.265 140.995 234.576 140.872C234.887 140.75 235.221 140.7 235.555 140.725C235.843 140.833 235.919 141.459 235.919 141.459L235.534 141.65C235.242 141.795 235.08 141.988 234.528 142.79C233.977 143.592 234.128 144.109 234.398 144.192C234.668 144.275 235.12 144.168 235.861 143.335C236.603 142.503 236.285 141.828 236.285 141.828C236.488 141.962 236.656 142.142 236.775 142.353C236.869 142.554 236.89 142.781 236.837 142.997C236.846 143.086 236.437 143.254 236.188 143.414C235.859 143.698 235.588 144.044 235.392 144.431C235.069 144.962 235.115 145.432 235.317 145.46C235.518 145.489 235.712 145.264 236.366 144.809C237.02 144.355 237.101 143.564 237.205 143.512C237.351 143.485 237.501 143.509 237.632 143.58C237.762 143.651 237.864 143.764 237.92 143.901C237.996 144.042 238.038 144.198 238.045 144.358C238.051 144.517 238.02 144.676 237.956 144.822C237.914 144.843 237.853 144.874 237.638 145.068C237.231 145.43 236.886 145.857 236.618 146.332C236.382 146.813 236.511 147.225 236.859 147.181C237.096 147.144 237.322 147.056 237.521 146.922C237.72 146.789 237.887 146.613 238.011 146.408C238.288 146.024 238.43 145.559 238.416 145.086C238.416 145.086 238.992 144.876 239.334 145.163C239.677 145.451 239.796 145.832 239.568 146.731C239.299 147.449 238.879 148.102 238.338 148.645C238.338 148.645 238.448 148.866 238.624 148.855C238.8 148.843 239.186 148.37 239.616 147.605C239.857 147.261 240.017 146.867 240.084 146.453C240.151 146.038 240.124 145.614 240.004 145.212C239.667 144.429 238.504 144.638 238.504 144.638C238.528 144.249 238.472 143.86 238.339 143.493C238.122 142.868 237.225 142.986 237.225 142.986C237.253 142.667 237.2 142.346 237.072 142.053C236.998 141.906 236.893 141.776 236.765 141.673C236.637 141.569 236.488 141.495 236.328 141.455C236.351 141.156 236.292 140.857 236.156 140.59C235.941 140.31 235.608 140.112 234.599 140.443C233.779 140.749 233.092 141.332 232.655 142.09C232.619 142.255 232.795 142.408 232.913 142.349ZM235.488 143.175C235.18 143.51 235.114 143.602 234.884 143.587C234.653 143.572 234.958 142.817 235.215 142.448C235.472 142.08 235.636 141.963 235.805 142.043C235.974 142.123 235.797 142.84 235.488 143.175ZM236.544 143.788C236.506 144.077 236.377 144.346 236.176 144.558C235.997 144.717 235.764 144.909 235.692 144.763C235.798 144.485 235.936 144.22 236.102 143.973C236.229 143.78 236.544 143.565 236.544 143.788ZM237.907 145.715C237.794 145.971 237.2 146.653 237.052 146.615C236.991 146.598 237.202 146.101 237.435 145.838C237.668 145.576 238.013 145.457 237.907 145.715ZM230.876 153.518C230.876 153.518 230.652 152.843 230.329 152.124C230.006 151.404 228.868 152.135 228.868 152.135C228.849 151.889 228.793 151.648 228.7 151.42C228.497 150.87 227.581 150.997 227.581 150.997L227.485 150.804C227.389 150.611 227.112 150.35 226.489 150.454C226.092 150.542 225.743 150.781 225.518 151.12C225.504 151.161 225.5 151.205 225.506 151.248C225.513 151.291 225.529 151.333 225.553 151.369C225.578 151.405 225.611 151.434 225.649 151.456C225.687 151.477 225.729 151.489 225.773 151.491C225.966 151.466 226.18 151.013 226.611 150.817C227.041 150.62 227.124 151.259 227.124 151.259L226.934 151.466C226.543 151.92 226.265 152.46 226.122 153.042C226.102 153.51 226.683 153.203 227.107 152.805C227.531 152.407 227.542 151.474 227.542 151.474C227.722 151.463 227.904 151.477 228.08 151.517C228.263 151.817 228.42 152.131 228.548 152.458C228.105 152.875 227.711 153.339 227.37 153.842C226.863 154.627 227.104 155.147 227.275 155.267C227.447 155.387 227.921 155.386 228.569 154.624C228.755 154.344 228.88 154.028 228.936 153.697C228.993 153.366 228.979 153.027 228.897 152.701C229.014 152.588 229.138 152.483 229.269 152.387C229.378 152.309 229.511 152.273 229.644 152.284C229.777 152.295 229.902 152.353 229.997 152.447C230.283 152.727 230.304 153.726 230.304 153.726C229.884 154.223 229.52 154.766 229.22 155.344C229.029 155.879 229.395 156.026 229.799 155.989C230.203 155.952 230.227 155.671 230.557 155.155C230.747 154.817 230.811 154.424 230.738 154.044C230.935 153.922 231.161 153.855 231.392 153.848C231.617 153.9 231.713 154.163 231.658 154.795C231.563 155.374 231.409 155.942 231.198 156.49C231.179 156.594 231.407 156.721 231.607 156.639C231.807 156.557 231.677 156.604 231.819 156.111C231.961 155.618 232.072 154.26 231.867 153.776C231.661 153.292 230.876 153.518 230.876 153.518ZM228.365 154.18C228.123 154.576 227.953 154.754 227.711 154.669C227.47 154.584 227.454 154.269 227.798 153.781C228.142 153.293 228.253 153.139 228.398 153.172C228.544 153.205 228.62 153.807 228.372 154.194L228.365 154.18ZM230.149 155.217C229.918 155.496 229.946 155.482 229.793 155.47C229.742 155.461 229.627 155.277 229.766 155.002C229.905 154.728 230.124 154.402 230.216 154.468C230.281 154.585 230.31 154.719 230.298 154.853C230.286 154.987 230.234 155.113 230.149 155.217Z" fill="#67BB25"/>
</g>
<path d="M103.107 12.8566C103.993 13.1706 104.768 13.7338 105.336 14.4772C105.528 14.7123 105.632 15.0053 105.632 15.3073C105.632 15.6094 105.528 15.9024 105.336 16.1374C105.281 16.1711 105.217 16.1876 105.152 16.1848C105.087 16.1821 105.025 16.1601 104.973 16.1219C104.92 16.0836 104.881 16.0307 104.86 15.9701C104.838 15.9095 104.835 15.8439 104.852 15.7817C104.943 15.5163 104.852 15.1831 104.424 14.5676C103.997 13.9521 103.09 13.5794 102.805 13.3987C102.52 13.218 102.058 13.2801 102.183 12.9582C102.309 12.6364 102.503 12.6589 103.107 12.8566ZM100.399 15.68C101.437 16.5948 100.684 17.4927 99.7432 17.5322C99.5801 17.5528 99.4144 17.5337 99.2605 17.4764C99.1065 17.4191 98.9691 17.3254 98.86 17.2035C98.751 17.0816 98.6737 16.9352 98.6349 16.7769C98.596 16.6187 98.5968 16.4534 98.6371 16.2956C98.7797 15.8212 99.6748 15.0306 100.399 15.68ZM86.7153 19.6837C86.396 19.6103 86.0596 19.3675 85.5237 18.2889C85.1078 17.4703 84.9282 16.5538 85.0049 15.6405C85.0961 15.2565 85.6377 15.1379 85.7917 15.4655C85.9 15.697 85.7575 16.6287 85.9 17.3007C86.0425 17.9727 86.8236 18.7858 87.1087 19.2432C87.3938 19.7006 87.0403 19.7515 86.7153 19.6837ZM95.2675 15.7309C96.5162 16.2617 96.1798 17.3911 95.4101 17.6C94.6404 17.8089 94.0417 17.7073 93.8593 16.736C93.6768 15.7647 94.7145 15.4824 95.2675 15.7139V15.7309ZM90.7064 15.9398C92.451 17.0353 90.9059 17.8146 90.2445 17.7581C89.5832 17.7016 89.013 17.5096 89.013 16.7868C89.0343 16.6033 89.1007 16.4278 89.2065 16.2756C89.3122 16.1234 89.454 15.9992 89.6195 15.9139C89.7849 15.8286 89.969 15.7849 90.1555 15.7864C90.342 15.788 90.5253 15.8348 90.6893 15.9229L90.7064 15.9398ZM88.8021 26.0195C87.9639 26.4939 86.664 26.3188 85.6491 25.788C84.6343 25.2572 84.0071 24.4271 84.7027 23.4784C85.3983 22.5297 87.7302 22.9137 87.7302 22.9137C87.2629 22.7032 86.8273 22.4296 86.4359 22.1006C85.3016 21.3036 84.3336 20.2969 83.5852 19.136C83.1564 18.328 82.9238 17.432 82.906 16.5193C82.8881 15.6067 83.0856 14.7025 83.4826 13.8787C84.5096 11.9543 86.0345 10.3349 87.9012 9.18609C89.1216 8.46067 90.5432 8.13833 91.9607 8.26565C92.8672 8.29953 94.3667 7.91554 96.3109 8.01718C98.5182 8.09885 100.689 8.60318 102.702 9.50232C104.681 10.3429 106.363 11.7485 107.531 13.5399C108.078 14.7784 108.149 16.1721 107.731 17.4588C107.161 19.1529 106.961 19.9322 104.538 22.0328C102.115 24.1335 98.8025 24.2916 95.3303 24.2916C93.0232 24.2574 90.7321 23.9058 88.5227 23.2469C90.1761 24.0431 89.6231 25.5226 88.785 26.0026L88.8021 26.0195ZM86.6298 23.8455C86.3618 23.9189 86.4873 24.0939 86.2535 24.0939C86.0197 24.0939 85.8088 23.9866 85.6834 24.0939C85.5579 24.2012 85.3812 24.3593 85.9855 24.6078C86.5899 24.8563 87.3938 25.3476 87.9297 25.1725C88.2091 25.0765 88.6595 24.749 88.2319 24.4102C87.7606 24.0648 87.198 23.8627 86.6127 23.8285L86.6298 23.8455ZM97.4626 23.1961L97.5367 23.1566C100.068 23.038 102.292 22.5072 104.002 21.2027C105.713 19.8983 106.214 18.944 106.728 17.0184C106.985 16.2471 106.999 15.4163 106.766 14.6372C106.534 13.8581 106.067 13.1679 105.428 12.6589C103.893 11.1431 101.959 10.0862 99.8458 9.60961C96.9841 8.95259 94.0136 8.91023 91.134 9.48538C89.07 9.86937 87.8556 10.084 85.7917 12.4669C83.7277 14.8499 84.0071 16.6683 84.258 17.6169C84.5248 18.4381 84.9562 19.1974 85.5264 19.8494C86.0966 20.5015 86.7938 21.0328 87.5762 21.4117C90.678 22.7413 94.0471 23.346 97.4227 23.1791L97.4626 23.1961ZM83.0436 26.5842C83.9079 26.2044 84.8879 26.174 85.7746 26.4995C87.1885 26.923 86.9149 27.8209 86.7609 28.2444C86.5857 28.6446 86.3025 28.9891 85.9424 29.2402C85.5823 29.4912 85.1592 29.6391 84.7198 29.6674C83.3628 29.8425 82.4392 29.2891 82.1199 28.4195C81.8006 27.5499 82.1256 26.9795 83.0151 26.5899L83.0436 26.5842ZM84.4461 28.5494C85.7632 28.6284 85.8601 27.9451 85.6948 27.6797C85.5294 27.4143 84.8851 27.2788 84.6115 27.2393C83.8817 27.1489 83.2716 27.4426 83.2374 27.7701C83.2032 28.0976 83.0892 28.4703 84.4062 28.555L84.4461 28.5494ZM86.9491 29.8481C87.6736 29.6286 88.4496 29.6404 89.167 29.882C89.3042 29.9107 89.4319 29.9731 89.5385 30.0633C89.6451 30.1536 89.7271 30.2689 89.777 30.3987C89.827 30.5285 89.8432 30.6686 89.8243 30.8063C89.8053 30.9439 89.7519 31.0746 89.6687 31.1865C89.4394 31.4301 89.1636 31.6264 88.8573 31.7641C88.551 31.9017 88.2203 31.9779 87.8841 31.9883C87.0574 32.0617 86.3447 31.7907 86.2136 31.13C86.1658 30.9982 86.1473 30.8577 86.1594 30.7182C86.1715 30.5787 86.214 30.4434 86.2839 30.3216C86.3537 30.1999 86.4493 30.0945 86.5642 30.0128C86.679 29.9311 86.8103 29.8749 86.9491 29.8481ZM87.2912 30.8702C87.4223 31.2147 87.981 31.1865 88.3402 31.0735C88.6994 30.9606 88.8591 30.5088 87.9012 30.4128C87.5762 30.3733 87.16 30.5314 87.2912 30.8702Z" fill="#EFD101"/>
<path d="M225.36 260.026C224.639 259.107 223.741 258.342 222.719 257.776C222.719 257.776 224.38 256.013 224.974 254.27C225.567 252.527 225.701 250.5 222.841 250.057C219.981 249.614 217.031 251.56 217.031 251.56C216.492 250.677 215.905 249.824 215.272 249.005C214.46 248.005 212.327 246.112 210.6 247.433C208.874 248.753 209.179 252.531 209.179 252.531C209.179 252.531 204.864 251.816 204.084 253.933C203.304 256.049 209.008 259.031 209.008 259.031C207.281 260.94 205.742 264.255 205.656 265.052C205.571 265.848 205.421 267.201 207.944 266.998C210.466 266.795 214.679 264.154 214.679 264.154C215.419 264.897 216.205 265.593 217.031 266.238C218.453 267.355 219.794 266.815 220.639 265.832C221.484 264.849 221.281 262.854 221.281 262.854C221.281 262.854 223.718 262.939 224.937 262.513C226.156 262.086 226.326 261.379 225.36 260.026ZM222.349 251.719C223.735 251.97 224.141 253.799 223.718 254.969C223.342 255.851 222.871 256.69 222.313 257.471C221.498 256.962 220.656 256.498 219.79 256.082C219.79 256.082 218.165 253.12 217.929 252.799C217.913 252.799 220.96 251.442 222.349 251.719ZM220.318 260.079L220.688 261.875C219.942 261.907 219.196 261.827 218.474 261.639C218.474 261.639 220.078 260.364 220.334 260.059L220.318 260.079ZM217.779 261.534C217.726 261.534 213.192 260.234 213.054 260.181C212.474 259.314 211.955 258.409 211.498 257.471C212.628 256.402 213.826 255.407 215.085 254.493C215.085 254.493 218.693 255.911 219.063 256.269C219.432 256.626 220.233 259.519 220.233 259.519C220.233 259.519 217.844 261.497 217.795 261.513L217.779 261.534ZM220.013 256.813C220.013 256.813 221.74 257.812 221.825 257.91C221.91 258.007 220.708 259.129 220.708 259.129C220.708 259.129 220.147 257 220.03 256.793L220.013 256.813ZM217.1 253.222C217.612 253.878 218.071 254.573 218.474 255.302C218.474 255.302 216.154 254.339 215.577 254.201C216.061 253.838 216.57 253.511 217.1 253.222ZM211.567 250.175C212.733 249.395 213.85 250.004 214.817 250.886C215.784 251.767 216.138 252.105 216.138 252.105L214.005 253.66L210.653 252.698C210.653 252.698 210.397 250.951 211.567 250.175ZM210.617 253.238L213.546 254.018L211.263 256.435C210.853 255.418 210.634 254.334 210.617 253.238ZM210.901 257.918C211.113 258.511 211.377 259.085 211.689 259.632C211.116 259.475 210.563 259.253 210.04 258.97C210.269 258.576 210.56 258.221 210.901 257.918ZM205.474 255.964C204.405 254.83 204.218 253.933 204.966 253.441C205.713 252.95 209.248 253.104 209.248 253.104C209.336 253.986 209.546 254.852 209.873 255.675C210.328 256.606 210.568 257.166 210.568 257.166C210.568 257.166 209.536 258.316 209.398 258.535C209.398 258.535 206.538 257.097 205.474 255.964ZM209.747 266.031C208.057 266.628 206.94 266.843 206.497 266.311C206.055 265.779 206.038 265.409 206.497 264.251C206.956 263.094 208.756 260.087 209.67 259.303C210.45 259.884 211.34 260.298 212.286 260.522C212.83 261.7 213.493 262.819 214.265 263.861C212.804 264.675 211.296 265.4 209.747 266.031ZM214.695 263.545C214.614 263.512 213.428 261.395 213.578 261.107L216.966 262.155C216.966 262.155 216.219 262.687 215.646 263.037C215.073 263.386 214.781 263.581 214.695 263.545ZM219.81 266.051C218.827 266.543 218.1 266.591 216.93 265.714C216.222 265.177 215.581 264.558 215.02 263.87C215.894 263.405 216.731 262.874 217.523 262.281C217.523 262.281 218.778 262.57 219.656 262.687C220.533 262.805 220.927 262.858 220.927 262.858C220.927 262.858 220.789 265.56 219.81 266.051ZM224.242 260.77C223.905 261.716 223.568 261.871 222.841 261.92C222.114 261.968 221.216 261.956 221.216 261.956C221.216 261.956 220.81 259.925 220.708 259.567C220.708 259.567 221.894 258.686 222.3 258.28C222.28 258.263 224.584 259.807 224.242 260.754V260.77ZM215.675 256.395C212.831 258.02 214.557 260.051 215.675 260.457C216.152 260.638 216.672 260.671 217.168 260.551C217.664 260.43 218.112 260.163 218.453 259.783C219.063 259.084 219.266 257.703 218.656 257.069C218.047 256.435 216.686 255.822 215.675 256.395ZM218.413 258.487C218.413 258.487 217.828 257.646 217.763 257.674C217.698 257.703 217.397 257.877 217.466 257.95C217.535 258.024 218.279 258.958 218.279 258.995C218.279 259.031 218.153 259.401 218.1 259.372C218.047 259.344 217.438 258.442 217.365 258.434C217.291 258.426 217.031 258.653 217.092 258.722C217.361 259.013 217.599 259.33 217.803 259.669C217.742 259.714 217.576 259.872 217.523 259.848C217.316 259.543 217.091 259.252 216.849 258.974C216.747 258.974 216.568 259.145 216.601 259.198C216.79 259.437 216.953 259.698 217.084 259.974C217.031 260.018 216.914 260.059 216.873 260.035C216.709 259.777 216.531 259.529 216.341 259.291C216.264 259.291 216.016 259.356 216.028 259.466C216.04 259.575 216.296 260.051 216.231 260.083C216.166 260.116 215.536 260.043 215.012 259.34C214.488 258.637 214.57 257.833 215.366 257.158C215.695 256.917 216.089 256.781 216.497 256.767C216.905 256.753 217.308 256.863 217.653 257.081C218.311 257.536 218.364 257.63 218.429 257.894C218.468 258.09 218.462 258.293 218.413 258.487ZM215.764 257.426C215.503 257.795 215.31 258.208 215.195 258.645C215.195 258.8 215.492 258.913 215.52 258.909C215.549 258.905 215.638 258.877 215.63 258.706C215.637 258.565 215.672 258.427 215.731 258.3C215.731 258.3 215.731 258.442 215.731 258.544C215.736 258.653 215.778 258.757 215.849 258.84C215.898 258.885 215.983 258.84 216.06 258.84C216.138 258.84 216.06 258.873 216.093 258.527C216.125 258.182 216.475 257.841 216.442 257.674C216.41 257.508 215.882 257.406 215.764 257.426Z" fill="#132456"/>
<g clip-path="url(#clip2_459_712)">
<path d="M243.248 315.513C243.589 314.92 245.028 312.333 245.053 312.071C245.078 311.809 243.779 311.049 243.495 310.932C243.21 310.814 243.154 308.631 243.087 308.503C243.019 308.375 244.083 308.061 244.35 307.946C244.616 307.831 244.646 307.789 244.552 307.4C244.143 306.067 243.667 304.754 243.126 303.468C242.819 303.048 240.876 304.076 240.876 304.076C240.876 304.076 240.57 303.747 240.327 303.496C240.083 303.246 239.017 302.357 238.962 302.254C238.908 302.152 239.355 301.091 239.398 300.715C239.441 300.339 238.569 300.224 237.721 299.907C236.872 299.59 234.477 299.097 234.258 299.239C234.039 299.381 233.257 301.516 233.257 301.516C233.257 301.516 232.583 301.788 231.727 302.188C231.199 302.463 230.689 302.771 230.198 303.108C230.036 303.161 229.217 302.181 228.846 301.939C228.476 301.696 227.499 303.005 226.518 304.342C225.828 305.216 225.329 306.224 225.054 307.303C225.057 307.569 226.597 308.365 226.597 308.365C226.597 308.365 226.419 308.597 226.48 309.788C226.537 310.556 226.715 311.31 227.008 312.023C227.008 312.023 225.832 312.645 225.707 313.176C225.582 313.707 228.182 316.716 228.554 317.01C228.925 317.305 230.392 315.796 230.392 315.796C230.762 316.032 231.152 316.235 231.557 316.403C232.136 316.555 232.706 316.736 233.265 316.946C233.349 317.611 233.393 318.281 233.397 318.951C233.423 319.101 233.681 319.18 234.538 319.192C235.831 319.096 237.102 318.81 238.31 318.341C238.847 318.057 238.379 316.505 238.425 316.232C238.47 315.959 240.25 315.352 240.517 315.4C240.785 315.448 241.88 316.479 242.184 316.534C242.488 316.589 242.922 316.085 243.248 315.513ZM238.749 312.788C238.688 312.82 238.433 313.118 238.521 313.235C238.61 313.353 239.842 314.284 239.781 314.317C239.613 314.432 239.433 314.527 239.244 314.601C239.12 314.614 237.943 313.627 237.856 313.673C237.769 313.719 237.406 313.911 237.532 314.086C237.657 314.262 238.711 314.831 238.522 314.931C238.139 315.015 237.769 315.147 237.42 315.324C237.11 315.566 237.221 316.084 237.172 316.351C237.124 316.619 237.358 317.32 237.143 317.434C236.928 317.548 234.513 317.87 234.445 317.742C234.378 317.614 234.47 316.093 234.167 315.978C233.303 315.811 232.466 315.53 231.676 315.142C230.455 314.48 230.278 314.246 230.074 314.38C229.87 314.514 229.005 315.6 228.882 315.528C228.759 315.455 227.044 313.391 227.222 313.218C227.399 313.046 228.289 312.7 228.224 312.577C227.875 311.626 227.677 310.626 227.638 309.614C227.703 309.069 227.741 308.52 227.75 307.971C227.727 307.852 226.481 307.117 226.463 306.885C226.639 306.245 226.916 305.637 227.283 305.083C227.689 304.403 228.636 303.359 228.733 303.445C228.831 303.531 229.937 304.582 230.121 304.458C230.811 303.957 231.547 303.521 232.319 303.158C233.374 302.678 234.051 302.51 234.115 302.371C234.304 301.75 234.527 301.14 234.785 300.544C235.873 300.734 236.946 301.004 237.995 301.353C237.984 301.444 237.266 302.969 237.683 303.239C238.355 303.506 238.966 303.907 239.478 304.417C240.208 305.228 240.568 305.339 240.609 305.317C240.65 305.295 242.337 304.612 242.408 304.745C242.732 305.51 243.003 306.296 243.22 307.097C242.719 307.236 242.232 307.421 241.765 307.651C241.722 307.779 241.652 308.365 241.652 308.365C241.101 308.051 240.532 307.768 239.948 307.519C239.882 307.554 239.633 308.013 239.84 308.094C240.489 308.316 241.122 308.582 241.734 308.891C241.9 309.32 242.002 309.771 242.037 310.23C241.97 310.265 239.922 308.868 239.861 308.901C239.799 308.933 239.644 309.369 239.72 309.414C239.796 309.459 242.247 311.048 242.247 311.048C242.247 311.048 242.308 311.782 242.516 311.914C242.878 312.11 243.219 312.342 243.536 312.605C243.513 312.698 243.479 312.788 243.436 312.874C243.436 312.874 239.87 310.316 239.69 310.385C239.511 310.454 239.372 310.822 239.484 310.874C239.597 310.925 243.162 313.235 243.141 313.357C243.048 313.566 242.934 313.764 242.8 313.95C242.8 313.95 239.619 311.647 239.582 311.726C239.544 311.804 239.322 312.164 239.431 312.27C239.54 312.376 242.532 314.419 242.526 314.507C242.52 314.595 242.268 315.108 242.233 315.042C241.825 314.66 241.369 314.333 240.875 314.072C240.731 314.061 240.586 314.065 240.443 314.084C240.443 314.084 238.795 312.763 238.749 312.788ZM230.665 309.211C230.597 309.541 230.544 310.06 231.024 311.226C231.504 312.393 232.313 312.783 232.461 312.705C232.558 312.614 232.623 312.495 232.647 312.364C232.671 312.233 232.653 312.099 232.594 311.979C232.435 311.678 232.271 311.876 231.824 311.241C231.514 310.71 231.378 310.095 231.437 309.483C231.415 309.082 230.704 309.111 230.678 309.236L230.665 309.211ZM238.076 306.926C237.448 305.949 235.368 305.518 233.861 306.642C230.915 308.855 232.723 311.034 233.705 311.444C234.38 311.728 235.122 311.81 235.843 311.681C236.563 311.552 237.231 311.217 237.765 310.717C238.261 310.232 238.567 309.585 238.627 308.894C238.687 308.203 238.496 307.514 238.09 306.951L238.076 306.926ZM237.186 309.413C236.994 309.86 236.637 310.215 236.189 310.406C235.741 310.596 235.237 310.607 234.782 310.436C233.707 310.16 232.989 308.903 234.477 307.547C234.778 307.361 235.116 307.244 235.467 307.204C235.819 307.164 236.174 307.202 236.509 307.316C236.86 307.527 237.124 307.858 237.251 308.248C237.378 308.638 237.36 309.061 237.2 309.438L237.186 309.413ZM248.691 298.633C248.47 298.475 247.127 298.72 247.127 298.72C247.039 298.452 246.937 298.19 246.821 297.933C246.67 297.581 246.447 297.264 246.166 297.003C246.166 297.003 246.726 296.268 246.836 296.105C246.946 295.942 246.607 295.572 245.828 295.029C245.049 294.485 243.834 293.734 243.633 293.873C243.431 294.012 243.2 295.11 243.2 295.11C242.764 295.038 242.32 295.033 241.883 295.093C241.3 295.209 240.77 295.51 240.373 295.951C240.373 295.951 239.556 295.644 239.381 295.573C239.206 295.502 238.944 295.725 238.662 296.28C238.37 297.205 238.19 298.162 238.127 299.129C238.149 299.419 240.108 300.398 240.143 300.465C240.178 300.531 239.451 301.322 239.377 301.492C239.303 301.662 239.553 301.923 240.227 302.678C240.397 302.912 240.614 303.108 240.865 303.253C241.115 303.398 241.393 303.489 241.681 303.52C242.002 303.409 241.891 302.891 241.773 302.816C241.241 302.434 240.73 302.022 240.244 301.583C240.165 301.435 240.9 300.66 241.034 300.294C241.168 299.929 239.708 299.222 239.369 299.101C239.029 298.979 238.856 298.96 239.013 298.169C239.14 297.62 239.322 297.086 239.556 296.573C239.891 296.68 240.245 296.716 240.594 296.678C241.102 296.6 240.992 296.193 241.881 295.808C242.77 295.422 243.182 296.101 243.575 295.867C243.968 295.633 243.918 294.92 243.909 294.84C243.899 294.76 245.984 296.091 245.984 296.091C245.639 296.459 245.328 296.857 245.057 297.282C245.073 297.411 245.484 297.521 246.031 297.886C246.578 298.252 246.768 299.539 246.768 299.539L248.024 299.339C248.024 299.339 247.85 301.126 247.769 301.332C247.689 301.539 246.907 301.187 246.599 301.075C246.291 300.963 244.809 302.022 244.466 302.203C244.123 302.384 244.576 302.609 244.866 303.058C245.156 303.507 243.9 303.707 243.676 303.852C243.451 303.997 243.778 304.452 244.01 304.631C244.241 304.809 245.53 303.793 245.835 303.442C246.14 303.091 245.568 302.628 245.479 302.57C245.828 302.31 246.206 302.09 246.605 301.916C247.178 301.996 247.758 302.019 248.335 301.982C248.719 301.89 248.615 300.198 248.667 299.875C248.719 299.553 248.903 298.775 248.691 298.633ZM241.957 297.967C241.765 298.11 241.607 298.293 241.495 298.503C241.382 298.714 241.318 298.946 241.306 299.185C241.294 299.423 241.334 299.661 241.425 299.882C241.516 300.103 241.654 300.301 241.83 300.462C241.949 300.618 242.098 300.747 242.269 300.843C242.439 300.938 242.628 300.998 242.822 301.018C243.017 301.037 243.213 301.017 243.4 300.958C243.586 300.899 243.758 300.802 243.906 300.673C244.677 300.016 244.436 299.3 244.244 298.53C244.053 297.761 242.976 297.159 241.948 297.952L241.957 297.967ZM243.777 299.243C243.776 299.76 243.666 300.172 243.107 300.252C242.547 300.332 241.755 299.442 242.727 298.705C243.025 298.489 243.79 298.699 243.769 299.227L243.777 299.243ZM244.521 300.649C244.171 301.076 244.54 301.156 244.808 301.093C245.076 301.029 245.344 300.868 245.663 300.234C245.982 299.601 245.494 299.395 245.427 299.43C245.361 299.465 245.43 299.893 245.186 300.212C244.943 300.53 244.639 300.488 244.533 300.623L244.521 300.649ZM249.432 309.721C249.193 309.631 248.934 309.608 248.683 309.653C248.061 309.809 247.462 310.044 246.9 310.354C246.685 310.467 246.167 308.968 245.785 308.816C245.404 308.664 243.632 310.362 243.559 310.485C243.487 310.608 243.773 310.889 243.873 311.078C243.973 311.267 245.009 311.518 245.009 311.518C245.009 311.518 244.666 310.77 244.511 310.577C244.357 310.384 245.238 309.786 245.366 309.719C245.494 309.651 246.109 310.962 246.265 311.207C246.347 311.332 246.47 311.424 246.613 311.468C246.755 311.512 246.909 311.505 247.047 311.448C247.335 311.374 247.434 310.942 248.197 310.59C248.423 310.466 248.679 310.405 248.937 310.412C249.195 310.419 249.446 310.495 249.665 310.632C249.865 310.749 251.053 308.975 251.161 308.918C251.802 309.247 252.402 309.653 252.946 310.127C252.716 310.681 252.427 311.209 252.084 311.702C251.989 311.87 252.46 312.203 252.592 312.291L250.947 311.198C250.831 311.31 250.745 311.45 250.697 311.604C250.648 311.82 252.686 312.791 252.686 312.791C252.821 313.029 252.928 313.282 253.006 313.544C252.986 313.666 251.082 312.382 250.996 312.317C250.909 312.252 250.731 312.647 250.726 312.735C250.72 312.823 253.108 314.145 253.108 314.145C253.239 314.476 253.329 314.821 253.378 315.174C252.654 314.758 251.965 314.284 251.319 313.756C251.118 313.588 251.012 314.056 251.065 314.303C251.117 314.55 254.382 316.665 254.559 316.788C254.735 316.91 254.516 317.275 254.434 317.318C254.352 317.362 251.552 315.485 251.457 315.404C251.362 315.324 251.135 316.033 251.135 316.033C251.135 316.033 254.063 317.756 254.259 317.817C254.454 317.877 254.106 318.146 253.907 318.389C253.708 318.632 250.649 316.611 250.549 316.631C250.448 316.652 250.31 317.059 250.291 317.232C250.272 317.406 251.784 317.889 251.918 317.982C252.052 318.074 251.547 318.42 251.441 318.529C251.335 318.637 250.132 317.86 249.97 317.703C249.809 317.546 249.607 317.895 249.537 318.122C249.468 318.349 250.683 318.74 250.816 318.892C250.948 319.045 249.611 319.091 249.346 319.257C249.081 319.424 249.06 320.882 249 321.077C248.94 321.272 247.027 321.06 246.833 321.052C246.639 321.043 246.958 319.84 247.038 319.634C247.119 319.428 246.96 319.486 245.926 319.077C245.632 318.986 245.359 318.836 245.126 318.635C244.892 318.434 244.703 318.187 244.569 317.91C244.164 318.003 243.771 318.139 243.395 318.315C243.288 318.372 243.091 317.9 243.079 317.717C243.067 317.533 243.811 317.604 243.98 317.515C244.149 317.426 244.093 317.37 244.069 317.114C244.091 316.603 244.204 316.1 244.402 315.629C244.93 314.499 245.522 313.401 246.177 312.34C246.319 312.187 246.087 312.008 245.902 312.08C245.13 312.959 244.449 313.914 243.869 314.929C243.638 315.537 243.457 316.163 243.327 316.8C242.963 316.867 242.605 316.964 242.257 317.091C242.083 317.183 242.814 318.812 242.995 319.155C243.177 319.498 244.166 318.647 244.166 318.647C244.461 318.839 244.715 319.087 244.913 319.377C245.249 319.72 245.706 319.918 246.186 319.928C246.186 319.928 245.667 321.322 245.833 321.587C246 321.853 249.281 321.917 249.583 321.92C249.886 321.924 250.066 319.839 250.066 319.839C250.066 319.839 250.752 319.639 251.178 319.466C251.737 319.179 252.277 318.858 252.797 318.505C253.313 318.808 253.852 319.07 254.409 319.288C254.666 319.316 255.683 316.487 255.685 316.133C255.687 315.778 254.632 315.38 254.315 315.3C253.997 315.219 254.117 315.025 254.007 313.938C253.837 313.066 253.507 312.233 253.034 311.481C253.034 311.481 253.718 310.3 253.86 309.95C254.003 309.6 251.301 307.947 251.008 307.912C250.715 307.877 249.445 309.695 249.445 309.695L249.432 309.721ZM245.66 315.841C245.433 315.882 245.333 316.262 245.39 316.37C245.447 316.477 246.338 317.642 246.745 317.694C247.153 317.747 247.316 317.288 247.342 317.078C247.368 316.867 247.078 316.838 246.676 316.586C246.274 316.334 245.845 315.808 245.66 315.841ZM247.741 316.323C248.186 316.358 248.632 316.27 249.03 316.069C249.428 315.868 249.763 315.561 249.998 315.182C250.392 314.43 250.267 313.625 249.076 312.92C248.891 312.792 248.682 312.702 248.461 312.657C248.24 312.611 248.012 312.611 247.792 312.657C247.571 312.702 247.361 312.791 247.176 312.92C246.991 313.048 246.834 313.213 246.714 313.404C245.311 315.181 247.016 316.19 247.762 316.312L247.741 316.323ZM247.398 313.671C247.591 313.49 247.839 313.38 248.102 313.36C248.365 313.34 248.627 313.41 248.845 313.56C249.541 314.009 249.731 314.616 249.156 315.136C248.894 315.345 248.585 315.485 248.255 315.545C247.926 315.605 247.587 315.583 247.269 315.48C247.122 315.371 247.006 315.226 246.931 315.06C246.855 314.893 246.824 314.71 246.839 314.528C246.854 314.346 246.915 314.171 247.016 314.019C247.118 313.867 247.256 313.743 247.419 313.66L247.398 313.671Z" fill="#1D1D1B"/>
</g>
<defs>
<clipPath id="clip0_459_712">
<rect width="37.1408" height="37.1408" fill="white" transform="translate(88 250.07) rotate(-25.6368)"/>
</clipPath>
<clipPath id="clip1_459_712">
<rect width="33.6187" height="33.6187" fill="white" transform="translate(220 144.013) rotate(-26.4424)"/>
</clipPath>
<clipPath id="clip2_459_712">
<rect width="37.0277" height="37.0277" fill="white" transform="translate(215 303.317) rotate(-27.8828)"/>
</clipPath>
</defs>
</svg>
