<svg width="101" height="90" viewBox="0 0 101 90" fill="none" xmlns="http://www.w3.org/2000/svg">
<path d="M97.1777 30.4227C95.9163 29.8101 94.5532 30.2537 93.8005 27.6135C93.4533 25.0256 93.5984 22.392 94.2277 19.8621C94.2277 19.8621 97.6864 12.5542 98.2967 10.1041C98.9071 7.65408 99.904 5.52085 98.4595 3.04968C97.015 0.578506 93.3732 0.937565 85.7438 0.494022C78.1144 0.0504782 67.9419 0.325051 53.1918 0.0715977C38.4417 -0.181856 38.5027 0.261689 37.1803 1.02205C33.1113 3.40874 26.7433 17.75 16.6522 36.1465C6.56103 54.543 2.1665 62.1888 1.04753 65.357C-0.0714486 68.5252 0.884767 72.7494 0.803387 73.6365C0.69379 75.8429 0.837211 78.055 1.23063 80.2263C1.73926 82.6974 2.32926 84.4505 7.65966 86.3936C12.9901 88.3368 19.8667 88.8648 37.5872 89.2027C55.3077 89.5407 71.2378 90.4489 74.4727 89.7308C77.7075 89.0126 78.1144 84.9785 79.1317 81.4724C80.1489 77.9663 86.1711 64.3009 88.6328 57.8801C91.0946 51.4593 99.8226 33.6753 100.413 32.5348C101.003 31.3942 98.4595 31.0352 97.1777 30.4227ZM14.8414 47.6997C21.9622 35.9564 32.562 16.4193 35.5527 11.6671C38.5434 6.91484 39.7641 4.46479 40.4558 4.2747C41.1476 4.08461 60.5364 4.2747 70.7089 4.2747C77.4958 4.08183 84.2879 4.27926 91.0539 4.86609C94.4311 5.39412 94.9398 5.64757 94.4311 7.23166C93.9225 8.81574 87.6969 21.5518 85.6014 26.7053C84.6087 29.2326 83.4812 31.7006 82.2241 34.0977C81.6948 32.7479 81.055 31.4477 80.3117 30.2114C80.0676 30.2114 78.9282 30.8028 78.9282 31.3309C78.9282 31.8589 81.0848 35.5551 80.9628 35.8719C80.8407 36.1887 80.0065 38.6599 80.0065 38.6599C79.3942 36.9846 78.6455 35.3665 77.7686 33.8232C77.4634 33.8232 76.3851 35.6185 76.4462 35.8085C77.2048 37.3542 77.8839 38.9405 78.4807 40.5608C78.4807 41.3 78.2162 42.8841 77.8906 42.6729C77.5651 42.4617 75.8561 37.7306 75.612 37.7306C75.078 38.0097 74.6538 38.4725 74.4117 39.0401C74.2692 39.5681 76.6903 44.9329 76.5682 45.3764C76.4462 45.82 75.4899 48.9459 75.2865 48.5446C74.4352 46.4965 73.4846 44.4944 72.4382 42.5462C72.1127 42.4195 70.6478 43.8768 70.9123 44.3204C71.9671 46.5858 72.858 48.9297 73.5775 51.3326C73.4554 51.8606 72.8858 54.6908 72.3772 54.5007C71.8685 54.3106 69.5695 47.2351 69.0609 47.1083C68.5523 46.9816 67.0264 47.8898 67.2909 48.7558C68.6189 51.5487 69.8073 54.4109 70.8513 57.331C70.8513 58.1336 69.773 60.7737 69.4475 60.6892C69.1219 60.6047 66.5178 52.5154 66.0702 52.2408C65.6226 51.9662 64.5443 52.9589 64.6257 53.4869C64.7071 54.0149 68.6947 62.8647 67.9826 63.7095C67.6548 64.1793 67.2721 64.6049 66.8433 64.9768C66.8433 64.9768 62.7133 54.8809 62.0012 54.8809C61.2891 54.8809 60.2312 55.6202 60.4143 56.2749C60.5974 56.9297 65.4395 66.4975 65.114 66.9622C64.584 67.4686 63.9882 67.8952 63.344 68.2295C63.344 68.2295 58.4408 56.9297 58.1356 56.9297C57.8305 56.9297 56.4674 58.3237 56.5487 58.8517C56.6301 59.3797 61.1264 68.3562 60.8619 68.3562C60.5974 68.3562 57.9932 68.8842 57.688 68.4829C57.3829 68.0816 52.2763 57.2676 52.0932 57.2042C51.9101 57.1409 50.2418 57.7323 50.5063 58.5771C50.7707 59.422 55.9587 67.9549 55.0839 67.8282C54.2091 67.7014 52.2763 67.1734 52.2763 67.1734C52.2763 67.1734 48.3293 59.0418 48.2073 59.0418C48.0852 59.0418 46.7424 59.253 46.8645 60.0978C46.9866 60.9427 50.5063 66.6454 50.1807 66.6454C49.8552 66.6454 46.4373 66.1174 46.2948 65.7794C45.7312 63.8936 44.9236 62.096 43.8941 60.4358C43.4465 60.4358 41.9817 60.9638 42.3683 61.4918C43.0535 62.637 43.5679 63.8831 43.8941 65.188C43.5224 65.3237 43.1252 65.3671 42.7345 65.3147C42.4903 65.188 40.5779 61.3651 40.3338 61.3651C39.7562 61.573 39.1978 61.8346 38.6655 62.1466C38.6655 62.1466 40.3948 65.2514 39.6827 65.2514C33.7006 64.434 27.67 64.0599 21.6367 64.132C12.6645 64.3854 7.39517 64.9979 7.39517 64.9979C6.64241 64.9979 5.99137 64.9979 5.99137 64.9979C5.99137 64.9979 7.78173 59.4431 14.8414 47.6997ZM78.6027 72.3058C75.9375 79.8461 74.0251 85.1264 72.8858 85.7811C71.7465 86.4359 56.4063 86.7738 45.42 86.2458C34.4337 85.7177 29.144 85.591 19.6022 84.9152C10.0604 84.2393 6.76448 82.803 5.99137 81.6203C5.21826 80.4375 4.91308 69.539 6.43896 69.2222C9.52989 68.6638 12.6603 68.3741 15.7977 68.3562C25.4477 67.9191 35.116 68.2934 44.7079 69.4756C54.3108 70.933 58.1967 72.3058 61.635 72.1157C63.1577 72.1044 64.6738 71.9059 66.1516 71.5244C66.4605 73.8347 66.9712 76.1111 67.6775 78.3254C68.4302 79.9728 68.5523 81.1556 68.3082 81.1556C68.064 81.1556 53.2325 80.5008 38.5434 80.3741C23.8543 80.2474 14.7804 79.8461 12.5425 79.2547C10.3045 78.6633 9.9383 78.5788 9.55174 76.5301C9.16519 74.4813 10.4469 70.7217 9.9383 70.3416C9.42967 69.9614 7.9038 69.4122 7.45621 69.8769C7.00862 70.3416 6.25585 77.0581 7.2731 78.8534C8.29035 80.6487 8.35139 81.4302 14.4549 82.0216C20.5584 82.6129 34.5354 83.2043 44.4028 83.6056C54.2701 84.0069 63.6695 84.1337 66.0092 84.1337C68.3488 84.1337 69.2033 84.2604 70.9734 82.3384C72.7434 80.4164 75.3068 74.1011 77.972 68.5463C80.6372 62.9914 86.8018 50.6567 86.8018 50.6567L87.3714 50.3399C87.3714 50.3399 81.2679 64.7867 78.6027 72.3058ZM93.2308 32.3236C92.6408 33.1684 76.9548 64.9346 74.5948 70.067C72.2347 75.1994 70.7699 77.9874 70.7699 77.9874C69.7361 75.5243 68.9322 72.964 68.3692 70.3416C71.558 65.8776 74.2857 61.0779 76.5072 56.0215C80.7593 46.5803 86.6797 34.5624 88.3276 30.9296C89.9756 27.2967 91.5625 24.3398 91.5625 24.3398C91.4238 25.9498 91.5129 27.5722 91.827 29.1554C92.2746 30.5283 93.7394 31.521 93.2308 32.3236ZM87.1273 36.2521C86.6187 36.5267 82.3462 46.8126 81.7155 48.0165C81.0848 49.2205 80.4338 51.0791 80.9017 50.8679C82.3247 49.1779 83.4972 47.2773 84.3807 45.2286C85.7895 42.4397 87.0593 39.5775 88.1852 36.6534C88.0225 36.5478 87.1273 36.2098 86.9645 36.3154L87.1273 36.2521ZM17.9542 73.8266C17.9542 73.8266 22.9184 73.6576 27.1095 73.214C31.345 72.98 35.5896 72.98 39.8251 73.214C40.171 73.214 40.2931 72.7705 39.8251 72.5593C36.7143 71.8642 33.5462 71.4822 30.3647 71.4187C25.9468 71.1524 21.5177 71.1524 17.0997 71.4187C16.6221 71.5042 16.1895 71.764 15.8799 72.1512C15.5703 72.5384 15.4041 73.0277 15.4111 73.5309C15.4315 74.2912 16.1028 74.1645 17.7915 73.8899L17.9542 73.8266ZM24.3222 78.3676C27.374 78.2409 32.4602 78.0085 40.5982 77.4805C48.7362 76.9525 56.0604 78.1564 57.6474 77.3115C59.2343 76.4667 58.4408 75.0727 57.7694 74.9882C56.5039 74.9799 55.2393 75.0646 53.9853 75.2417C52.5611 75.3684 45.8473 74.946 40.7203 75.0305C35.5934 75.1149 23.3457 76.0443 22.6743 76.2555C20.3753 77.0158 21.1077 78.5577 24.1595 78.431L24.3222 78.3676ZM13.6818 61.344C15.0922 61.4102 16.5043 61.2607 17.8729 60.9004C19.1139 60.4991 19.6632 59.1051 19.1546 58.7883C17.8435 58.6486 16.5254 58.5922 15.2077 58.6194C14.2718 58.4293 14.9025 57.4155 15.5535 56.3594C17.4246 53.7447 19.1631 51.0305 20.7618 48.2278C21.2298 46.8126 19.5818 46.9605 18.7273 47.1295C17.8729 47.2984 12.2373 56.7607 11.4438 58.9995C10.6504 61.2384 12.7459 61.3651 13.519 61.4073L13.6818 61.344ZM80.3117 9.74507C81.2883 10.1041 84.7673 9.99853 85.5404 10.3998C86.3135 10.8011 84.3807 14.2861 84.1366 15.1943C83.8924 16.1025 85.9473 16.0392 86.4559 15.8068C87.6629 13.4156 88.5721 10.8748 89.1618 8.24547C89.2839 7.10493 80.8 6.83036 79.9251 7.14717C79.0503 7.46399 79.3352 9.38601 80.3117 9.74507ZM39.0724 25.0156C40.5169 25.1424 45.1759 25.6282 57.2608 25.945C69.3457 26.2618 72.9468 27.0433 74.2082 26.0717C75.4696 25.1001 80.1083 15.0676 80.4948 13.8848C80.8814 12.702 80.1896 11.5826 76.5479 10.9279C69.7432 10.0486 62.8967 9.56207 56.0401 9.4705C49.1228 9.4705 44.7486 9.85068 44.0772 10.3153C43.4058 10.78 37.3837 21.0871 36.7937 22.3333C36.2037 23.5794 37.6279 24.8889 39.0724 25.0156ZM40.5982 21.2772C42.3038 18.1393 44.2139 15.126 46.3152 12.2585C46.8848 12.0684 59.4174 12.4697 65.826 12.6387C72.2347 12.8076 77.0158 13.8426 77.3006 14.2861C76.5138 16.974 75.421 19.555 74.0454 21.9742C73.3334 23.157 72.4789 23.9596 72.0109 23.9596C71.543 23.9596 59.1732 23.1992 51.9711 22.9035C48.2749 22.9108 44.5808 22.7205 40.9034 22.3333C40.3338 22.0164 40.3337 21.763 40.5982 21.2772ZM49.0007 21.4039C49.8349 21.235 49.8756 19.6931 50.018 19.2918C50.1604 18.8905 46.6611 18.9961 46.3152 18.9328C45.9693 18.8694 46.7831 17.6232 47.5969 16.9263C48.4107 16.2293 46.5797 15.5111 45.4403 16.0814C44.1713 17.5494 43.2392 19.297 42.7141 21.1927C44.8021 21.4188 46.903 21.4894 49.0007 21.4039Z" fill="#1D1D1B"/>
</svg>
