<svg width="92" height="100" viewBox="0 0 92 100" fill="none" xmlns="http://www.w3.org/2000/svg">
<path d="M69.4574 41.4333C69.7411 41.1971 69.8413 40.7922 69.3239 38.852C68.6565 36.4416 67.5344 34.1844 66.0194 32.2046C64.0961 29.8459 61.5135 28.1289 58.6092 27.2781C57.1739 27.6493 58.3923 28.611 59.5272 29.3533C61.5868 30.5862 63.4032 32.1935 64.8845 34.0942C66.3792 36.1821 67.3422 38.61 67.6883 41.1634C68.0221 41.8214 69.1737 41.6695 69.4574 41.4333ZM51.4828 45.5163C50.6483 45.4319 48.5955 48.8062 48.245 48.8906C47.8946 48.9749 48.0114 48.7387 47.4106 48.182C46.8097 47.6252 45.508 45.7525 44.323 45.8031C43.1381 45.8537 41.5025 48.3001 41.3189 48.3001C41.1353 48.3001 40.9183 48.1651 40.1339 47.6083C39.3495 47.0516 37.2467 47.8277 36.6792 48.3169C36.1118 48.8062 36.4456 50.0041 36.5624 50.2234C36.6792 50.4427 37.8975 55.6054 38.7821 58.6592C39.3168 60.831 39.7181 63.0341 39.9837 65.256C40.1172 65.5934 41.1353 66.0489 41.4524 66.0995C41.8076 66.1073 42.1593 66.0267 42.4765 65.8649C42.7936 65.7031 43.0667 65.465 43.2716 65.1716C43.5887 64.6992 42.9878 62.1853 42.2535 58.423C41.5192 54.6606 39.9003 50.7296 40.0839 50.4596C40.2675 50.1897 40.451 50.5946 40.7181 50.6958C40.9851 50.797 41.2354 50.8139 42.0532 50.544C42.871 50.274 43.1214 49.5148 43.5052 48.8568C43.8891 48.1988 44.0727 48.0132 44.6067 48.0301C45.1408 48.047 45.2743 49.093 45.9753 49.9535C46.6762 50.8139 46.9933 51.6406 48.462 51.5394C49.9307 51.4382 51.3994 48.0301 51.7999 47.777C52.2005 47.524 52.4174 48.4856 52.4174 49.1774C52.4174 49.8691 51.9 51.7587 51.4828 54.8125C51.0656 57.8662 49.9808 62.9108 50.2311 63.94C50.4814 64.9691 52.4007 64.851 53.0683 64.598C53.7359 64.3449 53.8861 62.0672 54.4035 57.495C54.8806 54.3425 55.1871 51.1659 55.3214 47.9795C54.2438 46.8741 52.9309 46.0316 51.4828 45.5163ZM48.5121 90.1415C48.039 90.3073 47.63 90.6203 47.3438 91.0357C47.2103 91.3394 49.5301 93.6002 49.6803 93.6845C49.8305 93.7689 50.2645 93.1446 50.398 92.9084C49.9065 91.8979 49.2711 90.9657 48.5121 90.1415ZM23.9785 49.363C22.8603 46.2249 24.1621 43.6098 24.3624 42.3444C24.5626 41.079 23.4277 41.349 22.8603 41.5683C22.2928 41.7876 21.909 42.665 21.7087 44.6727C21.537 47.1477 21.9074 49.6306 22.7935 51.9443C22.9899 52.6791 23.3425 53.3618 23.8267 53.9446C24.311 54.5274 24.9153 54.9963 25.5974 55.3186C25.7541 55.3422 25.9141 55.3318 26.0666 55.2882C26.2191 55.2446 26.3606 55.1687 26.4819 55.0655C26.4785 54.8413 26.4212 54.6213 26.315 54.4244C25.3722 52.8197 24.5895 51.1242 23.9785 49.363ZM68.2057 60.9537C70.392 58.3049 71.5436 56.0947 72.9622 50.1559C74.3808 44.2171 73.2126 40.8091 72.1945 36.6587C71.1764 32.5083 70.2251 30.7537 66.3198 26.2827C62.7521 22.074 58.1454 18.8956 52.9682 17.0708C47.8856 15.329 42.3882 15.2582 37.2633 16.8684C32.7823 18.2515 28.6764 20.6588 25.2636 23.9038C22.2641 26.5453 19.8864 29.831 18.3041 33.5206C16.6258 37.4884 15.8995 41.8011 16.1845 46.1068C16.5783 50.3756 17.8094 54.5224 19.8061 58.3049C22.5331 62.2832 26.2528 65.4614 30.5875 67.5167C33.2912 68.6809 34.109 68.6134 34.1925 68.8496C34.2759 69.0858 33.2245 70.1824 32.9074 70.8573C32.5903 71.5322 34.3761 73.4555 35.3774 74.5522C36.3788 75.6488 34.9602 76.0875 34.0923 77.3529C33.8069 77.7914 33.6265 78.2912 33.5657 78.8125C33.5048 79.3339 33.5652 79.8624 33.7419 80.356C33.9588 80.6934 35.4108 81.6888 35.6945 82.2456C35.9782 82.8024 35.0603 83.7303 34.4094 84.8101C34.1244 85.15 33.9352 85.5613 33.8618 86.0007C33.7884 86.4401 33.8334 86.8913 33.9922 87.3071C34.2592 88.2519 35.7613 88.2519 36.1785 88.4037C36.5958 88.5556 36.312 88.893 36.1785 89.3823C35.8123 90.2097 35.7415 91.1399 35.9782 92.0142C36.2953 93.4989 38.5151 95.0342 42.4204 97.2613C46.3257 99.4883 45.1575 99.927 47.2103 99.9945C49.2631 100.062 48.8792 99.5052 50.0642 98.6954C51.2492 97.8855 52.601 96.5189 54.9709 94.798C56.7987 93.6985 58.4109 92.2688 59.7274 90.5801C60.032 90.1145 60.1415 89.5458 60.032 88.9987C59.9225 88.4516 59.6029 87.9707 59.1433 87.6614C58.6927 87.2058 59.0098 87.1046 59.1433 86.7503C59.2768 86.396 59.8443 86.396 60.2949 85.0631C60.6512 84.0469 60.7544 82.9575 60.5953 81.8913C60.4951 81.1489 59.6273 80.7272 59.3769 80.491C59.1266 80.2548 59.5605 79.2931 60.178 78.8038C60.6019 78.4899 60.9414 78.0739 61.1658 77.5936C61.3903 77.1134 61.4924 76.5841 61.4631 76.0537C61.4631 74.7209 60.6787 74.7884 59.7942 74.2654C58.9096 73.7423 59.0265 73.388 59.0932 72.5782C59.0313 71.3666 59.309 70.1619 59.8943 69.1027C60.7622 67.6855 60.3449 67.4155 60.3449 67.4155C61.2016 66.9797 62.027 66.4835 62.815 65.9308C64.8571 64.5654 66.6759 62.8861 68.2057 60.9537ZM56.523 75.885C56.3728 76.0875 55.505 75.9863 55.505 76.6949C55.505 77.4035 55.9222 78.5507 55.505 78.8038C55.0877 79.0569 53.836 79.2593 53.836 79.7824C53.836 80.3054 55.1879 83.1567 55.505 84.2196C55.8221 85.2825 56.039 85.2656 55.7887 85.4174C55.5384 85.5693 55.5384 85.7886 55.4048 85.5524C55.2713 85.3162 54.1865 82.8361 53.9028 82.8361C53.6191 82.8361 52.1337 83.376 52.7011 83.899C53.4792 85.2486 54.149 86.659 54.7039 88.1169C54.8541 88.3194 55.8555 89.8041 55.7219 90.0571C55.5884 90.3102 54.8875 91.1032 54.7873 91.0019C54.0431 89.4074 53.2072 87.8582 52.2839 86.3623C51.9 86.2104 50.5315 86.4972 50.8152 87.1384C51.0989 87.7795 53.4522 91.6599 53.352 91.8118C53.2519 91.9636 52.5509 92.3348 52.4508 92.1998C51.8564 90.6186 51.1131 89.0988 50.2311 87.6614C49.8472 87.6614 48.8959 88.4375 49.0461 88.7074C49.9877 90.1279 50.7925 91.6364 51.4494 93.2121C51.0067 93.6855 50.4875 94.0791 49.914 94.3762C49.6636 94.3762 49.5969 93.9545 49.1463 93.9545C48.288 93.9075 47.4374 93.7661 46.6095 93.5327C46.0921 93.3133 44.807 92.5035 44.3898 92.7903C43.7299 93.12 43.0062 93.2986 42.2702 93.3133C41.399 92.9115 40.616 92.3379 39.967 91.6262C39.483 91.1369 39.2661 90.2933 39.4163 90.0909C39.5665 89.8884 40.4177 88.5387 40.6346 88.6062C42.1788 89.0992 43.7755 89.4051 45.3911 89.5172C47.0601 89.5172 47.4106 89.0955 47.4106 88.7074C47.4106 88.3194 47.4106 87.9144 46.7764 87.9144C44.8231 87.8511 42.882 87.5797 40.9851 87.1046C38.8322 86.4804 37.6472 85.9236 37.8308 85.603C38.0144 85.2825 39.1159 82.583 39.6666 82.718C41.5819 83.3112 43.5331 83.779 45.508 84.1183C47.1659 84.3662 48.8389 84.4958 50.5148 84.5064C50.9321 84.5064 51.2158 83.7303 50.9654 83.5616C49.2835 83.1262 47.5784 82.7882 45.8584 82.5493C43.7106 82.2239 41.6164 81.6052 39.6333 80.7103C38.1312 79.9005 37.4135 79.4112 37.4803 79.175C37.5471 78.9388 38.5151 76.2562 38.8322 76.3237C41.1507 76.8612 43.4962 77.2723 45.8584 77.5553C49.6803 78.0108 50.4814 78.0108 50.8653 77.8759C51.2491 77.7409 51.1657 77.0323 50.8653 76.7792C48.8162 76.3022 46.7357 75.9751 44.6401 75.8007C42.8399 75.6908 41.0615 75.3448 39.3495 74.7715C39.3495 74.6028 40.0505 74.1135 39.5999 73.6917C38.787 73.0533 38.0278 72.3479 37.3301 71.5828C36.9129 70.9417 36.8461 70.6548 36.9462 70.3849C37.0464 70.115 37.6472 69.1195 37.6472 69.1195C39.0936 69.3717 40.5539 69.5351 42.0199 69.6088C43.0045 69.6088 43.3884 69.6088 43.5219 69.7775C43.8292 70.1597 44.2415 70.4415 44.7069 70.5874C46.6321 71.1031 48.6346 71.2575 50.615 71.0429C52.4723 70.9021 54.2938 70.4518 56.0057 69.71C55.8346 71.0015 55.7787 72.3058 55.8388 73.6074C56.0057 74.569 56.039 75.0583 56.3561 75.2945C56.6732 75.5307 56.6232 75.6657 56.4897 75.885H56.523ZM52.6678 68.5459C49.9073 69.0822 47.0675 69.042 44.323 68.4278C39.3677 67.9937 34.491 66.8988 29.8198 65.1716C26.8992 63.9737 25.0466 61.6792 22.8937 58.7604C20.7071 55.5608 19.2793 51.8948 18.7213 48.047C18.1785 44.7225 18.332 41.3198 19.1719 38.059C19.765 34.933 21.0866 31.9949 23.0272 29.4883C25.1073 26.4211 27.8169 23.8431 30.9714 21.9298C34.5075 19.6462 38.4949 18.172 42.6541 17.6107C47.3433 17.5113 51.9868 18.559 56.1893 20.6645C60.4011 22.8623 64.0341 26.0433 66.7871 29.9438C69.5742 34.1954 70.5422 35.562 71.2098 40.7753C71.9667 45.4919 71.4358 50.3278 69.6744 54.7619C68.1137 58.6932 65.362 62.0241 61.8136 64.2774C59.0222 66.2066 55.9308 67.6494 52.6678 68.5459ZM15.5169 63.3832C14.6157 62.8433 14.0983 62.759 12.179 63.5182C10.0149 64.3496 8.15614 65.834 6.85505 67.7698C6.65716 68.0086 6.52852 68.2981 6.48339 68.6062C6.43826 68.9144 6.4784 69.2291 6.59937 69.5156C6.72033 69.8021 6.9174 70.0492 7.16873 70.2294C7.42007 70.4097 7.71585 70.516 8.02332 70.5368C9.08209 70.6241 10.132 70.2844 10.944 69.5919C12.5934 68.3249 14.1343 66.9196 15.5503 65.3909C16.3347 64.4967 16.4348 63.94 15.5169 63.3832ZM9.27503 45.9043C8.87448 45.3644 7.42249 45.28 6.12071 45.7187C4.17727 46.5549 2.37525 47.6935 0.780067 49.093C0.386412 49.475 0.125093 49.9752 0.0348976 50.5192C-0.0552975 51.0632 0.0304396 51.6222 0.279382 52.113C0.516517 52.5462 0.900144 52.8784 1.35994 53.0489C1.81974 53.2193 2.32489 53.2165 2.78281 53.041C4.65046 52.2726 6.40303 51.2448 7.98994 49.9872C8.54681 49.4858 8.95998 48.8422 9.18608 48.1238C9.41219 47.4054 9.44291 46.6388 9.27503 45.9043ZM3.35025 26.367C5.10156 27.2135 6.96076 27.8097 8.87448 28.1386C10.2764 28.341 11.5949 27.953 11.7951 27.0588C11.9954 26.1646 11.5281 25.9284 10.4099 25.1017C9.29172 24.275 4.91907 20.8332 4.26818 21.1875C0.195935 23.1108 2.19868 25.6922 3.35025 26.367ZM25.6474 12.1106C26.8789 12.3728 28.1612 12.2249 29.3024 11.6888C29.6029 11.402 29.4193 9.79919 28.5347 8.77003C27.6502 7.74086 24.4458 3.42175 23.3276 3.70856C20.3569 4.60276 20.5905 6.84667 21.2581 7.79148C22.5465 9.40216 24.02 10.8521 25.6474 12.1106ZM48.1449 9.90042C49.1963 10.3222 49.6803 9.51238 50.3312 8.53383C51.0286 6.93036 51.4518 5.21893 51.5829 3.47236C51.5829 2.47694 51.9835 1.78521 50.7318 0.891017C49.4801 -0.00317495 47.6609 -0.627422 46.7931 1.05973C45.9252 2.74689 46.6428 7.80835 46.7931 8.48321C46.9116 8.79972 47.0926 9.08856 47.325 9.33219C47.5574 9.57582 47.8363 9.76914 48.1449 9.90042ZM72.4782 20.0233C74.7092 18.9246 76.5508 17.1571 77.7521 14.9619C79.1874 12.2287 77.6186 10.7777 75.3488 11.402C73.079 12.0262 69.6911 18.5724 69.3573 19.0279C69.2257 19.2932 69.1657 19.5889 69.1833 19.8851C69.2009 20.1813 69.2954 20.4676 69.4574 20.7151C70.2084 21.3056 70.7091 21.0525 72.4782 20.0571V20.0233ZM90.8367 37.7385C90.119 37.1311 88.617 37.4348 86.8646 38.2615C85.1122 39.0882 78.0692 42.665 78.0525 43.5592C78.0525 45.5331 79.7215 44.9595 82.1915 44.504C84.6616 44.0484 90.1023 42.6818 91.4041 41.7202C92.7059 40.7585 91.571 38.3796 90.8701 37.7722L90.8367 37.7385ZM85.8298 62.6915C84.8118 62.0166 78.7201 58.9966 78.0024 59.6377C77.7688 59.8571 75.5491 61.6623 75.5324 62.5396C75.5157 63.417 79.3877 65.3403 81.5072 66.2345C83.6268 67.1287 85.5127 67.7023 86.6309 66.437C86.8314 66.1439 86.9701 65.8123 87.0385 65.4628C87.1068 65.1133 87.1033 64.7532 87.0282 64.4051C86.9531 64.057 86.8079 63.7282 86.6018 63.4392C86.3956 63.1502 86.1328 62.9072 85.8298 62.7252V62.6915ZM68.6229 69.052C68.2654 68.9842 67.898 68.9896 67.5425 69.0679C67.1871 69.1461 66.8507 69.2956 66.5534 69.5076C66.3126 69.8899 66.2033 70.3418 66.2426 70.7933C66.2818 71.2448 66.4673 71.6706 66.7704 72.0046C67.6049 73.2193 69.9247 77.471 70.7258 77.8927C71.209 78.0447 71.7216 78.075 72.2191 77.9809C72.7165 77.8868 73.1836 77.6712 73.5797 77.3529C73.7523 77.2732 73.9062 77.1576 74.0317 77.0138C74.1572 76.87 74.2513 76.7011 74.308 76.5181C74.3647 76.3351 74.3826 76.1421 74.3606 75.9517C74.3387 75.7612 74.2773 75.5775 74.1805 75.4126C73.8801 74.8053 68.7898 69.1195 68.6229 69.052Z" fill="#1D1D1B"/>
</svg>
