<svg width="105" height="98" viewBox="0 0 105 98" fill="none" xmlns="http://www.w3.org/2000/svg">
<path d="M53.319 96.2052C53.0756 96.0747 52.7725 96.1662 52.642 96.4096L52.3567 96.9418L52.0714 96.4096C51.9409 96.1662 51.6379 96.0747 51.3945 96.2051L50.415 94.3781C50.6584 94.2477 50.7499 93.9446 50.6194 93.7012L49.1675 90.9929C49.037 90.7495 48.7339 90.658 48.4906 90.7885L47.5111 88.9615C47.7544 88.831 47.846 88.5279 47.7155 88.2846L46.2635 85.5762C46.1331 85.3329 45.83 85.2413 45.5866 85.3718L44.6071 83.5448C44.8505 83.4143 44.942 83.1113 44.8116 82.8679L43.3596 80.1596C43.2291 79.9162 42.9261 79.8247 42.6827 79.9552L41.7032 78.1282C41.9466 77.9977 42.0381 77.6946 41.9076 77.4512L40.4557 74.7429C40.3252 74.4995 40.0221 74.408 39.7787 74.5385L38.7993 72.7115C39.0427 72.581 39.1342 72.2779 39.0037 72.0346L37.5517 69.3262C37.4213 69.0829 37.1182 68.9913 36.8748 69.1218L35.8953 67.2948C36.1387 67.1643 36.2302 66.8613 36.0998 66.6179L34.6478 63.9096C34.5173 63.6662 34.2143 63.5747 33.9709 63.7052L32.9914 61.8782C33.2348 61.7477 33.3263 61.4446 33.1958 61.2012L31.7439 58.4929C31.6134 58.2495 31.3103 58.158 31.067 58.2885L30.0875 56.4615C30.3308 56.331 30.4224 56.028 30.2919 55.7846L28.8399 53.0762C28.7095 52.8329 28.4064 52.7413 28.163 52.8718L27.1835 51.0448C27.4269 50.9144 27.5184 50.6113 27.388 50.3679L25.936 47.6596C25.8055 47.4162 25.5025 47.3247 25.2591 47.4552L24.2796 45.6282C24.523 45.4977 24.6145 45.1946 24.484 44.9512L23.0321 42.2429C22.9016 41.9995 22.5985 41.908 22.3551 42.0385L21.3757 40.2115C21.619 40.081 21.7106 39.778 21.5801 39.5346L20.1281 36.8263C19.9977 36.5829 19.6946 36.4914 19.4512 36.6218L18.4717 34.7948C18.7151 34.6644 18.8066 34.3613 18.6762 34.1179L17.2242 31.4096C17.0937 31.1662 16.7907 31.0747 16.5473 31.2052L15.5678 29.3782C15.8112 29.2477 15.9027 28.9446 15.7722 28.7013L14.3203 25.9929C14.1898 25.7495 13.8867 25.658 13.6433 25.7885L12.6639 23.9615C12.9072 23.831 12.9988 23.528 12.8683 23.2846L11.4163 20.5763C11.2859 20.3329 10.9828 20.2414 10.7394 20.3718L9.75994 18.5448C10.0033 18.4144 10.0948 18.1113 9.96436 17.8679L8.51239 15.1596C8.38192 14.9162 8.07885 14.8247 7.83548 14.9552L6.856 13.1282C7.09938 12.9977 7.1909 12.6946 7.06042 12.4513L5.60846 9.74292C5.47798 9.49954 5.17492 9.40802 4.93155 9.5385L3.95207 7.7115C4.19544 7.58102 4.28696 7.27796 4.15649 7.03458L2.70453 4.32626C2.57405 4.08288 2.27099 3.99136 2.02761 4.12183L1.04813 2.29483C1.29151 2.16436 1.38303 1.8613 1.25256 1.61792L0.92128 1H1.62331C1.89946 1 2.12331 0.776146 2.12331 0.5H4.19807C4.19807 0.776146 4.42193 1 4.69807 1H7.77282C8.04896 1 8.27282 0.776146 8.27282 0.5H10.3476C10.3476 0.776146 10.5714 1 10.8476 1H13.9223C14.1985 1 14.4223 0.776146 14.4223 0.5H16.4971C16.4971 0.776146 16.7209 1 16.9971 1H20.0718C20.348 1 20.5718 0.776146 20.5718 0.5H22.6466C22.6466 0.776146 22.8704 1 23.1466 1H26.2213C26.4975 1 26.7213 0.776146 26.7213 0.5H28.7961C28.7961 0.776146 29.0199 1 29.2961 1H32.3708C32.647 1 32.8708 0.776146 32.8708 0.5H34.9456C34.9456 0.776146 35.1694 1 35.4456 1H38.5203C38.7965 1 39.0203 0.776146 39.0203 0.5H41.0951C41.0951 0.776146 41.319 1 41.5951 1H44.6699C44.946 1 45.1699 0.776146 45.1699 0.5H47.2446C47.2446 0.776146 47.4685 1 47.7446 1H50.8194C51.0955 1 51.3194 0.776146 51.3194 0.5H53.3941C53.3941 0.776146 53.618 1 53.8941 1H56.9689C57.245 1 57.4689 0.776146 57.4689 0.5H59.5436C59.5436 0.776146 59.7675 1 60.0436 1H63.1184C63.3945 1 63.6184 0.776146 63.6184 0.5H65.6931C65.6931 0.776146 65.917 1 66.1931 1H69.2679C69.544 1 69.7679 0.776146 69.7679 0.5H71.8426C71.8426 0.776146 72.0665 1 72.3426 1H75.4174C75.6935 1 75.9174 0.776146 75.9174 0.5H77.9921C77.9921 0.776146 78.216 1 78.4921 1H81.5669C81.843 1 82.0669 0.776146 82.0669 0.5H84.1416C84.1416 0.776146 84.3655 1 84.6416 1H87.7164C87.9925 1 88.2164 0.776146 88.2164 0.5H90.2912C90.2912 0.776146 90.515 1 90.7912 1H93.8659C94.142 1 94.3659 0.776146 94.3659 0.5H96.4407C96.4407 0.776146 96.6645 1 96.9407 1H100.015C100.292 1 100.515 0.776146 100.515 0.5H102.59C102.59 0.776146 102.814 1 103.09 1H103.792L103.461 1.61794C103.33 1.86132 103.422 2.16438 103.665 2.29486L102.686 4.12185C102.442 3.99138 102.139 4.0829 102.009 4.32627L100.557 7.03461C100.426 7.27798 100.518 7.58105 100.761 7.71152L99.7819 9.53852C99.5385 9.40804 99.2355 9.49957 99.105 9.74294L97.653 12.4513C97.5225 12.6946 97.6141 12.9977 97.8574 13.1282L96.878 14.9552C96.6346 14.8247 96.3315 14.9162 96.201 15.1596L94.7491 17.8679C94.6186 18.1113 94.7101 18.4144 94.9535 18.5448L93.974 20.3718C93.7307 20.2414 93.4276 20.3329 93.2971 20.5763L91.8451 23.2846C91.7147 23.528 91.8062 23.831 92.0496 23.9615L91.0701 25.7885C90.8267 25.658 90.5237 25.7496 90.3932 25.9929L88.9412 28.7013C88.8107 28.9446 88.9023 29.2477 89.1456 29.3782L88.1662 31.2052C87.9228 31.0747 87.6197 31.1662 87.4893 31.4096L86.0373 34.1179C85.9068 34.3613 85.9983 34.6644 86.2417 34.7948L85.2622 36.6218C85.0189 36.4914 84.7158 36.5829 84.5853 36.8263L83.1334 39.5346C83.0029 39.778 83.0944 40.081 83.3378 40.2115L82.3583 42.0385C82.1149 41.908 81.8119 41.9996 81.6814 42.2429L80.2294 44.9513C80.0989 45.1946 80.1905 45.4977 80.4338 45.6282L79.4544 47.4552C79.211 47.3247 78.9079 47.4162 78.7775 47.6596L77.3255 50.3679C77.195 50.6113 77.2865 50.9144 77.5299 51.0448L76.5504 52.8718C76.3071 52.7414 76.004 52.8329 75.8735 53.0763L74.4216 55.7846C74.2911 56.028 74.3826 56.331 74.626 56.4615L73.6465 58.2885C73.4031 58.158 73.1001 58.2495 72.9696 58.4929L71.5176 61.2013C71.3871 61.4446 71.4787 61.7477 71.722 61.8782L70.7426 63.7052C70.4992 63.5747 70.1961 63.6662 70.0656 63.9096L68.6137 66.6179C68.4832 66.8613 68.5747 67.1644 68.8181 67.2948L67.8386 69.1218C67.5953 68.9914 67.2922 69.0829 67.1617 69.3263L65.7097 72.0346C65.5793 72.278 65.6708 72.581 65.9142 72.7115L64.9347 74.5385C64.6913 74.408 64.3883 74.4995 64.2578 74.7429L62.8058 77.4513C62.6753 77.6946 62.7669 77.9977 63.0102 78.1282L62.0308 79.9552C61.7874 79.8247 61.4843 79.9162 61.3538 80.1596L59.9019 82.8679C59.7714 83.1113 59.8629 83.4144 60.1063 83.5448L59.1268 85.3718C58.8835 85.2414 58.5804 85.3329 58.4499 85.5763L56.9979 88.2846C56.8675 88.528 56.959 88.831 57.2024 88.9615L56.2229 90.7885C55.9795 90.658 55.6765 90.7495 55.546 90.9929L54.094 93.7013C53.9635 93.9446 54.0551 94.2477 54.2984 94.3782L53.319 96.2052Z" fill="#EFD101" stroke="white" stroke-linecap="round" stroke-linejoin="round" stroke-dasharray="3 3"/>
</svg>
