<svg width="100" height="100" viewBox="0 0 100 100" fill="none" xmlns="http://www.w3.org/2000/svg">
<path d="M78.2873 27.0393C73.1357 27.6808 67.177 29.2509 66.9709 29.2509C66.7649 29.2509 66.6962 28.1535 65.4598 26.0432C64.2234 23.9329 62.1456 17.0111 58.5566 10.6802C54.9677 4.3493 53.6111 2.72858 48.8373 1.88446C44.0634 1.04034 42.7584 2.72858 41.1099 4.41683C39.4613 6.10507 35.5289 13.9554 31.8713 21.4006C29.8228 25.1547 28.6 29.2903 28.2823 33.539C22.5295 33.387 16.7758 33.8112 11.1103 34.8052C4.60211 36.122 0 39.2791 0 44.1412C0 49.0033 1.597 51.8396 6.97185 57.1744C12.3467 62.5093 21.6196 66.8818 21.6196 66.8818C21.6196 66.8818 20.5549 72.1998 19.7478 76.4204C19.0574 80.1955 18.8268 84.038 19.061 87.8667C19.061 92.9314 18.7347 95.6833 22.4954 98.1144C26.256 100.545 28.2995 100.106 34.2582 96.156C40.2169 92.2055 51.104 80.219 51.104 80.219C51.104 80.219 66.2841 90.3484 71.6074 92.9314C76.9307 95.5145 80.554 95.0924 83.4561 92.4587C86.3582 89.8251 85.3965 83.5955 84.744 78.6996C84.0915 73.8036 80.2964 63.5054 80.2964 62.9145C80.7745 61.5474 81.5019 60.2773 82.4429 59.1666C83.7824 57.2757 90.0673 47.9904 91.8876 43.3477C93.7078 38.7051 96.2321 33.4209 92.7977 29.1496C89.3633 24.8783 83.4904 26.364 78.2873 27.0393ZM90.5825 36.0714C90.4675 36.7412 90.2655 37.3937 89.9815 38.0129C89.3433 36.3169 88.5562 34.6787 87.6289 33.117C87.2511 33.117 86.2895 33.5897 86.341 34.113C86.3925 34.6364 89.2431 40.2245 89.1229 40.5959C89.0027 40.9673 88.2643 43.4997 88.0582 43.3984C87.8521 43.2971 84.3147 36.848 83.8682 36.7467C83.4218 36.6454 82.4258 37.6921 82.6834 38.0635C84.2808 40.4612 85.7371 42.947 87.0451 45.5087C86.5496 46.5672 85.9756 47.5886 85.3279 48.5644C85.3279 48.5644 81.2924 40.3427 80.9146 40.292C80.5368 40.2414 79.1974 41.018 79.5752 41.5582C81.2413 44.3124 82.7324 47.1654 84.0399 50.1007C83.8167 50.4721 83.0611 52.2617 82.752 52.1097C82.4429 51.9578 79.5237 45.7788 78.9914 45.458C78.459 45.1373 77.3772 45.8294 77.6519 46.5554C77.9267 47.2813 81.8248 53.4265 81.6702 53.8993C81.5157 54.372 80.3308 56.381 79.953 56.2628C79.5752 56.1446 76.0378 48.8345 75.5054 48.8345C74.9731 48.8345 73.6165 49.7799 74.2175 50.4215C75.9036 52.7031 77.3914 55.1202 78.6651 57.6472C78.5621 58.0692 77.9095 60.2808 77.3772 59.8588C76.8449 59.4367 72.8094 51.6877 72.1741 51.6877C71.884 51.7135 71.6157 51.8497 71.4264 52.0674C71.2371 52.285 71.1418 52.5668 71.1609 52.8525C71.264 53.224 76.6216 60.973 76.4671 61.2938C76.3125 61.6145 75.763 63.7248 76.364 64.5183C78.329 68.7453 79.7704 73.1891 80.6571 77.7541C81.7217 83.511 82.6834 87.7317 80.8631 90.264C79.0429 92.7964 75.2822 90.838 69.0659 87.4109C62.8497 83.9838 52.9071 76.6568 51.5161 76.4373C51.0813 76.3052 50.6186 76.2887 50.1752 76.3896C49.7318 76.4904 49.3235 76.7049 48.9918 77.0113C48.408 77.5515 47.0514 79.493 46.0897 80.506C45.1281 81.5189 44.3725 82.1942 44.3725 82.1942C44.3725 82.1942 41.2129 73.9556 40.7836 73.9556C40.3543 73.9556 39.2209 74.7491 39.324 75.0698C39.427 75.3906 43.617 83.1396 43.4109 83.2409C43.2048 83.3422 41.522 85.6214 41.3159 85.4019C41.1099 85.1824 37.6068 76.8594 37.229 76.8594C36.8512 76.8594 35.9411 77.8723 36.1128 78.1762C36.2845 78.4801 40.4573 86.1447 40.1826 86.4655C39.9078 86.7862 38.4654 88.4238 38.3108 88.1537C38.1563 87.8836 34.9794 79.7125 34.4471 79.7125C33.9148 79.7125 32.7299 80.928 33.1077 81.2994C33.4855 81.6709 37.5037 88.6264 37.1259 89.1498C36.7482 89.6731 35.632 91.1081 35.4087 90.7367C35.1855 90.3653 32.1976 83.089 31.6996 83.0383C31.2016 82.9877 30.4804 83.7136 30.5834 83.9838C30.6864 84.2539 34.5501 91.5809 34.1724 92.0029C33.7946 92.425 32.6269 93.6912 32.4552 93.6912C32.2834 93.6912 30.3086 87.8161 29.3642 87.4447C29.2167 87.3932 29.0598 87.3733 28.9038 87.3863C28.7479 87.3993 28.5966 87.4449 28.4601 87.52C28.3235 87.5951 28.2048 87.6981 28.112 87.8219C28.0192 87.9457 27.9543 88.0877 27.9217 88.2381C27.9217 88.4576 30.9784 94.569 30.5491 94.8898C30.1198 95.2106 29.4157 95.7846 29.2096 95.4638C28.4588 93.6341 27.5809 91.8573 26.5823 90.1458C26.153 90.0277 25.2429 90.7198 25.3974 90.99C25.552 91.2601 28.4541 96.0547 27.9217 96.0547C27.0523 96.125 26.1812 95.9414 25.4175 95.527C24.6538 95.1125 24.0315 94.4856 23.6287 93.7249C22.2893 91.2432 21.9115 86.6005 22.3923 81.2826C22.8732 75.9646 25.6722 68.4013 25.8267 66.7637C25.9813 65.1261 25.552 64.3495 24.5388 63.8768C23.5257 63.4041 15.6266 60.7029 10.4749 55.7394C5.32333 50.776 3.9324 48.0917 3.82936 44.6139C3.72633 41.1361 7.89914 39.0765 12.673 38.0635C17.4468 37.0506 29.3642 36.4935 30.3086 36.3246C31.2531 36.1558 31.5965 32.0534 33.1077 27.512C34.6188 22.9706 41.7967 5.36224 46.2615 5.04148C48.4019 5.0879 50.4474 5.91881 51.9969 7.37125C53.4071 8.81555 54.6299 10.426 55.6374 12.1659C55.6374 12.1659 50.8636 10.0049 50.606 10.0049C50.3484 10.0049 49.7474 11.5243 50.606 12.0139C51.4646 12.5035 56.393 14.1242 56.393 14.1242C56.393 14.1242 58.3849 18.5474 58.1102 18.3955C57.8354 18.2435 51.8424 15.019 51.5161 15.4411C51.1898 15.8631 51.0868 16.8592 51.5161 17.1293C51.9454 17.3994 59.192 20.2863 59.192 20.2863C59.7578 21.485 60.2398 22.7203 60.6345 23.9836C60.3597 23.7641 53.5596 20.185 53.0616 20.6071C52.5636 21.0291 52.8555 22.2953 53.0616 22.2953C53.2677 22.2953 61.2183 25.6718 61.2183 25.6718C61.2183 25.6718 62.2486 27.5627 61.8193 27.512C61.39 27.4614 54.5212 25.3004 54.298 25.4523C54.0747 25.6043 53.9889 26.938 54.4182 27.0393C54.8475 27.1406 62.3517 28.947 62.4547 29.099C62.5577 29.2509 63.5881 33.117 64.7729 33.117C65.9578 33.117 65.8891 32.9481 71.264 31.682C76.0307 30.5752 80.9108 30.0088 85.8087 29.9937C88.6421 30.1119 89.3976 30.956 90.0502 31.9521C90.6633 33.2361 90.8495 34.6774 90.5825 36.0714ZM44.5958 71.9466C44.2695 71.8284 43.1705 72.7232 43.1877 72.9426C43.2048 73.1621 45.8837 78.5814 46.0897 78.8008C46.2958 79.0203 46.5706 78.8008 46.8968 78.1593C47.2231 77.5178 44.9049 72.0479 44.5958 71.9466ZM64.7214 80.8099C64.876 81.3332 74.4236 87.9174 74.6984 88.0355C74.9731 88.1537 76.6216 87.2421 76.4156 86.4992C76.2095 85.7564 66.1123 79.0879 65.7861 79.2229C65.4598 79.358 64.5497 80.2696 64.7214 80.8099ZM84.3147 62.2898C81.2581 61.9184 83.3016 63.8092 84.9157 67.5571C85.9703 70.3151 86.7075 73.1805 87.1137 76.0997C87.2683 76.7918 88.1784 76.5217 88.7279 76.2685C89.2774 76.0152 89.037 74.3101 88.1269 70.6804C87.3023 67.7076 86.0164 64.8775 84.3147 62.2898ZM15.8841 86.82C16.571 85.4525 14.3215 85.7058 14.3215 85.7058C13.5483 86.5907 12.9804 87.6305 12.6572 88.7529C12.334 89.8753 12.2632 91.0535 12.4497 92.2055C12.5157 94.8801 13.2721 97.4943 14.6477 99.8026C15.1286 100.326 16.1417 99.6844 16.5195 99.313C16.8973 98.9416 16.1417 99.1611 15.0255 94.6197C14.5833 93.3364 14.431 91.9738 14.5793 90.6267C14.7276 89.2796 15.1729 87.9806 15.8841 86.82ZM10.9901 41.0686C9.65069 41.0686 6.54255 42.7568 6.8173 45.4074C7.06051 47.2873 7.97306 49.0218 9.3931 50.3033C11.3164 51.4175 12.278 49.3579 11.9174 48.9358C11.5568 48.5138 11.1618 48.7839 10.784 48.7332C10.4063 48.6826 10.2517 48.615 9.87392 47.619C9.3548 46.5712 9.20382 45.3837 9.44462 44.2425C9.87392 43.3477 11.1618 43.3984 12.0204 42.9257C12.879 42.453 12.3467 41.018 10.9901 41.0686ZM24.7277 30.4664C26.2904 29.9431 27.3035 25.4017 27.6813 24.7264C28.0591 24.0511 27.2005 23.7135 26.4449 23.7135C25.6894 23.7135 23.8691 27.9847 23.2853 28.6262C22.7014 29.2678 19.3014 28.4912 19.0953 28.6262C18.563 29.099 18.4084 30.2132 18.8892 30.5846C20.8015 30.9865 22.7826 30.946 24.6762 30.4664H24.7277ZM36.4906 9.26209C37.5943 6.5898 39.0182 4.05643 40.7321 1.71564C42.02 0.0273941 41.6937 -0.0739005 41.3159 0.0273941C39.2724 1.75571 37.4708 3.74262 35.9582 5.93625C33.5885 9.16079 32.5238 11.1529 33.1592 11.9464C34.1208 13.3308 35.5805 11.6932 36.4906 9.26209ZM96.2664 24.4563C94.1199 22.2953 87.0622 22.5317 86.7703 22.6667C86.5513 22.7616 86.3614 22.9111 86.2192 23.1004C86.0771 23.2897 85.9877 23.5122 85.9599 23.7459C85.9322 23.9796 85.967 24.2164 86.0609 24.4328C86.1549 24.6492 86.3047 24.8377 86.4956 24.9796C87.1996 25.4017 88.1097 24.777 89.5007 24.777C90.7922 24.8717 92.0515 25.2191 93.2045 25.7989C94.3575 26.3788 95.381 27.1793 96.2149 28.1535C98.6877 30.8378 97.1766 32.7962 96.9705 32.9988C96.91 33.0602 96.8677 33.1366 96.8478 33.2197C96.828 33.3029 96.8315 33.3899 96.8579 33.4713C96.8844 33.5527 96.9327 33.6255 96.9979 33.682C97.0631 33.7385 97.1426 33.7766 97.2281 33.7923C97.8979 33.7867 98.5436 33.5452 99.0477 33.1115C99.5519 32.6778 99.8811 32.0807 99.9756 31.4287C100.233 29.4197 98.4129 26.5666 96.3351 24.4056L96.2664 24.4563Z" fill="#1D1D1B"/>
</svg>
