<svg width="100" height="103" viewBox="0 0 100 103" fill="none" xmlns="http://www.w3.org/2000/svg">
<path d="M53.2384 71.4702C55.3478 70.1413 64.397 64.2561 64.9243 63.4545C65.4517 62.653 62.5618 57.9913 61.8447 57.1264C61.1275 56.2616 64.6712 49.1319 64.6712 48.6045C64.6712 48.0772 68.6368 48.8788 69.6915 48.9631C70.7462 49.0475 70.915 48.9631 71.2736 47.5498C72.2289 42.5539 72.9329 37.5132 73.3829 32.4467C73.1087 30.5694 65.0931 30.5694 65.0931 30.5694C65.0931 30.5694 64.6712 28.9873 64.3126 27.7639C63.954 26.5405 62.0345 21.8577 62.0345 21.4358C62.0345 21.0139 65.2829 18.3561 66.0634 17.217C66.8439 16.078 64.2283 14.2217 62.0345 11.7538C59.8408 9.28578 52.9642 3.61157 52.015 3.69594C51.0658 3.78032 44.9064 9.32797 44.9064 9.32797C44.9064 9.32797 42.2697 9.05375 38.8314 8.885C36.6605 8.87138 34.4907 8.99114 32.3345 9.2436C31.7228 9.13813 30.7525 4.58188 29.972 3.1686C29.1915 1.75532 23.8126 4.30766 18.3704 6.94438C14.6579 8.58368 11.3308 10.9838 8.60404 13.9897C8.16107 14.8545 11.7681 20.0436 11.7681 20.0436C11.7681 20.0436 10.7978 20.4866 8.96264 24.4311C7.83745 27.0032 7.12555 29.7369 6.85326 32.5311C6.85326 32.5311 2.0017 32.5311 0.693888 34.0288C-0.613924 35.5264 2.63451 49.6592 3.33061 51.2413C4.0267 52.8233 11.3251 50.4608 11.3251 50.4608C12.1153 51.8525 13.0258 53.1724 14.0462 54.4053C15.6509 55.8798 17.1787 57.4357 18.6236 59.067C17.7596 61.3538 16.7594 63.5867 15.6283 65.7538C15.4595 66.2811 16.1556 66.9772 18.8978 68.4749C23.2258 70.3704 27.8107 71.6144 32.5033 72.1663C34.7181 72.1663 35.8572 66.3655 36.4689 65.5639C37.0806 64.7624 43.8517 65.8381 44.6322 66.4498C45.4126 67.0616 47.1845 72.2506 48.0704 72.9467C48.9564 73.6428 51.2134 72.7569 53.2384 71.4702ZM43.3876 55.017C43.1345 55.017 41.8056 55.5444 41.89 56.0717C41.9744 56.5991 44.3579 61.7038 44.1048 61.7038C43.369 61.7885 42.6258 61.7885 41.89 61.7038C41.4681 61.535 39.3587 56.3459 39.0001 56.3459C38.6415 56.3459 37.1439 56.3459 37.2494 57.1264C37.3548 57.9069 39.7806 61.535 39.0001 61.535C37.6254 61.1536 36.2078 60.948 34.7814 60.9233C33.3681 61.1764 32.8408 63.0327 32.229 63.8131C31.6173 64.5936 31.1744 67.2514 30.2884 67.2514C29.4025 67.2514 21.0704 64.1717 21.0704 63.6444C21.0704 63.117 23.9603 58.3709 23.1798 57.485C20.6828 55.4728 18.4628 53.1393 16.5775 50.5452C13.772 46.3264 13.6033 45.2717 12.7173 45.3561C11.8314 45.4405 7.19076 47.4655 6.91654 47.0225C6.64232 46.5795 4.63842 37.003 5.50326 36.7498C6.36811 36.4967 9.82748 36.8975 9.82748 36.3913C10.3242 32.7318 11.3918 29.1729 12.9915 25.8444C14.132 24.1975 15.188 22.4937 16.1556 20.7397C16.2822 20.3178 13.5189 15.8248 13.8564 15.0444C15.5181 13.2833 17.4473 11.7954 19.5728 10.6358C22.0408 9.13813 26.8712 7.38735 27.04 7.83032C27.2087 8.27328 28.9806 13.5467 29.7822 13.4623C32.862 13.0217 35.9767 12.8734 39.0845 13.0194C43.3033 13.2725 45.7712 13.8842 46.2142 13.5467C47.8814 11.8668 49.642 10.2823 51.4876 8.80063C54.6718 11.2679 57.6684 13.9683 60.4525 16.8795C60.2626 17.1538 55.3478 20.8452 56.2337 22.4272C57.9429 24.4335 59.2274 26.7657 60.0095 29.2827C60.9798 33.1428 61.9501 34.1131 62.1189 34.1131C62.2876 34.1131 68.89 34.7881 68.89 35.3366C68.6316 38.3532 68.1664 41.3485 67.4978 44.3014C65.6464 43.8933 63.7608 43.6602 61.8657 43.6053C61.5072 43.9428 60.2837 45.7147 60.2837 45.7147C59.0424 43.7615 57.6902 41.8811 56.2337 40.0827C55.9595 40.0827 54.3775 41.1373 54.9048 41.7491C56.6178 43.5717 58.2035 45.5099 59.6509 47.5498C59.4529 49.2152 59.0123 50.8426 58.3431 52.3803C58.0689 52.3803 53.8501 44.3858 53.597 44.3858C53.3439 44.3858 52.0993 45.5248 52.2681 45.7991C52.4368 46.0733 57.6259 55.3756 57.6259 55.3756C57.6259 55.3756 56.5712 57.8436 57.0142 58.6241C57.8467 59.8729 58.5533 61.2013 59.1236 62.5897C58.891 62.8509 58.6291 63.0845 58.3431 63.2858C58.3431 63.2858 51.2134 48.9631 50.5173 48.8788C49.8212 48.7944 48.7454 49.7436 49.0197 50.1022C49.2939 50.4608 56.8454 63.9819 56.5712 64.3405C55.9155 64.8546 55.2087 65.2999 54.4618 65.6694C54.4618 65.6694 48.1337 52.8233 47.8806 53.0131C47.6275 53.203 46.2986 53.9834 46.4673 54.5108C46.6361 55.0381 52.7954 66.7241 52.6267 66.9983C52.4579 67.2725 50.7704 68.4959 50.7704 68.2217C50.1087 66.295 49.1937 64.4649 48.0494 62.7795C47.6029 62.5006 47.1294 62.2673 46.6361 62.0834C46.6361 62.0834 43.5775 55.017 43.3876 55.017ZM23.433 29.7045C22.6525 30.6538 21.5978 32.2358 21.1548 36.8131C20.7119 41.3905 22.6525 44.0272 23.2642 44.0272C23.7314 43.9008 24.1456 43.6275 24.4457 43.2477C24.7457 42.8678 24.9157 42.4016 24.9306 41.9178C24.9306 40.6733 24.0658 41.0319 23.7072 38.2264C23.6128 35.9856 24.2253 33.7719 25.4579 31.8983C26.0697 30.5694 23.7283 29.4514 23.433 29.81V29.7045ZM51.2134 34.978C50.8548 30.7592 44.8853 25.8233 38.1142 26.878C24.8462 28.9873 26.9556 39.0913 29.4236 42.0866C31.114 44.1511 33.3661 45.682 35.9077 46.4942C38.4493 47.3065 41.1718 47.3654 43.7462 46.6639C46.1727 45.9498 48.2617 44.3874 49.6324 42.2617C51.0031 40.1359 51.5642 37.5884 51.2134 35.0834V34.978ZM44.1048 41.4748C42.7231 42.5875 40.9659 43.1251 39.1981 42.9758C37.4304 42.8265 35.7882 42.0019 34.6126 40.6733C31.6173 37.9522 31.4486 32.6788 38.5572 30.8436C39.843 30.757 41.1322 30.956 42.332 31.4265C43.5319 31.8969 44.6127 32.6271 45.497 33.5647C46.27 34.8442 46.5548 36.3599 46.299 37.8327C46.0432 39.3055 45.264 40.6364 44.1048 41.5803V41.4748ZM99.5603 26.3506C99.1173 25.4647 94.3712 23.967 94.3712 23.967C94.5458 22.9547 94.6655 21.9337 94.7298 20.9084C94.8422 19.5156 94.6626 18.1146 94.2025 16.7952C94.2025 16.7952 97.2611 15.3819 97.8939 15.0444C98.5267 14.7069 98.0626 12.935 96.4806 9.85532C94.8986 6.77563 92.2618 2.28266 91.3759 2.38813C90.49 2.4936 87.8743 5.63657 87.8743 5.63657C86.5911 4.66339 85.169 3.88835 83.6556 3.33735C81.5811 2.71503 79.3609 2.78164 77.3275 3.52719C77.3275 3.52719 75.2181 1.1436 74.7751 0.616252C74.3322 0.0889085 73.1087 0.363127 71.2525 1.67094C68.7334 4.15182 66.5236 6.92822 64.6712 9.93969C64.2493 10.91 68.89 17.4069 68.89 17.6811C68.89 17.9553 65.1986 19.2631 64.6712 19.685C64.1439 20.1069 64.5025 21.3725 65.3884 24.9584C65.5363 26.0026 65.9019 27.0041 66.4615 27.898C67.0211 28.7919 67.7622 29.5583 68.6368 30.1475C69.8603 30.3373 70.3876 28.4811 70.1345 28.0381C69.0721 25.898 68.1284 23.7009 67.3079 21.4569C67.3079 20.8452 70.9993 19.6006 72.054 18.6514C73.1087 17.7022 69.6072 12.935 68.7212 11.9647C67.8353 10.9944 67.3079 10.6358 69.1642 8.35766C70.5093 6.80479 72.0075 5.3914 73.6361 4.13891C74.5331 5.05383 75.6106 5.77216 76.8001 6.24828C78.572 6.86 78.9095 5.36235 82.4322 5.63657C85.9548 5.91078 86.1236 8.80063 87.79 8.71625C89.4564 8.63188 90.5111 6.24828 90.6165 5.97407C90.722 5.69985 95.1728 13.5467 95.1728 13.5467C93.4327 14.1411 91.752 14.8968 90.1525 15.8038C89.9837 16.2467 91.1228 17.3014 92.2618 19.4108C93.4009 21.5202 91.8189 25.992 91.8189 25.992L96.2064 27.4897C96.2064 27.4897 92.5993 32.953 91.9876 33.4803C91.3759 34.0077 89.4564 31.5397 88.6548 30.6538C87.8532 29.7678 81.272 30.6538 79.8587 30.6538C78.4454 30.6538 79.5212 32.1514 79.69 34.092C79.8587 36.0327 75.4712 34.535 74.5009 34.6194C73.5306 34.7038 73.8048 36.7288 74.2478 37.6991C74.6908 38.6694 80.5759 37.5936 82.1579 36.9819C83.74 36.3702 82.6853 33.9022 82.4954 33.5647C84.0649 33.3191 85.6575 33.2554 87.2415 33.3749C88.9507 34.6119 90.7812 35.6721 92.7048 36.5389C94.097 36.8975 96.6493 31.2655 97.3665 30.3163C98.0837 29.367 100.003 27.1733 99.5603 26.3506ZM78.9939 12.7241C78.1337 12.8567 77.3134 13.1777 76.5917 13.6643C75.87 14.1509 75.2649 14.791 74.8194 15.5387C74.374 16.2865 74.0993 17.1235 74.0151 17.9898C73.9309 18.8561 74.0391 19.7303 74.3322 20.5498C74.449 21.2531 74.709 21.9249 75.0959 22.5237C75.4829 23.1225 75.9886 23.6355 76.5818 24.0309C77.1749 24.4264 77.843 24.6959 78.5445 24.8228C79.246 24.9497 79.9662 24.9312 80.6603 24.7686C84.2673 23.967 84.7103 21.2459 85.4064 18.4405C86.1025 15.635 83.6556 11.8592 78.9939 12.6608V12.7241ZM82.6853 19.9381C81.7993 21.6045 80.7447 22.7436 78.804 22.0475C76.8634 21.3514 75.8298 17.1327 80.2173 16.4155C81.5462 16.2256 83.6556 18.2084 82.6853 19.8748V19.9381ZM82.6853 25.7389C80.829 26.5194 81.8837 27.4053 82.854 27.6584C83.8243 27.9116 84.9634 27.8483 87.0728 26.3506C89.1822 24.853 87.9587 23.3553 87.6845 23.3553C87.4103 23.3553 86.904 24.853 85.5751 25.4647C84.2462 26.0764 83.3392 25.4225 82.7697 25.6756L82.6853 25.7389ZM83.0439 63.3491C82.4264 62.6518 81.632 62.1343 80.7447 61.8514C78.4746 61.2936 76.1421 61.0312 73.8048 61.0709C72.9189 61.0709 73.8048 55.3545 72.8345 54.2155C71.8642 53.0764 63.2579 55.5233 62.815 55.7975C62.372 56.0717 62.815 57.4639 62.815 58.2444C62.815 59.0248 65.7259 61.5983 65.7259 61.5983C65.7259 61.5983 65.8947 58.603 65.7259 57.717C65.5572 56.8311 69.4173 56.4092 69.9447 56.4092C70.472 56.4092 70.2189 61.6827 70.3033 62.7374C70.3548 63.2794 70.5936 63.7865 70.9785 64.1714C71.3635 64.5564 71.8706 64.7952 72.4126 64.8467C73.4673 65.0999 74.522 63.8764 77.5806 64.0452C78.5219 64.0305 79.45 64.2672 80.2694 64.7306C81.0888 65.1941 81.7699 65.8676 82.2423 66.6819C82.6853 67.3991 89.5407 63.7077 89.9837 63.7077C91.4892 65.8639 92.7286 68.194 93.6751 70.6475C91.988 72.0415 90.1565 73.2507 88.2118 74.2545C87.6212 74.6342 88.5704 76.5116 88.8447 77.0178L85.4064 70.6897C84.8413 70.8559 84.3265 71.1604 83.9087 71.5756C83.3814 72.1873 88.2962 78.7897 88.2962 78.7897C88.3244 79.7875 88.2394 80.7852 88.0431 81.7639C87.7689 82.1225 83.8243 74.7397 83.6556 74.3811C83.4868 74.0225 82.2423 74.9928 82.0736 75.267C81.9048 75.5413 87.347 83.8733 87.347 83.8733C87.2044 85.1629 86.9069 86.4306 86.4611 87.6491C84.8367 85.0758 83.4257 82.3738 82.2423 79.5702C81.8837 78.6842 80.7447 80.0131 80.4915 80.8991C80.2384 81.785 87.1572 94.167 87.5158 94.8631C87.8744 95.5592 86.5454 96.3608 86.2079 96.3608C85.8704 96.3608 80.0486 85.5397 79.8798 85.1178C79.7111 84.6959 77.7704 86.5944 77.7704 86.5944C77.7704 86.5944 84.2673 97.1413 84.7947 97.6686C85.322 98.196 83.74 98.4702 82.6853 98.9131C81.6306 99.3561 75.2181 87.628 74.8595 87.5225C74.5009 87.417 73.3618 88.4928 73.0033 89.0202C72.6447 89.5475 76.6947 93.6819 76.9689 94.2092C77.2431 94.7366 75.0283 94.9897 74.5009 95.1584C73.9736 95.3272 71.4212 90.7709 71.1681 89.9905C70.915 89.21 69.6704 89.9905 69.0587 90.6022C68.447 91.2139 71.6954 94.5467 71.8642 95.2639C72.0329 95.9811 67.6454 93.8506 66.5064 93.935C65.3673 94.0194 62.815 98.6811 62.2876 99.2085C61.7603 99.7358 55.9595 95.7913 55.3478 95.4327C54.7361 95.0741 57.8158 91.7413 58.4275 91.2139C59.0392 90.6866 58.4275 90.6022 55.7908 87.5225C54.998 86.7275 54.3773 85.778 53.9673 84.7329C53.5572 83.6878 53.3666 82.5695 53.4072 81.4475C51.9453 81.0581 50.4463 80.8248 48.9353 80.7514C48.4923 80.7514 48.6611 78.8952 48.9353 78.2834C49.2095 77.6717 51.4876 79.1694 52.1837 79.1694C52.8798 79.1694 52.7954 78.8952 53.154 78.0303C54.0958 76.4207 55.3173 74.992 56.7611 73.8116C60.3866 71.0696 64.1688 68.5411 68.0884 66.2389C68.8056 65.9858 68.3626 65.0155 67.6454 64.9311C63.6595 66.4492 59.8364 68.3643 56.2337 70.6475C54.4548 72.2146 52.8043 73.9216 51.2978 75.7522C50.0101 75.3468 48.6906 75.0504 47.3533 74.8663C46.6361 74.8663 46.2142 81.3631 46.2142 82.7764C46.2142 84.1897 50.8548 83.135 50.8548 83.135C51.4775 84.2559 51.8718 85.489 52.015 86.7631C52.5147 88.4404 53.6502 89.8559 55.179 90.7077C55.179 90.7077 51.129 94.3147 51.2134 95.4538C51.2978 96.5928 61.7603 102.394 62.7306 102.921C63.7009 103.448 67.8353 97.0358 67.8353 97.0358C67.8353 97.0358 70.3876 97.5631 72.054 97.7319C74.3439 97.7573 76.6332 97.6446 78.9095 97.3944C80.0575 99.2497 81.3481 101.013 82.7697 102.668C83.5501 103.195 91.6501 95.8124 92.2618 94.6733C92.8736 93.5342 90.1525 90.4545 89.2665 89.653C88.3806 88.8514 89.0978 88.4295 90.5954 84.7381C91.535 81.6384 91.8926 78.3915 91.6501 75.1616C91.6501 75.1616 95.8689 72.5249 96.9236 71.6389C97.9782 70.753 92.0931 60.8178 91.2072 60.2061C90.3212 59.5944 83.1283 63.2858 83.1283 63.2858L83.0439 63.3491ZM60.4525 76.6381C59.6509 76.385 58.6806 77.4397 58.6806 77.8827C58.6806 78.3256 59.5665 83.5991 60.79 84.4639C62.0134 85.3288 63.3212 84.1264 63.7642 83.4936C64.2072 82.8608 63.3212 82.2702 62.4564 80.7725C61.5915 79.2748 61.1064 76.8491 60.4525 76.6381ZM66.3376 81.7428C67.7106 82.6143 69.297 83.091 70.9229 83.1207C72.5489 83.1505 74.1516 82.7322 75.5556 81.9116C78.1079 80.1608 79.0783 77.3553 76.4415 73.0522C76.064 72.3222 75.5423 71.6764 74.9079 71.1539C74.2736 70.6314 73.5398 70.243 72.751 70.0123C71.9622 69.7816 71.1348 69.7133 70.3189 69.8116C69.503 69.9099 68.7155 70.1728 68.004 70.5842C60.4525 73.917 64.2283 80.0764 66.422 81.7428H66.3376ZM69.7548 72.6092C70.6828 72.3548 71.6699 72.4253 72.5523 72.809C73.4347 73.1926 74.1595 73.8664 74.6064 74.7186C76.0829 77.3553 75.6611 79.6334 72.9189 80.3295C71.72 80.5542 70.4843 80.4792 69.3214 80.1112C68.1585 79.7432 67.1046 79.0936 66.2533 78.2202C65.9667 77.6188 65.838 76.9543 65.8792 76.2893C65.9205 75.6244 66.1304 74.9809 66.4892 74.4196C66.8479 73.8582 67.3437 73.3975 67.9298 73.0807C68.5159 72.764 69.173 72.6017 69.8392 72.6092H69.7548Z" fill="#1D1D1B"/>
</svg>
