<svg width="90" height="100" viewBox="0 0 90 100" fill="none" xmlns="http://www.w3.org/2000/svg">
<path d="M89.3975 52.013C88.2266 47.793 85.5653 46.2897 81.3427 46.1267C77.1201 45.9637 73.5895 51.035 72.3298 51.5602C71.0701 52.0854 70.254 51.5602 69.5266 50.2018C68.7992 48.8434 68.8524 43.6454 69.7395 39.045C70.6266 34.4447 69.4379 32.9233 68.4798 28.993C67.5218 25.0628 61.8976 25.3707 58.0653 25.2258C54.2331 25.0809 48.7508 25.2258 47.0476 23.6501C45.3443 22.0744 49.0347 14.9565 49.8508 10.5916C50.6669 6.22666 46.8169 -0.34788 38.4605 0.0143539C30.104 0.376587 28.4718 2.91222 25.8105 5.8282C23.1492 8.74418 25.8105 14.0509 26.9992 15.1195C28.4158 16.3315 29.3133 18.06 29.5008 19.9372C29.5008 21.6035 27.7266 24.1753 23.9653 24.5557C19.6704 24.7537 15.3667 24.5719 11.1024 24.0123C7.76694 23.6501 5.19436 25.3707 2.23146 27.6347C-0.731441 29.8986 0.0846875 37.4512 0.155655 43.1202C0.226623 48.7891 0.155655 49.8215 2.08953 52.176C4.0234 54.5305 10.7121 53.0272 12.504 52.0854C15.8395 50.3648 16.425 45.7463 18.6427 45.0762C20.8605 44.4061 21.9782 46.3803 23.5927 50.6546C25.2073 54.929 24.0363 60.3987 23.5927 62.3548C23.1492 64.3108 19.3702 65.8322 17.0815 65.3794C14.7927 64.9266 13.6218 60.8696 12.3621 59.7829C11.1024 58.6962 9.32823 59.1852 6.29436 61.4492C5.04817 62.291 4.02515 63.4343 3.31631 64.7772C2.60747 66.1202 2.2348 67.6212 2.23146 69.1466C2.08953 72.0988 2.23146 90.0475 2.74598 93.1446C3.26049 96.2417 3.86372 97.3646 7.62501 98.8136C11.3863 100.263 15.1653 100.009 23.3798 99.9365C31.5944 99.8641 32.4637 98.723 33.9363 97.8174C35.4089 96.9118 35.7105 94.2857 35.2669 92.0217C34.8234 89.7577 33.3508 89.2144 30.8492 87.7836C28.3476 86.3527 27.5137 86.5882 25.5266 84.614C23.5395 82.6398 24.6395 76.0834 26.0411 74.8156C28.2614 72.9848 30.9551 71.8522 33.7943 71.5555C35.4541 71.5328 37.0981 71.8866 38.6076 72.5914C40.1171 73.2961 41.4546 74.3342 42.5234 75.6306C45.6282 78.8907 43.854 84.2337 43.2685 85.3023C42.6831 86.3708 40.6073 87.856 39.7202 89.8302C38.8331 91.8044 39.4185 95.7165 40.4476 96.5496C41.4766 97.3828 43.996 98.3608 48.7331 98.8136C54.6202 99.2519 60.5383 98.8926 66.333 97.745C71.3717 96.5496 71.6556 90.8807 71.6556 88.4718C71.6556 86.063 70.6798 73.3667 70.4669 70.9578C70.254 68.549 70.7685 64.8542 71.425 64.6187C72.0814 64.3833 74.0153 68.2411 75.4169 70.0522C76.8185 71.8634 78.7524 71.3382 81.6976 70.6499C83.2594 70.137 84.6983 69.2947 85.9209 68.1777C87.1434 67.0607 88.1224 65.6939 88.7943 64.1659C90.1612 60.2635 90.371 56.0364 89.3975 52.013ZM85.8492 61.9744C85.4056 61.7571 82.4605 53.2265 81.7863 53.2265C81.1121 53.2265 80.0121 54.277 80.5266 54.8927C81.0411 55.5085 85.2637 63.1879 84.9621 63.9486C84.6605 64.7093 84.004 65.7598 83.7911 65.2164C83.5782 64.6731 80.9701 57.9717 80.3846 57.9717C79.7992 57.9717 78.8234 58.66 79.2669 59.2577C79.7105 59.8553 82.6024 65.9047 82.2298 66.285C81.8572 66.6653 81.4137 67.1906 81.2008 66.8102C80.1115 64.3901 78.873 62.043 77.4927 59.7829C77.0492 59.7829 76.0911 60.1632 76.3217 60.7609C76.5524 61.3586 79.2669 67.4079 79.054 67.4079C78.8411 67.4079 78.0959 67.7158 76.7653 65.5967C75.4347 63.4777 75.204 61.4492 72.7556 60.8696C71.9557 60.6069 71.0947 60.611 70.2972 60.8812C69.4997 61.1515 68.8073 61.674 68.3201 62.3729C67.144 64.4521 66.6005 66.8416 66.7589 69.2372C66.9895 72.0264 67.0605 79.579 67.0605 79.579C67.0605 79.579 61.2943 65.5424 60.7089 65.2345C60.1234 64.9266 59.2185 66.3755 59.4492 66.5204C59.6798 66.6653 67.1314 81.8429 67.1314 82.1508C67.1314 82.4587 67.575 86.8236 67.575 87.2764C67.575 87.7292 67.433 89.3955 67.2024 89.2325C66.9718 89.0695 58.9347 71.9539 58.3314 71.6642C57.7282 71.3744 57.2314 73.095 57.2314 73.095C57.2314 73.095 63.8137 86.4252 64.5589 87.856C65.304 89.2868 67.0605 91.9311 66.7766 92.3839C66.4927 92.8367 65.5169 93.9053 65.2153 93.5974C64.9137 93.2895 57.604 78.2025 57.0185 78.2025C56.433 78.2025 56.0427 80.0136 56.2734 80.4664C56.504 80.9192 64.1863 94.503 63.9556 94.6479C63.725 94.7928 62.1814 95.481 61.9685 94.9558C61.7556 94.4305 56.4863 83.4911 55.8298 83.2556C55.1734 83.0202 55.0847 84.0163 55.1556 84.5416C55.2266 85.0668 60.4782 94.5754 59.8927 94.8109C59.3072 95.0463 58.2605 95.2637 57.9766 95.0282C57.6927 94.7928 54.1976 87.3308 53.9137 87.3308C53.6298 87.3308 52.654 88.6167 52.9379 89.1419C54.0495 91.0916 54.9706 93.1481 55.6879 95.2818C55.3153 95.2818 53.4701 95.2818 53.3282 94.9739C53.1863 94.666 50.6669 90.6633 50.6669 90.6633C50.6669 90.6633 48.8927 90.8988 49.7089 91.9492C50.525 92.9997 51.6782 95.2818 51.0927 95.2818C48.8986 95.1498 46.7199 94.8225 44.5814 94.3038C43.9788 93.6743 43.5952 92.8603 43.4894 91.9867C43.3836 91.1132 43.5616 90.2283 43.996 89.4679C45.1137 88.2545 49.5492 85.7007 47.9879 78.6009C46.4266 71.5012 43.4105 70.3782 38.3718 68.4946C35.9819 67.7186 33.4371 67.5808 30.9802 68.0945C28.5234 68.6081 26.2365 69.7561 24.3379 71.4287C20.7895 74.4534 20.4879 81.1728 21.2331 84.1069C21.9782 87.041 24.4798 88.8703 26.5556 90.3011C28.6314 91.7319 30.3169 91.1342 31.0621 92.4926C31.8073 93.851 31.4347 95.807 27.7266 96.1149C24.0185 96.4228 14.8815 96.9118 11.3331 96.0063C7.78468 95.1007 6.96856 93.8329 6.45404 91.7862C5.93952 89.7396 6.45404 70.8129 6.29436 69.0742C6.13468 67.3355 7.78468 63.6407 9.62984 63.6407C11.475 63.6407 12.4331 68.0237 14.0653 68.6214C15.5416 69.0887 17.0999 69.2222 18.6318 69.0126C20.1637 68.8031 21.6326 68.2555 22.9363 67.4079C26.8573 65.0715 28.7024 61.6846 27.8863 54.8203C27.0702 47.956 25.225 44.0982 22.3508 42.5044C21.1406 41.6647 19.6819 41.2813 18.225 41.4202C16.7681 41.559 15.404 42.2113 14.3669 43.265C11.7766 45.6015 11.8476 48.4812 10.375 49.5317C9.8151 49.8828 9.187 50.1052 8.53439 50.1834C7.88177 50.2616 7.2203 50.1937 6.59597 49.9845C5.42501 49.8034 4.4492 49.9845 3.93469 46.9598C3.62901 41.5249 3.7536 36.0737 4.30727 30.6593C4.78116 29.6474 5.54198 28.8041 6.49106 28.2389C7.44014 27.6738 8.53368 27.4128 9.62984 27.4898C12.7347 27.7252 17.6847 29.0836 23.0782 28.178C28.4718 27.2724 30.8492 26.5842 32.3218 22.8351C33.7943 19.086 33.4218 17.4016 31.8073 15.2825C30.1927 13.1634 28.4008 11.5153 28.5427 9.3962C28.6847 7.27714 31.7185 3.29257 37.5734 3.58235C43.4282 3.87214 48.2185 6.53456 46.2847 11.2798C44.3508 16.0251 40.9621 21.0963 42.7363 24.7911C44.5105 28.4859 46.0008 28.7938 48.7331 29.0293C51.4653 29.2647 60.9927 28.4859 63.3701 29.2466C65.7476 30.0073 66.475 32.8689 66.3153 37.7772C66.1556 42.6855 64.0976 47.6662 65.3572 51.361C66.6169 55.0558 68.6217 55.744 70.6798 55.6534C73.0137 55.528 75.2221 54.536 76.8895 52.8642C78.6637 51.0531 80.6685 49.0246 83.0282 49.5498C85.3879 50.075 86.133 52.9367 86.5766 55.6534C87.0201 58.3702 86.204 62.2099 85.8492 61.9744ZM6.22339 35.1872C5.85073 38.2385 5.70246 41.3141 5.77985 44.388C5.77985 45.1487 6.66694 45.1487 7.55404 44.6959C8.44113 44.2431 7.55404 40.4758 7.69597 39.2624C7.66376 38.7926 7.7401 38.3217 7.91884 37.8875C8.09758 37.4534 8.37372 37.0682 8.72501 36.763C9.32823 36.4007 10.4992 35.7125 10.0556 34.8069C9.6121 33.9013 6.57823 34.6258 6.22339 35.1872ZM43.996 11.6421C44.5814 11.1893 44.5814 9.45054 43.4814 8.16461C42.425 6.97979 40.9793 6.23217 39.4185 6.06365C39.2789 6.05888 39.14 6.08592 39.0119 6.14282C38.8838 6.19972 38.7697 6.28504 38.678 6.39258C38.5862 6.50012 38.5191 6.62718 38.4815 6.76453C38.4438 6.90187 38.4367 7.04605 38.4605 7.18658C39.234 7.79588 40.0459 8.35251 40.8911 8.85285C41.3802 9.1971 41.7731 9.66531 42.0313 10.2115C42.2895 10.7577 42.404 11.363 42.3637 11.9681C42.5234 12.2397 43.4105 12.0948 43.996 11.6421ZM11.475 90.9531C10.4282 90.2105 11.1734 84.0888 11.3153 83.4186C11.4573 82.7485 9.54113 82.1327 9.09759 82.658C8.65404 83.1832 8.44113 91.1886 9.54113 92.9997C10.6411 94.8109 13.6927 94.3581 14.4202 94.2857C15.1476 94.2132 15.2363 93.2171 14.7218 92.4745C14.2073 91.7319 12.504 91.6595 11.475 90.9531Z" fill="#1D1D1B"/>
</svg>
