<svg width="101" height="96" viewBox="0 0 101 96" fill="none" xmlns="http://www.w3.org/2000/svg">
<path d="M19.0914 19.7279C15.6822 20.9709 12.7025 23.2003 10.5172 26.143C9.7803 27.0734 9.37834 28.233 9.37834 29.4288C9.37834 30.6246 9.7803 31.7842 10.5172 32.7146C10.7298 32.8479 10.9767 32.9132 11.2261 32.9022C11.4754 32.8913 11.7158 32.8044 11.9164 32.6529C12.1169 32.5015 12.2683 32.2922 12.3511 32.0523C12.434 31.8123 12.4445 31.5525 12.3812 31.3064C12.0303 30.2558 12.3812 28.9371 14.0259 26.5006C15.6705 24.0642 19.1572 22.589 20.2536 21.8737C21.3501 21.1584 23.1263 21.4043 22.6439 20.1302C22.1614 18.8561 21.4159 18.9456 19.0914 19.7279ZM29.5076 30.9041C25.5165 34.5252 28.4111 38.0792 32.0294 38.2356C32.6567 38.3173 33.2941 38.2414 33.8861 38.0146C34.4781 37.7879 35.0068 37.4171 35.4262 36.9345C35.8455 36.452 36.1429 35.8723 36.2923 35.2459C36.4417 34.6195 36.4387 33.9654 36.2836 33.3405C35.7353 31.4629 32.2925 28.3335 29.5076 30.9041ZM82.1366 46.7519C83.3647 46.4613 84.6585 45.5002 86.7198 41.2309C88.3195 37.9905 89.0101 34.3627 88.7153 30.7476C88.3644 29.2276 86.2812 28.7582 85.6891 30.0547C85.2725 30.9711 85.8207 34.6593 85.2725 37.3192C84.7242 39.9791 81.72 43.1979 80.6236 45.0084C79.5271 46.8189 80.8867 47.0201 82.1366 46.7519ZM49.2435 31.1052C44.4411 33.2064 45.7349 37.6768 48.6953 38.5039C51.6556 39.3309 53.9582 38.9286 54.6599 35.084C55.3616 31.2393 51.3706 30.1217 49.2435 31.0382V31.1052ZM66.7865 31.9323C60.0763 36.2686 66.019 39.3533 68.5627 39.1297C71.1065 38.9062 73.2993 38.1462 73.2993 35.2851C73.2175 34.5587 72.962 33.8638 72.5553 33.2614C72.1487 32.6589 71.6033 32.1674 70.9669 31.8298C70.3305 31.4923 69.6226 31.319 68.9053 31.3251C68.1879 31.3313 67.483 31.5168 66.8523 31.8652L66.7865 31.9323ZM74.1107 71.8312C77.3342 73.7088 82.334 73.0159 86.2373 70.9148C90.1407 68.8137 92.5528 65.5279 89.8775 61.7727C87.2022 58.0175 78.2333 59.5374 78.2333 59.5374C80.0306 58.7042 81.7058 57.621 83.2112 56.3187C87.5739 53.1641 91.2971 49.1792 94.1755 44.5837C95.825 41.3854 96.7195 37.8389 96.7881 34.2263C96.8566 30.6137 96.0972 27.0346 94.5703 23.7737C90.6202 16.1564 84.7551 9.74605 77.5755 5.19885C72.8818 2.32739 67.414 1.05145 61.9622 1.55542C58.4755 1.68953 52.7082 0.169572 45.2305 0.571914C36.7409 0.895188 28.3931 2.89151 20.6483 6.45059C13.0363 9.77774 6.56989 15.3419 2.07466 22.4325C-0.0274333 27.3352 -0.300371 32.8517 1.30716 37.9451C3.50003 44.6508 4.26754 47.7354 13.5873 56.0505C22.907 64.3655 35.6476 64.9914 49.0023 64.9914C57.8757 64.856 66.6876 63.4643 75.1852 60.8562C68.8259 64.0079 70.953 69.8642 74.1765 71.7642L74.1107 71.8312ZM82.4656 63.2256C83.4962 63.5162 83.0138 64.2091 83.9129 64.2091C84.812 64.2091 85.6233 63.7844 86.1058 64.2091C86.5882 64.6338 87.268 65.2596 84.9435 66.2431C82.6191 67.2266 79.5271 69.1713 77.4658 68.4784C76.3913 68.0984 74.6589 66.802 76.3036 65.4608C78.1164 64.0938 80.2803 63.2939 82.5314 63.1585L82.4656 63.2256ZM40.8009 60.6551L40.5158 60.4986C30.7794 60.0292 22.2272 57.9281 15.6486 52.7647C9.06995 47.6013 7.14021 43.8237 5.16662 36.2016C4.17594 33.1486 4.12388 29.86 5.01743 26.7761C5.91097 23.6921 7.70746 20.96 10.1664 18.9456C16.0673 12.9453 23.5078 8.76198 31.6347 6.87528C42.6412 4.27459 54.0665 4.10691 65.1418 6.38353C73.0801 7.90349 77.7509 8.75288 85.6891 18.1856C93.6273 27.6183 92.5528 34.8157 91.588 38.5709C90.5618 41.8212 88.9025 44.8269 86.7095 47.408C84.5165 49.989 81.8349 52.0923 78.8254 53.5917C66.8956 58.8548 53.9375 61.2487 40.9544 60.588L40.8009 60.6551ZM96.2588 74.0665C92.9343 72.5629 89.1651 72.4426 85.7549 73.7312C80.3166 75.4076 81.3691 78.9616 81.9612 80.6381C82.6351 82.222 83.7245 83.5858 85.1095 84.5796C86.4945 85.5733 88.1216 86.1585 89.8117 86.2709C95.0308 86.9638 98.5832 84.7733 99.8112 81.331C101.039 77.8887 99.7893 75.6311 96.3684 74.0888L96.2588 74.0665ZM90.8643 81.8451C85.7988 82.158 85.426 79.4534 86.0619 78.4028C86.6978 77.3523 89.1758 76.8158 90.2284 76.6593C93.0353 76.3017 95.3816 77.464 95.5132 78.7605C95.6448 80.0569 96.0834 81.5322 91.0178 81.8675L90.8643 81.8451ZM81.2376 86.9861C78.4508 86.117 75.4664 86.1639 72.7073 87.1203C72.1795 87.2338 71.6881 87.4806 71.2782 87.8379C70.8682 88.1952 70.5528 88.6517 70.3608 89.1655C70.1688 89.6792 70.1063 90.2339 70.1791 90.7787C70.2519 91.3235 70.4577 91.8409 70.7775 92.2837C71.6595 93.2482 72.7201 94.0252 73.8981 94.57C75.0762 95.1147 76.3483 95.4164 77.6412 95.4577C80.8209 95.7483 83.562 94.6753 84.0664 92.0601C84.2503 91.5385 84.3214 90.9824 84.2747 90.4301C84.2281 89.8778 84.0648 89.3423 83.7961 88.8604C83.5274 88.3784 83.1596 87.9614 82.718 87.6379C82.2764 87.3144 81.7714 87.0921 81.2376 86.9861ZM79.9218 91.0319C79.4175 92.3954 77.2685 92.2837 75.8869 91.8366C74.5054 91.3896 73.8914 89.6014 77.5755 89.2214C78.8254 89.0649 80.4262 89.6908 79.9218 91.0319Z" fill="#1D1D1B"/>
</svg>
