<svg width="106" height="96" viewBox="0 0 106 96" fill="none" xmlns="http://www.w3.org/2000/svg">
<path d="M89.0234 52.0459C88.2895 51.7321 88.6475 50.7355 88.8802 49.4251C89.1129 48.1147 87.842 45.9738 86.7859 44.202C85.7298 42.4303 82.6869 41.5075 80.521 40.7323C77.9544 40.1032 75.2862 40.0529 72.6989 40.5847C69.8529 40.9722 69.7812 39.9018 65.0915 39.0528C61.3406 38.6732 57.5585 39.3093 54.1191 40.8984C53.7432 41.1937 51.4341 37.3549 48.606 36.4321C45.7778 35.5093 38.6895 38.2777 37.2755 38.7391C35.8614 39.2005 37.2755 38.7391 33.6955 38.5914C30.1156 38.4438 27.3591 39.8095 25.3364 44.5896C23.3137 49.3697 26.3746 49.8127 26.3746 49.8127C24.6297 49.5908 22.8588 49.8262 21.2256 50.4972C19.5924 51.1682 18.1497 52.2531 17.031 53.6515C14.7219 55.9032 14.0596 63.2856 14.5608 67.7888C15.062 72.2921 15.957 76.3894 20.2171 79.8406C22.0674 81.3933 24.2152 82.5248 26.5197 83.161C28.8241 83.7972 31.233 83.9235 33.5882 83.5318C38.439 82.9597 39.5129 79.7299 39.6203 79.3239C39.7277 78.9178 40.5153 78.9732 40.9091 79.4346C42.042 80.9511 43.4684 82.2081 45.0976 83.1258C47.6752 84.5654 54.0475 81.9261 55.2288 81.797C56.4102 81.6678 58.594 84.4731 60.7956 85.0083C62.9264 85.1721 65.0629 84.7785 67.0068 83.864C68.0092 83.458 68.403 85.1375 69.0295 87.5552C69.5001 89.7603 69.7994 92.0006 69.9245 94.2548C69.9626 94.4131 70.0366 94.5598 70.1403 94.683C70.244 94.8062 70.3745 94.9024 70.5212 94.9636C70.6678 95.0248 70.8264 95.0493 70.9841 95.0352C71.1417 95.021 71.2938 94.9687 71.428 94.8823C72.2156 94.4209 72.2156 93.2028 72.1082 90.3236C72.0959 87.4549 71.4855 84.6225 70.3182 82.0184C69.9087 81.555 69.3914 81.2068 68.8152 81.0066C68.2389 80.8064 67.6227 80.7608 67.0247 80.8742C66.5235 80.9849 65.2347 73.824 65.2347 73.6579C65.2347 73.4918 63.8923 73.6579 63.8386 73.8793C63.7849 74.1008 65.9149 80.9295 66.0223 81.151C66.1297 81.3725 64.5009 81.797 64.2324 81.797C63.9639 81.797 62.1739 73.6579 62.1739 73.3995C62.1739 73.1411 61.0641 73.3995 60.9388 73.584C60.8135 73.7686 63.1226 81.76 63.1763 82.1107C63.23 82.4614 60.7777 81.8892 60.2765 81.4832C59.7753 81.0772 58.594 73.9347 58.2897 73.3995C57.9854 72.8643 56.7682 73.0488 56.6071 73.2887C56.446 73.5287 58.6835 80.3758 58.5582 80.6711C58.4329 80.9664 56.2133 79.047 55.9985 78.8255C55.8377 77.9499 55.7956 77.0555 55.8732 76.1679C55.509 75.2698 55.0402 74.4207 54.477 73.6394C54.2623 73.3995 53.9759 73.5287 53.5821 73.9901C53.1883 74.4515 54.477 75.8357 54.5844 76.1125C54.7105 77.0478 54.7525 77.993 54.7097 78.9363C53.5265 79.1324 52.3261 79.1942 51.1298 79.1208C50.6823 79.1208 50.4496 77.2752 50.2885 76.6293C50.1274 75.9833 49.5546 76.0018 49.0535 76.4632C48.5523 76.9246 49.841 79.6376 49.841 79.6376C48.7615 79.9301 47.627 79.9301 46.5475 79.6376C45.6711 79.3391 44.8996 78.7806 44.3297 78.0321C43.7597 77.2836 43.4167 76.3783 43.3435 75.4296C42.7886 72.4951 45.1334 68.158 45.3661 67.4751C45.5988 66.7922 44.131 66.6077 43.7373 66.6077C43.3435 66.6077 42.0726 70.0036 41.106 69.8928C40.1394 69.7821 39.8888 66.7738 39.495 66.5523C39.1012 66.3308 37.2576 66.5523 37.0786 67.4197C36.8996 68.2871 38.6538 73.2887 38.6001 74.3407C38.5464 75.3927 38.4211 76.0018 38.0452 76.2971C37.6693 76.5924 33.5702 68.5086 33.5702 68.5086C33.4043 68.4607 33.2278 68.4689 33.0667 68.532C32.9057 68.5951 32.7684 68.7098 32.6753 68.8593C32.3889 69.3761 37.2576 76.8138 37.3113 77.1091C37.365 77.4044 36.3626 78.9547 35.9151 78.9547C35.4676 78.9547 32.3352 73.5287 32.1025 73.1226C31.8698 72.7166 31.1538 73.3626 30.939 73.6394C32.0628 75.7727 33.3687 77.7986 34.8411 79.693C35.2349 80.1544 33.9461 80.4497 33.445 80.4497C31.9725 79.0142 30.6633 77.4105 29.5428 75.6696C29.2027 75.1343 28.7552 75.6696 28.5225 75.9464C29.3569 77.6779 30.352 79.3221 31.4939 80.8557H31.2075C29.5378 80.8171 27.8933 80.4278 26.3746 79.7114C23.3674 78.3826 20.3961 76.3155 19.5011 74.3407C18.1157 70.4992 17.4418 66.4237 17.5143 62.3259C17.729 58.1179 18.7314 55.2941 21.0942 53.8545C23.2901 52.6392 25.689 51.8627 28.1645 51.566C29.507 51.3999 29.9545 50.6986 29.8471 49.8865C29.3272 48.6502 28.9488 47.3558 28.7194 46.0292C28.7194 44.5343 31.8519 41.5813 32.5858 41.3598C33.3197 41.1383 36.1657 42.0981 38.8506 41.7105C41.7075 40.9899 44.5272 40.1214 47.2993 39.1082C48.248 38.9421 51.9353 42.4487 51.9353 42.7994C51.9353 43.1501 51.3804 43.3715 51.1656 43.6115C50.4758 44.5597 50.0993 45.7113 50.0916 46.8966C49.8231 49.2036 50.2706 51.16 51.3267 51.7321C51.7961 52.0892 52.352 52.3057 52.9332 52.3578C53.5143 52.4099 54.0981 52.2956 54.6202 52.0274C55.8016 51.3261 54.9066 50.4033 54.1728 50.1818C53.4389 49.9603 53.063 49.9419 52.7229 48.5577C52.5915 47.6626 52.7083 46.7475 53.0599 45.918C53.4115 45.0885 53.9834 44.3784 54.7097 43.8698C57.298 42.5194 60.1352 41.7519 63.0331 41.6182C66.3982 41.4152 71.1237 43.8698 72.6094 43.8698C74.0951 43.8698 77.5318 43.2977 78.4805 43.2977C79.4292 43.2977 79.9841 43.8698 81.1117 44.3866C82.4371 44.7029 83.6068 45.5026 84.4053 46.6382C86.4279 48.8345 85.694 52.6365 85.5867 53.0425C85.1433 53.7226 84.5229 54.2599 83.7967 54.5928C83.0708 55.1228 82.5508 55.901 82.3289 56.7891C81.3886 57.2073 80.4193 57.5528 79.4292 57.8226C78.3731 58.0625 75.4017 57.8226 74.7932 57.8226C74.1846 57.8226 74.0593 59.0961 74.1667 59.6682C74.2741 60.2403 75.9566 60.3695 76.6368 60.4249C77.317 60.4803 76.9053 61.5692 76.6368 62.6212C76.3683 63.6731 77.1917 63.544 77.854 63.544C78.5163 63.544 80.3242 61.6984 84.2442 58.8008C88.1642 55.9032 88.2179 55.6448 88.7728 55.3495C89.6637 55.2634 90.5589 55.4593 91.3392 55.911C92.1195 56.3628 92.7477 57.0489 93.1403 57.878C93.8694 59.6336 93.9459 61.6047 93.3551 63.4148C93.194 63.5809 90.2227 59.4836 89.9363 59.2622C89.6499 59.0407 89.3277 59.2622 89.2203 59.7789C90.3591 61.5527 91.6087 63.2481 92.9613 64.8543C92.879 65.8305 92.6369 66.7853 92.2453 67.6781C91.9589 68.1395 88.6654 63.5809 88.4864 63.2302C88.3074 62.8795 87.8778 63.6916 87.7704 63.9869C89.0443 65.7838 90.4252 67.4974 91.9052 69.1177L91.0102 72.0522C91.0102 72.2367 86.8754 66.054 86.6427 65.8325C86.41 65.611 85.354 66.1093 85.3002 66.46C85.2466 66.8107 89.9363 72.1076 90.1153 72.8642C90.2943 73.6209 89.0413 74.5991 88.5401 74.5437C87.1663 73.2198 85.914 71.7679 84.7991 70.2066C84.459 69.8006 83.4566 70.6126 83.2955 70.8525C83.1344 71.0925 87.3766 75.282 87.6988 75.7988C88.021 76.3155 86.9291 77.1276 86.6964 77.1276C86.4637 77.1276 82.848 72.6981 82.5616 72.3475C82.2752 71.9968 81.6129 72.5136 81.4339 73.0303C81.2549 73.5471 85.8014 78.1796 85.8014 78.1796C85.9449 78.6291 85.9449 79.1142 85.8014 79.5638C85.6664 79.766 85.4913 79.9364 85.2876 80.0637C85.084 80.1909 84.8564 80.2722 84.6201 80.302C84.2442 80.302 80.4852 75.1159 80.1452 75.0051C79.8051 74.8944 79.2502 75.4665 79.3755 75.9833C80.7035 77.6728 82.1323 79.2754 83.6535 80.7819C82.8641 81.7602 82.3447 82.9396 82.1499 84.1962C82.0442 85.8434 82.4586 87.4816 83.3313 88.8656C83.6535 89.3824 85.0139 88.9948 85.6224 88.4596C86.231 87.9244 85.1034 84.4546 85.6224 83.2181C86.1415 81.9815 87.1081 82.0738 88.4506 81.0772C89.7931 80.0806 89.1129 79.2316 89.6499 77.8474C90.1869 76.4632 90.169 76.9984 91.4398 76.0018C92.7107 75.0051 93.0687 74.3776 95.0198 68.5271C96.9708 62.6765 96.8097 58.6162 95.6105 55.6079C94.4112 52.5995 89.7394 52.3596 89.0234 52.0459ZM22.9915 59.8712C22.3114 60.4433 21.7028 63.1564 22.0966 65.9801C22.1668 66.8028 22.43 67.5955 22.8634 68.29C23.2968 68.9845 23.8875 69.5599 24.5846 69.9667C24.7636 69.9667 25.3722 69.616 25.2648 69.0992C25.1574 68.5825 24.7099 69.0992 23.8686 67.0137C23.0273 64.9282 23.8686 61.0893 23.8686 60.6279C23.8686 60.1665 23.2421 59.6497 22.9915 59.8712ZM34.5726 45.1064C34.0778 46.1244 33.8724 47.2659 33.9801 48.3991C34.0877 49.5324 34.5042 50.6111 35.1812 51.5106C35.992 52.4423 37.107 53.0336 38.3137 53.1717C38.8148 53.0609 38.8148 52.8395 38.4211 52.6549C38.0273 52.4703 37.9199 52.4334 36.3626 51.0492C34.8053 49.665 35.2349 46.4352 35.4676 45.8446C35.7003 45.254 34.7516 44.5527 34.5726 45.051V45.1064ZM50.3959 59.8712C49.4363 59.8573 48.4951 59.5972 47.6573 59.1145C46.3148 58.4316 44.0773 56.586 42.896 56.6968C41.418 57.1744 40.1142 58.1006 39.1549 59.3544C39.1549 59.6866 39.7098 60.0927 40.1036 60.0927C40.4974 60.0927 40.6585 59.9819 40.9986 59.5205C41.3531 59.1164 41.7833 58.7904 42.2631 58.562C42.743 58.3336 43.2627 58.2077 43.791 58.1917C45.6151 58.8109 47.3632 59.6471 48.9998 60.6833C49.2454 60.7935 49.5105 60.8504 49.7784 60.8504C50.0463 60.8504 50.3114 60.7935 50.557 60.6833C51.0761 60.4803 50.8971 59.8158 50.3959 59.8158V59.8712ZM51.9711 68.1764C52.9207 67.3909 54.1009 66.9614 55.3183 66.9583C56.446 66.9583 60.1333 69.8375 60.6882 70.3727C61.2431 70.9079 61.3147 70.1328 61.6369 69.7821C61.9591 69.4314 61.6369 69.3761 59.6321 68.3979C57.6274 67.4197 56.0522 65.408 54.7634 65.408C53.2412 65.8124 51.851 66.6278 50.736 67.7704C50.736 68.2318 51.2909 68.8039 51.9711 68.121V68.1764ZM72.1082 64.8912C72.4841 64.4852 72.2693 63.8393 70.6404 62.8611C68.2803 61.5203 65.7907 60.4378 63.2121 59.6313C60.9209 59.0038 60.6703 57.4535 60.3481 57.5642C60.0259 57.6749 59.6321 58.7085 59.6321 58.7085C59.6321 58.7085 59.3458 59.8712 61.1894 60.6833C63.5888 61.6334 66.0391 62.4406 68.5283 63.101C70.8731 63.6731 71.7144 65.2419 72.1082 64.8359V64.8912ZM72.4304 73.7686C72.1619 73.8793 71.6607 73.7686 71.6607 74.23C71.6607 74.6914 72.6094 75.2082 73.7729 76.3709C74.9363 77.5336 74.2204 79.9329 74.1667 80.1728C74.113 80.4128 74.3457 80.4497 74.9006 80.0621C75.4554 79.6745 75.4017 78.7886 74.9006 77.1091C74.3994 75.4296 73.0032 73.3995 72.4304 73.7132V73.7686ZM63.4806 45.9738C65.1094 44.8665 65.5569 46.306 65.9507 46.3799C66.3445 46.4537 65.9507 46.3799 66.1118 45.7339C66.2729 45.0879 65.1631 44.1282 64.5546 43.999C63.946 43.8698 63.3195 44.7004 62.4245 45.2725C61.5295 45.8446 60.9746 45.9738 60.3481 46.3799C59.9687 46.5798 59.6429 46.8729 59.3994 47.2334C59.1559 47.5939 59.0023 48.0107 58.952 48.4469C58.9466 48.8065 59.0532 49.1583 59.2562 49.4506C59.4592 49.743 59.7478 49.9605 60.0796 50.0711C60.7956 49.8865 60.0796 48.7976 60.3481 48.0963C60.6166 47.3949 61.8159 47.0074 63.4269 45.9185L63.4806 45.9738ZM77.4065 53.9837C77.854 54.0945 78.1404 53.6884 78.8027 52.5442C79.027 52.2273 79.1789 51.8622 79.2471 51.4763C79.3152 51.0903 79.2979 50.6934 79.1963 50.3154C79.0947 49.9373 78.9116 49.5878 78.6605 49.293C78.4095 48.9982 78.0971 48.7658 77.7466 48.613C77.1775 48.3328 76.5468 48.2125 75.9181 48.2643C75.2895 48.3162 74.6853 48.5383 74.1667 48.9083C73.8266 49.3144 74.5247 49.905 74.9543 49.7758C76.959 49.2036 77.6929 50.0711 77.8003 51.0492C77.9077 52.0274 76.9053 53.1163 76.6905 53.4116C76.4757 53.7069 76.9053 53.8176 77.3528 53.9284L77.4065 53.9837ZM72.0366 37.1519C73.3791 37.318 77.854 31.8919 78.1941 31.4305C78.5342 30.9691 76.243 30.3416 75.7418 30.2308C75.2406 30.1201 82.2752 19.7294 82.1141 18.3452C81.953 16.961 78.5342 17.4224 77.8003 17.1824C77.0664 16.9425 80.4315 7.43766 80.7179 6.23802C81.0043 5.03838 75.2406 5.1122 74.5605 5.25985C73.8803 5.4075 70.1929 20.4861 70.3182 21.4089C70.4435 22.3317 73.5581 22.4978 74.113 22.5531C74.6679 22.6085 72.323 29.0681 72.323 29.0681C72.323 29.0681 71.1953 28.8466 70.1929 28.7174C69.1906 28.5883 69.6918 31.1536 70.3003 33.6268C70.5442 34.9312 71.1469 36.1357 72.0366 37.0965V37.1519ZM104.829 9.46782C104.383 8.36718 103.64 7.42186 102.688 6.7445C101.736 6.06714 100.615 5.68632 99.4589 5.64742C99.2162 5.68228 98.9916 5.79895 98.82 5.97922C98.6484 6.1595 98.5395 6.39326 98.5102 6.64405C98.5102 6.86552 98.8324 6.92089 99.4589 6.86552C100.019 6.86899 100.571 7.00806 101.07 7.27155C102.572 8.4381 103.751 9.99097 104.489 11.7748C104.61 12.4535 104.525 13.1541 104.247 13.7816C103.968 14.409 103.509 14.9327 102.931 15.2815C102.144 15.5214 102.305 15.06 102.036 14.4879C101.315 13.0827 100.3 11.8598 99.0651 10.9074C98.7482 10.6529 98.3848 10.4669 97.9966 10.3605C97.6084 10.2541 97.2034 10.2294 96.8057 10.288C96.4081 10.3466 96.026 10.4872 95.6822 10.7014C95.3385 10.9156 95.0401 11.1991 94.805 11.5349C94.4828 12.4577 95.1988 14.0818 97.2214 15.8721C98.3106 16.8631 99.6911 17.4481 101.141 17.5331C101.404 18.7477 101.572 19.982 101.643 21.2243C101.636 21.3428 101.597 21.4569 101.531 21.5542C101.465 21.6515 101.374 21.7282 101.269 21.7759C101.164 21.8235 101.047 21.8404 100.933 21.8244C100.819 21.8085 100.712 21.7605 100.622 21.6857C100.067 21.3535 100.014 20.5968 99.62 19.4341C99.2262 18.2713 95.3241 17.7177 93.8563 18.7512C92.3885 19.7847 93.5341 21.7411 95.3778 22.6085C96.4953 23.1418 97.7411 23.3217 98.9577 23.1253C99.1188 23.1253 99.5126 23.5313 99.5663 24.3434C99.62 25.1554 99.0651 26.189 98.6176 26.189C98.1701 26.189 98.2238 25.3769 96.2727 24.1773C94.3217 22.9776 91.1176 22.8484 90.4554 23.7159C89.7931 24.5833 90.5628 26.0782 92.4064 27.4071C93.9213 28.3467 95.6698 28.8086 97.4362 28.7359C97.8837 28.7359 97.6689 29.7694 97.2214 31.0983C97.0988 31.628 96.8253 32.1079 96.4362 32.4762C96.0471 32.8446 95.5601 33.0846 95.0377 33.1654C94.2501 33.1654 92.0126 30.4523 91.2787 30.2308C90.5449 30.0094 89.3277 31.209 89.8289 32.2979C90.3301 33.3868 92.9613 34.3281 93.3014 34.6049C93.6598 35.0657 93.8554 35.6384 93.8563 36.229C93.8563 36.8566 93.4088 37.9639 91.7262 38.5914C90.0437 39.2189 89.4888 38.0193 89.1129 37.2626C88.9976 37.1025 88.8343 36.9862 88.6484 36.9317C88.4624 36.8772 88.2642 36.8876 88.0845 36.9613C87.9049 37.035 87.7538 37.1678 87.655 37.3391C87.5561 37.5104 87.5149 37.7106 87.5377 37.9085C87.5619 38.5372 87.7904 39.1393 88.1865 39.6179C88.5825 40.0966 89.1232 40.4241 89.7215 40.5478C90.5459 40.7464 91.4054 40.7289 92.2215 40.4968C93.0376 40.2646 93.7843 39.8253 94.3933 39.2189C94.8583 38.6402 95.1953 37.9639 95.3807 37.2372C95.5662 36.5104 95.5958 35.7507 95.4673 35.011C96.4219 34.5512 97.2936 33.9271 98.0448 33.1654C99.6558 31.6704 99.0472 28.5513 99.0472 28.5513C99.6076 27.8965 100.128 27.2061 100.604 26.4843C100.946 26.089 101.183 25.6096 101.293 25.0924C101.403 24.5752 101.381 24.0375 101.231 23.5313C101.686 23.4238 102.115 23.2209 102.49 22.9351C102.866 22.6493 103.181 22.2869 103.415 21.8703C104.131 20.4861 102.967 16.6657 102.967 16.6657C103.629 16.5167 104.244 16.1995 104.757 15.7429C105.598 15.0046 106.493 12.9745 104.829 9.46782ZM100.909 15.5214C100.354 16.8502 96.9887 13.7865 97.3288 12.2362C97.3646 11.6641 101.553 14.1926 100.909 15.5214ZM98.6713 22.1471C98.0627 22.3317 95.0914 21.8703 95.2525 19.8955C95.2525 19.3972 97.7763 19.7847 98.3849 20.3015C98.9935 20.8183 99.2799 21.981 98.6713 22.1471ZM96.3264 27.7946C95.2525 27.6839 91.9589 26.1336 93.1403 24.9155C93.6952 24.3249 95.5926 25.2662 96.4338 26.0229C97.2751 26.7796 97.3825 27.9238 96.3264 27.7946ZM20.1276 25.0262C20.7541 25.0262 22.6515 23.0699 22.6515 23.0699C22.6515 23.0699 25.1216 28.6067 25.229 29.0127C25.3364 29.4188 23.0989 30.6922 22.5978 31.1536C22.0966 31.615 29.3101 35.6385 29.7576 35.3616C30.5487 32.3974 31.0701 29.3637 31.3149 26.2997C30.2938 26.5236 29.3146 26.9162 28.4151 27.4624C28.0751 27.6839 25.1216 15.1154 24.3877 14.9493C23.6538 14.7832 20.5214 17.4777 20.3603 17.8284C20.1992 18.1791 16.0465 7.78832 15.3305 7.27155C14.6145 6.75479 9.7637 10.6859 9.9606 11.0735C10.2649 11.7748 19.519 25.0262 20.1276 25.0262ZM37.8662 3.46961C39.2332 3.06901 40.563 2.54403 41.8399 1.90085C42.9047 1.48507 44.0467 1.32224 45.181 1.4245C46.3152 1.52675 47.4125 1.89145 48.3912 2.49145C49.1071 3.28505 48.3912 5.37058 48.3912 5.37058H46.9234C45.8136 5.37058 45.026 5.72125 42.1263 7.38229C39.2265 9.04333 38.9043 10.9074 39.6024 11.5903C40.3005 12.2731 41.8399 12.6423 45.3661 11.1842C48.8924 9.7262 48.9461 7.10545 48.9461 7.10545C49.3623 7.8425 49.6016 8.67144 49.6441 9.52319C49.6244 10.3026 49.3464 11.0516 48.8566 11.6456C48.7492 11.9409 47.2456 11.8302 46.2432 11.9409C44.8079 12.3206 43.4582 12.9851 42.2695 13.8973C40.4795 15.06 39.9067 16.6103 40.4795 17.0163C41.0523 17.4224 41.9831 17.0163 44.668 16.6103C47.353 16.2043 48.8029 13.8419 49.1966 13.8419C49.6828 13.9847 50.1065 14.2956 50.3966 14.7224C50.6867 15.1492 50.8255 15.6659 50.7897 16.1858C50.8067 16.7466 50.6995 17.3041 50.4761 17.8158C50.2528 18.3275 49.9193 18.7799 49.5009 19.1388C49.3398 19.1388 49.1072 19.1388 48.1585 19.4156C46.3658 19.9172 44.6662 20.7217 43.1287 21.7964C41.6788 22.9407 41.4461 24.4357 42.5738 24.8417C43.3524 25.0972 44.1759 25.1734 44.9862 25.065C45.7965 24.9566 46.5739 24.6661 47.2635 24.2142C48.6897 23.4381 49.8283 22.1992 50.5033 20.6891C50.5033 20.6891 52.5797 20.929 53.1883 22.3686C53.7969 23.8081 53.5821 25.1923 51.5236 27.6655C49.6122 29.5043 47.342 30.9012 44.8649 31.7627C44.8649 31.7627 44.8649 32.6301 45.4198 32.8701C45.9747 33.11 47.8721 32.2241 50.3422 30.4892C51.599 29.7846 52.6849 28.796 53.5187 27.5975C54.3525 26.3989 54.9127 25.0215 55.1572 23.5682C55.3183 20.5783 51.452 19.4156 51.452 19.4156C52.1162 18.2309 52.5366 16.9179 52.6871 15.5583C52.9735 13.2513 50.0558 12.2178 50.0558 12.2178C50.6255 11.2585 50.9517 10.1668 51.0045 9.04333C51.0035 8.46473 50.8814 7.89318 50.6466 7.36765C50.4119 6.84211 50.0699 6.37497 49.6441 5.99809C50.1675 5.09474 50.44 4.06043 50.4317 3.00821C50.199 1.79012 49.483 0.645843 45.9031 0.110619C42.9369 -0.208912 39.9554 0.548195 37.4724 2.25152C37.1144 2.71292 37.4187 3.46961 37.8662 3.46961ZM44.4711 10.0953C43.0213 10.6675 42.6812 10.852 42.001 10.446C41.3208 10.04 43.3972 8.13899 44.7396 7.38229C46.0821 6.62559 46.7623 6.51486 47.1561 7.03163C47.5499 7.54839 45.921 9.52319 44.4711 10.0953ZM46.7623 13.6758C46.2066 14.5248 45.4046 15.1709 44.4711 15.5214C43.6836 15.7429 42.6812 15.9828 42.6812 15.4107C43.4291 14.7029 44.2517 14.0839 45.1334 13.5651C45.8136 13.159 47.1024 12.9745 46.7623 13.6758ZM47.9974 21.8703C47.2635 22.4978 44.4174 23.7159 44.0236 23.3652C43.8626 23.2176 45.2587 21.981 46.3685 21.5196C47.4783 21.0582 48.7134 21.2243 47.9974 21.8703ZM14.704 35.417C14.704 35.417 15.0441 32.9439 15.1515 30.1755C15.2589 27.4071 10.6766 27.9238 10.6766 27.9238C10.992 27.1227 11.1852 26.276 11.2494 25.4138C11.4642 23.3652 8.47493 22.3317 8.47493 22.3317V21.575C8.47493 20.8183 8.02743 19.5633 5.96897 18.9173C4.62246 18.5715 3.19837 18.7765 1.99525 19.4894C1.89086 19.5986 1.81229 19.7311 1.76565 19.8766C1.71901 20.0221 1.70556 20.1768 1.72634 20.3286C1.74712 20.4804 1.80157 20.6252 1.88547 20.7517C1.96936 20.8782 2.08043 20.9831 2.21005 21.0582C2.83653 21.2797 4.17901 20.1908 5.78998 20.2461C7.40095 20.3015 6.68496 22.4424 6.68496 22.4424L5.78998 22.7931C3.90864 23.6125 2.24077 24.877 0.921271 26.4843C0.151586 27.9238 2.38904 27.8685 4.28641 27.2779C6.18377 26.6873 7.63364 23.7712 7.63364 23.7712C8.20124 24.0182 8.73166 24.3476 9.20881 24.7494C9.3136 25.9774 9.3136 27.2126 9.20881 28.4406C7.22779 29.0591 5.3189 29.9009 3.51672 30.9506C0.778074 32.6301 0.724375 34.6418 1.06447 35.2878C1.40456 35.9338 2.85443 36.672 5.98687 35.2878C6.97837 34.6975 7.83926 33.9 8.51432 32.9465C9.18939 31.993 9.66372 30.9046 9.9069 29.751C10.435 29.5805 10.9731 29.4449 11.5179 29.3449C11.9678 29.2722 12.4283 29.3657 12.818 29.6088C13.2077 29.8519 13.5016 30.2291 13.6479 30.6738C14.0954 32.0026 12.6455 35.1771 12.6455 35.1771C10.6075 36.0839 8.67428 37.223 6.88186 38.573C5.48568 39.9572 6.38067 40.9907 7.66944 41.5075C8.95822 42.0242 9.45941 41.1753 11.2494 40.0679C12.3383 39.3022 13.1306 38.1651 13.4868 36.8566C14.2719 36.7823 15.062 36.9223 15.778 37.2626C16.3866 37.7794 16.2792 38.7575 15.1515 40.6585C13.9837 42.3328 12.6521 43.8789 11.1778 45.2725C10.963 45.5678 11.4642 46.3245 12.1981 46.3799C12.9319 46.4352 12.4666 46.3799 13.6479 45.051C14.8293 43.7222 17.2279 39.625 17.3353 37.7794C17.4427 35.9338 14.704 35.417 14.704 35.417ZM6.04057 33.5714C4.6981 34.4388 3.91051 34.7341 3.30193 34.0882C2.69334 33.4422 3.12293 32.4271 4.91289 31.4305C6.70286 30.4339 7.27565 30.1201 7.66944 30.4523C8.06323 30.7845 7.38305 32.7962 6.04057 33.6268V33.5714ZM9.9069 39.625C8.77922 40.1417 8.88662 40.1417 8.43913 39.8649C8.29593 39.7542 8.22433 38.9975 9.06562 38.3515C9.9069 37.7055 11.0704 37.0227 11.2494 37.3733C11.2712 37.8443 11.1548 38.3112 10.9153 38.7129C10.6758 39.1145 10.3244 39.4324 9.9069 39.625Z" fill="#1D1D1B"/>
</svg>
