<svg width="40" height="40" viewBox="0 0 40 40" fill="none" xmlns="http://www.w3.org/2000/svg">
<rect opacity="0.43" x="0.5" y="0.5" width="39" height="39" rx="9.5" stroke="#B2B5B7"/>
<path d="M27.75 20C27.75 15.7188 24.2812 12.25 20 12.25C15.7188 12.25 12.25 15.7188 12.25 20C12.25 23.875 15.0625 27.0938 18.7812 27.6562V22.25H16.8125V20H18.7812V18.3125C18.7812 16.375 19.9375 15.2812 21.6875 15.2812C22.5625 15.2812 23.4375 15.4375 23.4375 15.4375V17.3438H22.4688C21.5 17.3438 21.1875 17.9375 21.1875 18.5625V20H23.3438L23 22.25H21.1875V27.6562C24.9062 27.0938 27.75 23.875 27.75 20Z" fill="#3D94F2"/>
</svg>
