<svg width="100" height="90" viewBox="0 0 100 90" fill="none" xmlns="http://www.w3.org/2000/svg">
<path d="M84.055 49.2696C83.3561 48.9724 83.697 48.0282 83.9186 46.7868C84.1402 45.5454 82.9299 43.5171 81.9241 41.8386C80.9183 40.1601 78.0203 39.2859 75.9575 38.5515C73.5131 37.9555 70.972 37.9078 68.5079 38.4116C65.7974 38.7788 65.7292 37.7647 61.2628 36.9604C57.6905 36.6007 54.0885 37.2034 50.8128 38.7089C50.4548 38.9886 48.2557 35.3518 45.5622 34.4776C42.8688 33.6033 36.118 36.226 34.7713 36.6632C33.4246 37.1003 34.7713 36.6632 31.3618 36.5233C27.9524 36.3834 25.3271 37.6773 23.4007 42.2058C21.4744 46.7343 24.3895 47.154 24.3895 47.154C22.7277 46.9437 21.0411 47.1668 19.4856 47.8025C17.9302 48.4382 16.5562 49.466 15.4908 50.7908C13.2917 52.9239 12.6609 59.9177 13.1383 64.184C13.6156 68.4503 14.468 72.3319 18.5252 75.6015C20.2874 77.0724 22.333 78.1444 24.5277 78.7471C26.7224 79.3498 29.0165 79.4695 31.2595 79.0984C35.8794 78.5564 36.9022 75.4966 37.0045 75.1119C37.1068 74.7272 37.8568 74.7797 38.2319 75.2168C39.3108 76.6535 40.6693 77.8444 42.221 78.7138C44.6758 80.0776 50.7446 77.5772 51.8697 77.4549C52.9948 77.3325 55.0746 79.9901 57.1714 80.4972C59.2008 80.6524 61.2355 80.2795 63.0868 79.4131C64.0415 79.0285 64.4165 80.6196 65.0132 82.9101C65.4614 84.9991 65.7465 87.1215 65.8655 89.257C65.9019 89.407 65.9723 89.546 66.0711 89.6627C66.1699 89.7794 66.2942 89.8705 66.4338 89.9285C66.5735 89.9865 66.7246 90.0097 66.8747 89.9963C67.0248 89.9829 67.1697 89.9333 67.2975 89.8515C68.0476 89.4144 68.0476 88.2604 67.9453 85.5328C67.9336 82.815 67.3523 80.1317 66.2406 77.6647C65.8505 77.2256 65.3579 76.8957 64.8091 76.706C64.2603 76.5164 63.6735 76.4732 63.1039 76.5806C62.6266 76.6855 61.3992 69.9015 61.3992 69.7441C61.3992 69.5868 60.1206 69.7441 60.0695 69.9539C60.0183 70.1637 62.047 76.6331 62.1492 76.8429C62.2515 77.0527 60.7002 77.4549 60.4445 77.4549C60.1888 77.4549 58.4841 69.7441 58.4841 69.4993C58.4841 69.2546 57.4271 69.4993 57.3078 69.6742C57.1885 69.849 59.3876 77.4199 59.4387 77.7521C59.4899 78.0843 57.1544 77.5423 56.6771 77.1576C56.1997 76.773 55.0746 70.0064 54.7848 69.4993C54.495 68.9923 53.3358 69.1671 53.1824 69.3944C53.0289 69.6217 55.1598 76.1085 55.0405 76.3883C54.9212 76.668 52.8073 74.8496 52.6028 74.6398C52.4496 73.8103 52.4095 72.9629 52.4834 72.122C52.1366 71.2712 51.6901 70.4668 51.1537 69.7266C50.9492 69.4993 50.6764 69.6217 50.3014 70.0588C49.9263 70.496 51.1537 71.8073 51.256 72.0696C51.3761 72.9556 51.416 73.8512 51.3754 74.7447C50.2485 74.9305 49.1052 74.9891 47.9659 74.9196C47.5397 74.9196 47.3181 73.1711 47.1647 72.5592C47.0112 71.9472 46.4657 71.9647 45.9884 72.4018C45.5111 72.8389 46.7385 75.4091 46.7385 75.4091C45.7104 75.6862 44.6299 75.6862 43.6018 75.4091C42.7671 75.1264 42.0324 74.5973 41.4896 73.8882C40.9468 73.179 40.62 72.3214 40.5503 71.4226C40.0219 68.6426 42.2551 64.5337 42.4767 63.8868C42.6983 63.2398 41.3004 63.065 40.9254 63.065C40.5503 63.065 39.34 66.2822 38.4194 66.1773C37.4989 66.0723 37.2602 63.2224 36.8852 63.0125C36.5101 62.8027 34.7542 63.0125 34.5838 63.8343C34.4133 64.6561 36.0839 69.3944 36.0328 70.3911C35.9816 71.3877 35.8623 71.9647 35.5043 72.2444C35.1463 72.5242 31.2425 64.8659 31.2425 64.8659C31.0845 64.8205 30.9164 64.8282 30.763 64.888C30.6095 64.9478 30.4789 65.0565 30.3901 65.1981C30.1174 65.6877 34.7542 72.734 34.8054 73.0137C34.8565 73.2935 33.9019 74.7622 33.4757 74.7622C33.0495 74.7622 30.0662 69.6217 29.8446 69.2371C29.623 68.8524 28.9411 69.4644 28.7365 69.7266C29.8068 71.7477 31.0505 73.6669 32.4529 75.4616C32.8279 75.8987 31.6005 76.1785 31.1232 76.1785C29.7208 74.8186 28.474 73.2993 27.4069 71.6499C27.083 71.1429 26.6568 71.65 26.4352 71.9122C27.2298 73.5526 28.1775 75.1102 29.265 76.5631H28.9923C27.4021 76.5266 25.8359 76.1577 24.3895 75.4791C21.5255 74.2202 18.6957 72.2619 17.8433 70.3911C16.5239 66.7517 15.8821 62.8907 15.9511 59.0085C16.1556 55.022 17.1103 52.3469 19.3605 50.9831C21.4519 49.8317 23.7365 49.0961 26.0942 48.815C27.3728 48.6576 27.7989 47.9932 27.6967 47.2239C27.2015 46.0527 26.8411 44.8263 26.6227 43.5696C26.6227 42.1533 29.606 39.3558 30.3049 39.146C31.0038 38.9362 33.7144 39.8454 36.2715 39.4782C38.9922 38.7955 41.6777 37.9727 44.3178 37.0129C45.2213 36.8555 48.733 40.1776 48.733 40.5098C48.733 40.842 48.2046 41.0518 48 41.2791C47.343 42.1775 46.9845 43.2684 46.9771 44.3914C46.7214 46.577 47.1476 48.4303 48.1534 48.9724C48.6005 49.3106 49.1299 49.5158 49.6834 49.5651C50.2368 49.6145 50.7928 49.5062 51.2901 49.2521C52.4152 48.5877 51.5629 47.7135 50.8639 47.5036C50.165 47.2938 49.807 47.2763 49.4831 45.965C49.358 45.1171 49.4692 44.2501 49.8041 43.4642C50.1389 42.6784 50.6836 42.0057 51.3754 41.5239C53.8404 40.2445 56.5424 39.5174 59.3023 39.3908C62.5072 39.1984 67.0077 41.5239 68.4226 41.5239C69.8376 41.5239 73.1106 40.9819 74.0142 40.9819C74.9177 40.9819 75.4461 41.5239 76.5201 42.0135C77.7823 42.3131 78.8964 43.0707 79.6568 44.1466C81.5831 46.2273 80.8842 49.8291 80.7819 50.2138C80.3597 50.8581 79.7688 51.3671 79.0772 51.6825C78.3859 52.1846 77.8906 52.9218 77.6793 53.7632C76.7837 54.1594 75.8606 54.4867 74.9177 54.7423C73.9119 54.9696 71.082 54.7423 70.5024 54.7423C69.9228 54.7423 69.8035 55.9487 69.9058 56.4908C70.008 57.0328 71.6105 57.1552 72.2583 57.2076C72.9061 57.2601 72.514 58.2917 72.2583 59.2883C72.0026 60.2849 72.7867 60.1625 73.4175 60.1625C74.0482 60.1625 75.77 58.4141 79.5034 55.669C83.2367 52.9239 83.2879 52.6791 83.8163 52.3994C84.6649 52.3178 85.5174 52.5034 86.2605 52.9313C87.0036 53.3593 87.602 54.0093 87.9759 54.7947C88.6703 56.458 88.7431 58.3253 88.1805 60.0401C88.027 60.1975 85.1972 56.3159 84.9244 56.1061C84.6517 55.8963 84.3448 56.1061 84.2425 56.5957C85.3271 58.2761 86.5173 59.8822 87.8054 61.4039C87.7271 62.3288 87.4965 63.2333 87.1235 64.0791C86.8508 64.5162 83.7141 60.1975 83.5436 59.8653C83.3731 59.5331 82.964 60.3024 82.8617 60.5822C84.0749 62.2845 85.3901 63.9079 86.7996 65.4429L85.9473 68.223C85.9473 68.3978 82.0093 62.5405 81.7877 62.3306C81.5661 62.1208 80.5603 62.5929 80.5092 62.9251C80.458 63.2573 84.9244 68.2754 85.0949 68.9923C85.2654 69.7092 84.0721 70.6358 83.5947 70.5834C82.2864 69.3291 81.0937 67.9537 80.0318 66.4745C79.7079 66.0898 78.7533 66.8592 78.5999 67.0865C78.4464 67.3138 82.4867 71.2828 82.7935 71.7723C83.1004 72.2619 82.0605 73.0312 81.8389 73.0312C81.6172 73.0312 78.1737 68.8349 77.9009 68.5027C77.6282 68.1705 76.9974 68.6601 76.827 69.1496C76.6565 69.6392 80.9865 74.0279 80.9865 74.0279C81.1231 74.4538 81.1231 74.9133 80.9865 75.3392C80.8579 75.5308 80.6911 75.6922 80.4971 75.8128C80.3032 75.9334 80.0865 76.0103 79.8614 76.0386C79.5034 76.0386 75.9235 71.1254 75.5996 71.0205C75.2757 70.9156 74.7472 71.4576 74.8665 71.9472C76.1313 73.5478 77.4921 75.0661 78.9408 76.4932C78.189 77.42 77.6944 78.5373 77.5089 79.7279C77.4081 81.2883 77.8029 82.8403 78.634 84.1515C78.9408 84.641 80.2364 84.2739 80.816 83.7668C81.3956 83.2598 80.3216 79.9726 80.816 78.8012C81.3104 77.6297 82.2309 77.7171 83.5095 76.7729C84.788 75.8288 84.1402 75.0245 84.6517 73.7131C85.1631 72.4018 85.146 72.9088 86.3564 71.9647C87.5667 71.0205 87.9077 70.426 89.7658 64.8834C91.624 59.3408 91.4706 55.4941 90.3284 52.6441C89.1862 49.7941 84.7369 49.5668 84.055 49.2696ZM21.1675 56.6831C20.5197 57.2251 19.9401 59.7954 20.3152 62.4705C20.3821 63.2499 20.6327 64.0009 21.0455 64.6588C21.4583 65.3167 22.0209 65.8618 22.6848 66.2472C22.8552 66.2472 23.4348 65.915 23.3326 65.4254C23.2303 64.9358 22.8041 65.4254 22.0029 63.4496C21.2016 61.4739 22.0029 57.8371 22.0029 57.4C22.0029 56.9628 21.4062 56.4733 21.1675 56.6831ZM32.1971 42.6954C31.7259 43.6598 31.5302 44.7412 31.6328 45.8148C31.7353 46.8884 32.1319 47.9103 32.7768 48.7625C33.5489 49.6452 34.6109 50.2054 35.76 50.3362C36.2374 50.2313 36.2374 50.0214 35.8623 49.8466C35.4873 49.6717 35.385 49.6368 33.9019 48.3254C32.4188 47.0141 32.8279 43.9543 33.0495 43.3948C33.2711 42.8352 32.3676 42.1708 32.1971 42.6429V42.6954ZM47.267 56.6831C46.353 56.6699 45.4566 56.4235 44.6587 55.9662C43.3802 55.3193 41.2493 53.5708 40.1241 53.6757C38.7166 54.1282 37.4748 55.0057 36.5613 56.1935C36.5613 56.5082 37.0897 56.8929 37.4648 56.8929C37.8398 56.8929 37.9932 56.788 38.3171 56.3509C38.6548 55.968 39.0644 55.6591 39.5214 55.4428C39.9784 55.2264 40.4734 55.1071 40.9765 55.092C42.7138 55.6786 44.3786 56.4708 45.9373 57.4524C46.1712 57.5569 46.4237 57.6108 46.6788 57.6108C46.934 57.6108 47.1864 57.5569 47.4204 57.4524C47.9148 57.2601 47.7443 56.6306 47.267 56.6306V56.6831ZM48.7671 64.5512C49.6715 63.807 50.7955 63.4001 51.955 63.3972C53.0289 63.3972 56.5407 66.1248 57.0691 66.6319C57.5976 67.1389 57.6658 66.4046 57.9727 66.0723C58.2795 65.7401 57.9727 65.6877 56.0634 64.761C54.1541 63.8343 52.6539 61.9285 51.4265 61.9285C49.9767 62.3115 48.6527 63.0841 47.5909 64.1665C47.5909 64.6036 48.1193 65.1457 48.7671 64.4987V64.5512ZM67.9453 61.4389C68.3033 61.0543 68.0987 60.4423 66.5474 59.5156C64.2997 58.2454 61.9286 57.2198 59.4728 56.4558C57.2908 55.8613 57.0521 54.3926 56.7452 54.4975C56.4384 54.6024 56.0634 55.5816 56.0634 55.5816C56.0634 55.5816 55.7906 56.6831 57.5465 57.4524C59.8316 58.3525 62.1652 59.1172 64.5359 59.7429C66.7691 60.2849 67.5703 61.7711 67.9453 61.3865V61.4389ZM68.2522 69.849C67.9965 69.9539 67.5191 69.849 67.5191 70.2861C67.5191 70.7233 68.4226 71.2128 69.5307 72.3144C70.6388 73.4159 69.9569 75.6889 69.9058 75.9162C69.8546 76.1435 70.0762 76.1785 70.6047 75.8113C71.1332 75.4441 71.082 74.6049 70.6047 73.0137C70.1274 71.4226 68.7977 69.4993 68.2522 69.7966V69.849ZM59.7285 43.5171C61.2798 42.4681 61.706 43.8319 62.0811 43.9018C62.4561 43.9717 62.0811 43.9018 62.2345 43.2898C62.3879 42.6779 61.331 41.7687 60.7514 41.6463C60.1718 41.5239 59.5751 42.3107 58.7227 42.8527C57.8704 43.3948 57.3419 43.5171 56.7452 43.9018C56.3839 44.0912 56.0736 44.3689 55.8417 44.7105C55.6098 45.052 55.4635 45.4468 55.4156 45.8601C55.4104 46.2007 55.512 46.534 55.7053 46.811C55.8986 47.0879 56.1735 47.294 56.4895 47.3987C57.1714 47.2239 56.4895 46.1923 56.7452 45.5279C57.001 44.8635 58.1431 44.4963 59.6774 43.4647L59.7285 43.5171ZM72.9913 51.1055C73.4175 51.2104 73.6903 50.8257 74.321 49.7417C74.5346 49.4415 74.6793 49.0956 74.7442 48.73C74.8092 48.3643 74.7926 47.9884 74.6959 47.6302C74.5992 47.272 74.4247 46.9409 74.1856 46.6616C73.9465 46.3824 73.649 46.1621 73.3152 46.0175C72.7732 45.7519 72.1725 45.638 71.5738 45.6871C70.9751 45.7362 70.3997 45.9467 69.9058 46.2972C69.5819 46.6819 70.2467 47.2414 70.6558 47.119C72.5651 46.577 73.2641 47.3987 73.3664 48.3254C73.4686 49.2521 72.514 50.2837 72.3094 50.5635C72.1049 50.8432 72.514 50.9481 72.9402 51.053L72.9913 51.1055ZM67.8771 35.1595C69.1557 35.3168 73.4175 30.1764 73.7414 29.7392C74.0653 29.3021 71.8832 28.7076 71.4059 28.6027C70.9286 28.4978 77.6282 18.654 77.4748 17.3426C77.3213 16.0313 74.0653 16.4684 73.3664 16.2411C72.6674 16.0138 75.8723 7.0092 76.1451 5.87269C76.4178 4.73619 70.9286 4.80613 70.2808 4.94601C69.633 5.08588 66.1213 19.3708 66.2406 20.2451C66.3599 21.1193 69.3261 21.2767 69.8546 21.3291C70.3831 21.3816 68.1499 27.5012 68.1499 27.5012C68.1499 27.5012 67.0759 27.2914 66.1213 27.169C65.1666 27.0466 65.6439 29.477 66.2235 31.8199C66.4557 33.0557 67.0298 34.1968 67.8771 35.107V35.1595ZM99.1078 8.93251C98.6834 7.8898 97.9756 6.99423 97.0689 6.35252C96.1622 5.71081 95.0947 5.35004 93.9936 5.31319C93.7625 5.34621 93.5486 5.45673 93.3851 5.62752C93.2217 5.79831 93.118 6.01976 93.0901 6.25736C93.0901 6.46717 93.3969 6.51963 93.9936 6.46717C94.5273 6.47045 95.0528 6.60221 95.5278 6.85183C96.9587 7.95698 98.0815 9.42813 98.7839 11.1181C98.8993 11.761 98.8189 12.4248 98.5535 13.0192C98.2881 13.6136 97.8507 14.1097 97.3008 14.4402C96.5507 14.6675 96.7041 14.2304 96.4484 13.6883C95.7611 12.3571 94.7946 11.1986 93.6185 10.2963C93.3167 10.0552 92.9706 9.87904 92.6009 9.77822C92.2312 9.6774 91.8455 9.65404 91.4668 9.70953C91.0881 9.76501 90.7242 9.89821 90.3968 10.1012C90.0694 10.3041 89.7852 10.5727 89.5613 10.8908C89.2544 11.765 89.9363 13.3037 91.8627 14.9997C92.9 15.9386 94.2148 16.4928 95.596 16.5733C95.8462 17.724 96.0058 18.8934 96.0733 20.0702C96.0666 20.1825 96.0298 20.2906 95.967 20.3828C95.9042 20.4749 95.8179 20.5476 95.7175 20.5928C95.6171 20.6379 95.5065 20.6539 95.3979 20.6388C95.2892 20.6237 95.1867 20.5782 95.1017 20.5073C94.5732 20.1926 94.522 19.4758 94.147 18.3742C93.772 17.2727 90.0557 16.7481 88.6578 17.7273C87.2599 18.7064 88.3509 20.5598 90.1068 21.3816C91.1711 21.8868 92.3576 22.0572 93.5163 21.8711C93.6697 21.8711 94.0447 22.2558 94.0959 23.0251C94.147 23.7945 93.6185 24.7736 93.1924 24.7736C92.7662 24.7736 92.8173 24.0043 90.9592 22.8678C89.101 21.7313 86.0495 21.6089 85.4188 22.4307C84.788 23.2524 85.5211 24.6687 87.2769 25.9276C88.7197 26.8177 90.3849 27.2553 92.0672 27.1865C92.4934 27.1865 92.2889 28.1656 91.8627 29.4245C91.7459 29.9264 91.4854 30.381 91.1149 30.73C90.7443 31.0789 90.2804 31.3063 89.7829 31.3828C89.0328 31.3828 86.9019 28.8126 86.203 28.6027C85.504 28.3929 84.3448 29.5294 84.8221 30.561C85.2995 31.5926 87.8054 32.4843 88.1293 32.7466C88.4706 33.1831 88.657 33.7257 88.6578 34.2853C88.6578 34.8797 88.2316 35.9288 86.6292 36.5233C85.0267 37.1178 84.4982 35.9813 84.1402 35.2644C84.0305 35.1128 83.875 35.0026 83.6978 34.9509C83.5207 34.8993 83.3319 34.9092 83.1608 34.979C82.9897 35.0488 82.8459 35.1746 82.7517 35.3369C82.6576 35.4992 82.6183 35.6888 82.6401 35.8764C82.6632 36.472 82.8808 37.0423 83.258 37.4958C83.6352 37.9492 84.15 38.2595 84.7199 38.3767C85.505 38.5649 86.3236 38.5483 87.1008 38.3284C87.8781 38.1084 88.5892 37.6922 89.1692 37.1178C89.612 36.5695 89.933 35.9288 90.1096 35.2403C90.2863 34.5518 90.3144 33.8321 90.192 33.1313C91.1012 32.6957 91.9314 32.1044 92.6468 31.3828C94.1811 29.9665 93.6015 27.0116 93.6015 27.0116C94.1352 26.3912 94.6305 25.7372 95.0846 25.0534C95.41 24.6789 95.6358 24.2248 95.7403 23.7348C95.8448 23.2448 95.8245 22.7354 95.6813 22.2558C96.1147 22.154 96.523 21.9617 96.8808 21.691C97.2386 21.4202 97.5382 21.0769 97.761 20.6822C98.4429 19.3708 97.3349 15.7515 97.3349 15.7515C97.9653 15.6104 98.5513 15.3099 99.0396 14.8773C99.8408 14.1779 100.693 12.2546 99.1078 8.93251ZM95.3744 14.6675C94.8459 15.9264 91.6411 13.0239 91.965 11.5552C91.999 11.0132 95.9881 13.4086 95.3744 14.6675ZM93.2435 20.9445C92.6639 21.1193 89.834 20.6822 89.9875 18.8113C89.9875 18.3392 92.3911 18.7064 92.9707 19.196C93.5504 19.6856 93.8231 20.7871 93.2435 20.9445ZM91.0103 26.2948C89.9875 26.1899 86.8508 24.7211 87.9759 23.5672C88.5043 23.0077 90.3114 23.8994 91.1126 24.6162C91.9138 25.3331 92.0161 26.4172 91.0103 26.2948ZM18.44 23.6721C19.0366 23.6721 20.8436 21.8187 20.8436 21.8187C20.8436 21.8187 23.1962 27.0641 23.2985 27.4488C23.4007 27.8334 21.2698 29.0399 20.7925 29.477C20.3152 29.9141 27.1852 33.7257 27.6114 33.4635C28.3648 30.6553 28.8614 27.7812 29.0945 24.8785C28.1221 25.0906 27.1895 25.4626 26.3329 25.98C26.009 26.1899 23.1962 14.2828 22.4972 14.1254C21.7983 13.9681 18.815 16.5208 18.6616 16.8531C18.5082 17.1853 14.5532 7.3414 13.8713 6.85183C13.1894 6.36226 8.5696 10.0865 8.75712 10.4537C9.04692 11.1181 17.8604 23.6721 18.44 23.6721ZM35.3338 3.25C36.6358 2.87048 37.9022 2.37313 39.1183 1.7638C40.1324 1.3699 41.2201 1.21565 42.3003 1.31252C43.3806 1.40939 44.4256 1.75489 45.3577 2.32331C46.0395 3.07515 45.3577 5.05092 45.3577 5.05092H43.9598C42.9028 5.05092 42.1528 5.38312 39.3911 6.95674C36.6294 8.53036 36.3226 10.2963 36.9874 10.9432C37.6523 11.5902 39.1183 11.9399 42.4767 10.5586C45.835 9.17729 45.8861 6.69447 45.8861 6.69447C46.2825 7.39273 46.5104 8.17804 46.551 8.98496C46.5321 9.72339 46.2674 10.433 45.8009 10.9957C45.6986 11.2755 44.2666 11.1705 43.312 11.2755C41.945 11.6352 40.6596 12.2647 39.5275 13.1288C37.8228 14.2304 37.2772 15.6991 37.8228 16.0837C38.3683 16.4684 39.2547 16.0837 41.8118 15.6991C44.3689 15.3144 45.7497 13.0764 46.1248 13.0764C46.5878 13.2116 46.9913 13.5062 47.2676 13.9105C47.5439 14.3149 47.6761 14.8044 47.642 15.2969C47.6582 15.8282 47.556 16.3563 47.3434 16.8411C47.1307 17.3259 46.813 17.7545 46.4146 18.0945C46.2612 18.0945 46.0395 18.0945 45.136 18.3567C43.4287 18.8319 41.81 19.5941 40.3458 20.6123C38.9649 21.6963 38.7433 23.1126 39.8173 23.4972C40.5588 23.7393 41.3431 23.8115 42.1149 23.7088C42.8866 23.6061 43.6269 23.3309 44.2837 22.9027C45.642 22.1675 46.7264 20.9938 47.3692 19.5632C47.3692 19.5632 49.3467 19.7905 49.9263 21.1543C50.5059 22.5181 50.3014 23.8294 48.3409 26.1724C46.5205 27.9144 44.3585 29.2378 41.9993 30.054C41.9993 30.054 41.9993 30.8757 42.5278 31.103C43.0563 31.3303 44.8633 30.4911 47.2158 28.8475C48.4127 28.18 49.4469 27.2434 50.241 26.108C51.0351 24.9725 51.5686 23.6676 51.8015 22.2908C51.955 19.4583 48.2727 18.3567 48.2727 18.3567C48.9053 17.2344 49.3057 15.9904 49.449 14.7024C49.7218 12.5169 46.9431 11.5377 46.9431 11.5377C47.4856 10.629 47.7963 9.59471 47.8466 8.53036C47.8456 7.98222 47.7293 7.44074 47.5057 6.94287C47.2821 6.445 46.9565 6.00244 46.551 5.64539C47.0494 4.78959 47.3089 3.80972 47.301 2.81288C47.0794 1.65889 46.3975 0.574845 42.9881 0.06779C40.1631 -0.234923 37.3236 0.482336 34.9588 2.09601C34.6179 2.53313 34.9077 3.25 35.3338 3.25ZM41.6243 9.52699C40.2435 10.069 39.9196 10.2439 39.2718 9.85919C38.624 9.47453 40.6015 7.67361 41.88 6.95674C43.1586 6.23987 43.8064 6.13496 44.1814 6.62453C44.5564 7.1141 43.0051 8.98496 41.6243 9.52699ZM43.8064 12.919C43.2771 13.7234 42.5133 14.3354 41.6243 14.6675C40.8742 14.8773 39.9196 15.1046 39.9196 14.5626C40.6319 13.8921 41.4153 13.3056 42.255 12.8141C42.9028 12.4294 44.1302 12.2546 43.8064 12.919ZM44.9826 20.6822C44.2837 21.2767 41.5732 22.4307 41.1981 22.0984C41.0447 21.9586 42.3744 20.7871 43.4313 20.35C44.4882 19.9129 45.6645 20.0702 44.9826 20.6822ZM13.2746 33.5159C13.2746 33.5159 13.5985 31.173 13.7008 28.5503C13.8031 25.9276 9.43901 26.4172 9.43901 26.4172C9.73938 25.6581 9.9234 24.856 9.98452 24.0392C10.1891 22.0984 7.34219 21.1193 7.34219 21.1193V20.4024C7.34219 19.6856 6.91601 18.4966 4.95557 17.8846C3.67317 17.557 2.3169 17.7513 1.17107 18.4267C1.07165 18.5301 0.996822 18.6556 0.952403 18.7935C0.907984 18.9313 0.895172 19.0779 0.914963 19.2217C0.934755 19.3655 0.986618 19.5026 1.06652 19.6225C1.14642 19.7424 1.2522 19.8417 1.37564 19.9129C1.97229 20.1227 3.25084 19.0911 4.7851 19.1435C6.31935 19.196 5.63746 21.2242 5.63746 21.2242L4.7851 21.5564C2.99335 22.3327 1.4049 23.5307 0.148234 25.0534C-0.584799 26.4172 1.54611 26.3647 3.35313 25.8052C5.16014 25.2457 6.54097 22.4831 6.54097 22.4831C7.08154 22.7171 7.5867 23.0291 8.04113 23.4098C8.14093 24.5732 8.14093 25.7433 8.04113 26.9067C6.15444 27.4927 4.33645 28.2902 2.62009 29.2846C0.011856 30.8757 -0.0392861 32.7816 0.284612 33.3935C0.608511 34.0055 1.98934 34.7049 4.97262 33.3935C5.9169 32.8343 6.7368 32.0788 7.37971 31.1755C8.02263 30.2722 8.47438 29.241 8.70598 28.1481C9.20891 27.9866 9.72137 27.8582 10.2402 27.7635C10.6688 27.6946 11.1073 27.7831 11.4784 28.0134C11.8496 28.2437 12.1295 28.601 12.2689 29.0224C12.695 30.2813 11.3142 33.2886 11.3142 33.2886C9.37324 34.1478 7.53205 35.2268 5.82498 36.5058C4.49529 37.8172 5.34766 38.7963 6.57506 39.2859C7.80247 39.7754 8.27979 38.9711 9.98452 37.9221C11.0216 37.1966 11.7762 36.1194 12.1154 34.8797C12.8631 34.8094 13.6156 34.942 14.2975 35.2644C14.8771 35.754 14.7748 36.6806 13.7008 38.4816C12.5887 40.0677 11.3205 41.5325 9.91633 42.8527C9.71177 43.1325 10.1891 43.8494 10.888 43.9018C11.587 43.9543 11.1437 43.9018 12.2689 42.6429C13.394 41.384 15.6783 37.5024 15.7806 35.754C15.8829 34.0055 13.2746 33.5159 13.2746 33.5159ZM5.02376 31.7675C3.74521 32.5892 2.99513 32.869 2.41552 32.257C1.83592 31.6451 2.24505 30.6834 3.94978 29.7392C5.65451 28.7951 6.20002 28.4978 6.57506 28.8126C6.9501 29.1273 6.30231 31.0331 5.02376 31.8199V31.7675ZM8.70598 37.5024C7.632 37.992 7.73428 37.992 7.3081 37.7297C7.17172 37.6248 7.10353 36.908 7.90475 36.296C8.70598 35.684 9.81405 35.0371 9.98452 35.3693C10.0053 35.8155 9.89445 36.2578 9.66635 36.6383C9.43826 37.0189 9.10356 37.32 8.70598 37.5024Z" fill="#3D94F2"/>
</svg>
