<svg width="100" height="90" viewBox="0 0 100 90" fill="none" xmlns="http://www.w3.org/2000/svg">
<path d="M96.6777 30.4227C95.4163 29.8101 94.0532 30.2537 93.3005 27.6135C92.9533 25.0256 93.0984 22.392 93.7277 19.8621C93.7277 19.8621 97.1864 12.5542 97.7967 10.1041C98.4071 7.65408 99.404 5.52085 97.9595 3.04968C96.515 0.578506 92.8732 0.937565 85.2438 0.494022C77.6144 0.0504782 67.4419 0.325051 52.6918 0.0715977C37.9417 -0.181856 38.0027 0.261689 36.6803 1.02205C32.6113 3.40874 26.2433 17.75 16.1522 36.1465C6.06103 54.543 1.6665 62.1888 0.547527 65.357C-0.571449 68.5252 0.384767 72.7494 0.303387 73.6365C0.19379 75.8429 0.337211 78.055 0.730633 80.2263C1.23926 82.6974 1.82926 84.4505 7.15966 86.3936C12.4901 88.3368 19.3667 88.8648 37.0872 89.2027C54.8077 89.5407 70.7378 90.4489 73.9727 89.7308C77.2075 89.0126 77.6144 84.9785 78.6317 81.4724C79.6489 77.9663 85.6711 64.3009 88.1328 57.8801C90.5946 51.4593 99.3226 33.6753 99.9126 32.5348C100.503 31.3942 97.9595 31.0352 96.6777 30.4227ZM14.3414 47.6997C21.4622 35.9564 32.062 16.4193 35.0527 11.6671C38.0434 6.91484 39.2641 4.46479 39.9558 4.2747C40.6476 4.08461 60.0364 4.2747 70.2089 4.2747C76.9958 4.08183 83.7879 4.27926 90.5539 4.86609C93.9311 5.39412 94.4398 5.64757 93.9311 7.23166C93.4225 8.81574 87.1969 21.5518 85.1014 26.7053C84.1087 29.2326 82.9812 31.7006 81.7241 34.0977C81.1948 32.7479 80.555 31.4477 79.8117 30.2114C79.5676 30.2114 78.4282 30.8028 78.4282 31.3309C78.4282 31.8589 80.5848 35.5551 80.4628 35.8719C80.3407 36.1887 79.5065 38.6599 79.5065 38.6599C78.8942 36.9846 78.1455 35.3665 77.2686 33.8232C76.9634 33.8232 75.8851 35.6185 75.9462 35.8085C76.7048 37.3542 77.3839 38.9405 77.9807 40.5608C77.9807 41.3 77.7162 42.8841 77.3906 42.6729C77.0651 42.4617 75.3561 37.7306 75.112 37.7306C74.578 38.0097 74.1538 38.4725 73.9117 39.0401C73.7692 39.5681 76.1903 44.9329 76.0682 45.3764C75.9462 45.82 74.9899 48.9459 74.7865 48.5446C73.9352 46.4965 72.9846 44.4944 71.9382 42.5462C71.6127 42.4195 70.1478 43.8768 70.4123 44.3204C71.4671 46.5858 72.358 48.9297 73.0775 51.3326C72.9554 51.8606 72.3858 54.6908 71.8772 54.5007C71.3685 54.3106 69.0695 47.2351 68.5609 47.1083C68.0523 46.9816 66.5264 47.8898 66.7909 48.7558C68.1189 51.5487 69.3073 54.4109 70.3513 57.331C70.3513 58.1336 69.273 60.7737 68.9475 60.6892C68.6219 60.6047 66.0178 52.5154 65.5702 52.2408C65.1226 51.9662 64.0443 52.9589 64.1257 53.4869C64.2071 54.0149 68.1947 62.8647 67.4826 63.7095C67.1548 64.1793 66.7721 64.6049 66.3433 64.9768C66.3433 64.9768 62.2133 54.8809 61.5012 54.8809C60.7891 54.8809 59.7312 55.6202 59.9143 56.2749C60.0974 56.9297 64.9395 66.4975 64.614 66.9622C64.084 67.4686 63.4882 67.8952 62.844 68.2295C62.844 68.2295 57.9408 56.9297 57.6356 56.9297C57.3305 56.9297 55.9674 58.3237 56.0487 58.8517C56.1301 59.3797 60.6264 68.3562 60.3619 68.3562C60.0974 68.3562 57.4932 68.8842 57.188 68.4829C56.8829 68.0816 51.7763 57.2676 51.5932 57.2042C51.4101 57.1409 49.7418 57.7323 50.0063 58.5771C50.2707 59.422 55.4587 67.9549 54.5839 67.8282C53.7091 67.7014 51.7763 67.1734 51.7763 67.1734C51.7763 67.1734 47.8293 59.0418 47.7073 59.0418C47.5852 59.0418 46.2424 59.253 46.3645 60.0978C46.4866 60.9427 50.0063 66.6454 49.6807 66.6454C49.3552 66.6454 45.9373 66.1174 45.7948 65.7794C45.2312 63.8936 44.4236 62.096 43.3941 60.4358C42.9465 60.4358 41.4817 60.9638 41.8683 61.4918C42.5535 62.637 43.0679 63.8831 43.3941 65.188C43.0224 65.3237 42.6252 65.3671 42.2345 65.3147C41.9903 65.188 40.0779 61.3651 39.8338 61.3651C39.2562 61.573 38.6978 61.8346 38.1655 62.1466C38.1655 62.1466 39.8948 65.2514 39.1827 65.2514C33.2006 64.434 27.17 64.0599 21.1367 64.132C12.1645 64.3854 6.89517 64.9979 6.89517 64.9979C6.14241 64.9979 5.49137 64.9979 5.49137 64.9979C5.49137 64.9979 7.28173 59.4431 14.3414 47.6997ZM78.1027 72.3058C75.4375 79.8461 73.5251 85.1264 72.3858 85.7811C71.2465 86.4359 55.9063 86.7738 44.92 86.2458C33.9337 85.7177 28.644 85.591 19.1022 84.9152C9.56037 84.2393 6.26448 82.803 5.49137 81.6203C4.71826 80.4375 4.41308 69.539 5.93896 69.2222C9.02989 68.6638 12.1603 68.3741 15.2977 68.3562C24.9477 67.9191 34.616 68.2934 44.2079 69.4756C53.8108 70.933 57.6967 72.3058 61.135 72.1157C62.6577 72.1044 64.1738 71.9059 65.6516 71.5244C65.9605 73.8347 66.4712 76.1111 67.1775 78.3254C67.9302 79.9728 68.0523 81.1556 67.8082 81.1556C67.564 81.1556 52.7325 80.5008 38.0434 80.3741C23.3543 80.2474 14.2804 79.8461 12.0425 79.2547C9.80451 78.6633 9.4383 78.5788 9.05174 76.5301C8.66519 74.4813 9.94693 70.7217 9.4383 70.3416C8.92967 69.9614 7.4038 69.4122 6.95621 69.8769C6.50862 70.3416 5.75585 77.0581 6.7731 78.8534C7.79035 80.6487 7.85139 81.4302 13.9549 82.0216C20.0584 82.6129 34.0354 83.2043 43.9028 83.6056C53.7701 84.0069 63.1695 84.1337 65.5092 84.1337C67.8488 84.1337 68.7033 84.2604 70.4734 82.3384C72.2434 80.4164 74.8068 74.1011 77.472 68.5463C80.1372 62.9914 86.3018 50.6567 86.3018 50.6567L86.8714 50.3399C86.8714 50.3399 80.7679 64.7867 78.1027 72.3058ZM92.7308 32.3236C92.1408 33.1684 76.4548 64.9346 74.0948 70.067C71.7347 75.1994 70.2699 77.9874 70.2699 77.9874C69.2361 75.5243 68.4322 72.964 67.8692 70.3416C71.058 65.8776 73.7857 61.0779 76.0072 56.0215C80.2593 46.5803 86.1797 34.5624 87.8276 30.9296C89.4756 27.2967 91.0625 24.3398 91.0625 24.3398C90.9238 25.9498 91.0129 27.5722 91.327 29.1554C91.7746 30.5283 93.2394 31.521 92.7308 32.3236ZM86.6273 36.2521C86.1187 36.5267 81.8462 46.8126 81.2155 48.0165C80.5848 49.2205 79.9338 51.0791 80.4017 50.8679C81.8247 49.1779 82.9972 47.2773 83.8807 45.2286C85.2895 42.4397 86.5593 39.5775 87.6852 36.6534C87.5225 36.5478 86.6273 36.2098 86.4645 36.3154L86.6273 36.2521ZM17.4542 73.8266C17.4542 73.8266 22.4184 73.6576 26.6095 73.214C30.845 72.98 35.0896 72.98 39.3251 73.214C39.671 73.214 39.7931 72.7705 39.3251 72.5593C36.2143 71.8642 33.0462 71.4822 29.8647 71.4187C25.4468 71.1524 21.0177 71.1524 16.5997 71.4187C16.1221 71.5042 15.6895 71.764 15.3799 72.1512C15.0703 72.5384 14.9041 73.0277 14.9111 73.5309C14.9315 74.2912 15.6028 74.1645 17.2915 73.8899L17.4542 73.8266ZM23.8222 78.3676C26.874 78.2409 31.9602 78.0085 40.0982 77.4805C48.2362 76.9525 55.5604 78.1564 57.1474 77.3115C58.7343 76.4667 57.9408 75.0727 57.2694 74.9882C56.0039 74.9799 54.7393 75.0646 53.4853 75.2417C52.0611 75.3684 45.3473 74.946 40.2203 75.0305C35.0934 75.1149 22.8457 76.0443 22.1743 76.2555C19.8753 77.0158 20.6077 78.5577 23.6595 78.431L23.8222 78.3676ZM13.1818 61.344C14.5922 61.4102 16.0043 61.2607 17.3729 60.9004C18.6139 60.4991 19.1632 59.1051 18.6546 58.7883C17.3435 58.6486 16.0254 58.5922 14.7077 58.6194C13.7718 58.4293 14.4025 57.4155 15.0535 56.3594C16.9246 53.7447 18.6631 51.0305 20.2618 48.2278C20.7298 46.8126 19.0818 46.9605 18.2273 47.1295C17.3729 47.2984 11.7373 56.7607 10.9438 58.9995C10.1504 61.2384 12.2459 61.3651 13.019 61.4073L13.1818 61.344ZM79.8117 9.74507C80.7883 10.1041 84.2673 9.99853 85.0404 10.3998C85.8135 10.8011 83.8807 14.2861 83.6366 15.1943C83.3924 16.1025 85.4473 16.0392 85.9559 15.8068C87.1629 13.4156 88.0721 10.8748 88.6618 8.24547C88.7839 7.10493 80.3 6.83036 79.4251 7.14717C78.5503 7.46399 78.8352 9.38601 79.8117 9.74507ZM38.5724 25.0156C40.0169 25.1424 44.6759 25.6282 56.7608 25.945C68.8457 26.2618 72.4468 27.0433 73.7082 26.0717C74.9696 25.1001 79.6083 15.0676 79.9948 13.8848C80.3814 12.702 79.6896 11.5826 76.0479 10.9279C69.2432 10.0486 62.3967 9.56207 55.5401 9.4705C48.6228 9.4705 44.2486 9.85068 43.5772 10.3153C42.9058 10.78 36.8837 21.0871 36.2937 22.3333C35.7037 23.5794 37.1279 24.8889 38.5724 25.0156ZM40.0982 21.2772C41.8038 18.1393 43.7139 15.126 45.8152 12.2585C46.3848 12.0684 58.9174 12.4697 65.326 12.6387C71.7347 12.8076 76.5158 13.8426 76.8006 14.2861C76.0138 16.974 74.921 19.555 73.5454 21.9742C72.8334 23.157 71.9789 23.9596 71.5109 23.9596C71.043 23.9596 58.6732 23.1992 51.4711 22.9035C47.7749 22.9108 44.0808 22.7205 40.4034 22.3333C39.8338 22.0164 39.8337 21.763 40.0982 21.2772ZM48.5007 21.4039C49.3349 21.235 49.3756 19.6931 49.518 19.2918C49.6604 18.8905 46.1611 18.9961 45.8152 18.9328C45.4693 18.8694 46.2831 17.6232 47.0969 16.9263C47.9107 16.2293 46.0797 15.5111 44.9403 16.0814C43.6713 17.5494 42.7392 19.297 42.2141 21.1927C44.3021 21.4188 46.403 21.4894 48.5007 21.4039Z" fill="#EFD101"/>
</svg>
