<svg width="87" height="93" viewBox="0 0 87 93" fill="none" xmlns="http://www.w3.org/2000/svg">
<path d="M65.4686 38.5781C65.7342 38.3594 65.828 37.9844 65.3436 36.1875C64.7187 33.9552 63.6682 31.8648 62.2498 30.0312C60.4493 27.8468 58.0314 26.2566 55.3124 25.4687C53.9686 25.8125 55.1092 26.7031 56.1717 27.3906C58.1 28.5324 59.8005 30.021 61.1873 31.7812C62.5868 33.7148 63.4883 35.9634 63.8123 38.3281C64.1248 38.9375 65.203 38.7969 65.4686 38.5781ZM48.6405 42.3594C47.8592 42.2812 45.9373 45.4062 45.6092 45.4844C45.2811 45.5625 45.3905 45.3437 44.828 44.8281C44.2655 44.3125 43.0467 42.5781 41.9373 42.625C40.828 42.6719 39.2967 44.9375 39.1248 44.9375C38.953 44.9375 38.7498 44.8125 38.0155 44.2969C37.2811 43.7812 35.3123 44.5 34.7811 44.9531C34.2498 45.4062 34.5623 46.5156 34.6717 46.7187C34.7811 46.9219 35.9217 51.7031 36.7498 54.5312C37.2504 56.5426 37.6261 58.5829 37.8748 60.6406C37.9998 60.9531 38.953 61.375 39.2498 61.4219C39.5824 61.429 39.9116 61.3544 40.2086 61.2046C40.5055 61.0547 40.7612 60.8342 40.953 60.5625C41.2498 60.125 40.6873 57.7969 39.9998 54.3125C39.3123 50.8281 37.7967 47.1875 37.9686 46.9375C38.1405 46.6875 38.3123 47.0625 38.5623 47.1562C38.8123 47.25 39.0467 47.2656 39.8123 47.0156C40.578 46.7656 40.8123 46.0625 41.1717 45.4531C41.5311 44.8437 41.703 44.6719 42.203 44.6875C42.703 44.7031 42.828 45.6719 43.4842 46.4687C44.1405 47.2656 44.4373 48.0312 45.8123 47.9375C47.1873 47.8437 48.5623 44.6875 48.9373 44.4531C49.3123 44.2187 49.5155 45.1094 49.5155 45.75C49.5155 46.3906 49.0311 48.1406 48.6405 50.9687C48.2498 53.7969 47.2342 58.4687 47.4686 59.4219C47.703 60.375 49.4999 60.2656 50.1249 60.0312C50.7499 59.7969 50.8905 57.6875 51.3748 53.4531C51.8216 50.5335 52.1085 47.5916 52.2342 44.6406C51.2253 43.6169 49.9962 42.8367 48.6405 42.3594ZM45.8592 83.6875C45.4163 83.8411 45.0334 84.131 44.7655 84.5156C44.6405 84.7969 46.8123 86.8906 46.953 86.9687C47.0936 87.0469 47.4998 86.4687 47.6248 86.25C47.1647 85.3141 46.5698 84.4508 45.8592 83.6875ZM22.8905 45.9219C21.8436 43.0156 23.0623 40.5937 23.2498 39.4219C23.4373 38.25 22.3748 38.5 21.8436 38.7031C21.3123 38.9062 20.953 39.7187 20.7655 41.5781C20.6047 43.8703 20.9515 46.1697 21.7811 48.3125C21.9649 48.993 22.295 49.6252 22.7484 50.165C23.2018 50.7047 23.7675 51.139 24.4061 51.4375C24.5529 51.4593 24.7026 51.4497 24.8454 51.4093C24.9881 51.3689 25.1207 51.2986 25.2342 51.2031C25.231 50.9955 25.1774 50.7917 25.078 50.6094C24.1953 49.1232 23.4625 47.553 22.8905 45.9219ZM64.2967 56.6562C66.3436 54.2031 67.4217 52.1562 68.7498 46.6562C70.078 41.1562 68.9842 38 68.0311 34.1562C67.078 30.3125 66.1873 28.6875 62.5311 24.5469C59.191 20.6491 54.8781 17.7056 50.0311 16.0156C45.2727 14.4025 40.1259 14.3369 35.328 15.8281C31.1328 17.109 27.2887 19.3385 24.0936 22.3437C21.2854 24.7901 19.0593 27.833 17.578 31.25C16.0067 34.9246 15.3268 38.9187 15.5936 42.9062C15.9623 46.8597 17.1149 50.7001 18.9842 54.2031C21.5373 57.8875 25.0197 60.8308 29.078 62.7344C31.6092 63.8125 32.3748 63.75 32.453 63.9687C32.5311 64.1875 31.5467 65.2031 31.2498 65.8281C30.953 66.4531 32.6248 68.2344 33.5623 69.25C34.4998 70.2656 33.1717 70.6719 32.3592 71.8437C32.092 72.2499 31.9231 72.7127 31.8662 73.1956C31.8092 73.6784 31.8657 74.1678 32.0311 74.625C32.2342 74.9375 33.5936 75.8594 33.8592 76.375C34.1248 76.8906 33.2655 77.75 32.6561 78.75C32.3892 79.0648 32.2121 79.4457 32.1434 79.8526C32.0747 80.2596 32.1168 80.6775 32.2655 81.0625C32.5155 81.9375 33.9217 81.9375 34.3123 82.0781C34.703 82.2187 34.4373 82.5312 34.3123 82.9844C33.9695 83.7506 33.9032 84.6122 34.1248 85.4219C34.4217 86.7969 36.4998 88.2187 40.1561 90.2812C43.8123 92.3437 42.7186 92.75 44.6405 92.8125C46.5623 92.875 46.203 92.3594 47.3123 91.6094C48.4217 90.8594 49.6873 89.5937 51.9061 88C53.6173 86.9817 55.1267 85.6577 56.3592 84.0937C56.6444 83.6625 56.7469 83.1359 56.6444 82.6292C56.5419 82.1225 56.2427 81.6771 55.8123 81.3906C55.3905 80.9687 55.6873 80.875 55.8123 80.5469C55.9373 80.2187 56.4686 80.2187 56.8905 78.9844C57.2241 78.0432 57.3207 77.0343 57.1717 76.0469C57.078 75.3594 56.2655 74.9687 56.0311 74.75C55.7967 74.5312 56.203 73.6406 56.7811 73.1875C57.1779 72.8968 57.4958 72.5115 57.7059 72.0667C57.916 71.622 58.0117 71.1318 57.9842 70.6406C57.9842 69.4062 57.2498 69.4687 56.4217 68.9844C55.5936 68.5 55.703 68.1719 55.7655 67.4219C55.7075 66.2997 55.9675 65.1841 56.5155 64.2031C57.328 62.8906 56.9373 62.6406 56.9373 62.6406C57.7394 62.237 58.5121 61.7775 59.2499 61.2656C61.1617 60.0011 62.8645 58.4459 64.2967 56.6562ZM53.3592 70.4844C53.2186 70.6719 52.4061 70.5781 52.4061 71.2344C52.4061 71.8906 52.7967 72.9531 52.4061 73.1875C52.0155 73.4219 50.8436 73.6094 50.8436 74.0937C50.8436 74.5781 52.1092 77.2187 52.4061 78.2031C52.703 79.1875 52.9061 79.1719 52.6717 79.3125C52.4373 79.4531 52.4373 79.6562 52.3123 79.4375C52.1873 79.2187 51.1717 76.9219 50.9061 76.9219C50.6405 76.9219 49.2498 77.4219 49.7811 77.9062C50.5096 79.1561 51.1366 80.4624 51.6561 81.8125C51.7967 82 52.7342 83.375 52.6092 83.6094C52.4842 83.8437 51.828 84.5781 51.7342 84.4844C51.0374 83.0076 50.2548 81.5729 49.3905 80.1875C49.0311 80.0469 47.7498 80.3125 48.0155 80.9062C48.2811 81.5 50.4842 85.0937 50.3905 85.2344C50.2967 85.375 49.6405 85.7187 49.5467 85.5937C48.9902 84.1294 48.2943 82.7219 47.4686 81.3906C47.1092 81.3906 46.2186 82.1094 46.3592 82.3594C47.2407 83.675 47.9942 85.072 48.6092 86.5312C48.1947 86.9696 47.7086 87.3342 47.1717 87.6094C46.9373 87.6094 46.8748 87.2187 46.453 87.2187C45.6495 87.1753 44.8531 87.0443 44.078 86.8281C43.5936 86.625 42.3905 85.875 41.9998 86.1406C41.382 86.446 40.7045 86.6114 40.0155 86.625C39.1999 86.2529 38.4668 85.7217 37.8592 85.0625C37.4061 84.6094 37.203 83.8281 37.3436 83.6406C37.4842 83.4531 38.2811 82.2031 38.4842 82.2656C39.9299 82.7222 41.4248 83.0055 42.9373 83.1094C44.4998 83.1094 44.828 82.7187 44.828 82.3594C44.828 82 44.828 81.625 44.2342 81.625C42.4056 81.5663 40.5882 81.3149 38.8123 80.875C36.7967 80.2969 35.6873 79.7812 35.8592 79.4844C36.0311 79.1875 37.0623 76.6875 37.578 76.8125C39.3711 77.3619 41.1978 77.7951 43.0467 78.1094C44.5989 78.3389 46.1652 78.459 47.7342 78.4687C48.1248 78.4687 48.3905 77.75 48.1561 77.5937C46.5815 77.1905 44.9851 76.8775 43.3748 76.6562C41.364 76.3549 39.4034 75.7819 37.5467 74.9531C36.1405 74.2031 35.4686 73.75 35.5311 73.5312C35.5936 73.3125 36.4998 70.8281 36.7967 70.8906C38.9674 71.3884 41.1633 71.7692 43.3748 72.0312C46.953 72.4531 47.703 72.4531 48.0623 72.3281C48.4217 72.2031 48.3436 71.5469 48.0623 71.3125C46.144 70.8707 44.1962 70.5678 42.2342 70.4062C40.5489 70.3045 38.8839 69.9841 37.2811 69.4531C37.2811 69.2969 37.9373 68.8437 37.5155 68.4531C36.7544 67.8619 36.0437 67.2086 35.3905 66.5C34.9998 65.9062 34.9373 65.6406 35.0311 65.3906C35.1248 65.1406 35.6873 64.2187 35.6873 64.2187C37.0415 64.4523 38.4086 64.6036 39.7811 64.6719C40.703 64.6719 41.0623 64.6719 41.1873 64.8281C41.4751 65.1821 41.8611 65.443 42.2967 65.5781C44.0992 66.0557 45.9739 66.1987 47.828 66C49.5668 65.8696 51.2721 65.4525 52.8748 64.7656C52.7147 65.9616 52.6624 67.1696 52.7186 68.375C52.8749 69.2656 52.9061 69.7187 53.203 69.9375C53.4998 70.1562 53.453 70.2812 53.328 70.4844H53.3592ZM49.7498 63.6875C47.1655 64.1841 44.5068 64.1469 41.9373 63.5781C37.2981 63.1761 32.7325 62.1621 28.3592 60.5625C25.6248 59.4531 23.8905 57.3281 21.8748 54.625C19.8277 51.6618 18.491 48.2666 17.9686 44.7031C17.4604 41.6242 17.6041 38.473 18.3905 35.4531C18.9457 32.558 20.183 29.837 21.9998 27.5156C23.9473 24.675 26.4841 22.2875 29.4373 20.5156C32.7479 18.4007 36.481 17.0355 40.3748 16.5156C44.765 16.4236 49.1123 17.3938 53.0467 19.3437C56.9899 21.3792 60.3912 24.3252 62.9686 27.9375C65.578 31.875 66.4842 33.1406 67.1092 37.9687C67.8178 42.3368 67.3208 46.8154 65.6717 50.9219C64.2106 54.5627 61.6344 57.6476 58.3123 59.7344C55.699 61.521 52.8047 62.8572 49.7498 63.6875ZM14.9686 58.9062C14.1248 58.4062 13.6405 58.3281 11.8436 59.0312C9.81749 59.8012 8.07732 61.1759 6.85922 62.9687C6.67395 63.1899 6.55351 63.458 6.51126 63.7434C6.46901 64.0288 6.50659 64.3203 6.61984 64.5856C6.7331 64.8509 6.91759 65.0797 7.1529 65.2466C7.3882 65.4135 7.66512 65.5121 7.95297 65.5312C8.94421 65.6121 9.9272 65.2975 10.6873 64.6562C12.2316 63.4828 13.6742 62.1813 14.9998 60.7656C15.7342 59.9375 15.828 59.4219 14.9686 58.9062ZM9.12484 42.7187C8.74984 42.2187 7.39047 42.1406 6.17172 42.5469C4.35224 43.3213 2.66516 44.3757 1.17172 45.6719C0.803171 46.0256 0.55852 46.4888 0.474078 46.9927C0.389636 47.4965 0.469904 48.0141 0.702969 48.4687C0.924978 48.8699 1.28414 49.1776 1.71461 49.3354C2.14507 49.4933 2.61801 49.4907 3.04672 49.3281C4.79524 48.6165 6.43603 47.6647 7.92172 46.5C8.44308 46.0357 8.82989 45.4396 9.04157 44.7743C9.25326 44.109 9.28202 43.399 9.12484 42.7187ZM3.57797 24.625C5.21757 25.4089 6.95819 25.961 8.74984 26.2656C10.0623 26.4531 11.2967 26.0937 11.4842 25.2656C11.6717 24.4375 11.2342 24.2187 10.1873 23.4531C9.14047 22.6875 5.04672 19.5 4.43734 19.8281C0.624844 21.6094 2.49984 24 3.57797 24.625ZM24.453 11.4219C25.6058 11.6647 26.8064 11.5277 27.8748 11.0312C28.1561 10.7656 27.9842 9.28124 27.1561 8.32812C26.328 7.37499 23.328 3.37499 22.2811 3.64061C19.4998 4.46874 19.7186 6.54686 20.3436 7.42186C21.5498 8.91354 22.9293 10.2563 24.453 11.4219ZM45.5155 9.37499C46.4998 9.76561 46.953 9.01561 47.5623 8.10936C48.2152 6.62437 48.6115 5.03939 48.7342 3.42186C48.7342 2.49999 49.1092 1.85936 47.9373 1.03124C46.7655 0.203114 45.0623 -0.375011 44.2498 1.18749C43.4373 2.74999 44.1092 7.43749 44.2498 8.06249C44.3608 8.35561 44.5303 8.62311 44.7478 8.84874C44.9654 9.07437 45.2266 9.25341 45.5155 9.37499ZM68.2967 18.75C70.3854 17.7324 72.1096 16.0956 73.2342 14.0625C74.578 11.5312 73.1092 10.1875 70.9842 10.7656C68.8592 11.3437 65.6873 17.4062 65.3748 17.8281C65.2517 18.0738 65.1955 18.3476 65.212 18.622C65.2284 18.8963 65.3169 19.1614 65.4686 19.3906C66.1717 19.9375 66.6405 19.7031 68.2967 18.7812V18.75ZM85.4842 35.1562C84.8123 34.5937 83.4061 34.875 81.7655 35.6406C80.1249 36.4062 73.5311 39.7187 73.5155 40.5469C73.5155 42.375 75.078 41.8437 77.3905 41.4219C79.703 41 84.7967 39.7344 86.0155 38.8437C87.2342 37.9531 86.1717 35.75 85.5155 35.1875L85.4842 35.1562ZM80.7967 58.2656C79.8436 57.6406 74.1405 54.8437 73.4686 55.4375C73.2498 55.6406 71.1717 57.3125 71.1561 58.125C71.1405 58.9375 74.7655 60.7187 76.7498 61.5469C78.7342 62.375 80.4998 62.9062 81.5467 61.7344C81.7344 61.463 81.8643 61.1559 81.9283 60.8322C81.9923 60.5085 81.989 60.175 81.9187 59.8526C81.8483 59.5303 81.7124 59.2258 81.5194 58.9581C81.3264 58.6905 81.0804 58.4654 80.7967 58.2969V58.2656ZM64.6873 64.1562C64.3526 64.0934 64.0086 64.0984 63.6759 64.1709C63.3431 64.2433 63.0282 64.3818 62.7498 64.5781C62.5244 64.9322 62.4221 65.3507 62.4588 65.7689C62.4955 66.187 62.6692 66.5813 62.953 66.8906C63.7342 68.0156 65.9061 71.9531 66.6561 72.3437C67.1085 72.4845 67.5884 72.5125 68.0541 72.4254C68.5198 72.3382 68.9571 72.1386 69.328 71.8437C69.4895 71.7699 69.6337 71.663 69.7511 71.5298C69.8686 71.3966 69.9567 71.2402 70.0098 71.0707C70.0629 70.9012 70.0796 70.7225 70.0591 70.5461C70.0385 70.3697 69.9811 70.1996 69.8905 70.0469C69.6092 69.4844 64.8436 64.2187 64.6873 64.1562Z" fill="#01091F"/>
</svg>
