<svg width="84" height="78" viewBox="0 0 84 78" fill="none" xmlns="http://www.w3.org/2000/svg">
<path d="M82.3906 19.5779C83.6094 17.9217 84.1094 16.1092 83.4219 14.9998C79.7893 11.3412 75.8185 8.03478 71.5625 5.12481C70.5798 4.67613 69.4948 4.4989 68.4204 4.61156C67.346 4.72422 66.3214 5.12266 65.4531 5.76544C64.2344 6.89044 55.4375 20.2498 55.4375 20.2498C54.6215 18.4265 54.0489 16.5037 53.7344 14.5311C52.9134 10.091 51.8704 5.69486 50.6094 1.35919C50.125 0.671687 47.625 0.859187 45.7188 1.35919C43.8125 1.85919 31.6562 4.37481 22.1875 6.71856C12.7188 9.06231 1.48438 12.0154 1.25 12.2029C1.01563 12.3904 0.265625 19.9217 0.265625 20.1717C0.265625 20.9061 6.51562 40.8748 9.84375 51.0311C13.1719 61.1873 17.3125 74.4686 18.625 76.2186C19.9375 77.9686 23.4062 76.8592 33.6094 73.7811C43.8125 70.7029 56.4688 67.3436 61.7344 65.3904C67 63.4373 66.2344 60.8436 65.8906 59.1404C65.5469 57.4373 62.7656 47.9998 62.7656 47.9998C63.4531 46.307 64.3906 44.7269 65.5469 43.3123C67.8906 39.9373 81.1719 21.2498 82.3906 19.5779ZM61.1562 17.5311C67.4062 9.14044 68.4844 7.62481 69.2656 7.85919C71.1245 8.93394 72.9145 10.1238 74.625 11.4217C75.9531 12.3592 76.3438 12.9842 76.1875 13.1404C76.0312 13.2967 59.8906 33.2498 58.0312 35.8748C56.1719 38.4998 55.2031 40.3123 54.9062 40.3592C54.6094 40.4061 53.4844 39.1873 53.0937 38.9998C52.7031 38.8123 51.6875 38.4061 51.8281 38.1717C51.9688 37.9373 67.1094 17.8592 69.6562 14.7342C72.2031 11.6092 72.625 11.4529 72.4375 11.1092C72.25 10.7654 71.3125 9.79669 70.875 10.1404C70.4375 10.4842 55 30.5623 53.3437 33.1092C52.3558 34.8094 51.0819 36.3265 49.5781 37.5936C49.2969 37.5936 45.0469 37.3123 45.4844 36.9686C45.4844 36.9686 54.9531 25.9373 61.1562 17.5311ZM58.2812 49.3748C58.125 49.6092 52.9062 52.2967 52.6094 51.9061C52.1594 51.061 51.4615 50.3739 50.6094 49.9373C49.2344 49.2498 46.2656 47.8904 45.625 47.6873C44.9844 47.4842 44.0625 47.6873 44.0625 47.5936C44.0625 47.4998 43.9688 39.8748 44.0625 39.4842C44.3438 38.7654 49.7344 38.3592 53.3437 41.7811C55.68 43.7897 57.3932 46.4245 58.2812 49.3748ZM33.5625 66.7498C30.2969 67.6717 23.1719 70.3123 22.625 69.7342C22.0781 69.1561 17.2188 55.0311 14.0938 44.1873C10.9688 33.3436 5.9375 15.0936 6.0625 14.5467C6.1875 13.9998 22.7031 10.0154 28.9531 8.29669C35.2031 6.57794 47.7031 3.90606 47.8594 4.06231C48.0156 4.21856 53.1406 23.2498 53.0469 23.3748C52.9531 23.4998 43.4375 35.5311 42.5 36.5154C42.2453 36.8001 42.0969 37.164 42.0798 37.5456C42.0627 37.9272 42.1781 38.3029 42.4062 38.6092C42.4062 38.6092 42.8906 38.9061 42.6562 41.4373C42.4219 43.9686 41.3281 55.0623 42.1562 56.2342C42.9844 57.4061 43.5312 57.7029 45.4375 56.9686C47.3438 56.2342 59.5 50.5311 59.7344 50.7186C60.8922 54.0021 61.8728 57.3454 62.6719 60.7342C62.625 60.9842 36.8438 65.8279 33.5625 66.7498ZM62.625 42.1248C62.526 40.703 62.1266 39.3184 61.4531 38.0623C61.0156 37.8748 60.4219 38.8436 60.4219 39.2967C60.4219 39.7498 61.5937 42.8123 61.5 43.3436C61.42 43.7192 61.2886 44.082 61.1094 44.4217C60.7124 42.8624 60.2219 41.3283 59.6406 39.8279C59.4531 39.8279 58.5625 40.5623 58.6094 41.1873C58.6562 41.8123 60.1719 45.6404 60.1719 45.6404C60.1719 45.6404 59.7344 46.7654 59.5469 46.3279C58.7321 44.6255 57.68 43.0473 56.4219 41.6404C56.0625 41.3436 68.5625 24.9373 72.5781 20.0154C76.5938 15.0936 77.4219 14.4529 77.7031 14.4061C77.9844 14.3592 80.2969 16.3123 80 17.1873C79.7031 18.0623 65.5469 38.1873 64.2344 39.8436C62.9219 41.4998 62.625 42.8748 62.625 42.1248ZM40.8438 13.8279C41.2344 13.6248 41.1875 12.5936 40.7031 12.2654C40.2188 11.9373 36.4062 13.0936 25.9062 15.6248C15.4062 18.1561 13.0469 20.0154 13.0156 20.2498C12.8594 20.9373 13.3594 21.7186 13.8437 21.7186C17.8113 19.9722 21.8691 18.4388 26 17.1248C32.3438 15.5623 40.4375 13.9998 40.8438 13.8279ZM45.4375 23.0936C46.0625 22.9061 45.5312 21.5311 45.1875 21.3436C40.9479 22.1307 36.7704 23.222 32.6875 24.6092C26.4375 26.5623 17.0625 29.3904 16.9219 29.9373C16.7812 30.4842 16.8125 31.2967 17.5 31.4061C18.1875 31.5154 22 29.8436 29.7031 27.3904C37.4062 24.9373 44.7969 23.3748 45.4375 23.0936ZM37.3125 37.7029C35.3163 37.6424 33.3196 37.8049 31.3594 38.1873C28.4219 38.5311 19.8125 39.8436 19.4375 40.5779C19.0625 41.3123 19.4375 42.1404 20.125 42.1404C20.8125 42.1404 21.2969 42.0467 26.5156 40.5779C30.0996 39.5887 33.7572 38.8886 37.4531 38.4842C38.1094 38.5311 37.9062 37.9373 37.3125 37.7029ZM36.0469 47.4217C37.0625 47.1717 36.6719 46.8748 36.7188 46.6404C36.7656 46.4061 35.5 46.1873 30.8594 47.2186C26.2188 48.2498 23.25 49.4686 22.625 50.2029C22.5462 50.3087 22.4911 50.4302 22.4632 50.5591C22.4354 50.688 22.4356 50.8214 22.4637 50.9503C22.4919 51.0791 22.5473 51.2004 22.6264 51.306C22.7054 51.4116 22.8062 51.499 22.9219 51.5623C23.3125 51.6561 23.4063 51.4217 27.7031 49.6092C30.3661 48.5187 33.1609 47.7832 36.0156 47.4217H36.0469ZM31.3594 56.2967C29.1847 56.7403 27.0815 57.4816 25.1094 58.4998C25.0152 58.7132 24.9917 58.9511 25.0423 59.1788C25.0929 59.4065 25.2149 59.612 25.3906 59.7654C26.9636 59.49 28.5033 59.0501 29.9844 58.4529C31.8906 57.7654 38.0938 55.9529 37.7969 55.7654C35.6416 55.5857 33.4714 55.7653 31.375 56.2967H31.3594Z" fill="#3D94F2"/>
</svg>
