<svg width="80" height="87" viewBox="0 0 80 87" fill="none" xmlns="http://www.w3.org/2000/svg">
<path d="M79.0629 45.2346C78.0316 41.5939 75.6879 40.2971 71.9691 40.1564C68.2504 40.0158 65.141 44.3908 64.0316 44.8439C62.9222 45.2971 62.2035 44.8439 61.5629 43.6721C60.9222 42.5002 60.9691 38.0158 61.7504 34.0471C62.5316 30.0783 61.4847 28.7658 60.641 25.3752C59.7972 21.9845 54.8441 22.2502 51.4691 22.1252C48.0941 22.0002 43.266 22.1252 41.766 20.7658C40.266 19.4064 43.516 13.2658 44.2347 9.50017C44.9535 5.73455 41.5629 0.0626761 34.2035 0.375176C26.8441 0.687676 25.4066 2.87518 23.0629 5.3908C20.7191 7.90643 23.0629 12.4846 24.1097 13.4064C25.3574 14.4521 26.1478 15.9432 26.3129 17.5627C26.3129 19.0002 24.7504 21.2189 21.4379 21.5471C17.6554 21.7179 13.8652 21.5611 10.1097 21.0783C7.17224 20.7658 4.90661 22.2502 2.29724 24.2033C-0.312136 26.1564 0.406614 32.6721 0.469114 37.5627C0.531614 42.4533 0.469114 43.3439 2.17224 45.3752C3.87536 47.4064 9.76599 46.1096 11.3441 45.2971C14.2816 43.8127 14.7972 39.8283 16.7504 39.2502C18.7035 38.6721 19.6879 40.3752 21.1097 44.0627C22.5316 47.7502 21.5004 52.4689 21.1097 54.1564C20.7191 55.8439 17.391 57.1564 15.3754 56.7658C13.3597 56.3752 12.3285 52.8752 11.2191 51.9377C10.1097 51.0002 8.54724 51.422 5.87536 53.3752C4.77787 54.1014 3.87691 55.0877 3.25264 56.2463C2.62838 57.4049 2.30018 58.6998 2.29724 60.0158C2.17224 62.5627 2.29724 78.047 2.75036 80.7189C3.20349 83.3908 3.73474 84.3595 7.04724 85.6095C10.3597 86.8595 13.6879 86.6408 20.9222 86.5783C28.1566 86.5158 28.9222 85.5314 30.2191 84.7502C31.516 83.9689 31.7816 81.7033 31.391 79.7502C31.0004 77.7971 29.7035 77.3283 27.5004 76.0939C25.2972 74.8596 24.5629 75.0627 22.8129 73.3596C21.0629 71.6564 22.0316 66.0002 23.266 64.9064C25.2214 63.327 27.5936 62.3499 30.0941 62.0939C31.5558 62.0744 33.0036 62.3796 34.3331 62.9876C35.6625 63.5955 36.8403 64.4911 37.7816 65.6096C40.516 68.4221 38.9535 73.0314 38.4379 73.9533C37.9222 74.8752 36.0941 76.1564 35.3129 77.8596C34.5316 79.5627 35.0472 82.9377 35.9535 83.6564C36.8597 84.3752 39.0785 85.2189 43.2504 85.6095C48.4351 85.9877 53.647 85.6777 58.7504 84.6877C63.1879 83.6564 63.4379 78.7658 63.4379 76.6877C63.4379 74.6096 62.5785 63.6564 62.391 61.5783C62.2035 59.5002 62.6566 56.3127 63.2347 56.1095C63.8129 55.9064 65.516 59.2345 66.7504 60.797C67.9847 62.3595 69.6879 61.9064 72.2816 61.3127C73.6571 60.8702 74.9243 60.1436 76.001 59.1799C77.0777 58.2163 77.9399 57.0371 78.5316 55.7189C79.7354 52.3523 79.9202 48.7056 79.0629 45.2346ZM75.9379 53.8283C75.5472 53.6408 72.9535 46.2814 72.3597 46.2814C71.766 46.2814 70.7972 47.1877 71.2504 47.7189C71.7035 48.2502 75.4222 54.8752 75.1566 55.5314C74.891 56.1877 74.3129 57.0939 74.1254 56.6252C73.9379 56.1564 71.641 50.3752 71.1254 50.3752C70.6097 50.3752 69.7504 50.9689 70.141 51.4845C70.5316 52.0002 73.0785 57.2189 72.7504 57.5471C72.4222 57.8752 72.0316 58.3283 71.8441 58.0002C70.8848 55.9123 69.7941 53.8874 68.5785 51.9377C68.1879 51.9377 67.3441 52.2658 67.5472 52.7814C67.7504 53.297 70.141 58.5158 69.9535 58.5158C69.766 58.5158 69.1097 58.7814 67.9379 56.9533C66.766 55.1252 66.5629 53.3752 64.4066 52.8752C63.7022 52.6485 62.9439 52.652 62.2415 52.8852C61.5392 53.1184 60.9294 53.5691 60.5004 54.1721C59.4646 55.9658 58.9859 58.0273 59.1254 60.0939C59.3285 62.5002 59.391 69.0158 59.391 69.0158C59.391 69.0158 54.3129 56.9064 53.7972 56.6408C53.2816 56.3752 52.4847 57.6252 52.6879 57.7502C52.891 57.8752 59.4535 70.9689 59.4535 71.2345C59.4535 71.5002 59.8441 75.2658 59.8441 75.6564C59.8441 76.0471 59.7191 77.4845 59.516 77.3439C59.3129 77.2033 52.2347 62.4377 51.7035 62.1877C51.1722 61.9377 50.7347 63.422 50.7347 63.422C50.7347 63.422 56.5316 74.9221 57.1879 76.1564C57.8441 77.3908 59.391 79.6721 59.141 80.0627C58.891 80.4533 58.0316 81.3752 57.766 81.1095C57.5004 80.8439 51.0629 67.8283 50.5472 67.8283C50.0316 67.8283 49.6879 69.3908 49.891 69.7814C50.0941 70.172 56.8597 81.8908 56.6566 82.0158C56.4535 82.1408 55.0941 82.7345 54.9066 82.2814C54.7191 81.8283 50.0785 72.3908 49.5004 72.1877C48.9222 71.9846 48.8441 72.8439 48.9066 73.297C48.9691 73.7502 53.5941 81.9533 53.0785 82.1564C52.5629 82.3596 51.641 82.547 51.391 82.3439C51.141 82.1408 48.0629 75.7033 47.8129 75.7033C47.5629 75.7033 46.7035 76.8127 46.9535 77.2658C47.9324 78.9478 48.7436 80.7219 49.3754 82.5627C49.0472 82.5627 47.4222 82.5627 47.2972 82.2971C47.1722 82.0314 44.9535 78.5783 44.9535 78.5783C44.9535 78.5783 43.391 78.7814 44.1097 79.6877C44.8285 80.5939 45.8441 82.5627 45.3285 82.5627C43.3961 82.4488 41.4774 82.1665 39.5941 81.7189C39.0634 81.1758 38.7255 80.4736 38.6324 79.72C38.5392 78.9664 38.6959 78.203 39.0785 77.5471C40.0629 76.5002 43.9691 74.2971 42.5941 68.1721C41.2191 62.047 38.5629 61.0783 34.1254 59.4533C32.0207 58.7838 29.7795 58.665 27.6158 59.1081C25.4521 59.5512 23.4381 60.5416 21.766 61.9846C18.641 64.5939 18.3754 70.3908 19.0316 72.9221C19.6879 75.4533 21.891 77.0314 23.7191 78.2658C25.5472 79.5002 27.0316 78.9845 27.6879 80.1564C28.3441 81.3283 28.016 83.0158 24.7504 83.2814C21.4847 83.547 13.4379 83.9689 10.3129 83.1877C7.18786 82.4064 6.46911 81.3127 6.01599 79.547C5.56286 77.7814 6.01599 61.4533 5.87536 59.9533C5.73474 58.4533 7.18786 55.2658 8.81286 55.2658C10.4379 55.2658 11.2816 59.047 12.7191 59.5627C14.0193 59.9658 15.3916 60.081 16.7407 59.9002C18.0899 59.7194 19.3835 59.247 20.5316 58.5158C23.9847 56.5002 25.6097 53.5783 24.891 47.6564C24.1722 41.7345 22.5472 38.4064 20.016 37.0314C18.9502 36.307 17.6655 35.9763 16.3824 36.0961C15.0994 36.2158 13.898 36.7786 12.9847 37.6877C10.7035 39.7033 10.766 42.1877 9.46911 43.0939C8.97602 43.3968 8.42286 43.5887 7.84811 43.6561C7.27336 43.7236 6.69082 43.665 6.14099 43.4845C5.10974 43.3283 4.25036 43.4845 3.79724 40.8752C3.52803 36.1865 3.63776 31.4837 4.12536 26.8127C4.54271 25.9396 5.21276 25.2122 6.04859 24.7246C6.88443 24.237 7.84749 24.0119 8.81286 24.0783C11.5472 24.2814 15.9066 25.4533 20.6566 24.6721C25.4066 23.8908 27.5004 23.2971 28.7972 20.0627C30.0941 16.8283 29.766 15.3752 28.3441 13.5471C26.9222 11.7189 25.3441 10.297 25.4691 8.46892C25.5941 6.6408 28.266 3.2033 33.4222 3.4533C38.5785 3.7033 42.7972 6.00018 41.0941 10.0939C39.391 14.1877 36.4066 18.5627 37.9691 21.7502C39.5316 24.9377 40.8441 25.2033 43.2504 25.4064C45.6566 25.6096 54.0472 24.9377 56.141 25.5939C58.2347 26.2502 58.8754 28.7189 58.7347 32.9533C58.5941 37.1877 56.7816 41.4845 57.891 44.672C59.0004 47.8595 60.766 48.4533 62.5785 48.3752C64.6339 48.267 66.5788 47.4112 68.0472 45.9689C69.6097 44.4064 71.3754 42.6564 73.4535 43.1095C75.5316 43.5627 76.1879 46.0314 76.5785 48.3752C76.9691 50.7189 76.2504 54.0314 75.9379 53.8283ZM5.81286 30.7189C5.48466 33.3513 5.35409 36.0045 5.42224 38.6564C5.42224 39.3127 6.20349 39.3127 6.98474 38.922C7.76599 38.5314 6.98474 35.2814 7.10974 34.2345C7.08137 33.8293 7.1486 33.423 7.30602 33.0485C7.46343 32.6739 7.70662 32.3416 8.01599 32.0783C8.54724 31.7658 9.57849 31.1721 9.18786 30.3908C8.79724 29.6096 6.12536 30.2345 5.81286 30.7189ZM39.0785 10.4064C39.5941 10.0158 39.5941 8.5158 38.6254 7.40642C37.695 6.38428 36.4217 5.7393 35.0472 5.59393C34.9243 5.58981 34.8019 5.61314 34.6891 5.66222C34.5763 5.71131 34.4758 5.78491 34.395 5.87769C34.3142 5.97047 34.2551 6.08008 34.222 6.19857C34.1888 6.31706 34.1825 6.44144 34.2035 6.56267C34.8847 7.08832 35.5998 7.56853 36.3441 8.00017C36.7748 8.29715 37.1209 8.70108 37.3483 9.17227C37.5756 9.64346 37.6765 10.1657 37.641 10.6877C37.7816 10.922 38.5629 10.797 39.0785 10.4064ZM10.4379 78.8283C9.51599 78.1877 10.1722 72.9064 10.2972 72.3283C10.4222 71.7502 8.73474 71.2189 8.34411 71.672C7.95349 72.1252 7.76599 79.0314 8.73474 80.5939C9.70349 82.1564 12.391 81.7658 13.0316 81.7033C13.6722 81.6408 13.7504 80.7814 13.2972 80.1408C12.8441 79.5002 11.3441 79.4377 10.4379 78.8283Z" fill="#67BB25"/>
</svg>
