<svg width="101" height="96" viewBox="0 0 101 96" fill="none" xmlns="http://www.w3.org/2000/svg">
<path d="M19.0914 19.7281C15.6822 20.9711 12.7025 23.2005 10.5172 26.1433C9.7803 27.0736 9.37834 28.2333 9.37834 29.4291C9.37834 30.6248 9.7803 31.7845 10.5172 32.7149C10.7298 32.8481 10.9767 32.9135 11.2261 32.9025C11.4754 32.8915 11.7158 32.8047 11.9164 32.6532C12.1169 32.5017 12.2683 32.2925 12.3511 32.0525C12.434 31.8125 12.4445 31.5528 12.3812 31.3067C12.0303 30.2561 12.3812 28.9373 14.0259 26.5009C15.6705 24.0645 19.1572 22.5892 20.2536 21.874C21.3501 21.1587 23.1263 21.4046 22.6439 20.1305C22.1614 18.8564 21.4159 18.9458 19.0914 19.7281ZM29.5076 30.9043C25.5165 34.5254 28.4111 38.0794 32.0294 38.2359C32.6567 38.3175 33.2941 38.2416 33.8861 38.0149C34.4781 37.7881 35.0068 37.4173 35.4262 36.9348C35.8455 36.4522 36.1429 35.8726 36.2923 35.2462C36.4417 34.6198 36.4387 33.9657 36.2836 33.3407C35.7353 31.4631 32.2925 28.3338 29.5076 30.9043ZM82.1366 46.7521C83.3647 46.4616 84.6585 45.5004 86.7198 41.2311C88.3195 37.9907 89.0101 34.3629 88.7153 30.7478C88.3644 29.2279 86.2812 28.7585 85.6891 30.0549C85.2725 30.9714 85.8207 34.6595 85.2725 37.3194C84.7242 39.9794 81.72 43.1981 80.6236 45.0086C79.5271 46.8192 80.8867 47.0204 82.1366 46.7521ZM49.2435 31.1055C44.4411 33.2066 45.7349 37.6771 48.6953 38.5041C51.6556 39.3312 53.9582 38.9288 54.6599 35.0842C55.3616 31.2396 51.3706 30.122 49.2435 31.0384V31.1055ZM66.7865 31.9325C60.0763 36.2689 66.019 39.3535 68.5627 39.13C71.1065 38.9065 73.2993 38.1465 73.2993 35.2854C73.2175 34.5589 72.962 33.864 72.5553 33.2616C72.1487 32.6592 71.6033 32.1677 70.9669 31.8301C70.3305 31.4925 69.6226 31.3192 68.9053 31.3254C68.1879 31.3316 67.483 31.517 66.8523 31.8655L66.7865 31.9325ZM74.1107 71.8315C77.3342 73.7091 82.334 73.0162 86.2373 70.915C90.1407 68.8139 92.5528 65.5281 89.8775 61.7729C87.2022 58.0177 78.2333 59.5377 78.2333 59.5377C80.0306 58.7044 81.7058 57.6212 83.2112 56.3189C87.5739 53.1643 91.2971 49.1795 94.1755 44.584C95.825 41.3856 96.7195 37.8392 96.7881 34.2265C96.8566 30.6139 96.0972 27.0348 94.5703 23.7739C90.6202 16.1567 84.7551 9.74629 77.5755 5.1991C72.8818 2.32763 67.414 1.05169 61.9622 1.55566C58.4755 1.68978 52.7082 0.169816 45.2305 0.572158C36.7409 0.895432 28.3931 2.89175 20.6483 6.45083C13.0363 9.77798 6.56989 15.3421 2.07466 22.4328C-0.0274333 27.3354 -0.300371 32.8519 1.30716 37.9453C3.50003 44.651 4.26754 47.7356 13.5873 56.0507C22.907 64.3658 35.6476 64.9917 49.0023 64.9917C57.8757 64.8563 66.6876 63.4646 75.1852 60.8565C68.8259 64.0082 70.953 69.8645 74.1765 71.7644L74.1107 71.8315ZM82.4656 63.2258C83.4962 63.5164 83.0138 64.2093 83.9129 64.2093C84.812 64.2093 85.6233 63.7846 86.1058 64.2093C86.5882 64.634 87.268 65.2599 84.9435 66.2434C82.6191 67.2269 79.5271 69.1715 77.4658 68.4786C76.3913 68.0986 74.6589 66.8022 76.3036 65.4611C78.1164 64.094 80.2803 63.2941 82.5314 63.1588L82.4656 63.2258ZM40.8009 60.6553L40.5158 60.4988C30.7794 60.0294 22.2272 57.9283 15.6486 52.7649C9.06995 47.6015 7.14021 43.824 5.16662 36.2018C4.17594 33.1489 4.12388 29.8603 5.01743 26.7763C5.91097 23.6924 7.70746 20.9603 10.1664 18.9458C16.0673 12.9456 23.5078 8.76222 31.6347 6.87553C42.6412 4.27483 54.0665 4.10715 65.1418 6.38377C73.0801 7.90373 77.7509 8.75312 85.6891 18.1858C93.6273 27.6185 92.5528 34.816 91.588 38.5712C90.5618 41.8215 88.9025 44.8272 86.7095 47.4082C84.5165 49.9893 81.8349 52.0925 78.8254 53.592C66.8956 58.855 53.9375 61.2489 40.9544 60.5882L40.8009 60.6553ZM96.2588 74.0667C92.9343 72.5632 89.1651 72.4429 85.7549 73.7314C80.3166 75.4079 81.3691 78.9619 81.9612 80.6383C82.6351 82.2222 83.7245 83.5861 85.1095 84.5798C86.4945 85.5736 88.1216 86.1588 89.8117 86.2711C95.0308 86.964 98.5832 84.7735 99.8112 81.3312C101.039 77.889 99.7893 75.6314 96.3684 74.0891L96.2588 74.0667ZM90.8643 81.8453C85.7988 82.1583 85.426 79.4536 86.0619 78.4031C86.6978 77.3525 89.1758 76.8161 90.2284 76.6596C93.0353 76.302 95.3816 77.4643 95.5132 78.7607C95.6448 80.0572 96.0834 81.5324 91.0178 81.8677L90.8643 81.8453ZM81.2376 86.9864C78.4508 86.1172 75.4664 86.1641 72.7073 87.1205C72.1795 87.2341 71.6881 87.4808 71.2782 87.8381C70.8682 88.1954 70.5528 88.6519 70.3608 89.1657C70.1688 89.6795 70.1063 90.2342 70.1791 90.779C70.2519 91.3237 70.4577 91.8412 70.7775 92.2839C71.6595 93.2484 72.7201 94.0255 73.8981 94.5702C75.0762 95.115 76.3483 95.4167 77.6412 95.4579C80.8209 95.7485 83.562 94.6756 84.0664 92.0604C84.2503 91.5387 84.3214 90.9826 84.2747 90.4304C84.2281 89.8781 84.0648 89.3426 83.7961 88.8606C83.5274 88.3787 83.1596 87.9617 82.718 87.6381C82.2764 87.3146 81.7714 87.0923 81.2376 86.9864ZM79.9218 91.0322C79.4175 92.3957 77.2685 92.2839 75.8869 91.8368C74.5054 91.3898 73.8914 89.6016 77.5755 89.2216C78.8254 89.0651 80.4262 89.691 79.9218 91.0322Z" fill="#3D94F2"/>
</svg>
